<svg width="80" height="80" viewBox="0 0 80 80" fill="none" xmlns="http://www.w3.org/2000/svg">
<circle cx="40" cy="40" r="40" fill="white"/>
<path d="M40.429 30.6592C45.2647 30.6592 49.199 34.5935 49.199 39.4292C49.199 41.4082 48.55 43.2782 47.3232 44.836C47.0811 45.1443 46.8266 45.4395 46.5572 45.7519L46.5424 45.7691C45.7182 46.7253 44.8661 47.7144 44.5478 48.8791C44.4759 49.1459 44.4657 49.6577 44.4698 50.0518V50.7218C44.4698 51.3349 43.9728 51.832 43.3597 51.832H37.5465C36.9334 51.832 36.4364 51.3349 36.4364 50.7218V50.044C36.4401 49.5292 36.4134 49.1535 36.3597 48.9586C36.0397 47.8016 35.0953 46.6907 34.2545 45.7019L34.2183 45.6593C33.9756 45.3742 33.7464 45.1049 33.5377 44.8395C32.3091 43.2809 31.6597 41.41 31.6597 39.4292C31.6598 34.5935 35.5937 30.6592 40.429 30.6592ZM35.2824 43.4662C35.4652 43.6987 35.6807 43.952 35.909 44.2201L35.9537 44.2726C36.9358 45.4278 38.0489 46.737 38.5001 48.3679C38.5639 48.5994 38.6348 48.9458 38.6528 49.6116H42.2516C42.267 48.9045 42.339 48.5419 42.4049 48.2976C42.8564 46.6451 43.9676 45.3557 44.8606 44.3194L44.8755 44.3019C45.1279 44.0093 45.3662 43.7328 45.5781 43.4634C46.4943 42.2999 46.9786 40.9048 46.9786 39.4292C46.9786 35.8177 44.0404 32.8795 40.429 32.8795C36.818 32.8795 33.8802 35.8177 33.8802 39.4292C33.8802 40.9064 34.3648 42.302 35.2824 43.4662Z" fill="#2962FF"/>
<path d="M37.5468 52.147H43.3598C43.9729 52.147 44.47 52.644 44.47 53.2571C44.47 53.8702 43.9729 54.3673 43.3598 54.3673H37.5467C36.9336 54.3673 36.4365 53.8702 36.4365 53.2571C36.4365 52.644 36.9337 52.147 37.5468 52.147Z" fill="#2962FF"/>
<path d="M38.9998 54.6792H41.9062C42.5193 54.6792 43.0164 55.1763 43.0164 55.7894C43.0164 56.4025 42.5193 56.8995 41.9062 56.8995H38.9998C38.3867 56.8995 37.8896 56.4025 37.8896 55.7894C37.8896 55.1763 38.3867 54.6792 38.9998 54.6792Z" fill="#2962FF"/>
<path d="M25.1101 38.3191H28.9399C29.553 38.3191 30.05 38.8161 30.05 39.4293C30.05 40.0424 29.553 40.5394 28.9399 40.5394H25.1101C24.497 40.5394 23.9999 40.0424 23.9999 39.4293C23.9999 38.8161 24.497 38.3191 25.1101 38.3191Z" fill="#2962FF"/>
<path d="M50.8081 39.4293C50.8081 38.8161 51.3052 38.3191 51.9183 38.3191H55.7485C56.3616 38.3191 56.8586 38.8161 56.8586 39.4293C56.8586 40.0424 56.3616 40.5394 55.7485 40.5394H51.9183C51.3052 40.5394 50.8081 40.0424 50.8081 39.4293Z" fill="#2962FF"/>
<path d="M40.4296 29.0513C39.8165 29.0513 39.3195 28.5542 39.3195 27.9411V24.1102C39.3195 23.4971 39.8165 23 40.4296 23C41.0427 23 41.5398 23.4971 41.5398 24.1102V27.9411C41.5398 28.5542 41.0427 29.0513 40.4296 29.0513Z" fill="#2962FF"/>
<path d="M31.521 46.7679C31.9545 46.3343 32.6573 46.3342 33.091 46.7677C33.5246 47.2013 33.5247 47.9041 33.0912 48.3378L30.383 51.0467C30.1661 51.2636 29.882 51.3719 29.5978 51.3719C29.3138 51.3719 29.0297 51.2636 28.8129 51.0469C28.3793 50.6133 28.3792 49.9105 28.8127 49.4768L31.521 46.7679Z" fill="#2962FF"/>
<path d="M49.3391 32.0897C49.1223 32.3066 48.8382 32.4151 48.554 32.4151C48.27 32.4151 47.9859 32.3067 47.7692 32.09C47.3355 31.6565 47.3355 30.9537 47.7689 30.5201L50.4761 27.8119C50.9097 27.3782 51.6125 27.3782 52.046 27.8116C52.4797 28.2451 52.4797 28.948 52.0463 29.3815L49.3391 32.0897Z" fill="#2962FF"/>
<path d="M49.3379 46.7678L52.0462 49.4768C52.4798 49.9103 52.4797 50.6133 52.0461 51.0467C51.8294 51.2634 51.5452 51.3717 51.2611 51.3717C50.9771 51.3717 50.6929 51.2634 50.476 51.0465L47.7677 48.3376C47.3341 47.904 47.3343 47.2011 47.7678 46.7677C48.2014 46.3343 48.9043 46.3343 49.3379 46.7678Z" fill="#2962FF"/>
<path d="M32.3052 32.4149C32.0212 32.4149 31.737 32.3066 31.5201 32.0897L28.8125 29.3816C28.3789 28.9481 28.3791 28.2451 28.8126 27.8117C29.2462 27.3782 29.9492 27.3782 30.3826 27.8119L33.0902 30.5199C33.5237 30.9535 33.5236 31.6564 33.09 32.0899C32.8735 32.3067 32.5894 32.4149 32.3052 32.4149Z" fill="#2962FF"/>
</svg>
