<svg width="80" height="80" viewBox="0 0 80 80" fill="none" xmlns="http://www.w3.org/2000/svg">
<circle cx="40" cy="40" r="40" fill="white"/>
<path d="M53.0817 23C50.976 23 49.2635 24.7125 49.2635 26.8182C49.2635 27.4768 49.4309 28.0966 49.7255 28.6382L43.4707 34.893C42.6084 34.2216 41.5292 33.8182 40.3544 33.8182C39.1797 33.8182 38.1004 34.2216 37.2375 34.8924L32.3573 30.0121C32.5813 29.6335 32.7181 29.1982 32.7181 28.7273C32.7181 27.3235 31.5764 26.1818 30.1726 26.1818C28.7688 26.1818 27.6272 27.3235 27.6272 28.7273C27.6272 30.1311 28.7688 31.2727 30.1726 31.2727C30.6435 31.2727 31.0788 31.1359 31.4574 30.9119L36.3377 35.7922C35.667 36.6551 35.2635 37.7344 35.2635 38.9091C35.2635 40.0838 35.667 41.1631 36.3377 42.0254L28.2788 50.0849C27.6004 49.4695 26.7038 49.0909 25.7181 49.0909C23.6124 49.0909 21.8999 50.8034 21.8999 52.9091C21.8999 55.0148 23.6124 56.7273 25.7181 56.7273C27.8238 56.7273 29.5363 55.0148 29.5363 52.9091C29.5363 52.2505 29.3689 51.6306 29.0743 51.0891L37.2382 42.9252C37.942 43.4725 38.7909 43.839 39.7187 43.9555V50.4209C37.9159 50.7251 36.5369 52.2931 36.5369 54.1818C36.5369 56.2875 38.2494 58 40.3551 58C42.4608 58 44.1733 56.2875 44.1733 54.1818C44.1733 52.2937 42.7943 50.7257 40.9914 50.4209V43.9555C41.9193 43.839 42.7682 43.4725 43.472 42.9252L48.3523 47.8055C48.1276 48.1847 47.9908 48.62 47.9908 49.0909C47.9908 50.4947 49.1324 51.6364 50.5363 51.6364C51.9401 51.6364 53.0817 50.4947 53.0817 49.0909C53.0817 47.6871 51.9401 46.5455 50.5363 46.5455C50.0654 46.5455 49.6301 46.6823 49.2514 46.9063L44.3712 42.026C45.0419 41.1631 45.4454 40.0838 45.4454 38.9091C45.4454 37.7344 45.0419 36.6551 44.3712 35.7928L50.5216 29.6424C51.1994 30.2577 52.096 30.6364 53.0817 30.6364C55.1874 30.6364 56.8999 28.9239 56.8999 26.8182C56.8999 24.7125 55.1874 23 53.0817 23Z" fill="#2962FF"/>
</svg>
