<svg width="164" height="34" viewBox="0 0 164 34" fill="none" xmlns="http://www.w3.org/2000/svg">
<path d="M56.2759 28.702C54.2804 28.702 52.4714 28.2731 50.849 27.4152C49.2451 26.5387 47.977 25.3358 47.0445 23.8066C46.1307 22.2587 45.6738 20.515 45.6738 18.5755C45.6738 16.636 46.1307 14.9017 47.0445 13.3724C47.977 11.8245 49.2451 10.6217 50.849 9.76382C52.4714 8.88731 54.2897 8.44906 56.3038 8.44906C58.0009 8.44906 59.5301 8.74744 60.8915 9.34422C62.2715 9.94099 63.4278 10.7988 64.3603 11.9178L61.451 14.6033C60.1269 13.074 58.4858 12.3094 56.5276 12.3094C55.3154 12.3094 54.2338 12.5798 53.2827 13.1207C52.3316 13.6428 51.5856 14.3795 51.0448 15.3306C50.5226 16.2817 50.2615 17.3633 50.2615 18.5755C50.2615 19.7877 50.5226 20.8694 51.0448 21.8205C51.5856 22.7716 52.3316 23.5175 53.2827 24.0584C54.2338 24.5805 55.3154 24.8416 56.5276 24.8416C58.4858 24.8416 60.1269 24.0677 61.451 22.5198L64.3603 25.2053C63.4278 26.3429 62.2715 27.2101 60.8915 27.8068C59.5115 28.4036 57.9729 28.702 56.2759 28.702Z" fill="white"/>
<path d="M85.2398 28.3663L85.2118 16.6174L79.4492 26.2963H77.4071L71.6725 16.8691V28.3663H67.4205V8.78474H71.169L78.4981 20.9533L85.7153 8.78474H89.4358L89.4918 28.3663H85.2398Z" fill="white"/>
<path d="M103.621 28.702C101.588 28.702 99.751 28.2638 98.1098 27.3872C96.4874 26.5107 95.2099 25.3079 94.2775 23.7786C93.3636 22.2308 92.9067 20.4964 92.9067 18.5755C92.9067 16.6547 93.3636 14.9296 94.2775 13.4004C95.2099 11.8525 96.4874 10.6403 98.1098 9.76382C99.751 8.88731 101.588 8.44906 103.621 8.44906C105.653 8.44906 107.481 8.88731 109.104 9.76382C110.726 10.6403 112.003 11.8525 112.936 13.4004C113.868 14.9296 114.335 16.6547 114.335 18.5755C114.335 20.4964 113.868 22.2308 112.936 23.7786C112.003 25.3079 110.726 26.5107 109.104 27.3872C107.481 28.2638 105.653 28.702 103.621 28.702ZM103.621 24.8416C104.777 24.8416 105.821 24.5805 106.754 24.0584C107.686 23.5175 108.413 22.7716 108.936 21.8205C109.476 20.8694 109.747 19.7877 109.747 18.5755C109.747 17.3633 109.476 16.2817 108.936 15.3306C108.413 14.3795 107.686 13.6428 106.754 13.1207C105.821 12.5798 104.777 12.3094 103.621 12.3094C102.464 12.3094 101.42 12.5798 100.488 13.1207C99.5552 13.6428 98.8185 14.3795 98.2777 15.3306C97.7555 16.2817 97.4944 17.3633 97.4944 18.5755C97.4944 19.7877 97.7555 20.8694 98.2777 21.8205C98.8185 22.7716 99.5552 23.5175 100.488 24.0584C101.42 24.5805 102.464 24.8416 103.621 24.8416Z" fill="white"/>
<path d="M118.441 3.71801H121.63V28.3663H118.441V3.71801Z" fill="white"/>
<path d="M127.719 10.7604H130.908V28.3663H127.719V10.7604ZM129.314 7.37207C128.694 7.37207 128.173 7.17276 127.753 6.77413C127.354 6.37551 127.155 5.8883 127.155 5.31251C127.155 4.73672 127.354 4.24951 127.753 3.85088C128.173 3.43011 128.694 3.21973 129.314 3.21973C129.934 3.21973 130.443 3.41904 130.842 3.81766C131.263 4.19414 131.473 4.67028 131.473 5.24607C131.473 5.84401 131.263 6.35336 130.842 6.77413C130.443 7.17276 129.934 7.37207 129.314 7.37207Z" fill="white"/>
<path d="M142.047 28.5656C140.607 28.5656 139.223 28.3774 137.894 28.0009C136.565 27.6023 135.525 27.104 134.772 26.5061L136.1 23.9814C136.875 24.5351 137.817 24.978 138.924 25.3102C140.031 25.6424 141.15 25.8085 142.279 25.8085C145.069 25.8085 146.465 25.0112 146.465 23.4167C146.465 22.8852 146.276 22.4645 145.9 22.1544C145.523 21.8444 145.047 21.6229 144.471 21.49C143.918 21.335 143.121 21.1689 142.08 20.9918C140.662 20.7703 139.5 20.5156 138.592 20.2277C137.706 19.9398 136.942 19.4526 136.3 18.7661C135.657 18.0796 135.336 17.1162 135.336 15.8761C135.336 14.2816 136.001 13.0082 137.329 12.0559C138.658 11.0815 140.441 10.5943 142.678 10.5943C143.851 10.5943 145.025 10.7382 146.199 11.0261C147.373 11.314 148.336 11.7016 149.089 12.1888L147.727 14.7134C146.287 13.7833 144.593 13.3182 142.644 13.3182C141.294 13.3182 140.264 13.5397 139.555 13.9826C138.846 14.4255 138.492 15.0124 138.492 15.7432C138.492 16.319 138.691 16.773 139.09 17.1052C139.489 17.4374 139.976 17.681 140.552 17.836C141.15 17.991 141.98 18.1682 143.043 18.3675C144.46 18.6111 145.601 18.8768 146.465 19.1647C147.35 19.4305 148.103 19.8955 148.723 20.5599C149.344 21.2243 149.654 22.1544 149.654 23.3503C149.654 24.9448 148.967 26.2182 147.594 27.1704C146.243 28.1006 144.394 28.5656 142.047 28.5656Z" fill="white"/>
<path d="M163.538 27.3365C163.073 27.7352 162.497 28.0452 161.811 28.2667C161.124 28.466 160.416 28.5656 159.685 28.5656C157.913 28.5656 156.54 28.0895 155.566 27.1372C154.591 26.185 154.104 24.823 154.104 23.0513V13.3847H151.114V10.7604H154.104V6.90701H157.293V10.7604H162.342V13.3847H157.293V22.9184C157.293 23.8707 157.526 24.6015 157.991 25.1109C158.478 25.6202 159.164 25.8749 160.05 25.8749C161.025 25.8749 161.855 25.5981 162.542 25.0444L163.538 27.3365Z" fill="white"/>
<circle cx="7.43075" cy="8.21176" r="7.43051" fill="white"/>
<circle cx="26.6628" cy="8.21176" r="7.43051" transform="rotate(90 26.6628 8.21176)" fill="white"/>
<circle cx="26.6628" cy="26.5695" r="7.43051" transform="rotate(-180 26.6628 26.5695)" fill="white"/>
<circle cx="7.43051" cy="26.5695" r="7.43051" transform="rotate(-90 7.43051 26.5695)" fill="white"/>
</svg>
