<svg width="574" height="168" viewBox="0 0 574 168" fill="none" xmlns="http://www.w3.org/2000/svg">
<mask id="mask0" mask-type="alpha" maskUnits="userSpaceOnUse" x="0" y="0" width="574" height="168">
<rect x="0.0107422" y="0.525879" width="573.493" height="167.062" rx="12" fill="white"/>
</mask>
<g mask="url(#mask0)">
<g opacity="0.15">
<path d="M376.53 200.908H349.77L336.422 181.574L336.487 181.466L349.77 162.24H376.53L389.877 181.574L389.812 181.682L376.53 200.908ZM350.095 200.53H376.269L389.356 181.628L376.269 162.726H350.095L337.008 181.628L350.095 200.53Z" fill="#2962FF"/>
<path d="M456.485 200.908H429.724L416.377 181.574L416.442 181.466L429.724 162.24H456.485L469.832 181.574L469.767 181.682L456.485 200.908ZM430.05 200.53H456.224L469.311 181.628L456.224 162.726H430.05L416.963 181.628L430.05 200.53Z" fill="#2962FF"/>
<path d="M536.44 200.908H509.679L496.332 181.574L496.397 181.466L509.679 162.24H536.44L549.787 181.574L549.722 181.682L536.44 200.908ZM509.94 200.53H536.114L549.201 181.628L536.114 162.726H509.94L496.853 181.628L509.94 200.53Z" fill="#2962FF"/>
<path d="M96.6222 181.79H69.9272L56.5796 162.455L69.9272 143.121H96.6873L110.035 162.455L96.6222 181.79ZM70.1876 181.412H96.3618L109.449 162.509L96.3618 143.607H70.1876L57.1005 162.509L70.1876 181.412Z" fill="#2962FF"/>
<path d="M176.577 181.79H149.817L136.469 162.455L149.817 143.121H176.577L189.925 162.455L176.577 181.79ZM150.142 181.412H176.317L189.404 162.509L176.317 143.607H150.142L137.055 162.509L150.142 181.412Z" fill="#2962FF"/>
<path d="M256.531 181.79H229.771L216.423 162.455L229.771 143.121H256.531L269.878 162.455L256.531 181.79ZM230.031 181.412H256.205L269.292 162.509L256.205 143.607H230.031L216.944 162.509L230.031 181.412Z" fill="#2962FF"/>
<path d="M416.508 181.79H389.748L376.4 162.455L376.465 162.347L389.748 143.121H416.508L429.856 162.455L429.79 162.563L416.508 181.79ZM390.073 181.412H416.248L429.335 162.509L416.248 143.607H390.073L376.986 162.509L390.073 181.412Z" fill="#2962FF"/>
<path d="M496.463 181.79H469.703L456.355 162.455L456.421 162.347L469.703 143.121H496.463L509.811 162.455L509.746 162.563L496.463 181.79ZM470.029 181.412H496.203L509.29 162.509L496.203 143.607H470.029L456.941 162.509L470.029 181.412Z" fill="#2962FF"/>
<path d="M574.856 181.41H549.918L536.831 162.508L549.918 143.552H574.856V143.174H549.658L536.31 162.4L536.245 162.508L549.658 181.789H574.856V181.41Z" fill="#2962FF"/>
<path d="M56.7092 124.055H33.1394V124.433H56.3836L69.4707 143.335L56.3836 162.292H33.1394V162.67H56.7092L70.0567 143.335L56.7092 124.055Z" fill="#2962FF"/>
<path d="M136.599 162.671H109.839L96.4911 143.337L109.839 124.002H136.599L149.946 143.337L136.599 162.671ZM110.164 162.293H136.338L149.425 143.391L136.338 124.488H110.164L97.0771 143.391L110.164 162.293Z" fill="#2962FF"/>
<path d="M216.554 162.671H189.794L176.446 143.337L189.794 124.002H216.554L229.901 143.337L216.554 162.671ZM190.054 162.293H216.228L229.315 143.391L216.228 124.488H190.054L176.967 143.391L190.054 162.293Z" fill="#2962FF"/>
<path d="M376.53 162.671H349.77L336.422 143.337L336.487 143.229L349.77 124.002H376.53L389.877 143.337L389.812 143.445L376.53 162.671ZM350.095 162.293H376.269L389.356 143.391L376.269 124.488H350.095L337.008 143.391L350.095 162.293Z" fill="#2962FF"/>
<path d="M456.485 162.671H429.724L416.377 143.337L416.442 143.229L429.724 124.002H456.485L469.832 143.337L469.767 143.445L456.485 162.671ZM430.05 162.293H456.224L469.311 143.391L456.224 124.488H430.05L416.963 143.391L430.05 162.293Z" fill="#2962FF"/>
<path d="M536.44 162.671H509.679L496.332 143.337L496.397 143.229L509.679 124.002H536.44L549.787 143.337L549.722 143.445L536.44 162.671ZM509.94 162.293H536.114L549.201 143.391L536.114 124.488H509.94L496.853 143.391L509.94 162.293Z" fill="#2962FF"/>
<path d="M96.6222 143.553H69.9272L56.5796 124.218L69.9272 104.884H96.6873L110.035 124.218L96.6222 143.553ZM70.1876 143.12H96.3618L109.449 124.218L96.3618 105.316H70.1876L57.1005 124.218L70.1876 143.12Z" fill="#2962FF"/>
<path d="M176.577 143.553H149.817L136.469 124.218L149.817 104.884H176.577L189.925 124.218L176.577 143.553ZM150.142 143.12H176.317L189.404 124.218L176.317 105.316H150.142L137.055 124.218L150.142 143.12Z" fill="#2962FF"/>
<path d="M256.531 143.553H229.771L216.423 124.218L229.771 104.884H256.531L269.878 124.218L256.531 143.553ZM230.031 143.12H256.205L269.292 124.218L256.205 105.316H230.031L216.944 124.218L230.031 143.12Z" fill="#2962FF"/>
<path d="M416.508 143.553H389.748L376.4 124.218L376.465 124.11L389.748 104.884H416.508L429.856 124.218L429.79 124.326L416.508 143.553ZM390.073 143.12H416.248L429.335 124.218L416.248 105.316H390.073L376.986 124.218L390.073 143.12Z" fill="#2962FF"/>
<path d="M496.463 143.553H469.703L456.355 124.218L456.421 124.11L469.703 104.884H496.463L509.811 124.218L509.746 124.326L496.463 143.553ZM470.029 143.12H496.203L509.29 124.218L496.203 105.316H470.029L456.941 124.218L470.029 143.12Z" fill="#2962FF"/>
<path d="M574.856 143.119H549.918L536.831 124.217L549.918 105.314H574.856V104.936H549.658L536.31 124.109L536.245 124.217L549.658 143.551H574.856V143.119Z" fill="#2962FF"/>
<path d="M56.7092 85.8204H33.1394V86.1984H56.3836L69.4707 105.101L56.3836 124.003H33.1394V124.435H56.7092L70.0567 105.101L56.7092 85.8204Z" fill="#2962FF"/>
<path d="M136.599 124.434H109.839L96.4911 105.099L109.839 85.765H136.599L149.946 105.099L136.599 124.434ZM110.164 124.002H136.338L149.425 105.099L136.338 86.1971H110.164L97.0771 105.099L110.164 124.002Z" fill="#2962FF"/>
<path d="M216.554 124.434H189.794L176.446 105.099L189.794 85.765H216.554L229.901 105.099L216.554 124.434ZM190.054 124.002H216.228L229.315 105.099L216.228 86.1971H190.054L176.967 105.099L190.054 124.002Z" fill="#2962FF"/>
<path d="M376.53 124.434H349.77L336.422 105.099L336.487 104.991L349.77 85.765H376.53L389.877 105.099L389.812 105.207L376.53 124.434ZM350.095 124.002H376.269L389.356 105.099L376.269 86.1971H350.095L337.008 105.099L350.095 124.002Z" fill="#2962FF"/>
<path d="M456.485 124.434H429.724L416.377 105.099L416.442 104.991L429.724 85.765H456.485L469.832 105.099L469.767 105.207L456.485 124.434ZM430.05 124.002H456.224L469.311 105.099L456.224 86.1971H430.05L416.963 105.099L430.05 124.002Z" fill="#2962FF"/>
<path d="M430.39 85.8552H403.63L389.547 66.8648L389.612 66.7568L403.63 47.1863H430.39L443.737 66.5208L443.672 66.6288L430.39 85.8552ZM403.955 85.4232H430.129L443.216 66.5208L430.129 47.6184H403.955L390.133 66.8648L403.955 85.4232Z" fill="#2962FF"/>
<path d="M536.44 124.434H509.679L496.332 105.099L496.397 104.991L509.679 85.765H536.44L549.787 105.099L549.722 105.207L536.44 124.434ZM509.94 124.002H536.114L549.201 105.099L536.114 86.1971H509.94L496.853 105.099L509.94 124.002Z" fill="#2962FF"/>
<path d="M96.6222 105.315H69.9272L56.5796 85.9808L69.9272 66.6464H96.6873L110.035 85.9808L96.6222 105.315ZM70.1876 104.883H96.3618L109.449 85.9808L96.3618 67.0784H70.1876L57.1005 85.9808L70.1876 104.883Z" fill="#2962FF"/>
<path d="M176.577 105.315H149.817L136.469 85.9808L149.817 66.6464H176.577L189.925 85.9808L176.577 105.315ZM150.142 104.883H176.317L189.404 85.9808L176.317 67.0784H150.142L137.055 85.9808L150.142 104.883Z" fill="#2962FF"/>
<path d="M256.531 105.315H229.771L216.423 85.9808L229.771 66.6464H256.531L269.878 85.9808L256.531 105.315ZM230.031 104.883H256.205L269.292 85.9808L256.205 67.0784H230.031L216.944 85.9808L230.031 104.883Z" fill="#2962FF"/>
<path d="M416.508 105.315H389.748L376.4 85.9808L376.465 85.8728L389.748 66.6464H416.508L429.856 85.9808L429.79 86.0888L416.508 105.315ZM390.073 104.883H416.248L429.335 85.9808L416.248 67.0784H390.073L376.986 85.9808L390.073 104.883Z" fill="#2962FF"/>
<path d="M496.463 105.315H469.703L456.355 85.9808L456.421 85.8728L469.703 66.6464H496.463L509.811 85.9808L509.746 86.0888L496.463 105.315ZM470.029 104.883H496.203L509.29 85.9808L496.203 67.0784H470.029L456.941 85.9808L470.029 104.883Z" fill="#2962FF"/>
<path d="M574.856 104.885H549.918L536.831 85.9822L549.918 67.0798H574.856V66.7018H549.658L536.31 85.8742L536.245 85.9822L549.658 105.317H574.856V104.885Z" fill="#2962FF"/>
<path d="M56.7092 47.5277H33.1394V47.9598H56.3836L69.4707 66.8622L56.3836 85.7646H33.1394V86.1966H56.7092L70.0567 66.8622L56.7092 47.5277Z" fill="#2962FF"/>
<path d="M136.599 86.1966H109.839L96.4911 66.8622L109.839 47.5277H136.599L149.946 66.8622L136.599 86.1966ZM110.164 85.7646H136.338L149.425 66.8622L136.338 47.9598H110.164L97.0771 66.8622L110.164 85.7646Z" fill="#2962FF"/>
<path d="M216.554 86.1966H189.794L176.446 66.8622L189.794 47.5277H216.554L229.901 66.8622L216.554 86.1966ZM190.054 85.7646H216.228L229.315 66.8622L216.228 47.9598H190.054L176.967 66.8622L190.054 85.7646Z" fill="#2962FF"/>
<path d="M376.53 86.1966H349.77L336.422 66.8622L336.487 66.7542L349.77 47.5277H376.53L389.877 66.8622L389.812 66.9702L376.53 86.1966ZM350.095 85.7646H376.269L389.356 66.8622L376.269 47.9598H350.095L337.008 66.8622L350.095 85.7646Z" fill="#2962FF"/>
<path d="M536.44 86.1966H509.679L496.332 66.8622L496.397 66.7542L509.679 47.5277H536.44L549.787 66.8622L549.722 66.9702L536.44 86.1966ZM509.94 85.7646H536.114L549.201 66.8622L536.114 47.9598H509.94L496.853 66.8622L509.94 85.7646Z" fill="#2962FF"/>
<path d="M256.531 67.078H229.771L216.423 47.7436L229.771 28.4091H256.531L269.878 47.7436L256.531 67.078ZM230.031 66.646H256.205L269.292 47.7436L256.205 28.8412H230.031L216.944 47.7436L230.031 66.646Z" fill="#2962FF"/>
<path d="M309.596 67.078H282.836L269.489 47.7436L282.836 28.4091H309.596L322.944 47.7436L309.596 67.078ZM283.097 66.646H309.271L322.358 47.7436L309.271 28.8412H283.097L270.01 47.7436L283.097 66.646Z" fill="#2962FF"/>
<path d="M363.909 67.078H337.149L323.801 47.7436L337.149 28.4091H363.909L377.256 47.7436L363.909 67.078ZM337.409 66.646H363.583L376.67 47.7436L363.583 28.8412H337.409L324.322 47.7436L337.409 66.646Z" fill="#2962FF"/>
<path d="M309.596 105.263H282.836L269.489 85.9281L282.836 66.5937H309.596L322.944 85.9281L309.596 105.263ZM283.097 104.83H309.271L322.358 85.9281L309.271 67.0257H283.097L270.01 85.9281L283.097 104.83Z" fill="#2962FF"/>
<path d="M309.596 143.447H282.836L269.489 124.113L282.836 104.778H309.596L322.944 124.113L309.596 143.447ZM283.097 143.015H309.271L322.358 124.113L309.271 105.21H283.097L270.01 124.113L283.097 143.015Z" fill="#2962FF"/>
<path d="M309.596 181.632H282.836L269.489 162.297L282.836 142.963H309.596L322.944 162.297L309.596 181.632ZM283.097 181.2H309.271L322.358 162.297L309.271 143.395H283.097L270.01 162.297L283.097 181.2Z" fill="#2962FF"/>
<path d="M574.856 66.646H549.918L536.831 47.7436L549.918 28.8412H574.856V28.4091H549.658L536.31 47.6355L536.245 47.7436L549.658 67.078H574.856V66.646Z" fill="#2962FF"/>
<path d="M56.7092 9.29053H33.1394V9.72258H56.3836L69.4707 28.625L56.3836 47.5274H33.1394V47.9594H56.7092L70.0567 28.625L56.7092 9.29053Z" fill="#2962FF"/>
<path d="M376.53 47.9594H349.77L336.422 28.625L336.487 28.517L349.77 9.29053H376.53L389.877 28.625L389.812 28.733L376.53 47.9594ZM350.095 47.5274H376.269L389.356 28.625L376.269 9.72258H350.095L337.008 28.625L350.095 47.5274Z" fill="#2962FF"/>
<path d="M536.44 47.9594H509.679L496.332 28.625L496.397 28.517L509.679 9.29053H536.44L549.787 28.625L549.722 28.733L536.44 47.9594ZM509.94 47.5274H536.114L549.201 28.625L536.114 9.72258H509.94L496.853 28.625L509.94 47.5274Z" fill="#2962FF"/>
<path d="M256.531 28.788H229.771L216.423 9.45358L229.771 -9.88086H256.531L269.878 9.45358L256.531 28.788ZM230.031 28.41H256.205L269.292 9.50759L256.205 -9.3948H230.031L216.944 9.50759L230.031 28.41Z" fill="#2962FF"/>
<path d="M574.856 28.4087H549.918L536.831 9.50632L549.918 -9.39607H574.856V-9.82812H549.658L536.31 9.3983L536.245 9.50632L549.658 28.7867H574.856V28.4087Z" fill="#2962FF"/>
<path d="M69.8615 -9.88086H69.3406L69.4708 -9.61083L56.3838 9.29156H33.1396V9.66961H56.7093L70.0568 -9.61083L69.8615 -9.88086Z" fill="#2962FF"/>
<path d="M389.161 -9.88086L389.356 -9.61083L376.269 9.29156H350.095L337.008 -9.61083L337.203 -9.88086H336.617L336.552 -9.71884L336.487 -9.61083L349.835 9.66961H376.53L389.877 -9.50281L389.942 -9.61083L389.747 -9.88086H389.161Z" fill="#2962FF"/>
<path d="M549.071 -9.88086L549.201 -9.61083L536.114 9.29156H509.94L496.853 -9.61083L497.048 -9.88086H496.462L496.397 -9.71884L496.332 -9.61083L509.679 9.66961H536.44L549.722 -9.50281L549.787 -9.61083L549.592 -9.88086H549.071Z" fill="#2962FF"/>
<path opacity="0.741" d="M403.486 200.853H376.726L363.378 181.519L363.443 181.411L376.726 162.184H403.486L416.834 181.519L416.768 181.627L403.486 200.853ZM377.051 200.475H403.226L416.313 181.573L403.226 162.67H377.051L363.964 181.573L377.051 200.475Z" fill="#2962FF"/>
<path opacity="0.984" d="M483.441 200.853H456.681L443.333 181.519L443.398 181.411L456.681 162.184H483.441L496.789 181.519L496.723 181.627L483.441 200.853ZM456.941 200.475H483.115L496.203 181.573L483.115 162.67H456.941L443.854 181.573L456.941 200.475Z" fill="#2962FF"/>
<path opacity="0.41" d="M574.855 183.41L563.071 200.476H536.896L523.809 181.52L536.896 162.618H563.071L574.855 179.684V178.874L563.331 162.24H536.636L523.288 181.466L523.223 181.52L536.636 200.854H563.331L574.855 184.22V183.41Z" fill="#2962FF"/>
<path opacity="0.953" d="M43.6221 143.121H33.1394V143.499H43.3617L56.4487 162.401L43.3617 181.304H33.1394V181.736H43.6221L57.0347 162.401L43.6221 143.121Z" fill="#2962FF"/>
<path opacity="0.948" d="M123.577 181.734H96.8167L83.4692 162.4L96.8167 143.066H123.577L136.924 162.4L123.577 181.734ZM97.1423 181.302H123.316L136.404 162.4L123.316 143.498H97.1423L84.0552 162.4L97.1423 181.302Z" fill="#2962FF"/>
<path opacity="0.529" d="M203.467 181.734H176.707L163.359 162.4L176.707 143.066H203.467L216.814 162.4L203.467 181.734ZM177.032 181.302H203.206L216.293 162.4L203.206 143.498H177.032L163.945 162.4L177.032 181.302Z" fill="#2962FF"/>
<path opacity="0.943" d="M283.422 181.734H256.662L243.314 162.4L256.662 143.066H283.422L296.769 162.4L283.422 181.734ZM256.987 181.302H283.161L296.248 162.4L283.161 143.498H256.987L243.9 162.4L256.987 181.302Z" fill="#2962FF"/>
<path d="M363.508 181.734H336.748L323.4 162.4L323.465 162.292L336.748 143.066H363.508L376.855 162.4L376.79 162.508L363.508 181.734ZM337.073 181.302H363.247L376.334 162.4L363.247 143.498H337.073L323.986 162.4L337.073 181.302Z" fill="#2962FF"/>
<path opacity="0.239" d="M443.463 181.734H416.702L403.355 162.4L403.42 162.292L416.702 143.066H443.463L456.81 162.4L456.745 162.508L443.463 181.734ZM416.963 181.302H443.137L456.224 162.4L443.137 143.498H416.963L403.876 162.4L416.963 181.302Z" fill="#2962FF"/>
<path opacity="0.976" d="M523.353 181.734H496.593L483.245 162.4L483.31 162.292L496.593 143.066H523.353L536.7 162.4L536.635 162.508L523.353 181.734ZM496.918 181.302H523.092L536.179 162.4L523.092 143.498H496.918L483.831 162.4L496.918 181.302Z" fill="#2962FF"/>
<path opacity="0.499" d="M83.6 162.616H56.8399L43.4924 143.281L56.8399 123.947H83.6L96.9476 143.281L83.6 162.616ZM57.1654 162.184H83.3396L96.4267 143.281L83.3396 124.379H57.1654L44.0784 143.281L57.1654 162.184Z" fill="#2962FF"/>
<path opacity="0.285" d="M163.555 162.616H136.795L123.448 143.281L136.795 123.947H163.555L176.903 143.281L163.555 162.616ZM137.056 162.184H163.23L176.317 143.281L163.23 124.379H137.056L123.968 143.281L137.056 162.184Z" fill="#2962FF"/>
<path opacity="0.456" d="M243.444 162.616H216.749L203.401 143.281L216.749 123.947H243.509L256.856 143.281L243.444 162.616ZM217.009 162.184H243.183L256.27 143.281L243.183 124.379H217.009L203.922 143.281L217.009 162.184Z" fill="#2962FF"/>
<path opacity="0.743" d="M403.486 162.616H376.726L363.378 143.281L363.443 143.173L376.726 123.947H403.486L416.834 143.281L416.768 143.389L403.486 162.616ZM377.051 162.184H403.226L416.313 143.281L403.226 124.379H377.051L363.964 143.281L377.051 162.184Z" fill="#2962FF"/>
<path opacity="0.64" d="M483.441 162.616H456.681L443.333 143.281L443.398 143.173L456.681 123.947H483.441L496.789 143.281L496.723 143.389L483.441 162.616ZM456.941 162.184H483.115L496.203 143.281L483.115 124.379H456.941L443.854 143.281L456.941 162.184Z" fill="#2962FF"/>
<path opacity="0.635" d="M574.855 145.173L563.071 162.185H536.896L523.809 143.283L536.896 124.38H563.071L574.855 141.446V140.636L563.331 124.002H536.636L523.288 143.175L523.223 143.283L536.636 162.617H563.331L574.855 145.983V145.173Z" fill="#2962FF"/>
<path opacity="0.397" d="M43.6221 104.884H33.1394V105.262H43.3617L56.4487 124.164L43.3617 143.066H33.1394V143.499H43.6221L57.0347 124.164L43.6221 104.884Z" fill="#2962FF"/>
<path opacity="0.226" d="M123.577 143.5H96.8167L83.4692 124.165L96.8167 104.831H123.577L136.924 124.165L123.577 143.5ZM97.1423 143.068H123.316L136.404 124.165L123.316 105.263H97.1423L84.0552 124.165L97.1423 143.068Z" fill="#2962FF"/>
<path opacity="0.56" d="M203.467 143.5H176.707L163.359 124.165L176.707 104.831H203.467L216.814 124.165L203.467 143.5ZM177.032 143.068H203.206L216.293 124.165L203.206 105.263H177.032L163.945 124.165L177.032 143.068Z" fill="#2962FF"/>
<path opacity="0.823" d="M443.463 143.5H416.702L403.355 124.165L403.42 124.057L416.702 104.831H443.463L456.81 124.165L456.745 124.273L443.463 143.5ZM416.963 143.068H443.137L456.224 124.165L443.137 105.263H416.963L403.876 124.165L416.963 143.068Z" fill="#2962FF"/>
<path opacity="0.657" d="M523.353 143.5H496.593L483.245 124.165L483.31 124.057L496.593 104.831H523.353L536.7 124.165L536.635 124.273L523.353 143.5ZM496.918 143.068H523.092L536.179 124.165L523.092 105.263H496.918L483.831 124.165L496.918 143.068Z" fill="#2962FF"/>
<path opacity="0.225" d="M83.6 124.381H56.8399L43.4924 105.047L56.8399 85.7123H83.6L96.9476 105.047L83.6 124.381ZM57.1654 123.949H83.3396L96.4267 105.047L83.3396 86.1443H57.1654L44.0784 105.047L57.1654 123.949Z" fill="#2962FF"/>
<path opacity="0.92" d="M163.555 124.381H136.795L123.448 105.047L136.795 85.7123H163.555L176.903 105.047L163.555 124.381ZM137.056 123.949H163.23L176.317 105.047L163.23 86.1443H137.056L123.968 105.047L137.056 123.949Z" fill="#2962FF"/>
<path opacity="0.47" d="M243.444 124.381H216.749L203.401 105.047L216.749 85.7123H243.509L256.856 105.047L243.444 124.381ZM217.009 123.949H243.183L256.27 105.047L243.183 86.1443H217.009L203.922 105.047L217.009 123.949Z" fill="#2962FF"/>
<path opacity="0.6" d="M323.399 124.381H296.638L283.291 105.047L296.638 85.7123H323.399L336.746 105.047L323.399 124.381ZM296.964 123.949H323.138L336.225 105.047L323.138 86.1443H296.964L283.877 105.047L296.964 123.949Z" fill="#2962FF"/>
<path opacity="0.458" d="M323.399 162.616H296.638L283.291 143.281L296.638 123.947H323.399L336.746 143.281L323.399 162.616ZM296.964 162.184H323.138L336.225 143.281L323.138 124.379H296.964L283.877 143.281L296.964 162.184Z" fill="#2962FF"/>
<path opacity="0.6" d="M349.399 162.616H322.639L309.291 143.281L322.639 123.947H349.399L362.746 143.281L349.399 162.616ZM322.964 162.184H349.138L362.225 143.281L349.138 124.379H322.964L309.877 143.281L322.964 162.184Z" fill="#2962FF"/>
<path opacity="0.907" d="M403.486 124.381H376.726L363.378 105.047L363.443 104.939L376.726 85.7123H403.486L416.834 105.047L416.768 105.155L403.486 124.381ZM377.051 123.949H403.226L416.313 105.047L403.226 86.1443H377.051L363.964 105.047L377.051 123.949Z" fill="#2962FF"/>
<path opacity="0.326" d="M483.441 124.381H456.681L443.333 105.047L443.398 104.939L456.681 85.7123H483.441L496.789 105.047L496.723 105.155L483.441 124.381ZM456.941 123.949H483.115L496.203 105.047L483.115 86.1443H456.941L443.854 105.047L456.941 123.949Z" fill="#2962FF"/>
<path opacity="0.827" d="M574.855 106.936L563.071 123.948H536.896L523.809 105.045L536.896 86.1431H563.071L574.855 103.209V102.399L563.331 85.765H536.636L523.288 104.937L523.223 105.045L536.636 124.38H563.331L574.855 107.746V106.936Z" fill="#2962FF"/>
<path opacity="0.656" d="M43.6221 66.5937H33.1394V67.0257H43.3617L56.4487 85.9281L43.3617 104.83H33.1394V105.263H43.6221L57.0347 85.9281L43.6221 66.5937Z" fill="#2962FF"/>
<path opacity="0.885" d="M123.577 105.263H96.8167L83.4692 85.9281L96.8167 66.5937H123.577L136.924 85.9281L123.577 105.263ZM97.1423 104.83H123.316L136.404 85.9281L123.316 67.0257H97.1423L84.0552 85.9281L97.1423 104.83Z" fill="#2962FF"/>
<path opacity="0.735" d="M203.467 105.263H176.707L163.359 85.9281L176.707 66.5937H203.467L216.814 85.9281L203.467 105.263ZM177.032 104.83H203.206L216.293 85.9281L203.206 67.0257H177.032L163.945 85.9281L177.032 104.83Z" fill="#2962FF"/>
<path opacity="0.35" d="M283.422 105.263H256.662L243.314 85.9281L256.662 66.5937H283.422L296.769 85.9281L283.422 105.263ZM256.987 104.83H283.161L296.248 85.9281L283.161 67.0257H256.987L243.9 85.9281L256.987 104.83Z" fill="#2962FF"/>
<path opacity="0.933" d="M363.508 105.263H336.748L323.4 85.9281L323.465 85.8201L336.748 66.5937H363.508L376.855 85.9281L376.79 86.0361L363.508 105.263ZM337.073 104.83H363.247L376.334 85.9281L363.247 67.0257H337.073L323.986 85.9281L337.073 104.83Z" fill="#2962FF"/>
<path opacity="0.878" d="M443.463 105.263H416.702L403.355 85.9281L403.42 85.8201L416.702 66.5937H443.463L456.81 85.9281L456.745 86.0361L443.463 105.263ZM416.963 104.83H443.137L456.224 85.9281L443.137 67.0257H416.963L403.876 85.9281L416.963 104.83Z" fill="#2962FF"/>
<path opacity="0.366" d="M523.353 105.263H496.593L483.245 85.9281L483.31 85.8201L496.593 66.5937H523.353L536.7 85.9281L536.635 86.0361L523.353 105.263ZM496.918 104.83H523.092L536.179 85.9281L523.092 67.0257H496.918L483.831 85.9281L496.918 104.83Z" fill="#2962FF"/>
<path opacity="0.818" d="M83.6 86.1439H56.8399L43.4924 66.8094L56.8399 47.475H83.6L96.9476 66.8094L83.6 86.1439ZM57.1654 85.7118H83.3396L96.4267 66.8094L83.3396 47.9071H57.1654L44.0784 66.8094L57.1654 85.7118Z" fill="#2962FF"/>
<path opacity="0.824" d="M163.555 86.1439H136.795L123.448 66.8094L136.795 47.475H163.555L176.903 66.8094L163.555 86.1439ZM137.056 85.7118H163.23L176.317 66.8094L163.23 47.9071H137.056L123.968 66.8094L137.056 85.7118Z" fill="#2962FF"/>
<path opacity="0.749" d="M243.444 86.1439H216.749L203.401 66.8094L216.749 47.475H243.509L256.856 66.8094L243.444 86.1439ZM217.009 85.7118H243.183L256.27 66.8094L243.183 47.9071H217.009L203.922 66.8094L217.009 85.7118Z" fill="#2962FF"/>
<path opacity="0.815" d="M403.486 86.1439H376.726L363.378 66.8094L363.443 66.7014L376.726 47.475H403.486L416.834 66.8094L416.768 66.9175L403.486 86.1439ZM377.051 85.7118H403.226L416.313 66.8094L403.226 47.9071H377.051L363.964 66.8094L377.051 85.7118Z" fill="#2962FF"/>
<path opacity="0.815" d="M470.19 66.7018H443.43L430.083 47.3673L430.148 47.2593L443.43 28.0329H470.19L483.538 47.3673L483.473 47.4753L470.19 66.7018ZM443.756 66.2697H469.93L483.017 47.3673L469.93 28.4649H443.756L430.669 47.3673L443.756 66.2697Z" fill="#2962FF"/>
<path opacity="0.586" d="M483.441 86.1439H456.681L443.333 66.8094L443.398 66.7014L456.681 47.475H483.441L496.789 66.8094L496.723 66.9175L483.441 86.1439ZM456.941 85.7118H483.115L496.203 66.8094L483.115 47.9071H456.941L443.854 66.8094L456.941 85.7118Z" fill="#2962FF"/>
<path opacity="0.521" d="M574.855 68.6457L563.071 85.7118H536.896L523.809 66.8094L536.896 47.9071H563.071L574.855 64.9732V64.1091L563.331 47.475H536.636L523.288 66.7014L523.223 66.8094L536.636 86.1439H563.331L574.855 69.4558V68.6457Z" fill="#2962FF"/>
<path opacity="0.615" d="M43.6221 28.3564H33.1394V28.7884H43.3617L56.4487 47.6908L43.3617 66.5932H33.1394V66.9713H43.6221L57.0347 47.6908L43.6221 28.3564Z" fill="#2962FF"/>
<path opacity="0.977" d="M123.577 66.9699H96.8167L83.4692 47.6355L96.8167 28.301H123.577L136.924 47.6355L123.577 66.9699ZM97.1423 66.5919H123.316L136.404 47.6895L123.316 28.7871H97.1423L84.0552 47.6895L97.1423 66.5919Z" fill="#2962FF"/>
<path opacity="0.637" d="M203.467 66.9699H176.707L163.359 47.6355L176.707 28.301H203.467L216.814 47.6355L203.467 66.9699ZM177.032 66.5919H203.206L216.293 47.6895L203.206 28.7871H177.032L163.945 47.6895L177.032 66.5919Z" fill="#2962FF"/>
<path opacity="0.4" d="M283.422 66.9699H256.662L243.314 47.6355L256.662 28.301H283.422L296.769 47.6355L283.422 66.9699ZM256.987 66.5919H283.161L296.248 47.6895L283.161 28.7871H256.987L243.9 47.6895L256.987 66.5919Z" fill="#2962FF"/>
<path opacity="0.312" d="M443.463 66.9699H416.702L403.355 47.6355L403.42 47.5275L416.702 28.301H443.463L456.81 47.6355L456.745 47.7435L443.463 66.9699ZM416.963 66.5919H443.137L456.224 47.6895L443.137 28.7871H416.963L403.876 47.6895L416.963 66.5919Z" fill="#2962FF"/>
<path opacity="0.7" d="M523.353 66.9699H496.593L483.245 47.6355L483.31 47.5275L496.593 28.301H523.353L536.7 47.6355L536.635 47.7435L523.353 66.9699ZM496.918 66.5919H523.092L536.179 47.6895L523.092 28.7871H496.918L483.831 47.6895L496.918 66.5919Z" fill="#2962FF"/>
<path opacity="0.559" d="M83.6 47.8526H56.8399L43.4924 28.5722L56.8399 9.23776H83.6L96.9476 28.5722L83.6 47.8526ZM57.1654 47.4746H83.3396L96.4267 28.5722L83.3396 9.66982H57.1654L44.0784 28.5722L57.1654 47.4746Z" fill="#2962FF"/>
<path opacity="0.513" d="M163.555 47.8513H136.795L123.448 28.5168L136.795 9.1824H163.555L176.903 28.5168L163.555 47.8513ZM137.056 47.4732H163.23L176.317 28.5709L163.23 9.66846H137.056L123.968 28.5709L137.056 47.4732Z" fill="#2962FF"/>
<path opacity="0.889" d="M243.444 47.8513H216.749L203.401 28.5168L216.749 9.1824H243.509L256.856 28.5168L243.444 47.8513ZM217.009 47.4732H243.183L256.27 28.5709L243.183 9.66846H217.009L203.922 28.5709L217.009 47.4732Z" fill="#2962FF"/>
<path opacity="0.292" d="M323.399 47.8513H296.638L283.291 28.5168L296.638 9.1824H323.399L336.746 28.5168L323.399 47.8513ZM296.964 47.4732H323.138L336.225 28.5709L323.138 9.66846H296.964L283.877 28.5709L296.964 47.4732Z" fill="#2962FF"/>
<path opacity="0.996" d="M403.486 47.8513H376.726L363.378 28.5168L363.443 28.4088L376.726 9.1824H403.486L416.834 28.5168L416.768 28.6249L403.486 47.8513ZM377.051 47.4732H403.226L416.313 28.5709L403.226 9.66846H377.051L363.964 28.5709L377.051 47.4732Z" fill="#2962FF"/>
<path opacity="0.363" d="M483.441 47.8526H456.681L443.333 28.5722L443.398 28.4642L456.681 9.23776H483.441L496.789 28.5722L496.723 28.6802L483.441 47.8526ZM456.941 47.4746H483.115L496.203 28.5722L483.115 9.66982H456.941L443.854 28.5722L456.941 47.4746Z" fill="#2962FF"/>
<path opacity="0.46" d="M574.855 30.4084L563.071 47.4746H536.896L523.809 28.5722L536.896 9.66982H563.071L574.855 26.682V25.8719L563.331 9.23776H536.636L523.288 28.4642L523.223 28.5722L536.636 47.8526H563.331L574.855 31.2185V30.4084Z" fill="#2962FF"/>
<path opacity="0.467" d="M43.6222 -9.88086H33.1396V-9.4488H43.3618L56.4489 9.45358L43.3618 28.356H33.1396V28.734H43.6222L57.0349 9.45358L43.6222 -9.88086Z" fill="#2962FF"/>
<path opacity="0.6" d="M123.577 28.734H96.8167L83.4692 9.45358L96.8167 -9.88086H123.577L136.924 9.45358L123.577 28.734ZM97.1423 28.356H123.316L136.404 9.45358L123.316 -9.4488H97.1423L84.0552 9.45358L97.1423 28.356Z" fill="#2962FF"/>
<path opacity="0.488" d="M203.467 28.734H176.707L163.359 9.39957L176.772 -9.88086H203.532L216.879 9.45358L203.467 28.734ZM177.032 28.356H203.206L216.293 9.45358L203.206 -9.4488H177.032L163.945 9.45358L177.032 28.356Z" fill="#2962FF"/>
<path opacity="0.583" d="M283.422 28.734H256.662L243.314 9.39957L256.662 -9.88086H283.422L296.769 9.45358L283.422 28.734ZM256.987 28.356H283.161L296.248 9.45358L283.161 -9.4488H256.987L243.9 9.45358L256.987 28.356Z" fill="#2962FF"/>
<path opacity="0.563" d="M363.508 28.734H336.748L323.4 9.39957L323.465 9.29156L336.813 -9.88086H363.573L376.92 9.45358L376.79 9.5616L363.508 28.734ZM337.073 28.356H363.247L376.334 9.45358L363.247 -9.4488H337.073L323.986 9.45358L337.073 28.356Z" fill="#2962FF"/>
<path opacity="0.446" d="M443.463 28.734H416.702L403.355 9.39957L403.42 9.29156L416.702 -9.88086H443.463L456.81 9.45358L456.745 9.5616L443.463 28.734ZM416.963 28.356H443.137L456.224 9.45358L443.137 -9.4488H416.963L403.876 9.45358L416.963 28.356Z" fill="#2962FF"/>
<path opacity="0.889" d="M523.353 28.734H496.593L483.245 9.39957L483.31 9.29156L496.658 -9.88086H523.418L536.765 9.45358L536.7 9.5616L523.353 28.734ZM496.918 28.356H523.092L536.179 9.45358L523.092 -9.4488H496.918L483.831 9.45358L496.918 28.356Z" fill="#2962FF"/>
<path opacity="0.619" d="M96.2965 -9.88086L96.4267 -9.66483L83.3396 9.23755H57.1654L44.0784 -9.66483L44.2086 -9.88086H43.6226L43.4924 -9.66483L56.8399 9.6156H83.6L96.9476 -9.66483L96.8173 -9.88086H96.2965Z" fill="#2962FF"/>
<path opacity="0.6" d="M176.187 -9.88086L176.317 -9.66483L163.23 9.23755H137.056L123.968 -9.66483L124.164 -9.88086H123.578L123.448 -9.66483L136.795 9.6156H163.555L176.903 -9.66483L176.773 -9.88086H176.187Z" fill="#2962FF"/>
<path opacity="0.539" d="M256.14 -9.88086L256.27 -9.66483L243.183 9.23755H217.009L203.922 -9.66483L204.052 -9.88086H203.466L203.336 -9.66483L216.749 9.6156H243.444L256.856 -9.66483L256.661 -9.88086H256.14Z" fill="#2962FF"/>
<path opacity="0.566" d="M336.03 -9.88086L336.16 -9.66483L323.073 9.23755H296.964L283.877 -9.66483L284.007 -9.88086H283.421L283.291 -9.66483L296.638 9.6156H323.399L336.746 -9.66483L336.616 -9.88086H336.03Z" fill="#2962FF"/>
<path opacity="0.548" d="M336.227 -9.88086L336.358 -9.66483L323.271 9.23755H297.096L284.009 -9.66483L284.14 -9.88086H283.619L283.554 -9.77285L283.488 -9.66483L296.836 9.6156H323.531L336.878 -9.55682L336.944 -9.66483L336.813 -9.88086H336.227Z" fill="#2962FF"/>
<path opacity="0.841" d="M416.182 -9.88086L416.313 -9.66483L403.226 9.23755H377.051L363.964 -9.66483L364.095 -9.88086H363.509L363.443 -9.77285L363.378 -9.66483L376.726 9.6156H403.486L416.768 -9.55682L416.834 -9.66483L416.703 -9.88086H416.182Z" fill="#2962FF"/>
<path opacity="0.547" d="M496.072 -9.88086L496.203 -9.66483L483.115 9.23755H456.941L443.854 -9.66483L443.984 -9.88086H443.464L443.398 -9.77285L443.333 -9.66483L456.681 9.6156H483.441L496.723 -9.55682L496.789 -9.66483L496.658 -9.88086H496.072Z" fill="#2962FF"/>
<path opacity="0.403" d="M574.855 -7.8286L563.071 9.23755H536.896L523.809 -9.66483L523.939 -9.88086H523.353L523.288 -9.77285L523.223 -9.66483L536.636 9.6156H563.331L574.855 -7.0185V-7.8286Z" fill="#2962FF"/>
<path opacity="0.221" d="M219.419 162.455C219.425 162.733 219.362 163.009 219.237 163.266C219.111 163.524 218.924 163.758 218.687 163.954C218.45 164.151 218.168 164.306 217.858 164.41C217.547 164.514 217.215 164.566 216.88 164.561C216.207 164.561 215.561 164.339 215.084 163.944C214.608 163.549 214.341 163.014 214.341 162.455C214.341 161.896 214.608 161.361 215.084 160.966C215.561 160.571 216.207 160.349 216.88 160.349C217.553 160.349 218.199 160.571 218.676 160.966C219.152 161.361 219.419 161.896 219.419 162.455Z" fill="#2962FF"/>
<path opacity="0.62" d="M459.805 162.456C459.805 163.115 459.49 163.747 458.928 164.213C458.366 164.679 457.605 164.94 456.81 164.94C456.016 164.94 455.254 164.679 454.693 164.213C454.131 163.747 453.815 163.115 453.815 162.456C453.815 161.797 454.131 161.165 454.693 160.699C455.254 160.233 456.016 159.972 456.81 159.972C457.605 159.972 458.366 160.233 458.928 160.699C459.49 161.165 459.805 161.797 459.805 162.456Z" fill="#2962FF"/>
<path opacity="0.304" d="M126.181 143.336C126.179 143.942 125.893 144.524 125.382 144.957C124.872 145.391 124.177 145.642 123.446 145.658C122.89 145.669 122.342 145.542 121.874 145.293C121.405 145.044 121.036 144.686 120.814 144.262C120.592 143.839 120.527 143.37 120.628 142.916C120.728 142.463 120.99 142.044 121.378 141.713C121.767 141.383 122.266 141.157 122.811 141.063C123.355 140.969 123.922 141.011 124.437 141.185C124.952 141.359 125.394 141.657 125.704 142.04C126.015 142.423 126.181 142.874 126.181 143.336Z" fill="#2962FF"/>
<path opacity="0.364" d="M166.223 162.4C166.223 162.816 166.074 163.223 165.795 163.57C165.516 163.916 165.12 164.186 164.656 164.346C164.192 164.505 163.681 164.547 163.189 164.465C162.696 164.384 162.244 164.184 161.889 163.889C161.533 163.594 161.292 163.219 161.194 162.811C161.096 162.402 161.146 161.978 161.338 161.594C161.53 161.209 161.856 160.88 162.273 160.648C162.691 160.417 163.182 160.293 163.684 160.293C164.352 160.307 164.989 160.533 165.461 160.925C165.934 161.318 166.207 161.845 166.223 162.4Z" fill="#2962FF"/>
<path opacity="0.444" d="M459.024 162.401C459.024 162.807 458.879 163.204 458.607 163.541C458.335 163.879 457.949 164.142 457.497 164.297C457.045 164.452 456.547 164.493 456.067 164.414C455.587 164.335 455.147 164.139 454.801 163.852C454.455 163.565 454.219 163.199 454.123 162.801C454.028 162.403 454.077 161.991 454.264 161.616C454.451 161.241 454.769 160.92 455.175 160.695C455.582 160.469 456.061 160.349 456.55 160.349C457.206 160.349 457.836 160.565 458.3 160.95C458.764 161.335 459.024 161.857 459.024 162.401Z" fill="#2962FF"/>
<path opacity="0.205" d="M525.501 143.337C525.495 143.703 525.358 144.059 525.109 144.361C524.86 144.664 524.509 144.898 524.1 145.036C523.691 145.174 523.242 145.208 522.809 145.135C522.376 145.063 521.979 144.886 521.667 144.627C521.355 144.368 521.141 144.038 521.054 143.68C520.966 143.321 521.008 142.948 521.174 142.609C521.34 142.27 521.622 141.978 521.987 141.772C522.351 141.565 522.781 141.452 523.222 141.446C523.522 141.445 523.819 141.493 524.097 141.587C524.374 141.682 524.626 141.821 524.838 141.997C525.05 142.173 525.217 142.382 525.331 142.612C525.445 142.842 525.503 143.088 525.501 143.337Z" fill="#2962FF"/>
<path opacity="0.677" d="M165.768 124.164C165.768 124.548 165.63 124.924 165.373 125.244C165.115 125.564 164.749 125.813 164.321 125.96C163.892 126.107 163.421 126.146 162.966 126.071C162.512 125.996 162.094 125.811 161.766 125.539C161.438 125.267 161.215 124.92 161.125 124.543C161.034 124.166 161.081 123.775 161.258 123.42C161.435 123.065 161.736 122.761 162.121 122.547C162.507 122.334 162.96 122.22 163.424 122.22C163.732 122.219 164.037 122.269 164.322 122.366C164.606 122.464 164.865 122.607 165.083 122.788C165.301 122.968 165.473 123.183 165.591 123.419C165.708 123.655 165.768 123.908 165.768 124.164Z" fill="#2962FF"/>
<path opacity="0.736" d="M259.2 143.284C259.204 143.575 259.137 143.864 259.004 144.134C258.871 144.404 258.675 144.65 258.426 144.856C258.178 145.062 257.882 145.225 257.556 145.335C257.231 145.446 256.882 145.501 256.531 145.498C255.824 145.495 255.147 145.261 254.647 144.846C254.147 144.432 253.865 143.87 253.861 143.284C253.858 142.992 253.924 142.703 254.057 142.433C254.19 142.163 254.387 141.918 254.635 141.711C254.884 141.505 255.18 141.342 255.505 141.232C255.831 141.122 256.179 141.066 256.531 141.069C257.238 141.072 257.915 141.306 258.415 141.721C258.915 142.136 259.197 142.697 259.2 143.284Z" fill="#2962FF"/>
<path opacity="0.4" d="M299.829 162.401C299.834 163.066 299.522 163.706 298.961 164.181C298.4 164.657 297.635 164.929 296.833 164.939C296.435 164.938 296.04 164.872 295.673 164.743C295.306 164.615 294.973 164.427 294.694 164.191C294.415 163.954 294.196 163.674 294.049 163.367C293.902 163.06 293.831 162.731 293.838 162.401C293.838 161.742 294.154 161.11 294.716 160.644C295.277 160.178 296.039 159.916 296.833 159.916C297.628 159.916 298.39 160.178 298.951 160.644C299.513 161.11 299.829 161.742 299.829 162.401Z" fill="#2962FF"/>
<path opacity="0.848" d="M539.435 162.4C539.439 162.691 539.372 162.98 539.239 163.25C539.106 163.52 538.91 163.766 538.661 163.972C538.413 164.178 538.117 164.341 537.792 164.451C537.466 164.561 537.117 164.617 536.766 164.614C536.059 164.611 535.382 164.377 534.882 163.962C534.382 163.548 534.1 162.986 534.096 162.4C534.093 162.108 534.16 161.819 534.292 161.549C534.425 161.279 534.622 161.034 534.87 160.827C535.119 160.621 535.415 160.458 535.74 160.348C536.066 160.238 536.414 160.182 536.766 160.185C537.473 160.188 538.15 160.422 538.65 160.837C539.15 161.252 539.432 161.813 539.435 162.4Z" fill="#2962FF"/>
<path opacity="0.489" d="M125.986 143.281C125.991 143.559 125.929 143.835 125.804 144.092C125.678 144.35 125.491 144.584 125.254 144.78C125.017 144.977 124.735 145.132 124.425 145.236C124.114 145.34 123.782 145.392 123.447 145.388C122.779 145.374 122.142 145.148 121.67 144.755C121.197 144.363 120.924 143.836 120.908 143.281C120.902 143.003 120.964 142.728 121.09 142.47C121.216 142.213 121.403 141.979 121.639 141.782C121.876 141.586 122.158 141.431 122.469 141.326C122.779 141.222 123.112 141.171 123.447 141.175C124.115 141.189 124.751 141.415 125.224 141.807C125.697 142.199 125.97 142.727 125.986 143.281Z" fill="#2962FF"/>
<path opacity="0.936" d="M259.071 143.281C259.071 143.655 258.937 144.021 258.686 144.331C258.436 144.642 258.08 144.885 257.664 145.028C257.247 145.171 256.789 145.208 256.347 145.135C255.905 145.062 255.499 144.882 255.18 144.618C254.862 144.353 254.645 144.017 254.557 143.65C254.469 143.283 254.514 142.903 254.686 142.558C254.859 142.212 255.151 141.917 255.526 141.71C255.9 141.502 256.341 141.391 256.792 141.391C257.091 141.39 257.389 141.438 257.666 141.532C257.943 141.626 258.195 141.766 258.407 141.941C258.619 142.117 258.787 142.326 258.901 142.556C259.014 142.786 259.072 143.033 259.071 143.281Z" fill="#2962FF"/>
<path opacity="0.427" d="M326.068 124.164C326.068 124.591 325.915 125.009 325.629 125.364C325.343 125.719 324.936 125.996 324.46 126.159C323.985 126.323 323.461 126.366 322.956 126.282C322.45 126.199 321.986 125.993 321.622 125.691C321.258 125.389 321.01 125.004 320.909 124.585C320.809 124.166 320.861 123.732 321.058 123.337C321.255 122.942 321.589 122.605 322.017 122.367C322.445 122.13 322.949 122.003 323.464 122.003C324.155 122.003 324.817 122.231 325.305 122.636C325.794 123.041 326.068 123.591 326.068 124.164Z" fill="#2962FF"/>
<path opacity="0.427" d="M352.114 124.164C352.114 124.591 351.962 125.009 351.675 125.364C351.389 125.719 350.982 125.996 350.507 126.159C350.031 126.323 349.507 126.366 349.002 126.282C348.497 126.199 348.033 125.993 347.668 125.691C347.304 125.389 347.056 125.004 346.956 124.585C346.855 124.166 346.907 123.732 347.104 123.337C347.301 122.942 347.635 122.605 348.063 122.367C348.491 122.13 348.995 122.003 349.51 122.003C350.201 122.003 350.863 122.231 351.352 122.636C351.84 123.041 352.114 123.591 352.114 124.164Z" fill="#2962FF"/>
<path opacity="0.428" d="M458.959 124.165C458.959 124.56 458.818 124.947 458.553 125.275C458.289 125.604 457.912 125.86 457.472 126.011C457.032 126.163 456.548 126.202 456.08 126.125C455.613 126.048 455.184 125.858 454.847 125.578C454.51 125.299 454.28 124.943 454.188 124.555C454.095 124.167 454.142 123.766 454.325 123.4C454.507 123.035 454.816 122.723 455.212 122.504C455.608 122.284 456.074 122.167 456.55 122.167C457.186 122.175 457.793 122.388 458.243 122.761C458.692 123.134 458.949 123.638 458.959 124.165Z" fill="#2962FF"/>
<path opacity="0.582" d="M419.112 143.281C419.112 143.783 418.871 144.263 418.444 144.618C418.017 144.972 417.437 145.171 416.833 145.171C416.228 145.171 415.649 144.972 415.221 144.618C414.794 144.263 414.554 143.783 414.554 143.281C414.554 142.78 414.794 142.299 415.221 141.945C415.649 141.59 416.228 141.391 416.833 141.391C417.437 141.391 418.017 141.59 418.444 141.945C418.871 142.299 419.112 142.78 419.112 143.281Z" fill="#2962FF"/>
<path opacity="0.644" d="M496.789 107.313C498.299 107.313 499.523 106.298 499.523 105.045C499.523 103.792 498.299 102.777 496.789 102.777C495.279 102.777 494.054 103.792 494.054 105.045C494.054 106.298 495.279 107.313 496.789 107.313Z" fill="#2962FF"/>
<path opacity="0.512" d="M59.5746 85.9264C59.5748 86.4901 59.3094 87.0315 58.835 87.4351C58.3605 87.8387 57.7147 88.0725 57.0353 88.0866C56.6971 88.0845 56.3627 88.0268 56.0515 87.9168C55.7403 87.8069 55.4585 87.6468 55.2223 87.4459C54.9862 87.245 54.8004 87.0073 54.6758 86.7465C54.5511 86.4856 54.49 86.2069 54.496 85.9264C54.4958 85.3627 54.7613 84.8212 55.2357 84.4176C55.7101 84.014 56.3559 83.7802 57.0353 83.7661C57.7115 83.7881 58.3517 84.0245 58.8241 84.4264C59.2965 84.8282 59.5651 85.3651 59.5746 85.9264Z" fill="#2962FF"/>
<path opacity="0.67" d="M166.224 85.9263C166.224 86.3962 166.056 86.8557 165.742 87.2465C165.427 87.6372 164.979 87.9418 164.456 88.1217C163.932 88.3015 163.356 88.3486 162.801 88.2569C162.245 88.1652 161.734 87.9389 161.334 87.6066C160.933 87.2742 160.66 86.8508 160.55 86.3899C160.439 85.9289 160.496 85.4511 160.713 85.0169C160.93 84.5827 161.297 84.2115 161.768 83.9504C162.239 83.6893 162.793 83.55 163.36 83.55C163.736 83.5478 164.11 83.6078 164.459 83.7264C164.808 83.8451 165.124 84.0201 165.391 84.2412C165.658 84.4622 165.869 84.7251 166.012 85.0143C166.155 85.3036 166.227 85.6136 166.224 85.9263Z" fill="#2962FF"/>
<path opacity="0.568" d="M245.203 124.163C245.203 124.583 245.006 124.988 244.654 125.29C244.302 125.592 243.821 125.769 243.315 125.783C243.062 125.781 242.812 125.737 242.58 125.654C242.348 125.572 242.138 125.451 241.962 125.301C241.786 125.15 241.648 124.972 241.557 124.776C241.465 124.581 241.42 124.373 241.426 124.163C241.426 123.748 241.625 123.349 241.979 123.055C242.334 122.762 242.814 122.597 243.315 122.597C243.815 122.597 244.296 122.762 244.65 123.055C245.004 123.349 245.203 123.748 245.203 124.163Z" fill="#2962FF"/>
<path opacity="0.831" d="M376.921 126C378.144 126 379.135 125.178 379.135 124.164C379.135 123.15 378.144 122.328 376.921 122.328C375.698 122.328 374.707 123.15 374.707 124.164C374.707 125.178 375.698 126 376.921 126Z" fill="#2962FF"/>
<path opacity="0.527" d="M485.98 124.165C485.98 124.752 485.699 125.315 485.198 125.731C484.698 126.146 484.019 126.379 483.311 126.379C482.603 126.379 481.924 126.146 481.423 125.731C480.922 125.315 480.641 124.752 480.641 124.165C480.641 123.578 480.922 123.014 481.423 122.599C481.924 122.184 482.603 121.951 483.311 121.951C484.019 121.951 484.698 122.184 485.198 122.599C485.699 123.014 485.98 123.578 485.98 124.165Z" fill="#2962FF"/>
<path opacity="0.327" d="M565.61 124.163C565.61 124.558 565.468 124.944 565.204 125.273C564.939 125.602 564.563 125.858 564.122 126.009C563.682 126.16 563.198 126.2 562.731 126.123C562.263 126.046 561.834 125.855 561.497 125.576C561.16 125.296 560.931 124.94 560.838 124.553C560.745 124.165 560.793 123.763 560.975 123.398C561.157 123.033 561.466 122.721 561.862 122.501C562.258 122.282 562.724 122.165 563.201 122.165C563.519 122.159 563.835 122.208 564.13 122.306C564.425 122.405 564.693 122.552 564.918 122.738C565.143 122.925 565.32 123.147 565.439 123.392C565.558 123.637 565.616 123.899 565.61 124.163Z" fill="#2962FF"/>
<path opacity="0.411" d="M526.349 105.045C526.336 105.502 526.161 105.945 525.845 106.32C525.53 106.695 525.088 106.984 524.576 107.151C524.063 107.319 523.503 107.357 522.964 107.262C522.425 107.166 521.932 106.941 521.547 106.614C521.162 106.287 520.902 105.873 520.799 105.424C520.696 104.975 520.755 104.511 520.969 104.09C521.183 103.669 521.541 103.309 522 103.056C522.459 102.804 522.998 102.669 523.549 102.669C524.293 102.695 524.996 102.955 525.516 103.396C526.037 103.838 526.334 104.428 526.349 105.045Z" fill="#2962FF"/>
<path opacity="0.551" d="M165.768 85.9269C165.768 86.2687 165.646 86.6029 165.417 86.8871C165.188 87.1713 164.863 87.3928 164.482 87.5236C164.101 87.6544 163.682 87.6886 163.278 87.622C162.874 87.5553 162.503 87.3907 162.211 87.149C161.92 86.9073 161.721 86.5993 161.641 86.2641C161.561 85.9289 161.602 85.5814 161.76 85.2656C161.917 84.9498 162.184 84.6799 162.527 84.49C162.87 84.3001 163.272 84.1987 163.685 84.1987C163.959 84.1958 164.232 84.2385 164.486 84.3244C164.74 84.4102 164.971 84.5374 165.166 84.6984C165.36 84.8595 165.513 85.0512 165.617 85.2622C165.72 85.4731 165.772 85.6992 165.768 85.9269Z" fill="#2962FF"/>
<path opacity="0.4" d="M179.376 105.045C179.376 105.451 179.231 105.848 178.959 106.185C178.687 106.523 178.301 106.786 177.848 106.941C177.396 107.097 176.899 107.137 176.419 107.058C175.939 106.979 175.498 106.783 175.152 106.496C174.806 106.209 174.57 105.844 174.475 105.446C174.38 105.047 174.429 104.635 174.616 104.26C174.803 103.885 175.12 103.564 175.527 103.339C175.934 103.113 176.412 102.993 176.902 102.993C177.558 102.993 178.187 103.209 178.651 103.594C179.115 103.979 179.376 104.501 179.376 105.045Z" fill="#2962FF"/>
<path opacity="0.445" d="M379.329 85.9263C379.329 86.3749 379.169 86.8134 378.869 87.1865C378.568 87.5595 378.141 87.8502 377.641 88.0219C377.142 88.1936 376.592 88.2385 376.061 88.151C375.531 88.0635 375.044 87.8474 374.661 87.5302C374.279 87.213 374.018 86.8088 373.913 86.3688C373.807 85.9288 373.861 85.4727 374.068 85.0582C374.275 84.6438 374.626 84.2895 375.076 84.0403C375.525 83.791 376.054 83.658 376.595 83.658C377.319 83.6622 378.011 83.9026 378.523 84.327C379.035 84.7515 379.324 85.326 379.329 85.9263Z" fill="#2962FF"/>
<path opacity="0.313" d="M365.396 66.8095C365.396 67.1407 365.278 67.4643 365.056 67.7397C364.834 68.015 364.519 68.2296 364.15 68.3563C363.782 68.483 363.376 68.5162 362.984 68.4516C362.593 68.387 362.233 68.2275 361.951 67.9934C361.668 67.7592 361.476 67.4609 361.398 67.1361C361.32 66.8114 361.36 66.4748 361.513 66.1688C361.666 65.8629 361.925 65.6014 362.257 65.4175C362.588 65.2335 362.979 65.1353 363.378 65.1353C363.912 65.1381 364.424 65.3154 364.801 65.6288C365.179 65.9422 365.393 66.3664 365.396 66.8095Z" fill="#2962FF"/>
<path opacity="0.288" d="M326.201 85.9265C326.201 86.3324 326.056 86.7292 325.784 87.0667C325.512 87.4042 325.126 87.6672 324.674 87.8226C324.221 87.9779 323.724 88.0185 323.244 87.9393C322.764 87.8601 322.323 87.6647 321.977 87.3777C321.631 87.0907 321.396 86.725 321.3 86.3269C321.205 85.9288 321.254 85.5162 321.441 85.1412C321.628 84.7662 321.945 84.4456 322.352 84.2201C322.759 83.9946 323.237 83.8743 323.727 83.8743C324.383 83.8743 325.012 84.0905 325.476 84.4754C325.94 84.8602 326.201 85.3822 326.201 85.9265Z" fill="#2962FF"/>
<path opacity="0.954" d="M445.221 66.8083C445.221 67.1287 445.107 67.442 444.892 67.7084C444.677 67.9748 444.372 68.1825 444.015 68.3051C443.658 68.4278 443.266 68.4599 442.887 68.3973C442.508 68.3348 442.16 68.1805 441.887 67.9539C441.613 67.7273 441.427 67.4386 441.352 67.1243C441.277 66.8101 441.315 66.4843 441.463 66.1882C441.611 65.8922 441.861 65.6391 442.183 65.4611C442.504 65.2831 442.881 65.188 443.268 65.188C443.524 65.188 443.778 65.23 444.015 65.3114C444.252 65.3928 444.468 65.5122 444.649 65.6626C444.83 65.8131 444.974 65.9917 445.072 66.1882C445.171 66.3848 445.221 66.5955 445.221 66.8083Z" fill="#2962FF"/>
<path opacity="0.406" d="M525.632 105.045C525.636 105.581 525.385 106.097 524.935 106.481C524.484 106.865 523.869 107.086 523.223 107.097C522.576 107.097 521.955 106.884 521.497 106.504C521.039 106.124 520.782 105.609 520.782 105.072C520.782 104.535 521.039 104.02 521.497 103.64C521.955 103.26 522.576 103.047 523.223 103.047C523.543 103.037 523.861 103.082 524.159 103.179C524.457 103.276 524.727 103.423 524.953 103.61C525.179 103.798 525.356 104.022 525.473 104.269C525.59 104.516 525.644 104.78 525.632 105.045Z" fill="#2962FF"/>
<path opacity="0.643" d="M499.523 66.8077C499.523 67.2563 499.363 67.6948 499.063 68.0678C498.762 68.4409 498.335 68.7316 497.835 68.9033C497.336 69.075 496.786 69.1199 496.255 69.0324C495.725 68.9448 495.238 68.7288 494.855 68.4116C494.473 68.0943 494.212 67.6902 494.107 67.2502C494.001 66.8102 494.055 66.3541 494.262 65.9396C494.469 65.5251 494.82 65.1709 495.27 64.9216C495.719 64.6724 496.248 64.5394 496.789 64.5394C497.513 64.5436 498.205 64.784 498.717 65.2084C499.229 65.6329 499.518 66.2074 499.523 66.8077Z" fill="#2962FF"/>
<path opacity="0.478" d="M496.788 106.937C498.046 106.937 499.067 106.091 499.067 105.047C499.067 104.003 498.046 103.156 496.788 103.156C495.529 103.156 494.509 104.003 494.509 105.047C494.509 106.091 495.529 106.937 496.788 106.937Z" fill="#2962FF"/>
<path opacity="0.478" d="M86.1393 85.9276C86.1428 86.2192 86.0761 86.5084 85.9432 86.7784C85.8102 87.0483 85.6137 87.2936 85.3651 87.4998C85.1166 87.706 84.8209 87.8689 84.4954 87.9792C84.17 88.0895 83.8213 88.1448 83.4698 88.1419C82.7628 88.139 82.0858 87.9048 81.5859 87.4902C81.086 87.0755 80.8037 86.514 80.8003 85.9276C80.8003 85.3403 81.0815 84.7771 81.5821 84.3619C82.0828 83.9466 82.7618 83.7133 83.4698 83.7133C84.1778 83.7133 84.8568 83.9466 85.3574 84.3619C85.858 84.7771 86.1393 85.3403 86.1393 85.9276Z" fill="#2962FF"/>
<path opacity="0.755" d="M98.7047 66.8095C98.7047 67.1407 98.5863 67.4643 98.3646 67.7397C98.1428 68.015 97.8275 68.2296 97.4587 68.3563C97.0899 68.483 96.6841 68.5162 96.2925 68.4516C95.901 68.387 95.5414 68.2275 95.2591 67.9934C94.9768 67.7592 94.7846 67.4609 94.7067 67.1361C94.6288 66.8114 94.6688 66.4748 94.8216 66.1688C94.9743 65.8629 95.233 65.6014 95.565 65.4175C95.8969 65.2335 96.2871 65.1353 96.6863 65.1353C97.2206 65.1381 97.732 65.3154 98.1098 65.6288C98.4876 65.9422 98.7013 66.3664 98.7047 66.8095Z" fill="#2962FF"/>
<path opacity="0.384" d="M59.379 85.9266C59.379 86.3112 59.2415 86.687 58.984 87.0068C58.7264 87.3265 58.3603 87.5757 57.932 87.7229C57.5037 87.87 57.0324 87.9085 56.5777 87.8335C56.1231 87.7585 55.7054 87.5733 55.3776 87.3014C55.0498 87.0295 54.8266 86.6831 54.7361 86.3059C54.6457 85.9288 54.6921 85.5379 54.8695 85.1826C55.0469 84.8273 55.3473 84.5237 55.7328 84.31C56.1183 84.0964 56.5714 83.9824 57.035 83.9824C57.3431 83.9817 57.6483 84.0315 57.933 84.1289C58.2178 84.2264 58.4765 84.3696 58.6944 84.5502C58.9122 84.7309 59.0848 84.9455 59.2023 85.1817C59.3198 85.418 59.3798 85.6711 59.379 85.9266Z" fill="#2962FF"/>
<path opacity="0.854" d="M166.094 47.6905C166.098 47.982 166.031 48.2713 165.898 48.5412C165.765 48.8112 165.569 49.0564 165.32 49.2626C165.072 49.4688 164.776 49.6318 164.451 49.7421C164.125 49.8523 163.776 49.9076 163.425 49.9047C162.718 49.9019 162.041 49.6677 161.541 49.2531C161.041 48.8384 160.759 48.2768 160.755 47.6905C160.752 47.3989 160.819 47.1096 160.952 46.8397C161.084 46.5697 161.281 46.3245 161.53 46.1183C161.778 45.9121 162.074 45.7491 162.399 45.6389C162.725 45.5286 163.073 45.4733 163.425 45.4762C164.132 45.479 164.809 45.7132 165.309 46.1279C165.809 46.5425 166.091 47.1041 166.094 47.6905Z" fill="#2962FF"/>
<path opacity="0.782" d="M245.853 47.6905C245.858 47.9684 245.796 48.2442 245.67 48.5017C245.544 48.7593 245.358 48.9932 245.121 49.1896C244.884 49.3861 244.602 49.5411 244.291 49.6454C243.981 49.7497 243.648 49.8012 243.313 49.7968C242.64 49.7968 241.994 49.5749 241.518 49.1799C241.042 48.7849 240.774 48.2492 240.774 47.6905C240.774 47.1319 241.042 46.5962 241.518 46.2012C241.994 45.8062 242.64 45.5843 243.313 45.5843C243.987 45.5843 244.633 45.8062 245.109 46.2012C245.585 46.5962 245.853 47.1319 245.853 47.6905Z" fill="#2962FF"/>
<path opacity="0.356" d="M299.439 85.9276C299.443 86.2192 299.376 86.5084 299.243 86.7784C299.11 87.0483 298.914 87.2936 298.665 87.4998C298.417 87.706 298.121 87.8689 297.795 87.9792C297.47 88.0895 297.121 88.1448 296.77 88.1419C296.063 88.139 295.386 87.9048 294.886 87.4902C294.386 87.0755 294.104 86.514 294.1 85.9276C294.1 85.3403 294.382 84.7771 294.882 84.3619C295.383 83.9466 296.062 83.7133 296.77 83.7133C297.478 83.7133 298.157 83.9466 298.657 84.3619C299.158 84.7771 299.439 85.3403 299.439 85.9276Z" fill="#2962FF"/>
<path opacity="0.323" d="M325.745 85.9285C325.747 86.1771 325.689 86.4236 325.575 86.6535C325.461 86.8835 325.293 87.0925 325.081 87.2683C324.87 87.4441 324.618 87.5833 324.34 87.6778C324.063 87.7722 323.766 87.8202 323.466 87.8187C322.864 87.8131 322.288 87.6122 321.862 87.2589C321.436 86.9056 321.194 86.4281 321.187 85.9285C321.186 85.6799 321.243 85.4334 321.357 85.2034C321.471 84.9734 321.639 84.7645 321.851 84.5887C322.063 84.4129 322.315 84.2737 322.592 84.1792C322.869 84.0847 323.167 84.0368 323.466 84.0382C323.767 84.0323 324.067 84.0772 324.347 84.1701C324.626 84.263 324.88 84.402 325.094 84.5787C325.307 84.7554 325.474 84.9662 325.586 85.1982C325.698 85.4302 325.752 85.6786 325.745 85.9285Z" fill="#2962FF"/>
<path opacity="0.441" d="M459.74 85.9275C459.74 86.4081 459.568 86.878 459.246 87.2777C458.925 87.6773 458.467 87.9888 457.932 88.1728C457.396 88.3567 456.807 88.4048 456.239 88.3111C455.67 88.2173 455.148 87.9858 454.739 87.6459C454.329 87.3061 454.05 86.873 453.937 86.4016C453.824 85.9302 453.882 85.4415 454.103 84.9974C454.325 84.5533 454.701 84.1738 455.183 83.9067C455.664 83.6397 456.231 83.4972 456.81 83.4972C457.196 83.4957 457.577 83.5576 457.934 83.6792C458.29 83.8009 458.614 83.9798 458.886 84.2058C459.158 84.4317 459.374 84.7002 459.521 84.9957C459.667 85.2912 459.742 85.6079 459.74 85.9275Z" fill="#2962FF"/>
<path opacity="0.687" d="M45.7706 66.8099C45.7706 67.1837 45.637 67.5492 45.3866 67.86C45.1362 68.1709 44.7803 68.4132 44.3639 68.5562C43.9475 68.6993 43.4893 68.7367 43.0472 68.6638C42.6052 68.5909 42.1991 68.4108 41.8804 68.1465C41.5617 67.8821 41.3447 67.5453 41.2567 67.1787C41.1688 66.812 41.2139 66.4319 41.3864 66.0865C41.5589 65.7411 41.851 65.4459 42.2257 65.2382C42.6005 65.0305 43.0411 64.9196 43.4918 64.9196C43.793 64.9137 44.0925 64.9586 44.3722 65.0515C44.6519 65.1444 44.906 65.2834 45.1191 65.4601C45.3321 65.6368 45.4997 65.8476 45.6117 66.0796C45.7237 66.3116 45.7778 66.56 45.7706 66.8099Z" fill="#2962FF"/>
<path opacity="0.553" d="M59.2483 47.6905C59.2536 47.9684 59.1915 48.2442 59.0658 48.5017C58.94 48.7593 58.7532 48.9932 58.5163 49.1896C58.2795 49.3861 57.9974 49.5411 57.687 49.6454C57.3765 49.7497 57.0439 49.8012 56.709 49.7968C56.0356 49.7968 55.3897 49.5749 54.9135 49.1799C54.4373 48.7849 54.1697 48.2492 54.1697 47.6905C54.1697 47.1319 54.4373 46.5962 54.9135 46.2012C55.3897 45.8062 56.0356 45.5843 56.709 45.5843C57.3825 45.5843 58.0284 45.8062 58.5046 46.2012C58.9808 46.5962 59.2483 47.1319 59.2483 47.6905Z" fill="#2962FF"/>
<path opacity="0.421" d="M419.047 66.8081C419.034 67.1581 418.898 67.4972 418.654 67.7831C418.41 68.069 418.07 68.289 417.677 68.4157C417.283 68.5423 416.853 68.57 416.441 68.4952C416.028 68.4205 415.652 68.2466 415.358 67.9954C415.064 67.7441 414.866 67.4266 414.788 67.0824C414.71 66.7382 414.756 66.3827 414.921 66.0602C415.085 65.7376 415.36 65.4624 415.712 65.2689C416.064 65.0753 416.476 64.972 416.899 64.9719C417.185 64.9754 417.468 65.0257 417.731 65.1199C417.994 65.2141 418.232 65.3503 418.431 65.5208C418.631 65.6913 418.788 65.8928 418.894 66.1136C418.999 66.3345 419.051 66.5705 419.047 66.8081Z" fill="#2962FF"/>
<path opacity="0.782" d="M526.088 66.8076C526.075 67.2644 525.9 67.708 525.585 68.0827C525.269 68.4575 524.828 68.7467 524.315 68.9142C523.803 69.0817 523.242 69.1201 522.703 69.0245C522.165 68.9288 521.672 68.7035 521.287 68.3767C520.902 68.0499 520.641 67.6361 520.539 67.1871C520.436 66.7382 520.495 66.274 520.708 65.8528C520.922 65.4316 521.281 65.0721 521.74 64.8192C522.199 64.5663 522.737 64.4314 523.288 64.4313C524.036 64.4481 524.746 64.7055 525.268 65.1491C525.791 65.5926 526.085 66.1874 526.088 66.8076Z" fill="#2962FF"/>
<path opacity="0.55" d="M538.589 47.6908C538.589 48.0433 538.463 48.3879 538.227 48.6809C537.991 48.974 537.655 49.2025 537.263 49.3374C536.87 49.4722 536.438 49.5075 536.021 49.4388C535.604 49.37 535.221 49.2003 534.921 48.951C534.62 48.7018 534.416 48.3842 534.333 48.0385C534.25 47.6928 534.293 47.3344 534.455 47.0088C534.618 46.6831 534.893 46.4048 535.247 46.2089C535.6 46.0131 536.015 45.9086 536.44 45.9086C537.009 45.9128 537.552 46.1019 537.954 46.4352C538.356 46.7686 538.584 47.2194 538.589 47.6908Z" fill="#2962FF"/>
<path opacity="0.729" d="M59.0538 9.45366C59.0538 9.78479 58.9354 10.1085 58.7136 10.3838C58.4918 10.6591 58.1766 10.8737 57.8078 11.0004C57.439 11.1271 57.0331 11.1603 56.6416 11.0957C56.2501 11.0311 55.8904 10.8717 55.6081 10.6375C55.3259 10.4034 55.1336 10.105 55.0558 9.78028C54.9779 9.45552 55.0178 9.11889 55.1706 8.81297C55.3234 8.50705 55.5821 8.24557 55.914 8.0616C56.2459 7.87764 56.6362 7.77945 57.0354 7.77945C57.5696 7.78228 58.081 7.95958 58.4588 8.27294C58.8366 8.58631 59.0504 9.01051 59.0538 9.45366Z" fill="#2962FF"/>
<path opacity="0.3" d="M126.312 28.5714C126.312 28.9986 126.159 29.4163 125.873 29.7715C125.587 30.1268 125.18 30.4037 124.704 30.5672C124.228 30.7307 123.704 30.7735 123.199 30.6901C122.694 30.6068 122.23 30.401 121.866 30.0989C121.501 29.7968 121.253 29.4119 121.153 28.9928C121.052 28.5738 121.104 28.1394 121.301 27.7447C121.498 27.3499 121.832 27.0125 122.26 26.7752C122.689 26.5378 123.192 26.4111 123.707 26.4111C124.052 26.4029 124.395 26.4531 124.715 26.5588C125.036 26.6645 125.327 26.8233 125.571 27.0255C125.815 27.2278 126.006 27.4692 126.134 27.735C126.261 28.0009 126.321 28.2854 126.312 28.5714Z" fill="#2962FF"/>
<path opacity="0.574" d="M219.419 9.45455C219.419 9.88182 219.266 10.2995 218.98 10.6547C218.694 11.01 218.287 11.2869 217.811 11.4504C217.336 11.6139 216.812 11.6567 216.307 11.5733C215.802 11.49 215.337 11.2842 214.973 10.9821C214.609 10.68 214.361 10.2951 214.26 9.876C214.16 9.45695 214.212 9.02259 214.409 8.62785C214.606 8.23312 214.94 7.89573 215.368 7.65835C215.796 7.42098 216.3 7.29428 216.815 7.29428C217.506 7.29428 218.168 7.52188 218.656 7.92701C219.145 8.33214 219.419 8.88161 219.419 9.45455Z" fill="#2962FF"/>
<path opacity="0.582" d="M325.743 9.45466C325.743 9.86056 325.597 10.2573 325.326 10.5948C325.054 10.9323 324.667 11.1954 324.215 11.3507C323.763 11.506 323.266 11.5467 322.786 11.4675C322.306 11.3883 321.865 11.1928 321.519 10.9058C321.173 10.6188 320.937 10.2531 320.842 9.85504C320.746 9.45694 320.795 9.0443 320.983 8.6693C321.17 8.2943 321.487 7.97378 321.894 7.74827C322.301 7.52277 322.779 7.4024 323.268 7.4024C323.593 7.4024 323.915 7.45549 324.215 7.55862C324.515 7.66176 324.788 7.81293 325.018 8.0035C325.248 8.19407 325.43 8.42031 325.554 8.6693C325.679 8.91829 325.743 9.18516 325.743 9.45466Z" fill="#2962FF"/>
<path opacity="0.513" d="M299.374 47.6891C299.374 48.1163 299.221 48.534 298.935 48.8893C298.649 49.2445 298.242 49.5214 297.766 49.6849C297.291 49.8484 296.767 49.8912 296.262 49.8078C295.757 49.7245 295.292 49.5187 294.928 49.2166C294.564 48.9145 294.316 48.5296 294.215 48.1105C294.115 47.6915 294.167 47.2571 294.364 46.8624C294.561 46.4676 294.895 46.1303 295.323 45.8929C295.751 45.6555 296.255 45.5288 296.77 45.5288C297.461 45.5288 298.123 45.7564 298.611 46.1615C299.1 46.5667 299.374 47.1161 299.374 47.6891Z" fill="#2962FF"/>
<path opacity="0.367" d="M539.825 9.45288C539.825 9.95491 539.646 10.4457 539.31 10.8631C538.973 11.2805 538.495 11.6059 537.936 11.798C537.377 11.9901 536.762 12.0404 536.168 11.9424C535.574 11.8445 535.029 11.6027 534.601 11.2477C534.173 10.8928 533.882 10.4405 533.764 9.94808C533.646 9.45569 533.706 8.94532 533.938 8.4815C534.169 8.01769 534.562 7.62126 535.065 7.34234C535.568 7.06343 536.16 6.91456 536.765 6.91456C537.167 6.91384 537.566 6.97901 537.937 7.10632C538.309 7.23364 538.647 7.42058 538.931 7.65643C539.215 7.89227 539.441 8.17238 539.594 8.48066C539.748 8.78895 539.826 9.11934 539.825 9.45288Z" fill="#2962FF"/>
<path opacity="0.713" d="M59.4433 9.4546C59.4468 9.75328 59.3785 10.0495 59.2423 10.326C59.1061 10.6025 58.9048 10.8537 58.6501 11.065C58.3955 11.2762 58.0927 11.4431 57.7593 11.5561C57.426 11.6691 57.0688 11.7258 56.7087 11.7229C55.9835 11.7229 55.2879 11.4839 54.7751 11.0585C54.2622 10.6331 53.9741 10.0562 53.9741 9.4546C53.9741 8.85302 54.2622 8.27607 54.7751 7.85068C55.2879 7.4253 55.9835 7.18632 56.7087 7.18632C57.0728 7.1708 57.4367 7.21885 57.7769 7.32735C58.1172 7.43585 58.4262 7.60239 58.684 7.8162C58.9417 8.03001 59.1425 8.28631 59.2733 8.56854C59.4041 8.85077 59.462 9.15264 59.4433 9.4546Z" fill="#2962FF"/>
<path opacity="0.287" d="M86.2034 9.45376C86.2042 9.71638 86.1425 9.97654 86.0217 10.2193C85.901 10.4621 85.7235 10.6826 85.4997 10.8683C85.2758 11.054 85.0099 11.2012 84.7172 11.3014C84.4245 11.4015 84.1109 11.4527 83.7943 11.452C83.1585 11.4437 82.5516 11.2305 82.102 10.8575C81.6523 10.4846 81.3953 9.98113 81.3852 9.45376C81.3844 9.19115 81.4461 8.93098 81.5669 8.68822C81.6876 8.44546 81.865 8.22489 82.0889 8.0392C82.3128 7.8535 82.5787 7.70634 82.8714 7.60617C83.164 7.506 83.4777 7.4548 83.7943 7.45551C84.1124 7.45037 84.4284 7.49855 84.7235 7.59715C85.0186 7.69575 85.2866 7.84275 85.5116 8.02934C85.7365 8.21593 85.9137 8.43827 86.0326 8.68303C86.1515 8.92779 86.2095 9.18994 86.2034 9.45376Z" fill="#2962FF"/>
</g>
</g>
</svg>
