<svg width="239" height="149" viewBox="0 0 239 149" fill="none" xmlns="http://www.w3.org/2000/svg">
<g opacity="0.15">
<path d="M81.7849 177.62H58.4933L46.8757 160.49L46.9324 160.395L58.4933 143.361H81.7849L93.4024 160.49L93.3458 160.586L81.7849 177.62ZM58.7766 177.285H81.5583L92.9491 160.538L81.5583 143.792H58.7766L47.3858 160.538L58.7766 177.285Z" fill="#2962FF"/>
<path d="M151.377 177.62H128.085L116.467 160.49L116.524 160.395L128.085 143.361H151.377L162.994 160.49L162.937 160.586L151.377 177.62ZM128.368 177.285H151.15L162.541 160.538L151.15 143.792H128.368L116.977 160.538L128.368 177.285Z" fill="#2962FF"/>
<path d="M220.968 177.62H197.677L186.059 160.49L186.116 160.395L197.677 143.361H220.968L232.586 160.49L232.529 160.586L220.968 177.62ZM197.903 177.285H220.685L232.076 160.538L220.685 143.792H197.903L186.513 160.538L197.903 177.285Z" fill="#2962FF"/>
<path d="M116.581 160.682H93.2898L81.6722 143.552L81.7289 143.456L93.2898 126.423H116.581L128.199 143.552L128.142 143.648L116.581 160.682ZM93.5731 160.347H116.355L127.746 143.6L116.355 126.853H93.5731L82.1823 143.6L93.5731 160.347Z" fill="#2962FF"/>
<path d="M186.173 160.682H162.882L151.264 143.552L151.321 143.456L162.882 126.423H186.173L197.791 143.552L197.734 143.648L186.173 160.682ZM163.165 160.347H185.947L197.338 143.6L185.947 126.853H163.165L151.774 143.6L163.165 160.347Z" fill="#2962FF"/>
<path d="M254.405 160.346H232.7L221.309 143.599L232.7 126.804H254.405V126.469H232.473L220.856 143.503L220.799 143.599L232.473 160.68H254.405V160.346Z" fill="#2962FF"/>
<path d="M81.7849 143.743H58.4933L46.8757 126.614L46.9324 126.518L58.4933 109.485H81.7849L93.4024 126.614L93.3458 126.71L81.7849 143.743ZM58.7766 143.408H81.5583L92.9491 126.662L81.5583 109.915H58.7766L47.3858 126.662L58.7766 143.408Z" fill="#2962FF"/>
<path d="M151.377 143.743H128.085L116.467 126.614L116.524 126.518L128.085 109.485H151.377L162.994 126.614L162.937 126.71L151.377 143.743ZM128.368 143.408H151.15L162.541 126.662L151.15 109.915H128.368L116.977 126.662L128.368 143.408Z" fill="#2962FF"/>
<path d="M220.968 143.743H197.677L186.059 126.614L186.116 126.518L197.677 109.485H220.968L232.586 126.614L232.529 126.71L220.968 143.743ZM197.903 143.408H220.685L232.076 126.662L220.685 109.915H197.903L186.513 126.662L197.903 143.408Z" fill="#2962FF"/>
<path d="M116.581 126.805H93.2898L81.6722 109.676L81.7289 109.58L93.2898 92.5463H116.581L128.199 109.676L128.142 109.771L116.581 126.805ZM93.5731 126.422H116.355L127.746 109.676L116.355 92.9291H93.5731L82.1823 109.676L93.5731 126.422Z" fill="#2962FF"/>
<path d="M186.173 126.805H162.882L151.264 109.676L151.321 109.58L162.882 92.5463H186.173L197.791 109.676L197.734 109.771L186.173 126.805ZM163.165 126.422H185.947L197.338 109.676L185.947 92.9291H163.165L151.774 109.676L163.165 126.422Z" fill="#2962FF"/>
<path d="M254.405 126.421H232.7L221.309 109.675L232.7 92.928H254.405V92.5931H232.473L220.856 109.579L220.799 109.675L232.473 126.804H254.405V126.421Z" fill="#2962FF"/>
<path d="M81.7849 109.867H58.4933L46.8757 92.7376L46.9324 92.6419L58.4933 75.6081H81.7849L93.4024 92.7376L93.3458 92.8332L81.7849 109.867ZM58.7766 109.484H81.5583L92.9491 92.7376L81.5583 75.9909H58.7766L47.3858 92.7376L58.7766 109.484Z" fill="#2962FF"/>
<path d="M151.377 109.867H128.085L116.467 92.7376L116.524 92.6419L128.085 75.6081H151.377L162.994 92.7376L162.937 92.8332L151.377 109.867ZM128.368 109.484H151.15L162.541 92.7376L151.15 75.9909H128.368L116.977 92.7376L128.368 109.484Z" fill="#2962FF"/>
<path d="M128.664 75.6881H105.372L93.1152 58.8635L93.1718 58.7678L105.372 41.4293H128.664L140.282 58.5587L140.225 58.6544L128.664 75.6881ZM105.656 75.3053H128.437L139.828 58.5587L128.437 41.812H105.656L93.6252 58.8635L105.656 75.3053Z" fill="#2962FF"/>
<path d="M220.968 109.867H197.677L186.059 92.7376L186.116 92.6419L197.677 75.6081H220.968L232.586 92.7376L232.529 92.8332L220.968 109.867ZM197.903 109.484H220.685L232.076 92.7376L220.685 75.9909H197.903L186.513 92.7376L197.903 109.484Z" fill="#2962FF"/>
<path d="M116.581 92.9287H93.2898L81.6722 75.7993L81.7289 75.7036L93.2898 58.6699H116.581L128.199 75.7993L128.142 75.895L116.581 92.9287ZM93.5731 92.5459H116.355L127.746 75.7993L116.355 59.0527H93.5731L82.1823 75.7993L93.5731 92.5459Z" fill="#2962FF"/>
<path d="M186.173 92.9287H162.882L151.264 75.7993L151.321 75.7036L162.882 58.6699H186.173L197.791 75.7993L197.734 75.895L186.173 92.9287ZM163.165 92.5459H185.947L197.338 75.7993L185.947 59.0527H163.165L151.774 75.7993L163.165 92.5459Z" fill="#2962FF"/>
<path d="M254.405 92.5471H232.7L221.309 75.8005L232.7 59.0539H254.405V58.719H232.473L220.856 75.7048L220.799 75.8005L232.473 92.9299H254.405V92.5471Z" fill="#2962FF"/>
<path d="M81.7849 75.9906H58.4933L46.8757 58.8612L46.9324 58.7655L58.4933 41.7318H81.7849L93.4024 58.8612L93.3458 58.9568L81.7849 75.9906ZM58.7766 75.6078H81.5583L92.9491 58.8612L81.5583 42.1145H58.7766L47.3858 58.8612L58.7766 75.6078Z" fill="#2962FF"/>
<path d="M220.968 75.9906H197.677L186.059 58.8612L186.116 58.7655L197.677 41.7318H220.968L232.586 58.8612L232.529 58.9568L220.968 75.9906ZM197.903 75.6078H220.685L232.076 58.8612L220.685 42.1145H197.903L186.513 58.8612L197.903 75.6078Z" fill="#2962FF"/>
<path d="M70.7999 59.0523H47.5082L35.8907 41.9229L47.5082 24.7935H70.7999L82.4174 41.9229L70.7999 59.0523ZM47.7349 58.6696H70.5165L81.9073 41.9229L70.5165 25.1763H47.7349L36.3441 41.9229L47.7349 58.6696Z" fill="#2962FF"/>
<path d="M254.405 58.6696H232.7L221.309 41.9229L232.7 25.1763H254.405V24.7935H232.473L220.856 41.8272L220.799 41.9229L232.473 59.0523H254.405V58.6696Z" fill="#2962FF"/>
<path d="M81.7849 42.1142H58.4933L46.8757 24.9848L46.9324 24.8891L58.4933 7.85535H81.7849L93.4024 24.9848L93.3458 25.0805L81.7849 42.1142ZM58.7766 41.7314H81.5583L92.9491 24.9848L81.5583 8.23814H58.7766L47.3858 24.9848L58.7766 41.7314Z" fill="#2962FF"/>
<path d="M220.968 42.1142H197.677L186.059 24.9848L186.116 24.8891L197.677 7.85535H220.968L232.586 24.9848L232.529 25.0805L220.968 42.1142ZM197.903 41.7314H220.685L232.076 24.9848L220.685 8.23814H197.903L186.513 24.9848L197.903 41.7314Z" fill="#2962FF"/>
<path d="M254.405 24.7933H232.7L221.309 8.04669L232.7 -8.69993H254.405V-9.08271H232.473L220.856 7.951L220.799 8.04669L232.473 25.1283H254.405V24.7933Z" fill="#2962FF"/>
<path d="M92.779 -9.12959L92.9491 -8.89036L81.5582 7.85627H58.7766L47.3857 -8.89036L47.5558 -9.12959H47.0457L46.9891 -8.98605L46.9324 -8.89036L58.5499 8.1912H81.7849L93.4024 -8.79466L93.4591 -8.89036L93.2891 -9.12959H92.779Z" fill="#2962FF"/>
<path d="M231.963 -9.12959L232.076 -8.89036L220.685 7.85627H197.903L186.513 -8.89036L186.683 -9.12959H186.173L186.116 -8.98605L186.059 -8.89036L197.677 8.1912H220.968L232.529 -8.79466L232.586 -8.89036L232.416 -9.12959H231.963Z" fill="#2962FF"/>
<path opacity="0.741" d="M105.247 177.571H81.9556L70.3381 160.441L70.3948 160.346L81.9556 143.312H105.247L116.865 160.441L116.808 160.537L105.247 177.571ZM82.239 177.236H105.021L116.411 160.489L105.021 143.742H82.239L70.8482 160.489L82.239 177.236Z" fill="#2962FF"/>
<path opacity="0.984" d="M174.839 177.571H151.547L139.93 160.441L139.987 160.346L151.547 143.312H174.839L186.457 160.441L186.4 160.537L174.839 177.571ZM151.774 177.236H174.556L185.947 160.489L174.556 143.742H151.774L140.383 160.489L151.774 177.236Z" fill="#2962FF"/>
<path opacity="0.41" d="M254.405 162.117L244.148 177.237H221.366L209.975 160.442L221.366 143.696H244.148L254.405 158.816V158.098L244.374 143.361H221.139L209.522 160.395L209.465 160.442L221.139 177.572H244.374L254.405 162.835V162.117Z" fill="#2962FF"/>
<path d="M70.4507 160.633H47.159L35.5415 143.503L35.5982 143.407L47.159 126.374H70.4507L82.0682 143.503L82.0116 143.599L70.4507 160.633ZM47.4424 160.25H70.224L81.6149 143.503L70.224 126.757H47.4424L36.0516 143.503L47.4424 160.25Z" fill="#2962FF"/>
<path opacity="0.239" d="M140.042 160.633H116.751L105.133 143.503L105.19 143.407L116.751 126.374H140.042L151.66 143.503L151.603 143.599L140.042 160.633ZM116.977 160.25H139.759L151.15 143.503L139.759 126.757H116.977L105.587 143.503L116.977 160.25Z" fill="#2962FF"/>
<path opacity="0.976" d="M209.578 160.633H186.286L174.669 143.503L174.725 143.407L186.286 126.374H209.578L221.195 143.503L221.139 143.599L209.578 160.633ZM186.569 160.25H209.351L220.742 143.503L209.351 126.757H186.569L175.179 143.503L186.569 160.25Z" fill="#2962FF"/>
<path opacity="0.743" d="M105.247 143.694H81.9556L70.3381 126.565L70.3948 126.469L81.9556 109.436H105.247L116.865 126.565L116.808 126.661L105.247 143.694ZM82.239 143.312H105.021L116.411 126.565L105.021 109.818H82.239L70.8482 126.565L82.239 143.312Z" fill="#2962FF"/>
<path opacity="0.64" d="M174.839 143.694H151.547L139.93 126.565L139.987 126.469L151.547 109.436H174.839L186.457 126.565L186.4 126.661L174.839 143.694ZM151.774 143.312H174.556L185.947 126.565L174.556 109.818H151.774L140.383 126.565L151.774 143.312Z" fill="#2962FF"/>
<path opacity="0.635" d="M254.405 128.241L244.148 143.313H221.366L209.975 126.566L221.366 109.819H244.148L254.405 124.939V124.222L244.374 109.485H221.139L209.522 126.47L209.465 126.566L221.139 143.695H244.374L254.405 128.958V128.241Z" fill="#2962FF"/>
<path opacity="0.823" d="M140.042 126.758H116.751L105.133 109.629L105.19 109.533L116.751 92.4996H140.042L151.66 109.629L151.603 109.725L140.042 126.758ZM116.977 126.376H139.759L151.15 109.629L139.759 92.8824H116.977L105.587 109.629L116.977 126.376Z" fill="#2962FF"/>
<path opacity="0.657" d="M209.578 126.758H186.286L174.669 109.629L174.725 109.533L186.286 92.4996H209.578L221.195 109.629L221.139 109.725L209.578 126.758ZM186.569 126.376H209.351L220.742 109.629L209.351 92.8824H186.569L175.179 109.629L186.569 126.376Z" fill="#2962FF"/>
<path opacity="0.6" d="M35.5404 109.82H12.2487L0.631165 92.6908L12.2487 75.5614H35.5404L47.1579 92.6908L35.5404 109.82ZM12.532 109.437H35.3137L46.7045 92.6908L35.3137 75.9442H12.532L1.1412 92.6908L12.532 109.437Z" fill="#2962FF"/>
<path opacity="0.458" d="M35.5404 143.694H12.2487L0.631165 126.565L12.2487 109.435H35.5404L47.1579 126.565L35.5404 143.694ZM12.532 143.311H35.3137L46.7045 126.565L35.3137 109.818H12.532L1.1412 126.565L12.532 143.311Z" fill="#2962FF"/>
<path opacity="0.6" d="M58.1705 143.694H34.8788L23.2613 126.565L34.8788 109.435H58.1705L69.788 126.565L58.1705 143.694ZM35.1621 143.311H57.9438L69.3346 126.565L57.9438 109.818H35.1621L23.7713 126.565L35.1621 143.311Z" fill="#2962FF"/>
<path opacity="0.907" d="M105.247 109.82H81.9556L70.3381 92.6908L70.3948 92.5951L81.9556 75.5614H105.247L116.865 92.6908L116.808 92.7865L105.247 109.82ZM82.239 109.437H105.021L116.411 92.6908L105.021 75.9442H82.239L70.8482 92.6908L82.239 109.437Z" fill="#2962FF"/>
<path opacity="0.326" d="M174.839 109.82H151.547L139.93 92.6908L139.987 92.5951L151.547 75.5614H174.839L186.457 92.6908L186.4 92.7865L174.839 109.82ZM151.774 109.437H174.556L185.947 92.6908L174.556 75.9442H151.774L140.383 92.6908L151.774 109.437Z" fill="#2962FF"/>
<path opacity="0.827" d="M254.405 94.3644L244.148 109.436H221.366L209.975 92.6897L221.366 75.9431H244.148L254.405 91.0629V90.3452L244.374 75.6081H221.139L209.522 92.594L209.465 92.6897L221.139 109.819H244.374L254.405 95.0821V94.3644Z" fill="#2962FF"/>
<path opacity="0.933" d="M70.4507 92.882H47.159L35.5415 75.7526L35.5982 75.6569L47.159 58.6232H70.4507L82.0682 75.7526L82.0116 75.8483L70.4507 92.882ZM47.4424 92.4992H70.224L81.6149 75.7526L70.224 59.006H47.4424L36.0516 75.7526L47.4424 92.4992Z" fill="#2962FF"/>
<path opacity="0.878" d="M140.042 92.882H116.751L105.133 75.7526L105.19 75.6569L116.751 58.6232H140.042L151.66 75.7526L151.603 75.8483L140.042 92.882ZM116.977 92.4992H139.759L151.15 75.7526L139.759 59.006H116.977L105.587 75.7526L116.977 92.4992Z" fill="#2962FF"/>
<path opacity="0.366" d="M209.578 92.882H186.286L174.669 75.7526L174.725 75.6569L186.286 58.6232H209.578L221.195 75.7526L221.139 75.8483L209.578 92.882ZM186.569 92.4992H209.351L220.742 75.7526L209.351 59.006H186.569L175.179 75.7526L186.569 92.4992Z" fill="#2962FF"/>
<path opacity="0.815" d="M105.247 75.9438H81.9556L70.3381 58.8144L70.3948 58.7187L81.9556 41.685H105.247L116.865 58.8144L116.808 58.9101L105.247 75.9438ZM82.239 75.5611H105.021L116.411 58.8144L105.021 42.0678H82.239L70.8482 58.8144L82.239 75.5611Z" fill="#2962FF"/>
<path opacity="0.815" d="M163.306 58.719H140.014L128.397 41.5896L128.453 41.4939L140.014 24.4602H163.306L174.923 41.5896L174.867 41.6853L163.306 58.719ZM140.298 58.3362H163.079L174.47 41.5896L163.079 24.8429H140.298L128.907 41.5896L140.298 58.3362Z" fill="#2962FF"/>
<path opacity="0.586" d="M174.839 75.9438H151.547L139.93 58.8144L139.987 58.7187L151.547 41.685H174.839L186.457 58.8144L186.4 58.9101L174.839 75.9438ZM151.774 75.5611H174.556L185.947 58.8144L174.556 42.0678H151.774L140.383 58.8144L151.774 75.5611Z" fill="#2962FF"/>
<path opacity="0.521" d="M254.405 60.4412L244.148 75.5611H221.366L209.975 58.8144L221.366 42.0678H244.148L254.405 57.1876V56.4221L244.374 41.685H221.139L209.522 58.7187L209.465 58.8144L221.139 75.9438H244.374L254.405 61.159V60.4412Z" fill="#2962FF"/>
<path opacity="0.312" d="M140.042 58.9566H116.751L105.133 41.8272L105.19 41.7315L116.751 24.6978H140.042L151.66 41.8272L151.603 41.9229L140.042 58.9566ZM116.977 58.6216H139.759L151.15 41.875L139.759 25.1284H116.977L105.587 41.875L116.977 58.6216Z" fill="#2962FF"/>
<path opacity="0.7" d="M209.578 58.9566H186.286L174.669 41.8272L174.725 41.7315L186.286 24.6978H209.578L221.195 41.8272L221.139 41.9229L209.578 58.9566ZM186.569 58.6216H209.351L220.742 41.875L209.351 25.1284H186.569L175.179 41.875L186.569 58.6216Z" fill="#2962FF"/>
<path opacity="0.292" d="M35.5404 42.0184H12.2487L0.631165 24.889L12.2487 7.75958H35.5404L47.1579 24.889L35.5404 42.0184ZM12.532 41.6835H35.3137L46.7045 24.9368L35.3137 8.19021H12.532L1.1412 24.9368L12.532 41.6835Z" fill="#2962FF"/>
<path opacity="0.996" d="M105.247 42.0184H81.9556L70.3381 24.889L70.3948 24.7933L81.9556 7.75958H105.247L116.865 24.889L116.808 24.9847L105.247 42.0184ZM82.239 41.6835H105.021L116.411 24.9368L105.021 8.19021H82.239L70.8482 24.9368L82.239 41.6835Z" fill="#2962FF"/>
<path opacity="0.363" d="M174.839 42.0196H151.547L139.93 24.938L139.987 24.8423L151.547 7.80863H174.839L186.457 24.938L186.4 25.0337L174.839 42.0196ZM151.774 41.6847H174.556L185.947 24.938L174.556 8.19141H151.774L140.383 24.938L151.774 41.6847Z" fill="#2962FF"/>
<path opacity="0.46" d="M254.405 26.5649L244.148 41.6847H221.366L209.975 24.938L221.366 8.19141H244.148L254.405 23.2634V22.5457L244.374 7.80863H221.139L209.522 24.8423L209.465 24.938L221.139 42.0196H244.374L254.405 27.2826V26.5649Z" fill="#2962FF"/>
<path opacity="0.563" d="M70.4507 25.0814H47.159L35.5415 7.95196L35.5982 7.85627L47.2157 -9.12959H70.5074L82.1249 7.99981L82.0116 8.0955L70.4507 25.0814ZM47.4424 24.7464H70.224L81.6149 7.99981L70.224 -8.74681H47.4424L36.0516 7.99981L47.4424 24.7464Z" fill="#2962FF"/>
<path opacity="0.446" d="M140.042 25.0814H116.751L105.133 7.95196L105.19 7.85627L116.751 -9.12959H140.042L151.66 7.99981L151.603 8.0955L140.042 25.0814ZM116.977 24.7464H139.759L151.15 7.99981L139.759 -8.74681H116.977L105.587 7.99981L116.977 24.7464Z" fill="#2962FF"/>
<path opacity="0.889" d="M209.578 25.0814H186.286L174.669 7.95196L174.725 7.85627L186.343 -9.12959H209.634L221.252 7.99981L221.195 8.0955L209.578 25.0814ZM186.569 24.7464H209.351L220.742 7.99981L209.351 -8.74681H186.569L175.179 7.99981L186.569 24.7464Z" fill="#2962FF"/>
<path opacity="0.566" d="M46.5345 -9.12959L46.6478 -8.9382L35.257 7.80842H12.532L1.1412 -8.9382L1.25455 -9.12959H0.744509L0.631165 -8.9382L12.2487 8.14335H35.5404L47.1579 -8.9382L47.0445 -9.12959H46.5345Z" fill="#2962FF"/>
<path opacity="0.548" d="M46.7063 -9.12959L46.8197 -8.9382L35.4289 7.80842H12.6472L1.25645 -8.9382L1.36977 -9.12959H0.916392L0.859753 -9.0339L0.80307 -8.9382L12.4206 8.14335H35.6556L47.273 -8.84251L47.3297 -8.9382L47.2164 -9.12959H46.7063Z" fill="#2962FF"/>
<path opacity="0.841" d="M116.298 -9.12959L116.411 -8.9382L105.021 7.80842H82.239L70.8482 -8.9382L70.9615 -9.12959H70.4515L70.3948 -9.0339L70.3381 -8.9382L81.9556 8.14335H105.247L116.808 -8.84251L116.865 -8.9382L116.751 -9.12959H116.298Z" fill="#2962FF"/>
<path opacity="0.547" d="M185.833 -9.12959L185.947 -8.9382L174.556 7.80842H151.774L140.383 -8.9382L140.497 -9.12959H140.043L139.987 -9.0339L139.93 -8.9382L151.547 8.14335H174.839L186.4 -8.84251L186.457 -8.9382L186.343 -9.12959H185.833Z" fill="#2962FF"/>
<path opacity="0.403" d="M254.405 -7.31139L244.148 7.80842H221.366L209.975 -8.9382L210.088 -9.12959H209.578L209.522 -9.0339L209.465 -8.9382L221.139 8.14335H244.374L254.405 -6.59368V-7.31139Z" fill="#2962FF"/>
<path opacity="0.62" d="M154.267 143.553C154.267 144.136 153.992 144.696 153.503 145.109C153.015 145.522 152.351 145.754 151.66 145.754C150.969 145.754 150.306 145.522 149.817 145.109C149.328 144.696 149.053 144.136 149.053 143.553C149.053 142.969 149.328 142.409 149.817 141.996C150.306 141.584 150.969 141.352 151.66 141.352C152.351 141.352 153.015 141.584 153.503 141.996C153.992 142.409 154.267 142.969 154.267 143.553Z" fill="#2962FF"/>
<path opacity="0.444" d="M153.587 143.504C153.587 143.864 153.461 144.215 153.224 144.514C152.988 144.813 152.651 145.046 152.258 145.184C151.864 145.321 151.431 145.357 151.013 145.287C150.596 145.217 150.212 145.044 149.911 144.79C149.61 144.535 149.405 144.211 149.321 143.859C149.238 143.506 149.281 143.14 149.444 142.808C149.607 142.476 149.883 142.192 150.237 141.992C150.591 141.792 151.008 141.686 151.434 141.686C152.005 141.686 152.553 141.877 152.956 142.218C153.36 142.559 153.587 143.022 153.587 143.504Z" fill="#2962FF"/>
<path opacity="0.205" d="M211.448 126.614C211.442 126.938 211.324 127.254 211.107 127.522C210.89 127.79 210.584 127.997 210.228 128.119C209.872 128.241 209.481 128.272 209.104 128.208C208.728 128.143 208.382 127.986 208.11 127.757C207.839 127.528 207.653 127.236 207.577 126.918C207.5 126.6 207.537 126.27 207.681 125.969C207.826 125.669 208.072 125.411 208.389 125.227C208.706 125.044 209.08 124.944 209.464 124.939C209.725 124.938 209.984 124.98 210.225 125.064C210.467 125.148 210.686 125.271 210.87 125.427C211.055 125.583 211.201 125.768 211.3 125.972C211.399 126.175 211.449 126.394 211.448 126.614Z" fill="#2962FF"/>
<path opacity="0.4" d="M15.0252 143.504C15.0298 144.093 14.7584 144.66 14.2702 145.081C13.7819 145.502 13.1163 145.744 12.4184 145.752C12.0715 145.752 11.7281 145.693 11.4085 145.579C11.0888 145.465 10.7991 145.299 10.5565 145.09C10.3138 144.88 10.1229 144.632 9.99503 144.36C9.86713 144.088 9.80476 143.797 9.81153 143.504C9.81153 142.92 10.0862 142.36 10.5751 141.947C11.0639 141.535 11.727 141.303 12.4184 141.303C13.1098 141.303 13.7728 141.535 14.2617 141.947C14.7506 142.36 15.0252 142.92 15.0252 143.504Z" fill="#2962FF"/>
<path opacity="0.848" d="M223.576 143.503C223.579 143.761 223.521 144.017 223.405 144.257C223.289 144.496 223.118 144.713 222.902 144.896C222.686 145.078 222.428 145.223 222.145 145.32C221.862 145.418 221.558 145.467 221.252 145.465C220.637 145.462 220.048 145.255 219.613 144.887C219.178 144.52 218.932 144.022 218.929 143.503C218.926 143.244 218.984 142.988 219.1 142.749C219.215 142.51 219.386 142.293 219.603 142.11C219.819 141.927 220.076 141.783 220.36 141.685C220.643 141.588 220.946 141.539 221.252 141.541C221.868 141.544 222.457 141.751 222.892 142.118C223.327 142.486 223.573 142.983 223.576 143.503Z" fill="#2962FF"/>
<path opacity="0.427" d="M37.864 109.627C37.864 110.006 37.731 110.376 37.4819 110.691C37.2328 111.006 36.8788 111.251 36.4646 111.396C36.0504 111.541 35.5946 111.578 35.1549 111.505C34.7151 111.431 34.3112 111.248 33.9942 110.981C33.6772 110.713 33.4613 110.372 33.3738 110.001C33.2864 109.63 33.3312 109.245 33.5028 108.895C33.6744 108.545 33.9649 108.246 34.3377 108.036C34.7105 107.826 35.1488 107.714 35.5971 107.714C36.1983 107.714 36.7749 107.915 37.2 108.274C37.6251 108.633 37.864 109.12 37.864 109.627Z" fill="#2962FF"/>
<path opacity="0.427" d="M60.5342 109.627C60.5342 110.006 60.4012 110.376 60.1521 110.691C59.9031 111.006 59.549 111.251 59.1348 111.396C58.7206 111.541 58.2648 111.578 57.8251 111.505C57.3854 111.431 56.9814 111.248 56.6644 110.981C56.3474 110.713 56.1315 110.372 56.044 110.001C55.9566 109.63 56.0015 109.245 56.173 108.895C56.3446 108.545 56.6352 108.246 57.0079 108.036C57.3807 107.826 57.819 107.714 58.2673 107.714C58.8685 107.714 59.4451 107.915 59.8702 108.274C60.2953 108.633 60.5342 109.12 60.5342 109.627Z" fill="#2962FF"/>
<path opacity="0.428" d="M153.53 109.629C153.53 109.979 153.407 110.321 153.177 110.612C152.947 110.904 152.619 111.13 152.236 111.264C151.853 111.398 151.431 111.433 151.025 111.365C150.618 111.297 150.244 111.128 149.951 110.881C149.658 110.633 149.458 110.318 149.377 109.974C149.296 109.631 149.338 109.275 149.497 108.951C149.655 108.628 149.924 108.351 150.269 108.157C150.614 107.962 151.019 107.858 151.434 107.858C151.987 107.866 152.515 108.055 152.907 108.385C153.298 108.716 153.522 109.162 153.53 109.629Z" fill="#2962FF"/>
<path opacity="0.582" d="M118.848 126.565C118.848 127.009 118.639 127.435 118.267 127.749C117.895 128.063 117.39 128.239 116.864 128.239C116.338 128.239 115.834 128.063 115.462 127.749C115.09 127.435 114.881 127.009 114.881 126.565C114.881 126.121 115.09 125.695 115.462 125.381C115.834 125.067 116.338 124.89 116.864 124.89C117.39 124.89 117.895 125.067 118.267 125.381C118.639 125.695 118.848 126.121 118.848 126.565Z" fill="#2962FF"/>
<path opacity="0.644" d="M186.457 94.6988C187.772 94.6988 188.837 93.7991 188.837 92.6892C188.837 91.5793 187.772 90.6796 186.457 90.6796C185.142 90.6796 184.077 91.5793 184.077 92.6892C184.077 93.7991 185.142 94.6988 186.457 94.6988Z" fill="#2962FF"/>
<path opacity="0.831" d="M82.1255 111.255C83.1897 111.255 84.0523 110.526 84.0523 109.628C84.0523 108.729 83.1897 108.001 82.1255 108.001C81.0614 108.001 80.1987 108.729 80.1987 109.628C80.1987 110.526 81.0614 111.255 82.1255 111.255Z" fill="#2962FF"/>
<path opacity="0.527" d="M177.049 109.629C177.049 110.149 176.804 110.648 176.369 111.016C175.933 111.384 175.342 111.59 174.726 111.59C174.11 111.59 173.518 111.384 173.083 111.016C172.647 110.648 172.402 110.149 172.402 109.629C172.402 109.108 172.647 108.609 173.083 108.242C173.518 107.874 174.11 107.667 174.726 107.667C175.342 107.667 175.933 107.874 176.369 108.242C176.804 108.609 177.049 109.108 177.049 109.629Z" fill="#2962FF"/>
<path opacity="0.411" d="M212.185 92.6892C212.174 93.0939 212.022 93.4869 211.747 93.8189C211.473 94.1509 211.089 94.4071 210.642 94.5555C210.196 94.7039 209.708 94.7379 209.239 94.6532C208.77 94.5685 208.341 94.3689 208.006 94.0793C207.671 93.7898 207.445 93.4232 207.355 93.0254C207.266 92.6277 207.317 92.2165 207.503 91.8433C207.689 91.4701 208.001 91.1516 208.401 90.9275C208.8 90.7035 209.269 90.584 209.748 90.5839C210.396 90.6069 211.008 90.8375 211.461 91.2287C211.914 91.62 212.173 92.1423 212.185 92.6892Z" fill="#2962FF"/>
<path opacity="0.445" d="M84.2219 75.751C84.2219 76.1485 84.0822 76.537 83.8207 76.8675C83.5592 77.198 83.1874 77.4556 82.7525 77.6077C82.3176 77.7598 81.8391 77.7996 81.3774 77.722C80.9157 77.6445 80.4915 77.4531 80.1587 77.172C79.8258 76.891 79.5991 76.5329 79.5073 76.1431C79.4154 75.7533 79.4626 75.3492 79.6427 74.982C79.8229 74.6148 80.1279 74.3009 80.5193 74.0801C80.9108 73.8593 81.371 73.7414 81.8417 73.7414C82.4716 73.7452 83.0744 73.9581 83.5198 74.3342C83.9652 74.7103 84.2174 75.2192 84.2219 75.751Z" fill="#2962FF"/>
<path opacity="0.313" d="M72.0946 58.8145C72.0946 59.1078 71.9916 59.3946 71.7986 59.6385C71.6055 59.8825 71.3311 60.0726 71.0101 60.1848C70.6891 60.2971 70.3358 60.3265 69.9951 60.2693C69.6543 60.212 69.3412 60.0707 69.0955 59.8633C68.8499 59.6559 68.6825 59.3916 68.6148 59.1039C68.547 58.8161 68.5817 58.5179 68.7147 58.2469C68.8477 57.9758 69.0729 57.7442 69.3618 57.5812C69.6507 57.4182 69.9903 57.3312 70.3378 57.3312C70.8028 57.3337 71.248 57.4908 71.5768 57.7684C71.9056 58.046 72.0917 58.4219 72.0946 58.8145Z" fill="#2962FF"/>
<path opacity="0.288" d="M37.9794 75.7512C37.9794 76.1108 37.8531 76.4624 37.6164 76.7614C37.3798 77.0604 37.0435 77.2934 36.65 77.431C36.2565 77.5686 35.8235 77.6046 35.4058 77.5345C34.988 77.4643 34.6043 77.2912 34.3032 77.0369C34.002 76.7826 33.7969 76.4586 33.7138 76.1059C33.6307 75.7533 33.6733 75.3877 33.8363 75.0554C33.9993 74.7232 34.2753 74.4392 34.6295 74.2395C34.9836 74.0397 35.4 73.933 35.8259 73.933C36.397 73.933 36.9448 74.1246 37.3486 74.4656C37.7525 74.8066 37.9794 75.269 37.9794 75.7512Z" fill="#2962FF"/>
<path opacity="0.954" d="M141.573 58.8134C141.573 59.0973 141.473 59.3748 141.287 59.6108C141.1 59.8469 140.834 60.0309 140.524 60.1395C140.213 60.2482 139.871 60.2766 139.541 60.2212C139.211 60.1658 138.908 60.0291 138.671 59.8284C138.433 59.6276 138.271 59.3718 138.205 59.0934C138.14 58.8149 138.174 58.5263 138.302 58.264C138.431 58.0017 138.649 57.7776 138.928 57.6198C139.208 57.4621 139.537 57.3779 139.873 57.3779C140.096 57.3779 140.317 57.4151 140.524 57.4872C140.73 57.5593 140.917 57.6651 141.075 57.7984C141.233 57.9316 141.358 58.0899 141.444 58.264C141.529 58.4382 141.573 58.6248 141.573 58.8134Z" fill="#2962FF"/>
<path opacity="0.406" d="M211.562 92.6895C211.565 93.1643 211.347 93.6211 210.955 93.9612C210.562 94.3014 210.027 94.4977 209.465 94.5077C208.902 94.5077 208.361 94.3187 207.962 93.9822C207.564 93.6457 207.34 93.1893 207.34 92.7134C207.34 92.2376 207.564 91.7812 207.962 91.4447C208.361 91.1082 208.902 90.9192 209.465 90.9192C209.743 90.9104 210.021 90.9503 210.28 91.0361C210.539 91.122 210.774 91.2521 210.971 91.4183C211.168 91.5845 211.322 91.7831 211.423 92.0019C211.525 92.2206 211.572 92.4547 211.562 92.6895Z" fill="#2962FF"/>
<path opacity="0.643" d="M188.837 58.8128C188.837 59.2103 188.698 59.5988 188.436 59.9293C188.174 60.2598 187.803 60.5173 187.368 60.6694C186.933 60.8215 186.454 60.8613 185.993 60.7838C185.531 60.7063 185.107 60.5149 184.774 60.2338C184.441 59.9528 184.214 59.5947 184.123 59.2049C184.031 58.815 184.078 58.411 184.258 58.0438C184.438 57.6766 184.743 57.3627 185.135 57.1419C185.526 56.9211 185.986 56.8032 186.457 56.8032C187.087 56.807 187.69 57.0199 188.135 57.396C188.58 57.772 188.833 58.281 188.837 58.8128Z" fill="#2962FF"/>
<path opacity="0.478" d="M186.456 94.3654C187.551 94.3654 188.439 93.6156 188.439 92.6907C188.439 91.7658 187.551 91.0161 186.456 91.0161C185.36 91.0161 184.472 91.7658 184.472 92.6907C184.472 93.6156 185.36 94.3654 186.456 94.3654Z" fill="#2962FF"/>
<path opacity="0.356" d="M14.6865 75.7522C14.6895 76.0105 14.6315 76.2668 14.5158 76.5059C14.4001 76.7451 14.2291 76.9624 14.0127 77.1451C13.7963 77.3277 13.539 77.4721 13.2557 77.5698C12.9724 77.6675 12.669 77.7165 12.363 77.7139C11.7477 77.7114 11.1584 77.5039 10.7233 77.1366C10.2882 76.7692 10.0425 76.2717 10.0395 75.7522C10.0395 75.2319 10.2843 74.7329 10.72 74.365C11.1558 73.9971 11.7468 73.7904 12.363 73.7904C12.9792 73.7904 13.5702 73.9971 14.006 74.365C14.4417 74.7329 14.6865 75.2319 14.6865 75.7522Z" fill="#2962FF"/>
<path opacity="0.323" d="M37.5827 75.753C37.5842 75.9732 37.5339 76.1916 37.4348 76.3953C37.3356 76.5991 37.1896 76.7842 37.0051 76.94C36.8206 77.0957 36.6014 77.219 36.3601 77.3027C36.1187 77.3865 35.8601 77.4289 35.5992 77.4276C35.075 77.4227 34.5739 77.2446 34.2032 76.9316C33.8325 76.6187 33.6216 76.1956 33.6158 75.753C33.6143 75.5327 33.6645 75.3144 33.7637 75.1106C33.8628 74.9069 34.0089 74.7217 34.1933 74.566C34.3778 74.4102 34.5971 74.2869 34.8384 74.2032C35.0797 74.1195 35.3383 74.077 35.5992 74.0783C35.8614 74.0731 36.1221 74.1128 36.3655 74.1951C36.609 74.2774 36.8301 74.4006 37.0156 74.5571C37.201 74.7137 37.3469 74.9004 37.4444 75.106C37.5419 75.3115 37.5889 75.5316 37.5827 75.753Z" fill="#2962FF"/>
<path opacity="0.441" d="M154.21 75.7521C154.21 76.1779 154.061 76.5942 153.781 76.9483C153.5 77.3024 153.102 77.5783 152.636 77.7413C152.17 77.9043 151.657 77.9469 151.163 77.8638C150.668 77.7807 150.214 77.5757 149.857 77.2746C149.5 76.9734 149.257 76.5898 149.159 76.1721C149.061 75.7544 149.111 75.3215 149.304 74.9281C149.497 74.5347 149.824 74.1984 150.243 73.9618C150.663 73.7252 151.156 73.5989 151.66 73.5989C151.995 73.5977 152.328 73.6525 152.638 73.7602C152.948 73.868 153.23 74.0265 153.467 74.2267C153.704 74.4269 153.892 74.6648 154.019 74.9266C154.147 75.1884 154.212 75.4689 154.21 75.7521Z" fill="#2962FF"/>
<path opacity="0.421" d="M118.792 58.8132C118.78 59.1233 118.661 59.4237 118.449 59.677C118.237 59.9303 117.941 60.1252 117.599 60.2374C117.256 60.3496 116.882 60.3742 116.523 60.3079C116.164 60.2417 115.836 60.0877 115.58 59.8651C115.324 59.6425 115.152 59.3611 115.084 59.0562C115.017 58.7513 115.057 58.4363 115.2 58.1506C115.343 57.8648 115.582 57.621 115.889 57.4495C116.195 57.2781 116.554 57.1865 116.921 57.1864C117.171 57.1895 117.417 57.2341 117.646 57.3175C117.875 57.401 118.082 57.5217 118.256 57.6727C118.429 57.8238 118.566 58.0023 118.658 58.198C118.75 58.3936 118.795 58.6027 118.792 58.8132Z" fill="#2962FF"/>
<path opacity="0.782" d="M211.958 58.8127C211.947 59.2175 211.795 59.6105 211.52 59.9425C211.246 60.2745 210.862 60.5307 210.416 60.6791C209.969 60.8275 209.481 60.8615 209.012 60.7768C208.544 60.6921 208.115 60.4925 207.779 60.2029C207.444 59.9134 207.218 59.5468 207.128 59.149C207.039 58.7513 207.09 58.3401 207.276 57.9669C207.462 57.5937 207.774 57.2752 208.174 57.0512C208.573 56.8271 209.042 56.7076 209.522 56.7075C210.172 56.7224 210.79 56.9504 211.245 57.3434C211.7 57.7363 211.956 58.2633 211.958 58.8127Z" fill="#2962FF"/>
<path opacity="0.55" d="M222.839 41.8762C222.839 42.1885 222.729 42.4937 222.524 42.7534C222.318 43.0131 222.026 43.2154 221.685 43.335C221.343 43.4545 220.967 43.4857 220.604 43.4248C220.241 43.3639 219.908 43.2135 219.647 42.9927C219.385 42.7719 219.207 42.4905 219.135 42.1842C219.063 41.8779 219.1 41.5605 219.241 41.2719C219.383 40.9834 219.622 40.7368 219.93 40.5633C220.238 40.3898 220.599 40.2972 220.969 40.2972C221.464 40.301 221.937 40.4685 222.286 40.7638C222.636 41.0591 222.835 41.4586 222.839 41.8762Z" fill="#2962FF"/>
<path opacity="0.582" d="M37.5805 8.00077C37.5805 8.36038 37.4542 8.71191 37.2176 9.01091C36.981 9.30991 36.6446 9.54295 36.2511 9.68057C35.8577 9.81819 35.4247 9.85419 35.0069 9.78404C34.5892 9.71388 34.2055 9.54071 33.9043 9.28643C33.6031 9.03215 33.398 8.70818 33.3149 8.35548C33.2318 8.00279 33.2745 7.63721 33.4375 7.30497C33.6005 6.97274 33.8765 6.68877 34.2306 6.48899C34.5848 6.2892 35.0011 6.18256 35.427 6.18256C35.7098 6.18256 35.9899 6.22959 36.2511 6.32097C36.5124 6.41234 36.7498 6.54627 36.9498 6.7151C37.1498 6.88394 37.3084 7.08438 37.4166 7.30497C37.5248 7.52557 37.5805 7.762 37.5805 8.00077Z" fill="#2962FF"/>
<path opacity="0.513" d="M14.6298 41.8747C14.6298 42.2532 14.4969 42.6232 14.2478 42.938C13.9987 43.2527 13.6447 43.498 13.2305 43.6429C12.8163 43.7877 12.3605 43.8256 11.9208 43.7518C11.481 43.6779 11.0771 43.4957 10.7601 43.228C10.4431 42.9603 10.2272 42.6193 10.1397 42.248C10.0523 41.8768 10.0971 41.492 10.2687 41.1422C10.4403 40.7925 10.7308 40.4936 11.1036 40.2833C11.4764 40.073 11.9147 39.9608 12.363 39.9608C12.9642 39.9608 13.5408 40.1624 13.9659 40.5213C14.391 40.8803 14.6298 41.3671 14.6298 41.8747Z" fill="#2962FF"/>
<path opacity="0.367" d="M223.915 7.99919C223.915 8.44397 223.759 8.87876 223.466 9.24857C223.174 9.61839 222.758 9.90663 222.271 10.0768C221.784 10.247 221.249 10.2916 220.732 10.2048C220.215 10.118 219.741 9.90386 219.368 9.58935C218.996 9.27485 218.742 8.87415 218.639 8.43791C218.537 8.00168 218.589 7.54952 218.791 7.1386C218.993 6.72768 219.334 6.37646 219.772 6.12935C220.21 5.88225 220.725 5.75036 221.252 5.75036C221.602 5.74973 221.948 5.80746 222.272 5.92025C222.595 6.03304 222.889 6.19867 223.137 6.40762C223.384 6.61657 223.58 6.86473 223.714 7.13785C223.848 7.41098 223.916 7.70369 223.915 7.99919Z" fill="#2962FF"/>
</g>
</svg>
