<svg width="113" height="36" viewBox="0 0 113 36" fill="none" xmlns="http://www.w3.org/2000/svg">
<path fill-rule="evenodd" clip-rule="evenodd" d="M69.9844 27.4081C63.4288 32.3896 53.927 35.0474 45.7461 35.0474C34.2751 35.0474 23.9482 30.6734 16.1356 23.3986C15.5218 22.8266 16.0718 22.0469 16.8083 22.4924C25.2397 27.5499 35.6648 30.5924 46.4335 30.5924C53.6962 30.5924 61.6856 29.0433 69.0317 25.8286C70.1415 25.3426 71.0696 26.5779 69.9844 27.4081Z" fill="#A7A7A7"/>
<path fill-rule="evenodd" clip-rule="evenodd" d="M72.7103 24.1935C71.8755 23.0899 67.1713 23.6721 65.0597 23.9303C64.4165 24.0113 64.3182 23.4341 64.8977 23.019C68.6444 20.3005 74.7924 21.0851 75.5093 21.9964C76.2262 22.9127 75.3227 29.2661 71.8019 32.2985C71.2617 32.7643 70.7461 32.5162 70.9867 31.8986C71.7773 29.8635 73.55 25.3022 72.7103 24.1935Z" fill="#A7A7A7"/>
<path fill-rule="evenodd" clip-rule="evenodd" d="M65.2067 3.82692V1.1843C65.2067 0.784364 65.5013 0.516052 65.8549 0.516052H77.3308C77.6991 0.516052 77.9937 0.789427 77.9937 1.1843V3.44723C77.9888 3.82692 77.6794 4.32304 77.1294 5.10772L71.1828 13.8608C73.3925 13.8051 75.725 14.1443 77.7285 15.3086C78.1803 15.5719 78.3031 15.9566 78.3374 16.3363V19.1561C78.3374 19.5409 77.9249 19.9914 77.4928 19.7586C73.9622 17.85 69.2726 17.6424 65.3687 19.7788C64.971 20.0016 64.5536 19.5561 64.5536 19.1713V16.4933C64.5536 16.0629 64.5585 15.3289 64.9759 14.6758L71.8654 4.4901H65.8696C65.5013 4.4901 65.2067 4.22179 65.2067 3.82692Z" fill="#A7A7A7"/>
<path fill-rule="evenodd" clip-rule="evenodd" d="M23.3448 20.3158H19.8535C19.5196 20.2905 19.2544 20.0323 19.2298 19.7033V1.23028C19.2298 0.860715 19.5294 0.567089 19.9026 0.567089H23.1582C23.4971 0.582266 23.7672 0.850587 23.7917 1.18471V3.59952H23.8555C24.7051 1.26571 26.301 0.177277 28.4518 0.177277C30.637 0.177277 32.0021 1.26571 32.9842 3.59952C33.8288 1.26571 35.7488 0.177277 37.8063 0.177277C39.2697 0.177277 40.8705 0.799962 41.8477 2.19721C42.9526 3.75139 42.7267 6.00925 42.7267 7.98869L42.7218 19.6476C42.7218 20.0171 42.4222 20.3158 42.049 20.3158H38.5626C38.2139 20.2905 37.934 20.002 37.934 19.6476V9.85674C37.934 9.07712 38.0028 7.13313 37.8358 6.394C37.5755 5.1537 36.7948 4.80438 35.7832 4.80438C34.9386 4.80438 34.0547 5.38657 33.6962 6.31807C33.3378 7.24956 33.3721 8.8088 33.3721 9.85674V19.6476C33.3721 20.0171 33.0726 20.3158 32.6994 20.3158H29.2129C28.8594 20.2905 28.5844 20.002 28.5844 19.6476L28.5795 9.85674C28.5795 7.79631 28.9085 4.76388 26.4287 4.76388C23.9194 4.76388 24.0176 7.72037 24.0176 9.85674V19.6476C24.0176 20.0171 23.718 20.3158 23.3448 20.3158" fill="#A7A7A7"/>
<path fill-rule="evenodd" clip-rule="evenodd" d="M87.873 0.177277C93.0536 0.177277 95.8575 4.76389 95.8575 10.5959C95.8575 16.2304 92.7589 20.7006 87.873 20.7006C82.7857 20.7006 80.0161 16.114 80.0161 10.3984C80.0161 4.64745 82.82 0.177277 87.873 0.177277ZM87.9024 3.94883C85.3293 3.94883 85.1673 7.56344 85.1673 9.81625C85.1673 12.0741 85.1329 16.8936 87.873 16.8936C90.5787 16.8936 90.7063 13.0056 90.7063 10.6364C90.7063 9.07712 90.6425 7.21413 90.1858 5.73588C89.793 4.45002 89.0122 3.94883 87.9024 3.94883Z" fill="#A7A7A7"/>
<path fill-rule="evenodd" clip-rule="evenodd" d="M102.575 20.3158H99.0984C98.7498 20.2905 98.4699 20.002 98.4699 19.6476L98.465 1.16952C98.4944 0.830336 98.7841 0.567089 99.1377 0.567089H102.374C102.678 0.582266 102.929 0.794901 102.997 1.08346V3.90832H103.061C104.038 1.38215 105.408 0.177277 107.82 0.177277C109.386 0.177277 110.913 0.759463 111.895 2.35414C112.809 3.83239 112.809 6.31807 112.809 8.10512V19.7336C112.769 20.0576 112.48 20.3158 112.136 20.3158H108.635C108.315 20.2905 108.05 20.0475 108.016 19.7336V9.6998C108.016 7.67987 108.242 4.72338 105.831 4.72338C104.981 4.72338 104.2 5.31063 103.813 6.20163C103.321 7.33056 103.258 8.45443 103.258 9.6998V19.6476C103.253 20.0171 102.948 20.3158 102.575 20.3158" fill="#A7A7A7"/>
<path fill-rule="evenodd" clip-rule="evenodd" d="M56.0583 11.4918C56.0583 12.8941 56.0927 14.0636 55.4052 15.309C54.8503 16.3215 53.9664 16.9441 52.9892 16.9441C51.6487 16.9441 50.863 15.8911 50.863 14.337C50.863 11.2691 53.5294 10.7122 56.0583 10.7122V11.4918ZM59.5792 20.2651C59.3484 20.4777 59.0144 20.4929 58.7542 20.3512C57.5953 19.3589 57.3841 18.8983 56.7507 17.9516C54.8356 19.9664 53.4754 20.5689 50.9955 20.5689C48.0541 20.5689 45.7708 18.7008 45.7708 14.9596C45.7708 12.0386 47.3028 10.049 49.4929 9.07703C51.3884 8.21641 54.0352 8.06454 56.0583 7.8266V7.36085C56.0583 6.50529 56.1221 5.49279 55.6311 4.75367C55.2088 4.09049 54.3936 3.81711 53.6718 3.81711C52.341 3.81711 51.1576 4.5208 50.8679 5.97879C50.809 6.30279 50.5782 6.62173 50.259 6.63692L46.8756 6.26229C46.5908 6.19648 46.2716 5.95854 46.3551 5.50798C47.131 1.27575 50.8433 0 54.1628 0C55.8619 0 58.0814 0.465749 59.422 1.79212C61.1211 3.4273 60.959 5.60923 60.959 7.98354V13.5928C60.959 15.2786 61.6367 16.0177 62.275 16.9289C62.496 17.2529 62.5451 17.6428 62.2603 17.8858C61.5483 18.4983 60.2813 19.6374 59.584 20.2752L59.5791 20.2651" fill="#A7A7A7"/>
<path fill-rule="evenodd" clip-rule="evenodd" d="M10.2875 11.4921C10.2875 12.8944 10.3219 14.0638 9.63445 15.3092C9.07956 16.3217 8.20057 16.9443 7.21847 16.9443C5.87789 16.9443 5.09712 15.8913 5.09712 14.3372C5.09712 11.2693 7.76354 10.7124 10.2875 10.7124V11.4921ZM13.8084 20.2653C13.5776 20.478 13.2437 20.4931 12.9834 20.3514C11.8245 19.3591 11.6183 18.8985 10.9799 17.9518C9.06482 19.9666 7.70952 20.5691 5.22479 20.5691C2.2883 20.5691 0 18.701 0 14.9599C0 12.0388 1.53699 10.0492 3.72218 9.07725C5.61764 8.21662 8.26441 8.06475 10.2875 7.82681V7.36106C10.2875 6.5055 10.3514 5.49301 9.86524 4.75389C9.43802 4.0907 8.62288 3.81733 7.90594 3.81733C6.57519 3.81733 5.38684 4.52101 5.09712 5.97901C5.0382 6.30301 4.8074 6.62194 4.49313 6.63713L1.10487 6.2625C0.820057 6.19669 0.505783 5.95875 0.584351 5.5082C1.36513 1.27596 5.07257 0.000213623 8.39209 0.000213623C10.0911 0.000213623 12.3107 0.465963 13.6513 1.79233C15.3503 3.42751 15.1882 5.60944 15.1882 7.98375V13.593C15.1882 15.2788 15.8659 16.0179 16.5043 16.9292C16.7302 17.2532 16.7793 17.643 16.4944 17.886C15.7824 18.4985 14.5155 19.6376 13.8182 20.2755L13.8084 20.2653" fill="#A7A7A7"/>
</svg>
