<svg width="107" height="34" viewBox="0 0 107 34" fill="none" xmlns="http://www.w3.org/2000/svg">
<path fill-rule="evenodd" clip-rule="evenodd" d="M65.9907 25.8442C59.8093 30.5414 50.8496 33.0475 43.1356 33.0475C32.3192 33.0475 22.5816 28.9231 15.2148 22.0635C14.636 21.5241 15.1546 20.7889 15.8492 21.209C23.7994 25.9778 33.6296 28.8468 43.7838 28.8468C50.632 28.8468 58.1655 27.386 65.0925 24.3548C66.1389 23.8965 67.014 25.0613 65.9907 25.8442Z" fill="#FF9900"/>
<path fill-rule="evenodd" clip-rule="evenodd" d="M68.5611 22.8129C67.7739 21.7723 63.3381 22.3213 61.3471 22.5647C60.7405 22.6411 60.6479 22.0969 61.1943 21.7055C64.7272 19.1421 70.5243 19.882 71.2003 20.7412C71.8763 21.6052 71.0244 27.5961 67.7045 30.4555C67.1951 30.8946 66.7089 30.6607 66.9358 30.0784C67.6813 28.1594 69.3528 23.8584 68.5611 22.8129Z" fill="#FF9900"/>
<path fill-rule="evenodd" clip-rule="evenodd" d="M61.4856 3.60862V1.11681C61.4856 0.739694 61.7635 0.486694 62.0968 0.486694H72.9179C73.2651 0.486694 73.543 0.744469 73.543 1.11681V3.2506C73.5383 3.60862 73.2466 4.07644 72.728 4.81634L67.1207 13.0699C69.2044 13.0174 71.4038 13.3372 73.2929 14.4351C73.7189 14.6834 73.8347 15.0462 73.8671 15.4042V18.0631C73.8671 18.4259 73.4781 18.8507 73.0707 18.6311C69.7415 16.8315 65.3195 16.6358 61.6384 18.6502C61.2634 18.8603 60.8698 18.4402 60.8698 18.0774V15.5522C60.8698 15.1464 60.8744 14.4542 61.268 13.8384L67.7643 4.23396H62.1107C61.7635 4.23396 61.4856 3.98097 61.4856 3.60862Z" fill="black"/>
<path fill-rule="evenodd" clip-rule="evenodd" d="M22.0127 19.1565H18.7205C18.4057 19.1327 18.1556 18.8892 18.1325 18.5789V1.16009C18.1325 0.811613 18.4149 0.534743 18.7668 0.534743H21.8367C22.1562 0.549054 22.4109 0.802063 22.434 1.11712V3.39413H22.4942C23.2953 1.1935 24.8001 0.167175 26.8282 0.167175C28.8887 0.167175 30.1759 1.1935 31.102 3.39413C31.8984 1.1935 33.7088 0.167175 35.6489 0.167175C37.0287 0.167175 38.5382 0.754327 39.4597 2.07184C40.5015 3.53733 40.2885 5.66635 40.2885 7.53283L40.2839 18.5264C40.2839 18.8749 40.0014 19.1565 39.6495 19.1565H36.362C36.0332 19.1327 35.7693 18.8606 35.7693 18.5264V9.29428C35.7693 8.55915 35.8341 6.72609 35.6767 6.02914C35.4313 4.85962 34.6951 4.53024 33.7412 4.53024C32.9448 4.53024 32.1114 5.0792 31.7734 5.95754C31.4353 6.83588 31.4678 8.30614 31.4678 9.29428V18.5264C31.4678 18.8749 31.1853 19.1565 30.8334 19.1565H27.5459C27.2125 19.1327 26.9532 18.8606 26.9532 18.5264L26.9486 9.29428C26.9486 7.35143 27.2588 4.49205 24.9205 4.49205C22.5544 4.49205 22.647 7.27982 22.647 9.29428V18.5264C22.647 18.8749 22.3646 19.1565 22.0127 19.1565" fill="black"/>
<path fill-rule="evenodd" clip-rule="evenodd" d="M82.8585 0.167175C87.7435 0.167175 90.3874 4.49205 90.3874 9.99123C90.3874 15.3042 87.4656 19.5193 82.8585 19.5193C78.0615 19.5193 75.45 15.1944 75.45 9.80506C75.45 4.38226 78.0939 0.167175 82.8585 0.167175ZM82.8863 3.7235C80.46 3.7235 80.3072 7.13184 80.3072 9.2561C80.3072 11.3851 80.2748 15.9296 82.8585 15.9296C85.4098 15.9296 85.5302 12.2635 85.5302 10.0294C85.5302 8.55915 85.47 6.80247 85.0394 5.40858C84.6689 4.19609 83.9327 3.7235 82.8863 3.7235Z" fill="black"/>
<path fill-rule="evenodd" clip-rule="evenodd" d="M96.7216 19.1565H93.4434C93.1146 19.1327 92.8507 18.8606 92.8507 18.5264L92.8461 1.1028C92.8739 0.782968 93.147 0.534743 93.4804 0.534743H96.5318C96.8189 0.549054 97.055 0.749555 97.1198 1.02165V3.68531H97.18C98.1015 1.30329 99.3933 0.167175 101.667 0.167175C103.144 0.167175 104.584 0.716139 105.51 2.21982C106.371 3.61371 106.371 5.95754 106.371 7.64262V18.6076C106.334 18.9131 106.061 19.1565 105.737 19.1565H102.435C102.134 19.1327 101.884 18.9035 101.852 18.6076V9.1463C101.852 7.24164 102.065 4.45386 99.7915 4.45386C98.9905 4.45386 98.2543 5.0076 97.8885 5.84775C97.4254 6.91226 97.3652 7.972 97.3652 9.1463V18.5264C97.3606 18.8749 97.0735 19.1565 96.7216 19.1565" fill="black"/>
<path fill-rule="evenodd" clip-rule="evenodd" d="M52.8593 10.8361C52.8593 12.1583 52.8917 13.261 52.2435 14.4353C51.7203 15.3901 50.8868 15.9772 49.9654 15.9772C48.7013 15.9772 47.9605 14.9843 47.9605 13.5188C47.9605 10.626 50.4747 10.1009 52.8593 10.1009V10.8361ZM56.1793 19.1087C55.9616 19.3092 55.6468 19.3235 55.4014 19.1898C54.3086 18.2542 54.1095 17.8198 53.5122 16.9272C51.7064 18.8271 50.4238 19.3951 48.0855 19.3951C45.3119 19.3951 43.1588 17.6337 43.1588 14.106C43.1588 11.3516 44.6035 9.47558 46.6686 8.55905C48.4559 7.74754 50.9516 7.60434 52.8593 7.37998V6.94081C52.8593 6.13407 52.9195 5.17935 52.4565 4.48241C52.0583 3.85706 51.2897 3.59929 50.609 3.59929C49.3542 3.59929 48.2383 4.26282 47.9651 5.63761C47.9095 5.94312 47.6919 6.24386 47.3909 6.25818L44.2007 5.90493C43.9321 5.84288 43.6311 5.61852 43.7099 5.19367C44.4414 1.20295 47.942 0 51.072 0C52.6741 0 54.767 0.439171 56.0311 1.68985C57.6332 3.23172 57.4804 5.28914 57.4804 7.52796V12.8171C57.4804 14.4067 58.1194 15.1036 58.7213 15.9629C58.9297 16.2684 58.976 16.636 58.7074 16.8651C58.036 17.4427 56.8414 18.5168 56.1839 19.1182L56.1793 19.1087" fill="black"/>
<path fill-rule="evenodd" clip-rule="evenodd" d="M9.70049 10.8364C9.70049 12.1587 9.7329 13.2614 9.08466 14.4357C8.56143 15.3904 7.73261 15.9776 6.80655 15.9776C5.54247 15.9776 4.80626 14.9847 4.80626 13.5192C4.80626 10.6264 7.32051 10.1013 9.70049 10.1013V10.8364ZM13.0204 19.1091C12.8028 19.3095 12.4879 19.3239 12.2425 19.1902C11.1498 18.2546 10.9553 17.8202 10.3534 16.9275C8.54754 18.8274 7.26958 19.3955 4.92664 19.3955C2.15772 19.3955 0 17.634 0 14.1063C0 11.352 1.44928 9.47595 3.50977 8.55942C5.29707 7.7479 7.7928 7.6047 9.70049 7.38034V6.94117C9.70049 6.13443 9.76068 5.17971 9.30228 4.48277C8.89944 3.85743 8.13081 3.59965 7.45479 3.59965C6.19998 3.59965 5.07944 4.26318 4.80626 5.63798C4.75069 5.94349 4.53307 6.24423 4.23673 6.25855L1.04182 5.9053C0.77326 5.84325 0.47692 5.61888 0.551005 5.19404C1.28722 1.20331 4.7831 0.000366211 7.91319 0.000366211C9.51527 0.000366211 11.6082 0.439538 12.8722 1.69022C14.4743 3.23209 14.3215 5.28951 14.3215 7.52832V12.8175C14.3215 14.4071 14.9605 15.104 15.5625 15.9633C15.7754 16.2688 15.8217 16.6363 15.5532 16.8655C14.8818 17.4431 13.6872 18.5171 13.0297 19.1186L13.0204 19.109" fill="black"/>
</svg>
