<svg width="121" height="24" viewBox="0 0 121 24" fill="none" xmlns="http://www.w3.org/2000/svg">
<path fill-rule="evenodd" clip-rule="evenodd" d="M83.2394 11.3128L83.266 19.3282L84.6283 19.3571L85.9908 19.3859L86.0607 18.6827C86.0992 18.2958 86.1582 17.8198 86.1917 17.6248L86.2527 17.2703L86.4534 17.6614C87.14 18.9997 88.8982 19.8239 90.6702 19.638C92.8906 19.4049 94.4192 17.9753 95.0067 15.5825C95.2578 14.5597 95.2597 11.902 95.01 10.9756C94.4352 8.84299 93.1599 7.5104 91.3301 7.13033C90.9966 7.06102 90.3483 7.02916 89.8499 7.05749C88.4323 7.13822 87.3978 7.69323 86.7236 8.73487L86.3269 9.34758V6.32245V3.29733H84.7699H83.2128L83.2394 11.3128ZM33.5131 11.9103V19.3987L37.0668 19.3543C39.9761 19.318 40.7335 19.2783 41.2432 19.136C43.5294 18.497 44.9556 17.0175 45.5493 14.6684C45.816 13.6131 45.8463 10.4812 45.6011 9.31541C45.1161 7.00997 43.5361 5.33009 41.2432 4.68232C40.7292 4.53716 40.0012 4.49908 37.0668 4.46422L33.5131 4.42209V11.9103ZM60.2831 7.19456C58.0553 7.67476 56.4564 9.29227 55.9782 11.5493C55.7818 12.4769 55.7814 14.4511 55.9775 15.3854C56.4182 17.4839 57.7589 18.8749 59.8871 19.4416C60.8122 19.6879 62.9087 19.6879 63.811 19.4414C65.9507 18.8572 67.3635 17.3859 67.8053 15.2816C68.0008 14.3505 68.001 12.4794 67.8058 11.5462C67.2109 8.70292 65.0024 7.02128 61.8914 7.04275C61.3778 7.04628 60.6541 7.11456 60.2831 7.19456ZM75.1038 7.23181C74.7806 7.33515 74.3543 7.51974 74.1567 7.64197C73.713 7.9161 73.0224 8.65498 72.7732 9.122L72.587 9.47105L72.4597 8.69285C72.3896 8.26484 72.3293 7.7862 72.3258 7.62931L72.3193 7.34397H70.9704H69.6215V15.3854V23.4268H71.1779H72.7343V20.5059V17.5851L73.0278 17.9897C73.9706 19.2899 75.5534 19.8854 77.3151 19.6031C79.4146 19.2666 80.8737 17.8335 81.4086 15.5825C81.6365 14.6229 81.6381 12.2471 81.4114 11.1831C80.9575 9.053 79.5798 7.54101 77.7357 7.14942C76.9337 6.97915 75.781 7.01526 75.1038 7.23181ZM100.874 7.24249C98.7906 7.78838 97.4234 9.16008 96.8357 11.2943C96.5794 12.2248 96.5847 14.6944 96.8449 15.6365C97.4075 17.6728 98.7148 18.9584 100.724 19.4511C101.792 19.7132 103.693 19.6849 104.743 19.3914C106.728 18.8366 107.986 17.5907 108.524 15.6468C108.796 14.6642 108.828 12.3023 108.582 11.3346C108.028 9.1551 106.463 7.64269 104.285 7.18096C103.313 6.97479 101.791 7.00229 100.874 7.24249ZM39.8909 7.25733C41.0112 7.48228 41.9037 8.30998 42.2869 9.47904C42.4567 9.99701 42.4878 10.3871 42.4853 11.9613C42.4826 13.6647 42.4613 13.8818 42.2431 14.4289C41.9101 15.2643 41.4446 15.8279 40.7763 16.2049C40.2104 16.524 40.1912 16.527 38.4676 16.5614L36.7296 16.5961V11.8662V7.13645H38.0093C38.7131 7.13645 39.5599 7.19082 39.8909 7.25733ZM52.7087 7.42999C52.0412 7.67829 51.659 7.90552 51.3425 8.24264C51.0243 8.58152 50.5297 9.47728 50.5297 9.71478C50.5297 9.81294 50.4941 9.83732 50.4384 9.77714C50.3881 9.72298 50.2904 9.2159 50.2212 8.65041C50.1521 8.08503 50.0715 7.55969 50.0421 7.48311C50.0016 7.37759 49.691 7.34397 48.7547 7.34397H47.5207V13.362V19.3801H49.0698H50.6189L50.6521 15.8263L50.6853 12.2726L50.9783 11.6758C51.4545 10.7062 52.3351 10.3606 54.3429 10.3551L55.0951 10.353V8.79661V7.24021L54.1354 7.2483C53.511 7.25349 53.0124 7.31699 52.7087 7.42999ZM115.951 9.08319L114.736 10.8743L114.142 10.017C113.815 9.54555 113.276 8.75127 112.944 8.25187L112.34 7.34397H110.536C108.849 7.34397 108.738 7.3557 108.832 7.52555C108.887 7.62537 109.819 8.92102 110.902 10.4046C112.029 11.9469 112.837 13.1466 112.79 13.2061C112.417 13.68 108.324 19.2973 108.324 19.3355C108.324 19.3627 109.151 19.3721 110.161 19.3566L111.998 19.3282L113.255 17.4847C113.946 16.4708 114.558 15.595 114.615 15.5383C114.683 15.4701 115.184 16.1029 116.094 17.4078L117.471 19.3801H119.227C120.193 19.3801 120.983 19.3577 120.983 19.3303C120.983 19.3029 120.008 17.9303 118.816 16.2799C117.625 14.6296 116.62 13.2302 116.582 13.1701C116.545 13.1099 117.254 12.0663 118.157 10.8509C120.498 7.69966 120.671 7.46247 120.671 7.40498C120.671 7.37666 119.883 7.33961 118.919 7.3228L117.166 7.29209L115.951 9.08319ZM63.1113 9.96443C64.3447 10.4823 64.9972 12.1496 64.7449 14.1391C64.592 15.3456 64.1033 16.1491 63.2403 16.6133C62.6363 16.9381 61.1421 16.9349 60.5277 16.6074C59.9298 16.2887 59.4097 15.6418 59.1877 14.9411C58.9417 14.1644 58.9363 12.6006 59.1768 11.7866C59.6949 10.0331 61.3972 9.24475 63.1113 9.96443ZM90.6251 10.0835C91.5718 10.6384 92.0345 11.6936 92.0324 13.2935C92.0293 15.6926 91.0843 16.8832 89.1803 16.8866C87.5337 16.8895 86.5859 15.9461 86.3209 14.0406C86.1888 13.0906 86.321 12.0169 86.6514 11.3561C86.9096 10.84 87.5076 10.1894 87.9251 9.97045C88.6553 9.58747 89.8652 9.63821 90.6251 10.0835ZM103.624 9.85237C104.918 10.1787 105.742 11.8127 105.594 13.7561C105.516 14.7774 105.389 15.2 104.975 15.8144C104.467 16.5679 103.859 16.838 102.671 16.838C101.835 16.838 101.683 16.8073 101.246 16.5504C100.277 15.9805 99.8147 14.9556 99.8169 13.3788C99.8197 11.2929 100.665 9.98207 102.163 9.73854C102.691 9.65284 102.898 9.66892 103.624 9.85237ZM76.7298 9.97439C77.3815 10.2779 77.8327 10.7861 78.1408 11.5637C78.3432 12.0743 78.3813 12.3633 78.3849 13.4139C78.3889 14.5679 78.3677 14.7057 78.0944 15.2973C77.7423 16.0593 77.4242 16.385 76.7291 16.6953C75.6425 17.1805 74.3403 16.9429 73.5337 16.1124C72.2209 14.7607 72.3903 11.3875 73.8259 10.2925C74.6271 9.68137 75.82 9.55074 76.7298 9.97439Z" fill="black"/>
<path fill-rule="evenodd" clip-rule="evenodd" d="M5.69829 0.821156C4.98888 1.27272 4.05826 1.86726 3.63025 2.14233C3.20224 2.4174 2.21029 3.05044 1.42608 3.54911L0 4.45577L3.34564 6.5845C5.18561 7.75533 6.75031 8.76959 6.82274 8.83827C6.92681 8.93726 6.22902 9.42493 3.47482 11.1783C1.56107 12.3965 0.00778127 13.4028 0.0229302 13.4144C0.0380792 13.426 0.750911 13.8789 1.60693 14.4209C2.46295 14.9628 4.0207 15.9523 5.06857 16.6198C6.11644 17.2871 7.00774 17.8194 7.04924 17.8025C7.09075 17.7856 8.64953 16.7975 10.5133 15.6066C12.6361 14.2502 13.9697 13.4593 14.0838 13.4894C14.1838 13.5158 15.7745 14.5018 17.6186 15.6805C19.4628 16.8592 20.9909 17.8237 21.0146 17.8237C21.0382 17.8237 22.1674 17.1159 23.524 16.2509C24.8806 15.3859 26.4341 14.399 26.9762 14.0577C27.5184 13.7164 27.9741 13.4277 27.9888 13.416C28.0037 13.4042 27.5134 13.0745 26.8994 12.6832C26.2854 12.2919 25.4095 11.7327 24.9529 11.4404C24.4964 11.1482 23.434 10.4706 22.592 9.93481C21.3881 9.16875 21.0888 8.93415 21.1912 8.83693C21.2628 8.76896 22.8274 7.75575 24.6681 6.58533L28.0148 4.45722L26.5877 3.55326C25.8027 3.05604 24.927 2.49543 24.6416 2.30731C23.7158 1.697 21.1403 0.0721141 21.0641 0.0502207C20.9708 0.0233469 14.1139 4.36363 14.1117 4.45089C14.1107 4.48617 15.5602 5.43806 17.3325 6.56614C19.1048 7.69422 20.6527 8.69633 20.7721 8.79304C20.9846 8.96517 20.9574 8.98883 19.4951 9.90887C18.6734 10.4258 17.1143 11.4149 16.0304 12.1069C14.9466 12.7988 13.9992 13.3417 13.925 13.3132C13.6645 13.2132 7.05443 8.97721 7.0591 8.91319C7.06169 8.8776 8.60253 7.87393 10.4832 6.68276C12.3638 5.4916 13.9018 4.48772 13.9007 4.45193C13.8994 4.40046 10.6246 2.28812 7.4234 0.273823L6.98823 0L5.69829 0.821156ZM10.5781 17.0527C8.72559 18.2296 7.17137 19.2289 7.12426 19.2734C7.03679 19.356 7.82423 19.8928 10.7124 21.7187C11.6115 22.2872 12.6854 22.9712 13.0989 23.2387C13.5123 23.5063 13.9051 23.728 13.9717 23.7316C14.0383 23.7351 15.6385 22.7509 17.5276 21.5444C20.5293 19.6275 20.9394 19.3348 20.7788 19.2239C20.3348 18.9175 14.1525 14.9922 14.0548 14.9547C13.9951 14.9318 12.4305 15.8759 10.5781 17.0527Z" fill="#0061FE"/>
</svg>
