<svg width="133" height="27" viewBox="0 0 133 27" fill="none" xmlns="http://www.w3.org/2000/svg">
<path fill-rule="evenodd" clip-rule="evenodd" d="M91.4957 12.435L91.5249 21.2455L93.0224 21.2772L94.52 21.3089L94.5969 20.5358C94.6392 20.1107 94.704 19.5874 94.7408 19.3731L94.8079 18.9834L95.0285 19.4133C95.7833 20.8844 97.7158 21.7903 99.6635 21.5859C102.104 21.3297 103.784 19.7583 104.43 17.1282C104.706 16.004 104.708 13.0827 104.434 12.0643C103.802 9.7202 102.4 8.25544 100.389 7.83766C100.022 7.76148 99.3098 7.72646 98.762 7.7576C97.2037 7.84633 96.0666 8.45639 95.3255 9.60136L94.8895 10.2748V6.94966V3.62448H93.178H91.4665L91.4957 12.435ZM36.8372 13.0918V21.3229L40.7434 21.2741C43.9412 21.2342 44.7738 21.1906 45.334 21.0341C47.847 20.3318 49.4147 18.7055 50.0673 16.1234C50.3604 14.9635 50.3937 11.5208 50.1242 10.2395C49.5911 7.70536 47.8543 5.85887 45.334 5.14684C44.769 4.98728 43.9688 4.94543 40.7434 4.90711L36.8372 4.8608V13.0918ZM66.2625 7.90826C63.8137 8.43609 62.0561 10.214 61.5306 12.6949C61.3147 13.7145 61.3142 15.8846 61.5298 16.9115C62.0142 19.2182 63.4878 20.7472 65.8272 21.37C66.844 21.6408 69.1484 21.6408 70.1402 21.3699C72.4922 20.7277 74.0451 19.1104 74.5308 16.7974C74.7456 15.7739 74.7459 13.7173 74.5313 12.6916C73.8774 9.56623 71.4499 7.71779 68.0303 7.7414C67.4657 7.74528 66.6702 7.82033 66.2625 7.90826ZM82.5532 7.94921C82.1979 8.0628 81.7294 8.2657 81.5121 8.40005C81.0244 8.70138 80.2653 9.51354 79.9915 10.0269L79.7867 10.4106L79.6468 9.55517C79.5698 9.0847 79.5035 8.55858 79.4997 8.38614L79.4925 8.0725H78.0098H76.5271V16.9115V25.7505H78.2379H79.9487V22.5399V19.3294L80.2712 19.7742C81.3076 21.2033 83.0474 21.8579 84.9838 21.5476C87.2916 21.1777 88.8954 19.6024 89.4833 17.1282C89.7339 16.0734 89.7356 13.462 89.4864 12.2924C88.9875 9.95104 87.4731 8.28908 85.4461 7.85865C84.5646 7.67149 83.2976 7.71118 82.5532 7.94921ZM110.88 7.96095C108.589 8.56098 107.087 10.0687 106.441 12.4147C106.159 13.4375 106.165 16.152 106.451 17.1875C107.069 19.4258 108.506 20.839 110.714 21.3805C111.888 21.6686 113.978 21.6375 115.132 21.3149C117.314 20.7051 118.697 19.3356 119.288 17.1989C119.587 16.1188 119.622 13.5227 119.352 12.4589C118.743 10.0633 117.023 8.40085 114.629 7.89332C113.56 7.6667 111.888 7.69692 110.88 7.96095ZM43.8476 7.97726C45.079 8.22453 46.0601 9.13432 46.4813 10.4193C46.6678 10.9887 46.7021 11.4175 46.6993 13.1478C46.6964 15.0202 46.673 15.2588 46.4331 15.8602C46.0671 16.7784 45.5554 17.3979 44.8208 17.8123C44.1987 18.1631 44.1776 18.1664 42.2831 18.2042L40.3728 18.2424V13.0433V7.84439H41.7794C42.553 7.84439 43.4837 7.90416 43.8476 7.97726ZM57.9367 8.16705C57.203 8.43997 56.783 8.68974 56.4351 9.0603C56.0853 9.43279 55.5416 10.4174 55.5416 10.6785C55.5416 10.7864 55.5025 10.8132 55.4413 10.747C55.386 10.6875 55.2786 10.1301 55.2026 9.50852C55.1266 8.88705 55.038 8.30961 55.0057 8.22544C54.9611 8.10945 54.6198 8.0725 53.5905 8.0725H52.2341V14.6875V21.3025H53.9369H55.6397L55.6762 17.3962L55.7127 13.49L56.0348 12.834C56.5582 11.7682 57.5261 11.3883 59.733 11.3823L60.5599 11.38V9.66922V7.95844L59.5049 7.96734C58.8187 7.97304 58.2705 8.04284 57.9367 8.16705ZM127.452 9.98423L126.116 11.953L125.463 11.0107C125.104 10.4924 124.511 9.61938 124.146 9.07045L123.482 8.0725H121.499C119.645 8.0725 119.524 8.08538 119.627 8.27209C119.687 8.3818 120.711 9.80597 121.902 11.4367C123.14 13.1319 124.029 14.4507 123.978 14.5161C123.568 15.0369 119.068 21.2115 119.068 21.2534C119.068 21.2833 119.977 21.2937 121.088 21.2766L123.107 21.2455L124.488 19.2191C125.248 18.1046 125.921 17.1419 125.983 17.0796C126.058 17.0047 126.608 17.7002 127.61 19.1345L129.123 21.3025H131.053C132.114 21.3025 132.983 21.2779 132.983 21.2477C132.983 21.2176 131.911 19.7088 130.602 17.8947C129.292 16.0807 128.187 14.5425 128.146 14.4765C128.105 14.4103 128.884 13.2632 129.877 11.9272C132.45 8.46347 132.641 8.20274 132.641 8.13956C132.641 8.10842 131.774 8.0677 130.714 8.04923L128.787 8.01547L127.452 9.98423ZM69.3712 10.9529C70.7269 11.5221 71.4441 13.3548 71.1668 15.5416C70.9987 16.8678 70.4615 17.751 69.513 18.2612C68.8491 18.6183 67.2066 18.6147 66.5313 18.2547C65.8741 17.9044 65.3024 17.1933 65.0584 16.4231C64.788 15.5695 64.7821 13.8505 65.0465 12.9557C65.6159 11.0284 67.4871 10.1618 69.3712 10.9529ZM99.6141 11.0838C100.655 11.6936 101.163 12.8535 101.161 14.6121C101.158 17.2492 100.119 18.5579 98.0259 18.5616C96.216 18.5648 95.1741 17.5278 94.8828 15.4334C94.7377 14.3891 94.883 13.2089 95.2462 12.4825C95.53 11.9152 96.1872 11.2001 96.6462 10.9595C97.4488 10.5385 98.7787 10.5943 99.6141 11.0838ZM113.903 10.8297C115.325 11.1884 116.231 12.9845 116.068 15.1207C115.982 16.2433 115.843 16.7077 115.387 17.3831C114.829 18.2113 114.161 18.5082 112.855 18.5082C111.936 18.5082 111.769 18.4745 111.288 18.1921C110.223 17.5657 109.715 16.4391 109.718 14.7059C109.721 12.4131 110.649 10.9723 112.296 10.7046C112.876 10.6104 113.104 10.6281 113.903 10.8297ZM84.3405 10.9638C85.0568 11.2974 85.5527 11.856 85.8915 12.7107C86.1139 13.272 86.1557 13.5896 86.1597 14.7445C86.1642 16.013 86.1408 16.1645 85.8404 16.8147C85.4534 17.6523 85.1037 18.0103 84.3397 18.3514C83.1453 18.8847 81.714 18.6235 80.8273 17.7107C79.3844 16.2249 79.5705 12.5171 81.1485 11.3135C82.0292 10.6417 83.3405 10.4981 84.3405 10.9638Z" fill="#A7A7A7"/>
<path fill-rule="evenodd" clip-rule="evenodd" d="M6.26349 0.902605C5.48372 1.39896 4.46079 2.05247 3.99033 2.35483C3.51986 2.65718 2.42953 3.35301 1.56753 3.90114L0 4.89772L3.67748 7.23761C5.69996 8.52456 7.41986 9.63942 7.49947 9.71492C7.61386 9.82373 6.84686 10.3598 3.81948 12.287C1.71591 13.6261 0.00855308 14.7322 0.0252046 14.7449C0.0418562 14.7577 0.825392 15.2556 1.76632 15.8512C2.70724 16.4469 4.4195 17.5345 5.57131 18.2682C6.72312 19.0018 7.70282 19.5869 7.74844 19.5683C7.79406 19.5497 9.50746 18.4636 11.5561 17.1546C13.8894 15.6636 15.3553 14.7943 15.4807 14.8274C15.5906 14.8564 17.3392 15.9402 19.3662 17.2358C21.3932 18.5315 23.073 19.5916 23.099 19.5916C23.1249 19.5916 24.3661 18.8136 25.8573 17.8628C27.3484 16.912 29.056 15.8272 29.6519 15.4521C30.2479 15.0769 30.7488 14.7595 30.765 14.7467C30.7813 14.7338 30.2424 14.3713 29.5674 13.9412C28.8926 13.5111 27.9298 12.8964 27.4279 12.5751C26.9261 12.2539 25.7583 11.5092 24.8328 10.9202C23.5096 10.0782 23.1805 9.82031 23.2931 9.71344C23.3718 9.63874 25.0916 8.52502 27.1149 7.23852L30.7935 4.89932L29.2248 3.9057C28.362 3.35917 27.3994 2.74295 27.0858 2.53617C26.0681 1.86532 23.2371 0.0792669 23.1534 0.055202C23.0509 0.0256626 15.5139 4.79645 15.5114 4.89236C15.5103 4.93114 17.1035 5.97745 19.0516 7.21742C20.9998 8.45739 22.7012 9.5589 22.8325 9.6652C23.066 9.85441 23.0362 9.88041 21.4288 10.8917C20.5255 11.4599 18.8118 12.5472 17.6204 13.3078C16.4291 14.0683 15.3877 14.665 15.3062 14.6337C15.0198 14.5238 7.75414 9.86764 7.75928 9.79727C7.76213 9.75815 9.45579 8.65493 11.523 7.34561C13.5902 6.0363 15.2806 4.93285 15.2795 4.8935C15.278 4.83693 11.6784 2.51507 8.15971 0.300983L7.68138 0L6.26349 0.902605ZM11.6273 18.7442C9.59106 20.0377 7.88268 21.1362 7.8309 21.1851C7.73476 21.2759 8.60029 21.8659 11.7749 23.873C12.7632 24.4978 13.9436 25.2497 14.3981 25.5437C14.8526 25.8378 15.2843 26.0816 15.3575 26.0854C15.4307 26.0893 17.1896 25.0075 19.2662 23.6813C22.5656 21.5744 23.0163 21.2526 22.8398 21.1307C22.3517 20.7939 15.5563 16.4792 15.4489 16.438C15.3833 16.4128 13.6635 17.4506 11.6273 18.7442Z" fill="#A7A7A7"/>
</svg>
