<svg width="87" height="30" viewBox="0 0 87 30" fill="none" xmlns="http://www.w3.org/2000/svg">
<path d="M37.0231 15.3847C37.0231 19.5488 33.8278 22.6173 29.9064 22.6173C25.985 22.6173 22.7897 19.5488 22.7897 15.3847C22.7897 11.1912 25.985 8.1521 29.9064 8.1521C33.8278 8.1521 37.0231 11.1912 37.0231 15.3847ZM33.9078 15.3847C33.9078 12.7825 32.0558 11.0021 29.9064 11.0021C27.757 11.0021 25.905 12.7825 25.905 15.3847C25.905 17.9608 27.757 19.7673 29.9064 19.7673C32.0558 19.7673 33.9078 17.9575 33.9078 15.3847Z" fill="#EA4335"/>
<path d="M52.3759 15.3847C52.3759 19.5488 49.1806 22.6173 45.2592 22.6173C41.3378 22.6173 38.1424 19.5488 38.1424 15.3847C38.1424 11.1945 41.3378 8.1521 45.2592 8.1521C49.1806 8.1521 52.3759 11.1912 52.3759 15.3847ZM49.2605 15.3847C49.2605 12.7825 47.4086 11.0021 45.2592 11.0021C43.1097 11.0021 41.2578 12.7825 41.2578 15.3847C41.2578 17.9608 43.1097 19.7673 45.2592 19.7673C47.4086 19.7673 49.2605 17.9575 49.2605 15.3847Z" fill="#FBBC05"/>
<path d="M67.089 8.58906V21.5738C67.089 26.9151 63.9993 29.0967 60.3465 29.0967C56.9081 29.0967 54.8387 26.7521 54.0582 24.8347L56.7706 23.6836C57.2536 24.8608 58.437 26.2499 60.3433 26.2499C62.6815 26.2499 64.1304 24.7793 64.1304 22.0108V20.9706H64.0217C63.3244 21.8477 61.981 22.6141 60.2858 22.6141C56.7386 22.6141 53.4889 19.4641 53.4889 15.4108C53.4889 11.3282 56.7386 8.1521 60.2858 8.1521C61.9778 8.1521 63.3212 8.9184 64.0217 9.76949H64.1304V8.59232H67.089V8.58906ZM64.3511 15.4108C64.3511 12.8641 62.6847 11.0021 60.564 11.0021C58.4146 11.0021 56.6139 12.8641 56.6139 15.4108C56.6139 17.9314 58.4146 19.7673 60.564 19.7673C62.6847 19.7673 64.3511 17.9314 64.3511 15.4108Z" fill="#4285F4"/>
<path d="M71.967 0.97821V22.1739H68.9284V0.97821H71.967Z" fill="#34A853"/>
<path d="M83.8077 17.7652L86.2257 19.4087C85.4453 20.5858 83.5646 22.6141 80.3149 22.6141C76.2847 22.6141 73.2749 19.438 73.2749 15.3815C73.2749 11.0804 76.3103 8.14886 79.9662 8.14886C83.6477 8.14886 85.4485 11.1358 86.037 12.75L86.3601 13.5717L76.8764 17.576C77.6025 19.0271 78.7316 19.7673 80.3149 19.7673C81.9013 19.7673 83.0016 18.9717 83.8077 17.7652ZM76.3647 15.163L82.7042 12.4793C82.3555 11.576 81.3064 10.9467 80.0718 10.9467C78.4885 10.9467 76.2847 12.3717 76.3647 15.163Z" fill="#EA4335"/>
<path d="M11.2864 13.5013V10.4329H21.429C21.5281 10.9676 21.5793 11.6002 21.5793 12.285C21.5793 14.5872 20.962 17.4339 18.9725 19.4622C17.0374 21.5166 14.5649 22.6122 11.2896 22.6122C5.21881 22.6122 0.113953 17.5709 0.113953 11.3818C0.113953 5.19264 5.21881 0.151337 11.2896 0.151337C14.6481 0.151337 17.0406 1.49481 18.8381 3.2459L16.7143 5.41112C15.4253 4.17851 13.6789 3.21981 11.2864 3.21981C6.85325 3.21981 3.38605 6.86221 3.38605 11.3818C3.38605 15.9013 6.85325 19.5437 11.2864 19.5437C14.1619 19.5437 15.7995 18.3666 16.8487 17.297C17.6995 16.4296 18.2592 15.1905 18.4799 13.4981L11.2864 13.5013Z" fill="#4285F4"/>
</svg>
