<svg width="104" height="35" viewBox="0 0 104 35" fill="none" xmlns="http://www.w3.org/2000/svg">
<path d="M44.4701 17.9273C44.4701 22.8285 40.62 26.4401 35.8951 26.4401C31.1702 26.4401 27.3202 22.8285 27.3202 17.9273C27.3202 12.9916 31.1702 9.41457 35.8951 9.41457C40.62 9.41457 44.4701 12.9916 44.4701 17.9273ZM40.7164 17.9273C40.7164 14.8646 38.485 12.769 35.8951 12.769C33.3053 12.769 31.0739 14.8646 31.0739 17.9273C31.0739 20.9594 33.3053 23.0856 35.8951 23.0856C38.485 23.0856 40.7164 20.9555 40.7164 17.9273Z" fill="#A7A7A7"/>
<path d="M62.9686 17.9273C62.9686 22.8285 59.1185 26.4401 54.3936 26.4401C49.6687 26.4401 45.8187 22.8285 45.8187 17.9273C45.8187 12.9955 49.6687 9.41457 54.3936 9.41457C59.1185 9.41457 62.9686 12.9916 62.9686 17.9273ZM59.2149 17.9273C59.2149 14.8646 56.9835 12.769 54.3936 12.769C51.8038 12.769 49.5724 14.8646 49.5724 17.9273C49.5724 20.9594 51.8038 23.0856 54.3936 23.0856C56.9835 23.0856 59.2149 20.9555 59.2149 17.9273Z" fill="#A7A7A7"/>
<path d="M80.6966 9.92886V25.2119C80.6966 31.4986 76.9737 34.0663 72.5725 34.0663C68.4296 34.0663 65.9361 31.3067 64.9957 29.0499L68.2638 27.6951C68.8458 29.0806 70.2717 30.7157 72.5687 30.7157C75.3859 30.7157 77.1317 28.9847 77.1317 25.7262V24.5019H77.0007C76.1605 25.5343 74.5419 26.4362 72.4993 26.4362C68.2253 26.4362 64.3097 22.7287 64.3097 17.958C64.3097 13.1528 68.2253 9.41457 72.4993 9.41457C74.538 9.41457 76.1566 10.3165 77.0007 11.3182H77.1317V9.9327H80.6966V9.92886ZM77.3976 17.958C77.3976 14.9605 75.3897 12.769 72.8346 12.769C70.2448 12.769 68.075 14.9605 68.075 17.958C68.075 20.9248 70.2448 23.0856 72.8346 23.0856C75.3897 23.0856 77.3976 20.9248 77.3976 17.958Z" fill="#A7A7A7"/>
<path d="M86.574 0.970947V25.9182H82.9128V0.970947H86.574Z" fill="#A7A7A7"/>
<path d="M100.841 20.7292L103.754 22.6635C102.814 24.0491 100.548 26.4363 96.6324 26.4363C91.7764 26.4363 88.1499 22.6981 88.1499 17.9236C88.1499 12.8612 91.8073 9.41081 96.2123 9.41081C100.648 9.41081 102.818 12.9265 103.527 14.8263L103.916 15.7935L92.4894 20.5066C93.3642 22.2145 94.7247 23.0857 96.6324 23.0857C98.5439 23.0857 99.8696 22.1492 100.841 20.7292ZM91.8728 17.6664L99.5112 14.5077C99.0912 13.4446 97.8271 12.7038 96.3395 12.7038C94.4318 12.7038 91.7764 14.3811 91.8728 17.6664Z" fill="#A7A7A7"/>
<path d="M13.4617 15.7129V12.1013H25.6824C25.8019 12.7308 25.8636 13.4753 25.8636 14.2813C25.8636 16.991 25.1198 20.3416 22.7226 22.7288C20.391 25.1468 17.412 26.4364 13.4656 26.4364C6.15084 26.4364 0 20.5028 0 13.2182C0 5.9336 6.15084 0 13.4656 0C17.5122 0 20.3949 1.58127 22.5608 3.64229L20.0018 6.19075C18.4487 4.73997 16.3444 3.61159 13.4617 3.61159C8.12018 3.61159 3.94255 7.89867 3.94255 13.2182C3.94255 18.5377 8.12018 22.8248 13.4617 22.8248C16.9264 22.8248 18.8996 21.4393 20.1636 20.1804C21.1888 19.1595 21.8632 17.701 22.1291 15.7091L13.4617 15.7129Z" fill="#A7A7A7"/>
</svg>
