<svg width="686" height="459" viewBox="0 0 686 459" fill="none" xmlns="http://www.w3.org/2000/svg">
<path fill-rule="evenodd" clip-rule="evenodd" d="M678.5 99.25C678.5 99.25 679.354 107.665 686 108.248C679.354 108.831 678.5 117.25 678.5 117.25C678.5 117.25 677.646 108.831 671 108.248C677.646 107.665 678.5 99.25 678.5 99.25Z" fill="#2962FF"/>
<path fill-rule="evenodd" clip-rule="evenodd" d="M107.817 291.25C107.817 291.25 108.594 298.906 114.635 299.436C108.594 299.965 107.817 307.621 107.817 307.621C107.817 307.621 107.041 299.965 101 299.436C107.041 298.906 107.817 291.25 107.817 291.25Z" fill="#2962FF"/>
<path fill-rule="evenodd" clip-rule="evenodd" d="M301.817 0.25C301.817 0.25 302.594 7.90605 308.635 8.43566C302.594 8.96527 301.817 16.6207 301.817 16.6207C301.817 16.6207 301.041 8.96527 295 8.43566C301.041 7.90605 301.817 0.25 301.817 0.25Z" fill="#27AC5D"/>
<path fill-rule="evenodd" clip-rule="evenodd" d="M512.346 233.461C512.346 233.461 512.938 240.245 517.545 240.714C512.938 241.183 512.346 247.966 512.346 247.966C512.346 247.966 511.754 241.183 507.146 240.714C511.754 240.245 512.346 233.461 512.346 233.461Z" fill="#27AC5D"/>
<path fill-rule="evenodd" clip-rule="evenodd" d="M360.197 172.088C361.388 172.088 374.893 156.809 382.341 148.277H566.38C574.454 148.277 581 142.904 581 136.276V57.0891C581 50.461 574.454 45.0876 566.38 45.0876H332.62C324.545 45.0876 318 50.461 318 57.0891V136.276C318 142.904 324.545 148.277 332.62 148.277H362.744C361.229 157.657 359.08 172.088 360.197 172.088Z" fill="#ECEEEF"/>
<path fill-rule="evenodd" clip-rule="evenodd" d="M334.134 25H561.174C569.017 25 575.374 30.98 575.374 38.3563V126.483C575.374 133.86 569.017 139.839 561.174 139.839H382.426C375.192 149.334 362.076 166.338 360.918 166.338C359.834 166.338 361.921 150.277 363.392 139.839H334.134C326.291 139.839 319.934 133.86 319.934 126.483V38.3563C319.934 30.98 326.291 25 334.134 25Z" fill="white" stroke="#232E34" stroke-width="3" stroke-linecap="round" stroke-linejoin="round"/>
<path d="M347.787 62.0876V45.2876H349.803V52.7036H358.515V45.2876H360.531V62.0876H358.515V54.3596H349.803V62.0876H347.787ZM369.62 62.3756C368.5 62.3756 367.492 62.1196 366.596 61.6076C365.7 61.0956 364.988 60.3756 364.46 59.4476C363.948 58.5036 363.692 57.3996 363.692 56.1356C363.692 54.8716 363.956 53.7756 364.484 52.8476C365.012 51.9036 365.724 51.1756 366.62 50.6636C367.532 50.1516 368.548 49.8956 369.668 49.8956C370.788 49.8956 371.796 50.1516 372.692 50.6636C373.588 51.1756 374.292 51.9036 374.804 52.8476C375.332 53.7756 375.596 54.8716 375.596 56.1356C375.596 57.3996 375.332 58.5036 374.804 59.4476C374.276 60.3756 373.556 61.0956 372.644 61.6076C371.748 62.1196 370.74 62.3756 369.62 62.3756ZM369.62 60.6476C370.308 60.6476 370.948 60.4796 371.54 60.1436C372.132 59.8076 372.612 59.3036 372.98 58.6316C373.348 57.9596 373.532 57.1276 373.532 56.1356C373.532 55.1436 373.348 54.3116 372.98 53.6396C372.628 52.9676 372.156 52.4636 371.564 52.1276C370.972 51.7916 370.34 51.6236 369.668 51.6236C368.98 51.6236 368.34 51.7916 367.748 52.1276C367.156 52.4636 366.676 52.9676 366.308 53.6396C365.94 54.3116 365.756 55.1436 365.756 56.1356C365.756 57.1276 365.94 57.9596 366.308 58.6316C366.676 59.3036 367.148 59.8076 367.724 60.1436C368.316 60.4796 368.948 60.6476 369.62 60.6476ZM380.594 62.0876L377.114 50.1836H379.13L381.65 59.5196L384.434 50.1836H386.714L389.522 59.5196L392.018 50.1836H394.058L390.578 62.0876H388.514L385.586 52.2716L382.658 62.0876H380.594ZM408.519 62.3756C407.335 62.3756 406.295 62.1036 405.399 61.5596C404.519 61.0156 403.831 60.2716 403.335 59.3276C402.855 58.3836 402.615 57.3116 402.615 56.1116C402.615 54.9116 402.863 53.8476 403.359 52.9196C403.855 51.9756 404.543 51.2396 405.423 50.7116C406.303 50.1676 407.343 49.8956 408.543 49.8956C409.519 49.8956 410.383 50.0956 411.135 50.4956C411.887 50.8956 412.471 51.4556 412.887 52.1756V44.8076H414.903V62.0876H413.079L412.887 60.1196C412.503 60.6956 411.951 61.2156 411.231 61.6796C410.511 62.1436 409.607 62.3756 408.519 62.3756ZM408.735 60.6236C409.535 60.6236 410.239 60.4396 410.847 60.0716C411.471 59.6876 411.951 59.1596 412.287 58.4876C412.639 57.8156 412.815 57.0316 412.815 56.1356C412.815 55.2396 412.639 54.4556 412.287 53.7836C411.951 53.1116 411.471 52.5916 410.847 52.2236C410.239 51.8396 409.535 51.6476 408.735 51.6476C407.951 51.6476 407.247 51.8396 406.623 52.2236C406.015 52.5916 405.535 53.1116 405.183 53.7836C404.847 54.4556 404.679 55.2396 404.679 56.1356C404.679 57.0316 404.847 57.8156 405.183 58.4876C405.535 59.1596 406.015 59.6876 406.623 60.0716C407.247 60.4396 407.951 60.6236 408.735 60.6236ZM423.853 62.3756C422.733 62.3756 421.725 62.1196 420.829 61.6076C419.933 61.0956 419.221 60.3756 418.693 59.4476C418.181 58.5036 417.925 57.3996 417.925 56.1356C417.925 54.8716 418.189 53.7756 418.717 52.8476C419.245 51.9036 419.957 51.1756 420.853 50.6636C421.765 50.1516 422.781 49.8956 423.901 49.8956C425.021 49.8956 426.029 50.1516 426.925 50.6636C427.821 51.1756 428.525 51.9036 429.037 52.8476C429.565 53.7756 429.829 54.8716 429.829 56.1356C429.829 57.3996 429.565 58.5036 429.037 59.4476C428.509 60.3756 427.789 61.0956 426.877 61.6076C425.981 62.1196 424.973 62.3756 423.853 62.3756ZM423.853 60.6476C424.541 60.6476 425.181 60.4796 425.773 60.1436C426.365 59.8076 426.845 59.3036 427.213 58.6316C427.581 57.9596 427.765 57.1276 427.765 56.1356C427.765 55.1436 427.581 54.3116 427.213 53.6396C426.861 52.9676 426.389 52.4636 425.797 52.1276C425.205 51.7916 424.573 51.6236 423.901 51.6236C423.213 51.6236 422.573 51.7916 421.981 52.1276C421.389 52.4636 420.909 52.9676 420.541 53.6396C420.173 54.3116 419.989 55.1436 419.989 56.1356C419.989 57.1276 420.173 57.9596 420.541 58.6316C420.909 59.3036 421.381 59.8076 421.957 60.1436C422.549 60.4796 423.181 60.6476 423.853 60.6476ZM439.584 62.0876V45.2876H441.6V62.0876H439.584ZM456.434 62.3756C455.01 62.3756 453.826 62.0156 452.882 61.2956C451.938 60.5756 451.386 59.5996 451.226 58.3676H453.29C453.418 58.9916 453.746 59.5356 454.274 59.9996C454.818 60.4476 455.546 60.6716 456.458 60.6716C457.306 60.6716 457.93 60.4956 458.33 60.1436C458.73 59.7756 458.93 59.3436 458.93 58.8476C458.93 58.1276 458.666 57.6476 458.138 57.4076C457.626 57.1676 456.898 56.9516 455.954 56.7596C455.314 56.6316 454.674 56.4476 454.034 56.2076C453.394 55.9676 452.858 55.6316 452.426 55.1996C451.994 54.7516 451.778 54.1676 451.778 53.4476C451.778 52.4076 452.162 51.5596 452.93 50.9036C453.714 50.2316 454.77 49.8956 456.098 49.8956C457.362 49.8956 458.394 50.2156 459.194 50.8556C460.01 51.4796 460.482 52.3756 460.61 53.5436H458.618C458.538 52.9356 458.274 52.4636 457.826 52.1276C457.394 51.7756 456.81 51.5996 456.074 51.5996C455.354 51.5996 454.794 51.7516 454.394 52.0556C454.01 52.3596 453.818 52.7596 453.818 53.2556C453.818 53.7356 454.066 54.1116 454.562 54.3836C455.074 54.6556 455.762 54.8876 456.626 55.0796C457.362 55.2396 458.058 55.4396 458.714 55.6796C459.386 55.9036 459.93 56.2476 460.346 56.7116C460.778 57.1596 460.994 57.8156 460.994 58.6796C461.01 59.7516 460.602 60.6396 459.77 61.3436C458.954 62.0316 457.842 62.3756 456.434 62.3756ZM469.586 62.3756C468.45 62.3756 467.426 62.1196 466.514 61.6076C465.618 61.0796 464.906 60.3516 464.378 59.4236C463.866 58.4796 463.61 57.3836 463.61 56.1356C463.61 54.8876 463.866 53.7996 464.378 52.8716C464.906 51.9276 465.618 51.1996 466.514 50.6876C467.426 50.1596 468.45 49.8956 469.586 49.8956C470.994 49.8956 472.178 50.2636 473.138 50.9996C474.114 51.7356 474.73 52.7196 474.986 53.9516H472.922C472.762 53.2156 472.37 52.6476 471.746 52.2476C471.122 51.8316 470.394 51.6236 469.562 51.6236C468.89 51.6236 468.258 51.7916 467.666 52.1276C467.074 52.4636 466.594 52.9676 466.226 53.6396C465.858 54.3116 465.674 55.1436 465.674 56.1356C465.674 57.1276 465.858 57.9596 466.226 58.6316C466.594 59.3036 467.074 59.8156 467.666 60.1676C468.258 60.5036 468.89 60.6716 469.562 60.6716C470.394 60.6716 471.122 60.4716 471.746 60.0716C472.37 59.6556 472.762 59.0716 472.922 58.3196H474.986C474.746 59.5196 474.138 60.4956 473.162 61.2476C472.186 61.9996 470.994 62.3756 469.586 62.3756ZM482.001 62.3756C481.009 62.3756 480.185 62.2076 479.529 61.8716C478.873 61.5356 478.385 61.0876 478.065 60.5276C477.745 59.9676 477.585 59.3596 477.585 58.7036C477.585 57.4876 478.049 56.5516 478.977 55.8956C479.905 55.2396 481.169 54.9116 482.769 54.9116H485.985V54.7676C485.985 53.7276 485.713 52.9436 485.169 52.4156C484.625 51.8716 483.897 51.5996 482.985 51.5996C482.201 51.5996 481.521 51.7996 480.945 52.1996C480.385 52.5836 480.033 53.1516 479.889 53.9036H477.825C477.905 53.0396 478.193 52.3116 478.689 51.7196C479.201 51.1276 479.833 50.6796 480.585 50.3756C481.337 50.0556 482.137 49.8956 482.985 49.8956C484.649 49.8956 485.897 50.3436 486.729 51.2396C487.577 52.1196 488.001 53.2956 488.001 54.7676V62.0876H486.201L486.081 59.9516C485.745 60.6236 485.249 61.1996 484.593 61.6796C483.953 62.1436 483.089 62.3756 482.001 62.3756ZM482.313 60.6716C483.081 60.6716 483.737 60.4716 484.281 60.0716C484.841 59.6716 485.265 59.1516 485.553 58.5116C485.841 57.8716 485.985 57.1996 485.985 56.4956V56.4716L482.937 56.4716C481.753 56.4716 480.913 56.6796 480.417 57.0956C479.937 57.4956 479.697 57.9996 479.697 58.6076C479.697 59.2316 479.921 59.7356 480.369 60.1196C480.833 60.4876 481.481 60.6716 482.313 60.6716ZM491.265 62.0876V44.8076H493.281V62.0876H491.265ZM502.178 62.3756C501.042 62.3756 500.034 62.1196 499.154 61.6076C498.274 61.0796 497.578 60.3516 497.066 59.4236C496.57 58.4956 496.322 57.3996 496.322 56.1356C496.322 54.8876 496.57 53.7996 497.066 52.8716C497.562 51.9276 498.25 51.1996 499.13 50.6876C500.026 50.1596 501.058 49.8956 502.226 49.8956C503.378 49.8956 504.37 50.1596 505.202 50.6876C506.05 51.1996 506.698 51.8796 507.146 52.7276C507.594 53.5756 507.818 54.4876 507.818 55.4636C507.818 55.6396 507.81 55.8156 507.794 55.9916C507.794 56.1676 507.794 56.3676 507.794 56.5916H498.314C498.362 57.5036 498.57 58.2636 498.938 58.8716C499.322 59.4636 499.794 59.9116 500.354 60.2156C500.93 60.5196 501.538 60.6716 502.178 60.6716C503.01 60.6716 503.706 60.4796 504.266 60.0956C504.826 59.7116 505.234 59.1916 505.49 58.5356H507.482C507.162 59.6396 506.546 60.5596 505.634 61.2956C504.738 62.0156 503.586 62.3756 502.178 62.3756ZM502.178 51.5996C501.218 51.5996 500.362 51.8956 499.61 52.4876C498.874 53.0636 498.45 53.9116 498.338 55.0316H505.826C505.778 53.9596 505.41 53.1196 504.722 52.5116C504.034 51.9036 503.186 51.5996 502.178 51.5996ZM517.321 62.0876V50.1836H519.145L519.289 51.9116C519.673 51.2716 520.185 50.7756 520.825 50.4236C521.465 50.0716 522.185 49.8956 522.985 49.8956C523.929 49.8956 524.737 50.0876 525.409 50.4716C526.097 50.8556 526.625 51.4396 526.993 52.2236C527.409 51.5036 527.977 50.9356 528.697 50.5196C529.433 50.1036 530.225 49.8956 531.073 49.8956C532.497 49.8956 533.633 50.3276 534.481 51.1916C535.329 52.0396 535.753 53.3516 535.753 55.1276V62.0876H533.761V55.3436C533.761 54.1116 533.513 53.1836 533.017 52.5596C532.521 51.9356 531.809 51.6236 530.881 51.6236C529.921 51.6236 529.121 51.9996 528.481 52.7516C527.857 53.4876 527.545 54.5436 527.545 55.9196V62.0876H525.529V55.3436C525.529 54.1116 525.281 53.1836 524.785 52.5596C524.289 51.9356 523.577 51.6236 522.649 51.6236C521.705 51.6236 520.913 51.9996 520.273 52.7516C519.649 53.4876 519.337 54.5436 519.337 55.9196V62.0876H517.321ZM539.974 67.3676L542.926 60.9356H542.23L537.502 50.1836H539.686L543.622 59.4476L547.798 50.1836L549.886 50.1836L542.086 67.3676H539.974ZM394.049 91.0876V79.1836H395.873L396.017 80.9116C396.401 80.2716 396.913 79.7756 397.553 79.4236C398.193 79.0716 398.913 78.8956 399.713 78.8956C400.657 78.8956 401.465 79.0876 402.137 79.4716C402.825 79.8556 403.353 80.4396 403.721 81.2236C404.137 80.5036 404.705 79.9356 405.425 79.5196C406.161 79.1036 406.953 78.8956 407.801 78.8956C409.225 78.8956 410.361 79.3276 411.209 80.1916C412.057 81.0396 412.481 82.3516 412.481 84.1276V91.0876H410.489V84.3436C410.489 83.1116 410.241 82.1836 409.745 81.5596C409.249 80.9356 408.537 80.6236 407.609 80.6236C406.649 80.6236 405.849 80.9996 405.209 81.7516C404.585 82.4876 404.273 83.5436 404.273 84.9196V91.0876H402.257V84.3436C402.257 83.1116 402.009 82.1836 401.513 81.5596C401.017 80.9356 400.305 80.6236 399.377 80.6236C398.433 80.6236 397.641 80.9996 397.001 81.7516C396.377 82.4876 396.065 83.5436 396.065 84.9196V91.0876H394.049ZM419.717 91.3756C418.725 91.3756 417.901 91.2076 417.245 90.8716C416.589 90.5356 416.101 90.0876 415.781 89.5276C415.461 88.9676 415.301 88.3596 415.301 87.7036C415.301 86.4876 415.765 85.5516 416.693 84.8956C417.621 84.2396 418.885 83.9116 420.485 83.9116H423.701V83.7676C423.701 82.7276 423.429 81.9436 422.885 81.4156C422.341 80.8716 421.613 80.5996 420.701 80.5996C419.917 80.5996 419.237 80.7996 418.661 81.1996C418.101 81.5836 417.749 82.1516 417.605 82.9036H415.541C415.621 82.0396 415.909 81.3116 416.405 80.7196C416.917 80.1276 417.549 79.6796 418.301 79.3756C419.053 79.0556 419.853 78.8956 420.701 78.8956C422.365 78.8956 423.613 79.3436 424.445 80.2396C425.293 81.1196 425.717 82.2956 425.717 83.7676V91.0876H423.917L423.797 88.9516C423.461 89.6236 422.965 90.1996 422.309 90.6796C421.669 91.1436 420.805 91.3756 419.717 91.3756ZM420.029 89.6716C420.797 89.6716 421.453 89.4716 421.997 89.0716C422.557 88.6716 422.981 88.1516 423.269 87.5116C423.557 86.8716 423.701 86.1996 423.701 85.4956V85.4716H420.653C419.469 85.4716 418.629 85.6796 418.133 86.0956C417.653 86.4956 417.413 86.9996 417.413 87.6076C417.413 88.2316 417.637 88.7356 418.085 89.1196C418.549 89.4876 419.197 89.6716 420.029 89.6716ZM428.982 91.0876V79.1836H430.806L430.974 81.4636C431.342 80.6796 431.902 80.0556 432.654 79.5916C433.406 79.1276 434.334 78.8956 435.438 78.8956V81.0076H434.886C434.182 81.0076 433.534 81.1356 432.942 81.3916C432.35 81.6316 431.878 82.0476 431.526 82.6396C431.174 83.2316 430.998 84.0476 430.998 85.0876V91.0876H428.982ZM437.94 91.0876V73.8076H439.956V84.1996L444.828 79.1836H447.3L442.02 84.5596L447.972 91.0876H445.404L439.956 84.9196V91.0876H437.94ZM454.759 91.3756C453.623 91.3756 452.615 91.1196 451.735 90.6076C450.855 90.0796 450.159 89.3516 449.647 88.4236C449.151 87.4956 448.903 86.3996 448.903 85.1356C448.903 83.8876 449.151 82.7996 449.647 81.8716C450.143 80.9276 450.831 80.1996 451.711 79.6876C452.607 79.1596 453.639 78.8956 454.807 78.8956C455.959 78.8956 456.951 79.1596 457.783 79.6876C458.631 80.1996 459.279 80.8796 459.727 81.7276C460.175 82.5756 460.399 83.4876 460.399 84.4636C460.399 84.6396 460.391 84.8156 460.375 84.9916C460.375 85.1676 460.375 85.3676 460.375 85.5916L450.895 85.5916C450.943 86.5036 451.151 87.2636 451.519 87.8716C451.903 88.4636 452.375 88.9116 452.935 89.2156C453.511 89.5196 454.119 89.6716 454.759 89.6716C455.591 89.6716 456.287 89.4796 456.847 89.0956C457.407 88.7116 457.815 88.1916 458.071 87.5356H460.063C459.743 88.6396 459.127 89.5596 458.215 90.2956C457.319 91.0156 456.167 91.3756 454.759 91.3756ZM454.759 80.5996C453.799 80.5996 452.943 80.8956 452.191 81.4876C451.455 82.0636 451.031 82.9116 450.919 84.0316L458.407 84.0316C458.359 82.9596 457.991 82.1196 457.303 81.5116C456.615 80.9036 455.767 80.5996 454.759 80.5996ZM467.617 91.0876C466.529 91.0876 465.673 90.8236 465.049 90.2956C464.425 89.7676 464.113 88.8156 464.113 87.4396V80.8876H462.049V79.1836H464.113L464.377 76.3276H466.129V79.1836H469.633V80.8876H466.129V87.4396C466.129 88.1916 466.281 88.7036 466.585 88.9756C466.889 89.2316 467.425 89.3596 468.193 89.3596H469.441V91.0876H467.617ZM473.658 76.5436C473.258 76.5436 472.922 76.4156 472.65 76.1596C472.394 75.8876 472.266 75.5516 472.266 75.1516C472.266 74.7676 472.394 74.4476 472.65 74.1916C472.922 73.9356 473.258 73.8076 473.658 73.8076C474.042 73.8076 474.37 73.9356 474.642 74.1916C474.914 74.4476 475.05 74.7676 475.05 75.1516C475.05 75.5516 474.914 75.8876 474.642 76.1596C474.37 76.4156 474.042 76.5436 473.658 76.5436ZM472.65 91.0876V79.1836H474.666V91.0876H472.65ZM478.416 91.0876V79.1836H480.24L480.36 81.3196C480.744 80.5676 481.296 79.9756 482.016 79.5436C482.736 79.1116 483.552 78.8956 484.464 78.8956C485.872 78.8956 486.992 79.3276 487.824 80.1916C488.672 81.0396 489.096 82.3516 489.096 84.1276V91.0876H487.08V84.3436C487.08 81.8636 486.056 80.6236 484.008 80.6236C482.984 80.6236 482.128 80.9996 481.44 81.7516C480.768 82.4876 480.432 83.5436 480.432 84.9196V91.0876H478.416ZM497.094 87.3436C496.422 87.3436 495.806 87.2556 495.246 87.0796L494.046 88.2076C494.222 88.3356 494.438 88.4476 494.694 88.5436C494.966 88.6236 495.35 88.7036 495.846 88.7836C496.342 88.8476 497.038 88.9196 497.934 88.9996C499.534 89.1116 500.678 89.4796 501.366 90.1036C502.054 90.7276 502.398 91.5436 502.398 92.5516C502.398 93.2396 502.206 93.8956 501.822 94.5196C501.454 95.1436 500.878 95.6556 500.094 96.0556C499.326 96.4556 498.334 96.6556 497.118 96.6556C496.046 96.6556 495.094 96.5116 494.262 96.2236C493.43 95.9516 492.782 95.5276 492.318 94.9516C491.854 94.3916 491.622 93.6796 491.622 92.8156C491.622 92.3676 491.742 91.8796 491.982 91.3516C492.222 90.8396 492.67 90.3516 493.326 89.8876C492.974 89.7436 492.67 89.5916 492.414 89.4316C492.174 89.2556 491.95 89.0636 491.742 88.8556V88.3036L493.782 86.2876C492.838 85.4876 492.366 84.4316 492.366 83.1196C492.366 82.3356 492.55 81.6236 492.918 80.9836C493.286 80.3436 493.822 79.8396 494.526 79.4716C495.23 79.0876 496.086 78.8956 497.094 78.8956C497.782 78.8956 498.406 78.9916 498.966 79.1836H503.358V80.6956L501.126 80.7916C501.59 81.4636 501.822 82.2396 501.822 83.1196C501.822 83.9036 501.63 84.6156 501.246 85.2556C500.878 85.8956 500.342 86.4076 499.638 86.7916C498.95 87.1596 498.102 87.3436 497.094 87.3436ZM497.094 85.6876C497.942 85.6876 498.614 85.4716 499.11 85.0396C499.622 84.5916 499.878 83.9516 499.878 83.1196C499.878 82.3036 499.622 81.6796 499.11 81.2476C498.614 80.7996 497.942 80.5756 497.094 80.5756C496.23 80.5756 495.542 80.7996 495.03 81.2476C494.534 81.6796 494.286 82.3036 494.286 83.1196C494.286 83.9516 494.534 84.5916 495.03 85.0396C495.542 85.4716 496.23 85.6876 497.094 85.6876ZM493.59 92.6236C493.59 93.4236 493.926 94.0156 494.598 94.3996C495.27 94.7996 496.11 94.9996 497.118 94.9996C498.11 94.9996 498.902 94.7836 499.494 94.3516C500.102 93.9196 500.406 93.3436 500.406 92.6236C500.406 92.1116 500.198 91.6636 499.782 91.2796C499.366 90.9116 498.598 90.6956 497.478 90.6316C496.598 90.5676 495.838 90.4876 495.198 90.3916C494.542 90.7436 494.11 91.1196 493.902 91.5196C493.694 91.9356 493.59 92.3036 493.59 92.6236ZM380.351 120.376C379.231 120.376 378.223 120.12 377.327 119.608C376.431 119.096 375.719 118.376 375.191 117.448C374.679 116.504 374.423 115.4 374.423 114.136C374.423 112.872 374.687 111.776 375.215 110.848C375.743 109.904 376.455 109.176 377.351 108.664C378.263 108.152 379.279 107.896 380.399 107.896C381.519 107.896 382.527 108.152 383.423 108.664C384.319 109.176 385.023 109.904 385.535 110.848C386.063 111.776 386.327 112.872 386.327 114.136C386.327 115.4 386.063 116.504 385.535 117.448C385.007 118.376 384.287 119.096 383.375 119.608C382.479 120.12 381.471 120.376 380.351 120.376ZM380.351 118.648C381.039 118.648 381.679 118.48 382.271 118.144C382.863 117.808 383.343 117.304 383.711 116.632C384.079 115.96 384.263 115.128 384.263 114.136C384.263 113.144 384.079 112.312 383.711 111.64C383.359 110.968 382.887 110.464 382.295 110.128C381.703 109.792 381.071 109.624 380.399 109.624C379.711 109.624 379.071 109.792 378.479 110.128C377.887 110.464 377.407 110.968 377.039 111.64C376.671 112.312 376.487 113.144 376.487 114.136C376.487 115.128 376.671 115.96 377.039 116.632C377.407 117.304 377.879 117.808 378.455 118.144C379.047 118.48 379.679 118.648 380.351 118.648ZM389.37 120.088V108.184H391.194L391.362 110.464C391.73 109.68 392.29 109.056 393.042 108.592C393.794 108.128 394.722 107.896 395.826 107.896V110.008H395.274C394.57 110.008 393.922 110.136 393.33 110.392C392.738 110.632 392.266 111.048 391.914 111.64C391.562 112.232 391.386 113.048 391.386 114.088V120.088H389.37ZM402.751 116.344C402.079 116.344 401.463 116.256 400.903 116.08L399.703 117.208C399.879 117.336 400.095 117.448 400.351 117.544C400.623 117.624 401.007 117.704 401.503 117.784C401.999 117.848 402.695 117.92 403.591 118C405.191 118.112 406.335 118.48 407.023 119.104C407.711 119.728 408.055 120.544 408.055 121.552C408.055 122.24 407.863 122.896 407.479 123.52C407.111 124.144 406.535 124.656 405.751 125.056C404.983 125.456 403.991 125.656 402.775 125.656C401.703 125.656 400.751 125.512 399.919 125.224C399.087 124.952 398.439 124.528 397.975 123.952C397.511 123.392 397.279 122.68 397.279 121.816C397.279 121.368 397.399 120.88 397.639 120.352C397.879 119.84 398.327 119.352 398.983 118.888C398.631 118.744 398.327 118.592 398.071 118.432C397.831 118.256 397.607 118.064 397.399 117.856V117.304L399.439 115.288C398.495 114.488 398.023 113.432 398.023 112.12C398.023 111.336 398.207 110.624 398.575 109.984C398.943 109.344 399.479 108.84 400.183 108.472C400.887 108.088 401.743 107.896 402.751 107.896C403.439 107.896 404.063 107.992 404.623 108.184H409.015V109.696L406.783 109.792C407.247 110.464 407.479 111.24 407.479 112.12C407.479 112.904 407.287 113.616 406.903 114.256C406.535 114.896 405.999 115.408 405.295 115.792C404.607 116.16 403.759 116.344 402.751 116.344ZM402.751 114.688C403.599 114.688 404.271 114.472 404.767 114.04C405.279 113.592 405.535 112.952 405.535 112.12C405.535 111.304 405.279 110.68 404.767 110.248C404.271 109.8 403.599 109.576 402.751 109.576C401.887 109.576 401.199 109.8 400.687 110.248C400.191 110.68 399.943 111.304 399.943 112.12C399.943 112.952 400.191 113.592 400.687 114.04C401.199 114.472 401.887 114.688 402.751 114.688ZM399.247 121.624C399.247 122.424 399.583 123.016 400.255 123.4C400.927 123.8 401.767 124 402.775 124C403.767 124 404.559 123.784 405.151 123.352C405.759 122.92 406.063 122.344 406.063 121.624C406.063 121.112 405.855 120.664 405.439 120.28C405.023 119.912 404.255 119.696 403.135 119.632C402.255 119.568 401.495 119.488 400.855 119.392C400.199 119.744 399.767 120.12 399.559 120.52C399.351 120.936 399.247 121.304 399.247 121.624ZM415.49 120.376C414.498 120.376 413.674 120.208 413.018 119.872C412.362 119.536 411.874 119.088 411.554 118.528C411.234 117.968 411.074 117.36 411.074 116.704C411.074 115.488 411.538 114.552 412.466 113.896C413.394 113.24 414.658 112.912 416.258 112.912H419.474V112.768C419.474 111.728 419.202 110.944 418.658 110.416C418.114 109.872 417.386 109.6 416.474 109.6C415.69 109.6 415.01 109.8 414.434 110.2C413.874 110.584 413.522 111.152 413.378 111.904H411.314C411.394 111.04 411.682 110.312 412.178 109.72C412.69 109.128 413.322 108.68 414.074 108.376C414.826 108.056 415.626 107.896 416.474 107.896C418.138 107.896 419.386 108.344 420.218 109.24C421.066 110.12 421.49 111.296 421.49 112.768V120.088H419.69L419.57 117.952C419.234 118.624 418.738 119.2 418.082 119.68C417.442 120.144 416.578 120.376 415.49 120.376ZM415.802 118.672C416.57 118.672 417.226 118.472 417.77 118.072C418.33 117.672 418.754 117.152 419.042 116.512C419.33 115.872 419.474 115.2 419.474 114.496V114.472H416.426C415.242 114.472 414.402 114.68 413.906 115.096C413.426 115.496 413.186 116 413.186 116.608C413.186 117.232 413.41 117.736 413.858 118.12C414.322 118.488 414.97 118.672 415.802 118.672ZM424.754 120.088V108.184H426.578L426.698 110.32C427.082 109.568 427.634 108.976 428.354 108.544C429.074 108.112 429.89 107.896 430.802 107.896C432.21 107.896 433.33 108.328 434.162 109.192C435.01 110.04 435.434 111.352 435.434 113.128V120.088H433.418V113.344C433.418 110.864 432.394 109.624 430.346 109.624C429.322 109.624 428.466 110 427.778 110.752C427.106 111.488 426.77 112.544 426.77 113.92V120.088H424.754ZM439.952 105.544C439.552 105.544 439.216 105.416 438.944 105.16C438.688 104.888 438.56 104.552 438.56 104.152C438.56 103.768 438.688 103.448 438.944 103.192C439.216 102.936 439.552 102.808 439.952 102.808C440.336 102.808 440.664 102.936 440.936 103.192C441.208 103.448 441.344 103.768 441.344 104.152C441.344 104.552 441.208 104.888 440.936 105.16C440.664 105.416 440.336 105.544 439.952 105.544ZM438.944 120.088V108.184H440.96V120.088H438.944ZM443.895 120.088V118.432L450.519 109.864H444.015V108.184H452.775V109.84L446.151 118.408H452.895V120.088H443.895ZM459.762 120.376C458.77 120.376 457.946 120.208 457.29 119.872C456.634 119.536 456.146 119.088 455.826 118.528C455.506 117.968 455.346 117.36 455.346 116.704C455.346 115.488 455.81 114.552 456.738 113.896C457.666 113.24 458.93 112.912 460.53 112.912H463.746V112.768C463.746 111.728 463.474 110.944 462.93 110.416C462.386 109.872 461.658 109.6 460.746 109.6C459.962 109.6 459.282 109.8 458.706 110.2C458.146 110.584 457.794 111.152 457.65 111.904H455.586C455.666 111.04 455.954 110.312 456.45 109.72C456.962 109.128 457.594 108.68 458.346 108.376C459.098 108.056 459.898 107.896 460.746 107.896C462.41 107.896 463.658 108.344 464.49 109.24C465.338 110.12 465.762 111.296 465.762 112.768V120.088H463.962L463.842 117.952C463.506 118.624 463.01 119.2 462.354 119.68C461.714 120.144 460.85 120.376 459.762 120.376ZM460.074 118.672C460.842 118.672 461.498 118.472 462.042 118.072C462.602 117.672 463.026 117.152 463.314 116.512C463.602 115.872 463.746 115.2 463.746 114.496V114.472H460.698C459.514 114.472 458.674 114.68 458.178 115.096C457.698 115.496 457.458 116 457.458 116.608C457.458 117.232 457.682 117.736 458.13 118.12C458.594 118.488 459.242 118.672 460.074 118.672ZM473.402 120.088C472.314 120.088 471.458 119.824 470.834 119.296C470.21 118.768 469.898 117.816 469.898 116.44V109.888H467.834V108.184H469.898L470.162 105.328H471.914V108.184L475.418 108.184V109.888L471.914 109.888V116.44C471.914 117.192 472.066 117.704 472.37 117.976C472.674 118.232 473.21 118.36 473.978 118.36L475.226 118.36V120.088L473.402 120.088ZM479.444 105.544C479.044 105.544 478.708 105.416 478.436 105.16C478.18 104.888 478.052 104.552 478.052 104.152C478.052 103.768 478.18 103.448 478.436 103.192C478.708 102.936 479.044 102.808 479.444 102.808C479.828 102.808 480.156 102.936 480.428 103.192C480.7 103.448 480.836 103.768 480.836 104.152C480.836 104.552 480.7 104.888 480.428 105.16C480.156 105.416 479.828 105.544 479.444 105.544ZM478.436 120.088V108.184H480.452V120.088H478.436ZM489.626 120.376C488.506 120.376 487.498 120.12 486.602 119.608C485.706 119.096 484.994 118.376 484.466 117.448C483.954 116.504 483.698 115.4 483.698 114.136C483.698 112.872 483.962 111.776 484.49 110.848C485.018 109.904 485.73 109.176 486.626 108.664C487.538 108.152 488.554 107.896 489.674 107.896C490.794 107.896 491.802 108.152 492.698 108.664C493.594 109.176 494.298 109.904 494.81 110.848C495.338 111.776 495.602 112.872 495.602 114.136C495.602 115.4 495.338 116.504 494.81 117.448C494.282 118.376 493.562 119.096 492.65 119.608C491.754 120.12 490.746 120.376 489.626 120.376ZM489.626 118.648C490.314 118.648 490.954 118.48 491.546 118.144C492.138 117.808 492.618 117.304 492.986 116.632C493.354 115.96 493.538 115.128 493.538 114.136C493.538 113.144 493.354 112.312 492.986 111.64C492.634 110.968 492.162 110.464 491.57 110.128C490.978 109.792 490.346 109.624 489.674 109.624C488.986 109.624 488.346 109.792 487.754 110.128C487.162 110.464 486.682 110.968 486.314 111.64C485.946 112.312 485.762 113.144 485.762 114.136C485.762 115.128 485.946 115.96 486.314 116.632C486.682 117.304 487.154 117.808 487.73 118.144C488.322 118.48 488.954 118.648 489.626 118.648ZM498.645 120.088V108.184H500.469L500.589 110.32C500.973 109.568 501.525 108.976 502.245 108.544C502.965 108.112 503.781 107.896 504.693 107.896C506.101 107.896 507.221 108.328 508.053 109.192C508.901 110.04 509.325 111.352 509.325 113.128V120.088H507.309V113.344C507.309 110.864 506.285 109.624 504.237 109.624C503.213 109.624 502.357 110 501.669 110.752C500.997 111.488 500.661 112.544 500.661 113.92V120.088H498.645ZM514.587 115.384L514.491 111.52H515.235C516.131 111.52 516.963 111.432 517.731 111.256C518.515 111.08 519.147 110.736 519.627 110.224C520.107 109.712 520.347 108.944 520.347 107.92C520.347 106.928 520.035 106.144 519.411 105.568C518.803 104.992 517.995 104.704 516.987 104.704C515.963 104.704 515.155 104.984 514.563 105.544C513.971 106.104 513.675 106.856 513.675 107.8H511.755C511.755 106.84 511.971 106 512.403 105.28C512.851 104.56 513.467 104 514.251 103.6C515.035 103.2 515.947 103 516.987 103C518.027 103 518.947 103.2 519.747 103.6C520.547 104 521.171 104.568 521.619 105.304C522.067 106.04 522.291 106.912 522.291 107.92C522.291 109.104 522.035 110.064 521.523 110.8C521.027 111.536 520.331 112.072 519.435 112.408C518.555 112.744 517.547 112.912 516.411 112.912L516.339 115.384H514.587ZM515.451 120.208C515.051 120.208 514.715 120.08 514.443 119.824C514.187 119.552 514.059 119.224 514.059 118.84C514.059 118.456 514.187 118.136 514.443 117.88C514.715 117.608 515.051 117.472 515.451 117.472C515.851 117.472 516.179 117.608 516.435 117.88C516.691 118.136 516.819 118.456 516.819 118.84C516.819 119.224 516.691 119.552 516.435 119.824C516.179 120.08 515.851 120.208 515.451 120.208Z" fill="#232E34"/>
<path fill-rule="evenodd" clip-rule="evenodd" d="M237.594 212C236.312 212 221.78 195.518 213.766 186.315H15.7322C7.04375 186.315 0 180.519 0 173.369V87.9464C0 80.7965 7.04375 75 15.7322 75H267.268C275.957 75 283 80.7965 283 87.9464V173.369C283 180.519 275.957 186.315 267.268 186.315H234.854C236.483 196.433 238.796 212 237.594 212Z" fill="#ECEEEF"/>
<path fill-rule="evenodd" clip-rule="evenodd" d="M258.014 60H24.986C16.9364 60 10.4114 66.0927 10.4114 73.6079V163.395C10.4114 170.91 16.9364 177.002 24.986 177.002H208.449C215.873 186.676 229.336 204 230.524 204C231.637 204 229.495 187.637 227.985 177.002H258.014C266.064 177.002 272.589 170.91 272.589 163.395V73.6079C272.589 66.0927 266.064 60 258.014 60Z" fill="white" stroke="#232E34" stroke-width="3" stroke-linecap="round" stroke-linejoin="round"/>
<path d="M63.7349 97.024L59.1269 80.2H61.2869L64.9109 94.624L69.0389 80.2H71.2709L75.2789 94.624L78.9509 80.2H81.1109L76.4069 97L74.1029 97L70.0949 83.128L65.9909 97L63.7349 97.024ZM83.6021 97V79.72H85.6181V87.136C86.0181 86.4 86.5861 85.832 87.3221 85.432C88.0581 85.016 88.8581 84.808 89.7221 84.808C91.0981 84.808 92.2021 85.24 93.0341 86.104C93.8661 86.952 94.2821 88.264 94.2821 90.04V97H92.2901V90.256C92.2901 87.776 91.2901 86.536 89.2901 86.536C88.2501 86.536 87.3781 86.912 86.6741 87.664C85.9701 88.4 85.6181 89.456 85.6181 90.832V97H83.6021ZM101.536 97.288C100.544 97.288 99.7204 97.12 99.0644 96.784C98.4084 96.448 97.9204 96 97.6004 95.44C97.2804 94.88 97.1204 94.272 97.1204 93.616C97.1204 92.4 97.5844 91.464 98.5124 90.808C99.4404 90.152 100.704 89.824 102.304 89.824H105.52V89.68C105.52 88.64 105.248 87.856 104.704 87.328C104.16 86.784 103.432 86.512 102.52 86.512C101.736 86.512 101.056 86.712 100.48 87.112C99.9204 87.496 99.5684 88.064 99.4244 88.816H97.3604C97.4404 87.952 97.7284 87.224 98.2244 86.632C98.7364 86.04 99.3684 85.592 100.12 85.288C100.872 84.968 101.672 84.808 102.52 84.808C104.184 84.808 105.432 85.256 106.264 86.152C107.112 87.032 107.536 88.208 107.536 89.68V97H105.736L105.616 94.864C105.28 95.536 104.784 96.112 104.128 96.592C103.488 97.056 102.624 97.288 101.536 97.288ZM101.848 95.584C102.616 95.584 103.272 95.384 103.816 94.984C104.376 94.584 104.8 94.064 105.088 93.424C105.376 92.784 105.52 92.112 105.52 91.408V91.384H102.472C101.288 91.384 100.448 91.592 99.9524 92.008C99.4724 92.408 99.2324 92.912 99.2324 93.52C99.2324 94.144 99.4564 94.648 99.9044 95.032C100.368 95.4 101.016 95.584 101.848 95.584ZM115.177 97C114.089 97 113.233 96.736 112.609 96.208C111.985 95.68 111.673 94.728 111.673 93.352V86.8H109.609V85.096H111.673L111.937 82.24H113.689V85.096H117.193V86.8H113.689V93.352C113.689 94.104 113.841 94.616 114.145 94.888C114.449 95.144 114.985 95.272 115.753 95.272H117.001V97H115.177ZM130.545 97.288C129.553 97.288 128.729 97.12 128.073 96.784C127.417 96.448 126.929 96 126.609 95.44C126.289 94.88 126.129 94.272 126.129 93.616C126.129 92.4 126.593 91.464 127.521 90.808C128.449 90.152 129.713 89.824 131.313 89.824H134.529V89.68C134.529 88.64 134.257 87.856 133.713 87.328C133.169 86.784 132.441 86.512 131.529 86.512C130.745 86.512 130.065 86.712 129.489 87.112C128.929 87.496 128.577 88.064 128.433 88.816H126.369C126.449 87.952 126.737 87.224 127.233 86.632C127.745 86.04 128.377 85.592 129.129 85.288C129.881 84.968 130.681 84.808 131.529 84.808C133.193 84.808 134.441 85.256 135.273 86.152C136.121 87.032 136.545 88.208 136.545 89.68V97H134.745L134.625 94.864C134.289 95.536 133.793 96.112 133.137 96.592C132.497 97.056 131.633 97.288 130.545 97.288ZM130.857 95.584C131.625 95.584 132.281 95.384 132.825 94.984C133.385 94.584 133.809 94.064 134.097 93.424C134.385 92.784 134.529 92.112 134.529 91.408V91.384H131.481C130.297 91.384 129.457 91.592 128.961 92.008C128.481 92.408 128.241 92.912 128.241 93.52C128.241 94.144 128.465 94.648 128.913 95.032C129.377 95.4 130.025 95.584 130.857 95.584ZM139.81 97V85.096H141.634L141.802 87.376C142.17 86.592 142.73 85.968 143.482 85.504C144.234 85.04 145.162 84.808 146.266 84.808V86.92H145.714C145.01 86.92 144.362 87.048 143.77 87.304C143.178 87.544 142.706 87.96 142.354 88.552C142.002 89.144 141.826 89.96 141.826 91V97H139.81ZM153.675 97.288C152.539 97.288 151.531 97.032 150.651 96.52C149.771 95.992 149.075 95.264 148.563 94.336C148.067 93.408 147.819 92.312 147.819 91.048C147.819 89.8 148.067 88.712 148.563 87.784C149.059 86.84 149.747 86.112 150.627 85.6C151.523 85.072 152.555 84.808 153.723 84.808C154.875 84.808 155.867 85.072 156.699 85.6C157.547 86.112 158.195 86.792 158.643 87.64C159.091 88.488 159.315 89.4 159.315 90.376C159.315 90.552 159.307 90.728 159.291 90.904C159.291 91.08 159.291 91.28 159.291 91.504L149.811 91.504C149.859 92.416 150.067 93.176 150.435 93.784C150.819 94.376 151.291 94.824 151.851 95.128C152.427 95.432 153.035 95.584 153.675 95.584C154.507 95.584 155.203 95.392 155.763 95.008C156.323 94.624 156.731 94.104 156.987 93.448H158.979C158.659 94.552 158.043 95.472 157.131 96.208C156.235 96.928 155.083 97.288 153.675 97.288ZM153.675 86.512C152.715 86.512 151.859 86.808 151.107 87.4C150.371 87.976 149.947 88.824 149.835 89.944L157.323 89.944C157.275 88.872 156.907 88.032 156.219 87.424C155.531 86.816 154.683 86.512 153.675 86.512ZM175.179 97.288C174.203 97.288 173.331 97.088 172.563 96.688C171.811 96.288 171.235 95.728 170.835 95.008L170.643 97H168.819V79.72H170.835V87.064C171.219 86.488 171.763 85.968 172.467 85.504C173.187 85.04 174.099 84.808 175.203 84.808C176.387 84.808 177.419 85.08 178.299 85.624C179.179 86.168 179.859 86.912 180.339 87.856C180.835 88.8 181.083 89.872 181.083 91.072C181.083 92.272 180.835 93.344 180.339 94.288C179.859 95.216 179.171 95.952 178.275 96.496C177.395 97.024 176.363 97.288 175.179 97.288ZM174.963 95.536C175.763 95.536 176.467 95.352 177.075 94.984C177.683 94.6 178.163 94.072 178.515 93.4C178.867 92.728 179.043 91.944 179.043 91.048C179.043 90.152 178.867 89.368 178.515 88.696C178.163 88.024 177.683 87.504 177.075 87.136C176.467 86.752 175.763 86.56 174.963 86.56C174.163 86.56 173.459 86.752 172.851 87.136C172.243 87.504 171.763 88.024 171.411 88.696C171.059 89.368 170.883 90.152 170.883 91.048C170.883 91.944 171.059 92.728 171.411 93.4C171.763 94.072 172.243 94.6 172.851 94.984C173.459 95.352 174.163 95.536 174.963 95.536ZM189.481 97.288C188.345 97.288 187.337 97.032 186.457 96.52C185.577 95.992 184.881 95.264 184.369 94.336C183.873 93.408 183.625 92.312 183.625 91.048C183.625 89.8 183.873 88.712 184.369 87.784C184.865 86.84 185.553 86.112 186.433 85.6C187.329 85.072 188.361 84.808 189.529 84.808C190.681 84.808 191.673 85.072 192.505 85.6C193.353 86.112 194.001 86.792 194.449 87.64C194.897 88.488 195.121 89.4 195.121 90.376C195.121 90.552 195.113 90.728 195.097 90.904C195.097 91.08 195.097 91.28 195.097 91.504H185.617C185.665 92.416 185.873 93.176 186.241 93.784C186.625 94.376 187.097 94.824 187.657 95.128C188.233 95.432 188.841 95.584 189.481 95.584C190.313 95.584 191.009 95.392 191.569 95.008C192.129 94.624 192.537 94.104 192.793 93.448H194.785C194.465 94.552 193.849 95.472 192.937 96.208C192.041 96.928 190.889 97.288 189.481 97.288ZM189.481 86.512C188.521 86.512 187.665 86.808 186.913 87.4C186.177 87.976 185.753 88.824 185.641 89.944H193.129C193.081 88.872 192.713 88.032 192.025 87.424C191.337 86.816 190.489 86.512 189.481 86.512ZM202.593 97.288C201.169 97.288 199.985 96.928 199.041 96.208C198.097 95.488 197.545 94.512 197.385 93.28H199.449C199.577 93.904 199.905 94.448 200.433 94.912C200.977 95.36 201.705 95.584 202.617 95.584C203.465 95.584 204.089 95.408 204.489 95.056C204.889 94.688 205.089 94.256 205.089 93.76C205.089 93.04 204.825 92.56 204.297 92.32C203.785 92.08 203.057 91.864 202.113 91.672C201.473 91.544 200.833 91.36 200.193 91.12C199.553 90.88 199.017 90.544 198.585 90.112C198.153 89.664 197.937 89.08 197.937 88.36C197.937 87.32 198.321 86.472 199.089 85.816C199.873 85.144 200.929 84.808 202.257 84.808C203.521 84.808 204.553 85.128 205.353 85.768C206.169 86.392 206.641 87.288 206.769 88.456H204.777C204.697 87.848 204.433 87.376 203.985 87.04C203.553 86.688 202.969 86.512 202.233 86.512C201.513 86.512 200.953 86.664 200.553 86.968C200.169 87.272 199.977 87.672 199.977 88.168C199.977 88.648 200.225 89.024 200.721 89.296C201.233 89.568 201.921 89.8 202.785 89.992C203.521 90.152 204.217 90.352 204.873 90.592C205.545 90.816 206.089 91.16 206.505 91.624C206.937 92.072 207.153 92.728 207.153 93.592C207.169 94.664 206.761 95.552 205.929 96.256C205.113 96.944 204.001 97.288 202.593 97.288ZM214.438 97C213.35 97 212.494 96.736 211.87 96.208C211.246 95.68 210.934 94.728 210.934 93.352V86.8H208.87V85.096H210.934L211.198 82.24H212.95V85.096H216.454V86.8H212.95V93.352C212.95 94.104 213.102 94.616 213.406 94.888C213.71 95.144 214.246 95.272 215.014 95.272H216.262V97H214.438ZM29.2983 130.28L29.2983 113.096H31.1223L31.3143 115.064C31.6983 114.488 32.2423 113.968 32.9463 113.504C33.6663 113.04 34.5783 112.808 35.6823 112.808C36.8663 112.808 37.8983 113.08 38.7783 113.624C39.6583 114.168 40.3383 114.912 40.8183 115.856C41.3143 116.8 41.5623 117.872 41.5623 119.072C41.5623 120.272 41.3143 121.344 40.8183 122.288C40.3383 123.216 39.6503 123.952 38.7543 124.496C37.8743 125.024 36.8423 125.288 35.6583 125.288C34.6823 125.288 33.8103 125.088 33.0423 124.688C32.2903 124.288 31.7143 123.728 31.3143 123.008L31.3143 130.28H29.2983ZM35.4423 123.536C36.2423 123.536 36.9463 123.352 37.5543 122.984C38.1623 122.6 38.6423 122.072 38.9943 121.4C39.3463 120.728 39.5223 119.944 39.5223 119.048C39.5223 118.152 39.3463 117.368 38.9943 116.696C38.6423 116.024 38.1623 115.504 37.5543 115.136C36.9463 114.752 36.2423 114.56 35.4423 114.56C34.6423 114.56 33.9383 114.752 33.3303 115.136C32.7223 115.504 32.2423 116.024 31.8903 116.696C31.5383 117.368 31.3623 118.152 31.3623 119.048C31.3623 119.944 31.5383 120.728 31.8903 121.4C32.2423 122.072 32.7223 122.6 33.3303 122.984C33.9383 123.352 34.6423 123.536 35.4423 123.536ZM44.6086 125V113.096H46.4326L46.6006 115.376C46.9686 114.592 47.5286 113.968 48.2806 113.504C49.0326 113.04 49.9606 112.808 51.0646 112.808V114.92H50.5126C49.8086 114.92 49.1606 115.048 48.5686 115.304C47.9766 115.544 47.5046 115.96 47.1526 116.552C46.8006 117.144 46.6246 117.96 46.6246 119V125H44.6086ZM57.5274 125.288C56.5354 125.288 55.7114 125.12 55.0554 124.784C54.3994 124.448 53.9114 124 53.5914 123.44C53.2714 122.88 53.1114 122.272 53.1114 121.616C53.1114 120.4 53.5754 119.464 54.5034 118.808C55.4314 118.152 56.6954 117.824 58.2954 117.824H61.5114V117.68C61.5114 116.64 61.2394 115.856 60.6954 115.328C60.1514 114.784 59.4234 114.512 58.5114 114.512C57.7274 114.512 57.0474 114.712 56.4714 115.112C55.9114 115.496 55.5594 116.064 55.4154 116.816H53.3514C53.4314 115.952 53.7194 115.224 54.2154 114.632C54.7274 114.04 55.3594 113.592 56.1114 113.288C56.8634 112.968 57.6634 112.808 58.5114 112.808C60.1754 112.808 61.4234 113.256 62.2554 114.152C63.1034 115.032 63.5274 116.208 63.5274 117.68V125H61.7274L61.6074 122.864C61.2714 123.536 60.7754 124.112 60.1194 124.592C59.4794 125.056 58.6154 125.288 57.5274 125.288ZM57.8394 123.584C58.6074 123.584 59.2634 123.384 59.8074 122.984C60.3674 122.584 60.7914 122.064 61.0794 121.424C61.3674 120.784 61.5114 120.112 61.5114 119.408V119.384H58.4634C57.2794 119.384 56.4394 119.592 55.9434 120.008C55.4634 120.408 55.2234 120.912 55.2234 121.52C55.2234 122.144 55.4474 122.648 55.8954 123.032C56.3594 123.4 57.0074 123.584 57.8394 123.584ZM72.2637 125.288C71.1277 125.288 70.1037 125.032 69.1917 124.52C68.2957 123.992 67.5837 123.264 67.0557 122.336C66.5437 121.392 66.2877 120.296 66.2877 119.048C66.2877 117.8 66.5437 116.712 67.0557 115.784C67.5837 114.84 68.2957 114.112 69.1917 113.6C70.1037 113.072 71.1277 112.808 72.2637 112.808C73.6717 112.808 74.8557 113.176 75.8157 113.912C76.7917 114.648 77.4077 115.632 77.6637 116.864H75.5997C75.4397 116.128 75.0477 115.56 74.4237 115.16C73.7997 114.744 73.0717 114.536 72.2397 114.536C71.5677 114.536 70.9357 114.704 70.3437 115.04C69.7517 115.376 69.2717 115.88 68.9037 116.552C68.5357 117.224 68.3517 118.056 68.3517 119.048C68.3517 120.04 68.5357 120.872 68.9037 121.544C69.2717 122.216 69.7517 122.728 70.3437 123.08C70.9357 123.416 71.5677 123.584 72.2397 123.584C73.0717 123.584 73.7997 123.384 74.4237 122.984C75.0477 122.568 75.4397 121.984 75.5997 121.232H77.6637C77.4237 122.432 76.8157 123.408 75.8397 124.16C74.8637 124.912 73.6717 125.288 72.2637 125.288ZM85.0951 125C84.0071 125 83.1511 124.736 82.5271 124.208C81.9031 123.68 81.5911 122.728 81.5911 121.352V114.8H79.5271V113.096H81.5911L81.8551 110.24H83.6071V113.096H87.1111V114.8H83.6071V121.352C83.6071 122.104 83.7591 122.616 84.0631 122.888C84.3671 123.144 84.9031 123.272 85.6711 123.272H86.9191V125H85.0951ZM91.1364 110.456C90.7364 110.456 90.4004 110.328 90.1284 110.072C89.8724 109.8 89.7444 109.464 89.7444 109.064C89.7444 108.68 89.8724 108.36 90.1284 108.104C90.4004 107.848 90.7364 107.72 91.1364 107.72C91.5204 107.72 91.8484 107.848 92.1204 108.104C92.3924 108.36 92.5284 108.68 92.5284 109.064C92.5284 109.464 92.3924 109.8 92.1204 110.072C91.8484 110.328 91.5204 110.456 91.1364 110.456ZM90.1284 125V113.096H92.1444V125H90.1284ZM101.367 125.288C100.231 125.288 99.2066 125.032 98.2946 124.52C97.3986 123.992 96.6866 123.264 96.1586 122.336C95.6466 121.392 95.3906 120.296 95.3906 119.048C95.3906 117.8 95.6466 116.712 96.1586 115.784C96.6866 114.84 97.3986 114.112 98.2946 113.6C99.2066 113.072 100.231 112.808 101.367 112.808C102.775 112.808 103.959 113.176 104.919 113.912C105.895 114.648 106.511 115.632 106.767 116.864H104.703C104.543 116.128 104.151 115.56 103.527 115.16C102.903 114.744 102.175 114.536 101.343 114.536C100.671 114.536 100.039 114.704 99.4466 115.04C98.8546 115.376 98.3746 115.88 98.0066 116.552C97.6386 117.224 97.4546 118.056 97.4546 119.048C97.4546 120.04 97.6386 120.872 98.0066 121.544C98.3746 122.216 98.8546 122.728 99.4466 123.08C100.039 123.416 100.671 123.584 101.343 123.584C102.175 123.584 102.903 123.384 103.527 122.984C104.151 122.568 104.543 121.984 104.703 121.232H106.767C106.527 122.432 105.919 123.408 104.943 124.16C103.967 124.912 102.775 125.288 101.367 125.288ZM115.174 125.288C114.038 125.288 113.03 125.032 112.15 124.52C111.27 123.992 110.574 123.264 110.062 122.336C109.566 121.408 109.318 120.312 109.318 119.048C109.318 117.8 109.566 116.712 110.062 115.784C110.558 114.84 111.246 114.112 112.126 113.6C113.022 113.072 114.054 112.808 115.222 112.808C116.374 112.808 117.366 113.072 118.198 113.6C119.046 114.112 119.694 114.792 120.142 115.64C120.59 116.488 120.814 117.4 120.814 118.376C120.814 118.552 120.806 118.728 120.79 118.904C120.79 119.08 120.79 119.28 120.79 119.504H111.31C111.358 120.416 111.566 121.176 111.934 121.784C112.318 122.376 112.79 122.824 113.35 123.128C113.926 123.432 114.534 123.584 115.174 123.584C116.006 123.584 116.702 123.392 117.262 123.008C117.822 122.624 118.23 122.104 118.486 121.448H120.478C120.158 122.552 119.542 123.472 118.63 124.208C117.734 124.928 116.582 125.288 115.174 125.288ZM115.174 114.512C114.214 114.512 113.358 114.808 112.606 115.4C111.87 115.976 111.446 116.824 111.334 117.944H118.822C118.774 116.872 118.406 116.032 117.718 115.424C117.03 114.816 116.182 114.512 115.174 114.512ZM128.286 125.288C126.862 125.288 125.678 124.928 124.734 124.208C123.79 123.488 123.238 122.512 123.078 121.28H125.142C125.27 121.904 125.598 122.448 126.126 122.912C126.67 123.36 127.398 123.584 128.31 123.584C129.158 123.584 129.782 123.408 130.182 123.056C130.582 122.688 130.782 122.256 130.782 121.76C130.782 121.04 130.518 120.56 129.99 120.32C129.478 120.08 128.75 119.864 127.806 119.672C127.166 119.544 126.526 119.36 125.886 119.12C125.246 118.88 124.71 118.544 124.278 118.112C123.846 117.664 123.63 117.08 123.63 116.36C123.63 115.32 124.014 114.472 124.782 113.816C125.566 113.144 126.622 112.808 127.95 112.808C129.214 112.808 130.246 113.128 131.046 113.768C131.862 114.392 132.334 115.288 132.462 116.456H130.47C130.39 115.848 130.126 115.376 129.678 115.04C129.246 114.688 128.662 114.512 127.926 114.512C127.206 114.512 126.646 114.664 126.246 114.968C125.862 115.272 125.67 115.672 125.67 116.168C125.67 116.648 125.918 117.024 126.414 117.296C126.926 117.568 127.614 117.8 128.478 117.992C129.214 118.152 129.91 118.352 130.566 118.592C131.238 118.816 131.782 119.16 132.198 119.624C132.63 120.072 132.846 120.728 132.846 121.592C132.862 122.664 132.454 123.552 131.622 124.256C130.806 124.944 129.694 125.288 128.286 125.288ZM143.206 125V114.8H141.406V113.096H143.206V111.032C143.206 109.88 143.494 109.04 144.07 108.512C144.646 107.984 145.486 107.72 146.59 107.72H147.79V109.448H146.902C146.294 109.448 145.862 109.576 145.606 109.832C145.35 110.072 145.222 110.488 145.222 111.08V113.096H148.15V114.8H145.222V125H143.206ZM155.745 125.288C154.625 125.288 153.617 125.032 152.721 124.52C151.825 124.008 151.113 123.288 150.585 122.36C150.073 121.416 149.817 120.312 149.817 119.048C149.817 117.784 150.081 116.688 150.609 115.76C151.137 114.816 151.849 114.088 152.745 113.576C153.657 113.064 154.673 112.808 155.793 112.808C156.913 112.808 157.921 113.064 158.817 113.576C159.713 114.088 160.417 114.816 160.929 115.76C161.457 116.688 161.721 117.784 161.721 119.048C161.721 120.312 161.457 121.416 160.929 122.36C160.401 123.288 159.681 124.008 158.769 124.52C157.873 125.032 156.865 125.288 155.745 125.288ZM155.745 123.56C156.433 123.56 157.073 123.392 157.665 123.056C158.257 122.72 158.737 122.216 159.105 121.544C159.473 120.872 159.657 120.04 159.657 119.048C159.657 118.056 159.473 117.224 159.105 116.552C158.753 115.88 158.281 115.376 157.689 115.04C157.097 114.704 156.465 114.536 155.793 114.536C155.105 114.536 154.465 114.704 153.873 115.04C153.281 115.376 152.801 115.88 152.433 116.552C152.065 117.224 151.881 118.056 151.881 119.048C151.881 120.04 152.065 120.872 152.433 121.544C152.801 122.216 153.273 122.72 153.849 123.056C154.441 123.392 155.073 123.56 155.745 123.56ZM164.764 125V113.096H166.588L166.756 115.376C167.124 114.592 167.684 113.968 168.436 113.504C169.188 113.04 170.116 112.808 171.22 112.808V114.92H170.668C169.964 114.92 169.316 115.048 168.724 115.304C168.132 115.544 167.66 115.96 167.308 116.552C166.956 117.144 166.78 117.96 166.78 119V125H164.764ZM185.667 125.288C184.531 125.288 183.523 125.032 182.643 124.52C181.763 123.992 181.067 123.264 180.555 122.336C180.059 121.408 179.811 120.312 179.811 119.048C179.811 117.8 180.059 116.712 180.555 115.784C181.051 114.84 181.739 114.112 182.619 113.6C183.515 113.072 184.547 112.808 185.715 112.808C186.867 112.808 187.859 113.072 188.691 113.6C189.539 114.112 190.187 114.792 190.635 115.64C191.083 116.488 191.307 117.4 191.307 118.376C191.307 118.552 191.299 118.728 191.283 118.904C191.283 119.08 191.283 119.28 191.283 119.504H181.803C181.851 120.416 182.059 121.176 182.427 121.784C182.811 122.376 183.283 122.824 183.843 123.128C184.419 123.432 185.027 123.584 185.667 123.584C186.499 123.584 187.195 123.392 187.755 123.008C188.315 122.624 188.723 122.104 188.979 121.448H190.971C190.651 122.552 190.035 123.472 189.123 124.208C188.227 124.928 187.075 125.288 185.667 125.288ZM185.667 114.512C184.707 114.512 183.851 114.808 183.099 115.4C182.363 115.976 181.939 116.824 181.827 117.944H189.315C189.267 116.872 188.899 116.032 188.211 115.424C187.523 114.816 186.675 114.512 185.667 114.512ZM194.339 125V108.2H200.243C201.427 108.2 202.403 108.392 203.171 108.776C203.955 109.144 204.539 109.656 204.923 110.312C205.307 110.952 205.499 111.672 205.499 112.472C205.499 113.56 205.203 114.416 204.611 115.04C204.035 115.664 203.339 116.096 202.523 116.336C203.147 116.448 203.715 116.696 204.227 117.08C204.739 117.464 205.139 117.944 205.427 118.52C205.731 119.096 205.883 119.728 205.883 120.416C205.883 121.264 205.675 122.04 205.259 122.744C204.843 123.432 204.227 123.984 203.411 124.4C202.595 124.8 201.603 125 200.435 125H194.339ZM196.355 115.544H200.099C201.171 115.544 201.995 115.296 202.571 114.8C203.147 114.288 203.435 113.584 203.435 112.688C203.435 111.84 203.147 111.16 202.571 110.648C202.011 110.136 201.163 109.88 200.027 109.88H196.355V115.544ZM196.355 123.32H200.219C201.371 123.32 202.259 123.056 202.883 122.528C203.507 121.984 203.819 121.232 203.819 120.272C203.819 119.328 203.491 118.576 202.835 118.016C202.179 117.44 201.291 117.152 200.171 117.152H196.355V123.32ZM214.32 125.288C213.2 125.288 212.192 125.032 211.296 124.52C210.4 124.008 209.688 123.288 209.16 122.36C208.648 121.416 208.392 120.312 208.392 119.048C208.392 117.784 208.656 116.688 209.184 115.76C209.712 114.816 210.424 114.088 211.32 113.576C212.232 113.064 213.248 112.808 214.368 112.808C215.488 112.808 216.496 113.064 217.392 113.576C218.288 114.088 218.992 114.816 219.504 115.76C220.032 116.688 220.296 117.784 220.296 119.048C220.296 120.312 220.032 121.416 219.504 122.36C218.976 123.288 218.256 124.008 217.344 124.52C216.448 125.032 215.44 125.288 214.32 125.288ZM214.32 123.56C215.008 123.56 215.648 123.392 216.24 123.056C216.832 122.72 217.312 122.216 217.68 121.544C218.048 120.872 218.232 120.04 218.232 119.048C218.232 118.056 218.048 117.224 217.68 116.552C217.328 115.88 216.856 115.376 216.264 115.04C215.672 114.704 215.04 114.536 214.368 114.536C213.68 114.536 213.04 114.704 212.448 115.04C211.856 115.376 211.376 115.88 211.008 116.552C210.64 117.224 210.456 118.056 210.456 119.048C210.456 120.04 210.64 120.872 211.008 121.544C211.376 122.216 211.848 122.72 212.424 123.056C213.016 123.392 213.648 123.56 214.32 123.56ZM228.763 125.288C227.643 125.288 226.635 125.032 225.739 124.52C224.843 124.008 224.131 123.288 223.603 122.36C223.091 121.416 222.835 120.312 222.835 119.048C222.835 117.784 223.099 116.688 223.627 115.76C224.155 114.816 224.867 114.088 225.763 113.576C226.675 113.064 227.691 112.808 228.811 112.808C229.931 112.808 230.939 113.064 231.835 113.576C232.731 114.088 233.435 114.816 233.947 115.76C234.475 116.688 234.739 117.784 234.739 119.048C234.739 120.312 234.475 121.416 233.947 122.36C233.419 123.288 232.699 124.008 231.787 124.52C230.891 125.032 229.883 125.288 228.763 125.288ZM228.763 123.56C229.451 123.56 230.091 123.392 230.683 123.056C231.275 122.72 231.755 122.216 232.123 121.544C232.491 120.872 232.675 120.04 232.675 119.048C232.675 118.056 232.491 117.224 232.123 116.552C231.771 115.88 231.299 115.376 230.707 115.04C230.115 114.704 229.483 114.536 228.811 114.536C228.123 114.536 227.483 114.704 226.891 115.04C226.299 115.376 225.819 115.88 225.451 116.552C225.083 117.224 224.899 118.056 224.899 119.048C224.899 120.04 225.083 120.872 225.451 121.544C225.819 122.216 226.291 122.72 226.867 123.056C227.459 123.392 228.091 123.56 228.763 123.56ZM237.782 125V107.72H239.798V118.112L244.67 113.096H247.142L241.862 118.472L247.814 125H245.246L239.798 118.832V125H237.782ZM77.8062 153.288C76.6702 153.288 75.6462 153.032 74.7342 152.52C73.8382 151.992 73.1262 151.264 72.5982 150.336C72.0862 149.392 71.8302 148.296 71.8302 147.048C71.8302 145.8 72.0862 144.712 72.5982 143.784C73.1262 142.84 73.8382 142.112 74.7342 141.6C75.6462 141.072 76.6702 140.808 77.8062 140.808C79.2142 140.808 80.3982 141.176 81.3582 141.912C82.3342 142.648 82.9502 143.632 83.2062 144.864H81.1422C80.9822 144.128 80.5902 143.56 79.9662 143.16C79.3422 142.744 78.6142 142.536 77.7822 142.536C77.1102 142.536 76.4782 142.704 75.8862 143.04C75.2942 143.376 74.8142 143.88 74.4462 144.552C74.0782 145.224 73.8942 146.056 73.8942 147.048C73.8942 148.04 74.0782 148.872 74.4462 149.544C74.8142 150.216 75.2942 150.728 75.8862 151.08C76.4782 151.416 77.1102 151.584 77.7822 151.584C78.6142 151.584 79.3422 151.384 79.9662 150.984C80.5902 150.568 80.9822 149.984 81.1422 149.232H83.2062C82.9662 150.432 82.3582 151.408 81.3822 152.16C80.4062 152.912 79.2142 153.288 77.8062 153.288ZM90.2217 153.288C89.2297 153.288 88.4057 153.12 87.7497 152.784C87.0937 152.448 86.6057 152 86.2857 151.44C85.9657 150.88 85.8057 150.272 85.8057 149.616C85.8057 148.4 86.2697 147.464 87.1977 146.808C88.1257 146.152 89.3897 145.824 90.9897 145.824H94.2057V145.68C94.2057 144.64 93.9337 143.856 93.3897 143.328C92.8457 142.784 92.1177 142.512 91.2057 142.512C90.4217 142.512 89.7417 142.712 89.1657 143.112C88.6057 143.496 88.2537 144.064 88.1097 144.816H86.0457C86.1257 143.952 86.4137 143.224 86.9097 142.632C87.4217 142.04 88.0537 141.592 88.8057 141.288C89.5577 140.968 90.3577 140.808 91.2057 140.808C92.8697 140.808 94.1177 141.256 94.9497 142.152C95.7977 143.032 96.2217 144.208 96.2217 145.68V153H94.4217L94.3017 150.864C93.9657 151.536 93.4697 152.112 92.8137 152.592C92.1737 153.056 91.3097 153.288 90.2217 153.288ZM90.5337 151.584C91.3017 151.584 91.9577 151.384 92.5017 150.984C93.0617 150.584 93.4857 150.064 93.7737 149.424C94.0617 148.784 94.2057 148.112 94.2057 147.408V147.384H91.1577C89.9737 147.384 89.1337 147.592 88.6377 148.008C88.1577 148.408 87.9177 148.912 87.9177 149.52C87.9177 150.144 88.1417 150.648 88.5897 151.032C89.0537 151.4 89.7017 151.584 90.5337 151.584ZM99.4861 153V141.096H101.31L101.454 142.824C101.838 142.184 102.35 141.688 102.99 141.336C103.63 140.984 104.35 140.808 105.15 140.808C106.094 140.808 106.902 141 107.574 141.384C108.262 141.768 108.79 142.352 109.158 143.136C109.574 142.416 110.142 141.848 110.862 141.432C111.598 141.016 112.39 140.808 113.238 140.808C114.662 140.808 115.798 141.24 116.646 142.104C117.494 142.952 117.918 144.264 117.918 146.04V153H115.926V146.256C115.926 145.024 115.678 144.096 115.182 143.472C114.686 142.848 113.974 142.536 113.046 142.536C112.086 142.536 111.286 142.912 110.646 143.664C110.022 144.4 109.71 145.456 109.71 146.832V153H107.694V146.256C107.694 145.024 107.446 144.096 106.95 143.472C106.454 142.848 105.742 142.536 104.814 142.536C103.87 142.536 103.078 142.912 102.438 143.664C101.814 144.4 101.502 145.456 101.502 146.832V153H99.4861ZM121.195 158.28V141.096H123.019L123.211 143.064C123.595 142.488 124.139 141.968 124.843 141.504C125.563 141.04 126.475 140.808 127.579 140.808C128.763 140.808 129.795 141.08 130.675 141.624C131.555 142.168 132.235 142.912 132.715 143.856C133.211 144.8 133.459 145.872 133.459 147.072C133.459 148.272 133.211 149.344 132.715 150.288C132.235 151.216 131.547 151.952 130.651 152.496C129.771 153.024 128.739 153.288 127.555 153.288C126.579 153.288 125.707 153.088 124.939 152.688C124.187 152.288 123.611 151.728 123.211 151.008V158.28H121.195ZM127.339 151.536C128.139 151.536 128.843 151.352 129.451 150.984C130.059 150.6 130.539 150.072 130.891 149.4C131.243 148.728 131.419 147.944 131.419 147.048C131.419 146.152 131.243 145.368 130.891 144.696C130.539 144.024 130.059 143.504 129.451 143.136C128.843 142.752 128.139 142.56 127.339 142.56C126.539 142.56 125.835 142.752 125.227 143.136C124.619 143.504 124.139 144.024 123.787 144.696C123.435 145.368 123.259 146.152 123.259 147.048C123.259 147.944 123.435 148.728 123.787 149.4C124.139 150.072 124.619 150.6 125.227 150.984C125.835 151.352 126.539 151.536 127.339 151.536ZM140.465 153.288C139.473 153.288 138.649 153.12 137.993 152.784C137.337 152.448 136.849 152 136.529 151.44C136.209 150.88 136.049 150.272 136.049 149.616C136.049 148.4 136.513 147.464 137.441 146.808C138.369 146.152 139.633 145.824 141.233 145.824H144.449V145.68C144.449 144.64 144.177 143.856 143.633 143.328C143.089 142.784 142.361 142.512 141.449 142.512C140.665 142.512 139.985 142.712 139.409 143.112C138.849 143.496 138.497 144.064 138.353 144.816H136.289C136.369 143.952 136.657 143.224 137.153 142.632C137.665 142.04 138.297 141.592 139.049 141.288C139.801 140.968 140.601 140.808 141.449 140.808C143.113 140.808 144.361 141.256 145.193 142.152C146.041 143.032 146.465 144.208 146.465 145.68V153H144.665L144.545 150.864C144.209 151.536 143.713 152.112 143.057 152.592C142.417 153.056 141.553 153.288 140.465 153.288ZM140.777 151.584C141.545 151.584 142.201 151.384 142.745 150.984C143.305 150.584 143.729 150.064 144.017 149.424C144.305 148.784 144.449 148.112 144.449 147.408V147.384H141.401C140.217 147.384 139.377 147.592 138.881 148.008C138.401 148.408 138.161 148.912 138.161 149.52C138.161 150.144 138.385 150.648 138.833 151.032C139.297 151.4 139.945 151.584 140.777 151.584ZM150.954 138.456C150.554 138.456 150.218 138.328 149.946 138.072C149.69 137.8 149.562 137.464 149.562 137.064C149.562 136.68 149.69 136.36 149.946 136.104C150.218 135.848 150.554 135.72 150.954 135.72C151.338 135.72 151.666 135.848 151.938 136.104C152.21 136.36 152.346 136.68 152.346 137.064C152.346 137.464 152.21 137.8 151.938 138.072C151.666 138.328 151.338 138.456 150.954 138.456ZM149.946 153V141.096H151.962V153H149.946ZM160.416 149.256C159.744 149.256 159.128 149.168 158.568 148.992L157.368 150.12C157.544 150.248 157.76 150.36 158.016 150.456C158.288 150.536 158.672 150.616 159.168 150.696C159.664 150.76 160.36 150.832 161.256 150.912C162.856 151.024 164 151.392 164.688 152.016C165.376 152.64 165.72 153.456 165.72 154.464C165.72 155.152 165.528 155.808 165.144 156.432C164.776 157.056 164.2 157.568 163.416 157.968C162.648 158.368 161.656 158.568 160.44 158.568C159.368 158.568 158.416 158.424 157.584 158.136C156.752 157.864 156.104 157.44 155.64 156.864C155.176 156.304 154.944 155.592 154.944 154.728C154.944 154.28 155.064 153.792 155.304 153.264C155.544 152.752 155.992 152.264 156.648 151.8C156.296 151.656 155.992 151.504 155.736 151.344C155.496 151.168 155.272 150.976 155.064 150.768V150.216L157.104 148.2C156.16 147.4 155.688 146.344 155.688 145.032C155.688 144.248 155.872 143.536 156.24 142.896C156.608 142.256 157.144 141.752 157.848 141.384C158.552 141 159.408 140.808 160.416 140.808C161.104 140.808 161.728 140.904 162.288 141.096L166.68 141.096V142.608L164.448 142.704C164.912 143.376 165.144 144.152 165.144 145.032C165.144 145.816 164.952 146.528 164.568 147.168C164.2 147.808 163.664 148.32 162.96 148.704C162.272 149.072 161.424 149.256 160.416 149.256ZM160.416 147.6C161.264 147.6 161.936 147.384 162.432 146.952C162.944 146.504 163.2 145.864 163.2 145.032C163.2 144.216 162.944 143.592 162.432 143.16C161.936 142.712 161.264 142.488 160.416 142.488C159.552 142.488 158.864 142.712 158.352 143.16C157.856 143.592 157.608 144.216 157.608 145.032C157.608 145.864 157.856 146.504 158.352 146.952C158.864 147.384 159.552 147.6 160.416 147.6ZM156.912 154.536C156.912 155.336 157.248 155.928 157.92 156.312C158.592 156.712 159.432 156.912 160.44 156.912C161.432 156.912 162.224 156.696 162.816 156.264C163.424 155.832 163.728 155.256 163.728 154.536C163.728 154.024 163.52 153.576 163.104 153.192C162.688 152.824 161.92 152.608 160.8 152.544C159.92 152.48 159.16 152.4 158.52 152.304C157.864 152.656 157.432 153.032 157.224 153.432C157.016 153.848 156.912 154.216 156.912 154.536ZM169.194 153V141.096H171.018L171.138 143.232C171.522 142.48 172.074 141.888 172.794 141.456C173.514 141.024 174.33 140.808 175.242 140.808C176.65 140.808 177.77 141.24 178.602 142.104C179.45 142.952 179.874 144.264 179.874 146.04V153H177.858V146.256C177.858 143.776 176.834 142.536 174.786 142.536C173.762 142.536 172.906 142.912 172.218 143.664C171.546 144.4 171.21 145.456 171.21 146.832V153H169.194ZM187.728 153.288C186.304 153.288 185.12 152.928 184.176 152.208C183.232 151.488 182.68 150.512 182.52 149.28H184.584C184.712 149.904 185.04 150.448 185.568 150.912C186.112 151.36 186.84 151.584 187.752 151.584C188.6 151.584 189.224 151.408 189.624 151.056C190.024 150.688 190.224 150.256 190.224 149.76C190.224 149.04 189.96 148.56 189.432 148.32C188.92 148.08 188.192 147.864 187.248 147.672C186.608 147.544 185.968 147.36 185.328 147.12C184.688 146.88 184.152 146.544 183.72 146.112C183.288 145.664 183.072 145.08 183.072 144.36C183.072 143.32 183.456 142.472 184.224 141.816C185.008 141.144 186.064 140.808 187.392 140.808C188.656 140.808 189.688 141.128 190.488 141.768C191.304 142.392 191.776 143.288 191.904 144.456H189.912C189.832 143.848 189.568 143.376 189.12 143.04C188.688 142.688 188.104 142.512 187.368 142.512C186.648 142.512 186.088 142.664 185.688 142.968C185.304 143.272 185.112 143.672 185.112 144.168C185.112 144.648 185.36 145.024 185.856 145.296C186.368 145.568 187.056 145.8 187.92 145.992C188.656 146.152 189.352 146.352 190.008 146.592C190.68 146.816 191.224 147.16 191.64 147.624C192.072 148.072 192.288 148.728 192.288 149.592C192.304 150.664 191.896 151.552 191.064 152.256C190.248 152.944 189.136 153.288 187.728 153.288ZM196.673 148.296L196.577 144.432H197.321C198.217 144.432 199.049 144.344 199.817 144.168C200.601 143.992 201.233 143.648 201.713 143.136C202.193 142.624 202.433 141.856 202.433 140.832C202.433 139.84 202.121 139.056 201.497 138.48C200.889 137.904 200.081 137.616 199.073 137.616C198.049 137.616 197.241 137.896 196.649 138.456C196.057 139.016 195.761 139.768 195.761 140.712H193.841C193.841 139.752 194.057 138.912 194.489 138.192C194.937 137.472 195.553 136.912 196.337 136.512C197.121 136.112 198.033 135.912 199.073 135.912C200.113 135.912 201.033 136.112 201.833 136.512C202.633 136.912 203.257 137.48 203.705 138.216C204.153 138.952 204.377 139.824 204.377 140.832C204.377 142.016 204.121 142.976 203.609 143.712C203.113 144.448 202.417 144.984 201.521 145.32C200.641 145.656 199.633 145.824 198.497 145.824L198.425 148.296H196.673ZM197.537 153.12C197.137 153.12 196.801 152.992 196.529 152.736C196.273 152.464 196.145 152.136 196.145 151.752C196.145 151.368 196.273 151.048 196.529 150.792C196.801 150.52 197.137 150.384 197.537 150.384C197.937 150.384 198.265 150.52 198.521 150.792C198.777 151.048 198.905 151.368 198.905 151.752C198.905 152.136 198.777 152.464 198.521 152.736C198.265 152.992 197.937 153.12 197.537 153.12Z" fill="#232E34"/>
<path fill-rule="evenodd" clip-rule="evenodd" d="M432.789 318C431.72 318 433.668 305.775 435.157 297.25H409.511C401.496 297.25 395 292.363 395 286.335V208.916C395 202.888 401.496 198 409.511 198H656.49C664.504 198 671 202.888 671 208.916V286.335C671 292.363 664.504 297.25 656.49 297.25H453.899C446.373 305.138 433.927 318 432.789 318Z" fill="#ECEEEF"/>
<path fill-rule="evenodd" clip-rule="evenodd" d="M649.713 179.296H416.677C409.116 179.296 402.986 184.663 402.986 191.284V276.297C402.986 282.922 409.116 288.289 416.677 288.289H440.876C439.472 297.644 437.633 311.069 438.642 311.069C439.716 311.069 451.459 296.95 458.56 288.289H649.713C657.274 288.289 663.404 282.922 663.404 276.297V191.284C663.404 184.663 657.274 179.296 649.713 179.296Z" fill="white" stroke="#232E34" stroke-width="3" stroke-linecap="round" stroke-linejoin="round"/>
<path d="M428.978 215.024L424.37 198.2H426.53L430.154 212.624L434.282 198.2H436.514L440.522 212.624L444.194 198.2H446.354L441.65 215H439.346L435.338 201.128L431.234 215L428.978 215.024ZM448.845 215V197.72H450.861V205.136C451.261 204.4 451.829 203.832 452.565 203.432C453.301 203.016 454.101 202.808 454.965 202.808C456.341 202.808 457.445 203.24 458.277 204.104C459.109 204.952 459.525 206.264 459.525 208.04V215H457.533V208.256C457.533 205.776 456.533 204.536 454.533 204.536C453.493 204.536 452.621 204.912 451.917 205.664C451.213 206.4 450.861 207.456 450.861 208.832V215H448.845ZM466.779 215.288C465.787 215.288 464.963 215.12 464.307 214.784C463.651 214.448 463.163 214 462.843 213.44C462.523 212.88 462.363 212.272 462.363 211.616C462.363 210.4 462.827 209.464 463.755 208.808C464.683 208.152 465.947 207.824 467.547 207.824H470.763V207.68C470.763 206.64 470.491 205.856 469.947 205.328C469.403 204.784 468.675 204.512 467.763 204.512C466.979 204.512 466.299 204.712 465.723 205.112C465.163 205.496 464.811 206.064 464.667 206.816H462.603C462.683 205.952 462.971 205.224 463.467 204.632C463.979 204.04 464.611 203.592 465.363 203.288C466.115 202.968 466.915 202.808 467.763 202.808C469.427 202.808 470.675 203.256 471.507 204.152C472.355 205.032 472.779 206.208 472.779 207.68V215H470.979L470.859 212.864C470.523 213.536 470.027 214.112 469.371 214.592C468.731 215.056 467.867 215.288 466.779 215.288ZM467.091 213.584C467.859 213.584 468.515 213.384 469.059 212.984C469.619 212.584 470.043 212.064 470.331 211.424C470.619 210.784 470.763 210.112 470.763 209.408V209.384H467.715C466.531 209.384 465.691 209.592 465.195 210.008C464.715 210.408 464.475 210.912 464.475 211.52C464.475 212.144 464.699 212.648 465.147 213.032C465.611 213.4 466.259 213.584 467.091 213.584ZM480.419 215C479.331 215 478.475 214.736 477.851 214.208C477.227 213.68 476.915 212.728 476.915 211.352V204.8H474.851V203.096H476.915L477.179 200.24H478.931V203.096H482.435V204.8H478.931V211.352C478.931 212.104 479.083 212.616 479.387 212.888C479.691 213.144 480.227 213.272 480.995 213.272H482.243V215H480.419ZM491.828 215V203.096H493.652L493.772 205.232C494.156 204.48 494.708 203.888 495.428 203.456C496.148 203.024 496.964 202.808 497.876 202.808C499.284 202.808 500.404 203.24 501.236 204.104C502.084 204.952 502.508 206.264 502.508 208.04V215H500.492V208.256C500.492 205.776 499.468 204.536 497.42 204.536C496.396 204.536 495.54 204.912 494.852 205.664C494.18 206.4 493.844 207.456 493.844 208.832V215H491.828ZM511.155 215.288C510.019 215.288 509.011 215.032 508.131 214.52C507.251 213.992 506.555 213.264 506.043 212.336C505.547 211.408 505.299 210.312 505.299 209.048C505.299 207.8 505.547 206.712 506.043 205.784C506.539 204.84 507.227 204.112 508.107 203.6C509.003 203.072 510.035 202.808 511.203 202.808C512.355 202.808 513.347 203.072 514.179 203.6C515.027 204.112 515.675 204.792 516.123 205.64C516.571 206.488 516.795 207.4 516.795 208.376C516.795 208.552 516.787 208.728 516.771 208.904C516.771 209.08 516.771 209.28 516.771 209.504H507.291C507.339 210.416 507.547 211.176 507.915 211.784C508.299 212.376 508.771 212.824 509.331 213.128C509.907 213.432 510.515 213.584 511.155 213.584C511.987 213.584 512.683 213.392 513.243 213.008C513.803 212.624 514.211 212.104 514.467 211.448H516.459C516.139 212.552 515.523 213.472 514.611 214.208C513.715 214.928 512.563 215.288 511.155 215.288ZM511.155 204.512C510.195 204.512 509.339 204.808 508.587 205.4C507.851 205.976 507.427 206.824 507.315 207.944H514.803C514.755 206.872 514.387 206.032 513.699 205.424C513.011 204.816 512.163 204.512 511.155 204.512ZM521.638 215L518.158 203.096H520.174L522.694 212.432L525.478 203.096H527.758L530.566 212.432L533.062 203.096H535.102L531.622 215H529.558L526.63 205.184L523.702 215H521.638ZM544.163 215V203.096H545.987L546.131 204.824C546.515 204.184 547.027 203.688 547.667 203.336C548.307 202.984 549.027 202.808 549.827 202.808C550.771 202.808 551.579 203 552.251 203.384C552.939 203.768 553.467 204.352 553.835 205.136C554.251 204.416 554.819 203.848 555.539 203.432C556.275 203.016 557.067 202.808 557.915 202.808C559.339 202.808 560.475 203.24 561.323 204.104C562.171 204.952 562.595 206.264 562.595 208.04V215H560.603V208.256C560.603 207.024 560.355 206.096 559.859 205.472C559.363 204.848 558.651 204.536 557.723 204.536C556.763 204.536 555.963 204.912 555.323 205.664C554.699 206.4 554.387 207.456 554.387 208.832V215H552.371V208.256C552.371 207.024 552.123 206.096 551.627 205.472C551.131 204.848 550.419 204.536 549.491 204.536C548.547 204.536 547.755 204.912 547.115 205.664C546.491 206.4 546.179 207.456 546.179 208.832V215H544.163ZM569.832 215.288C568.84 215.288 568.016 215.12 567.36 214.784C566.704 214.448 566.216 214 565.896 213.44C565.576 212.88 565.416 212.272 565.416 211.616C565.416 210.4 565.88 209.464 566.808 208.808C567.736 208.152 569 207.824 570.6 207.824H573.816V207.68C573.816 206.64 573.544 205.856 573 205.328C572.456 204.784 571.728 204.512 570.816 204.512C570.032 204.512 569.352 204.712 568.776 205.112C568.216 205.496 567.864 206.064 567.72 206.816H565.656C565.736 205.952 566.024 205.224 566.52 204.632C567.032 204.04 567.664 203.592 568.416 203.288C569.168 202.968 569.968 202.808 570.816 202.808C572.48 202.808 573.728 203.256 574.56 204.152C575.408 205.032 575.832 206.208 575.832 207.68V215H574.032L573.912 212.864C573.576 213.536 573.08 214.112 572.424 214.592C571.784 215.056 570.92 215.288 569.832 215.288ZM570.144 213.584C570.912 213.584 571.568 213.384 572.112 212.984C572.672 212.584 573.096 212.064 573.384 211.424C573.672 210.784 573.816 210.112 573.816 209.408V209.384H570.768C569.584 209.384 568.744 209.592 568.248 210.008C567.768 210.408 567.528 210.912 567.528 211.52C567.528 212.144 567.752 212.648 568.2 213.032C568.664 213.4 569.312 213.584 570.144 213.584ZM579.096 215V203.096H580.92L581.088 205.376C581.456 204.592 582.016 203.968 582.768 203.504C583.52 203.04 584.448 202.808 585.552 202.808V204.92H585C584.296 204.92 583.648 205.048 583.056 205.304C582.464 205.544 581.992 205.96 581.64 206.552C581.288 207.144 581.112 207.96 581.112 209V215H579.096ZM592.759 215C591.671 215 590.815 214.736 590.191 214.208C589.567 213.68 589.255 212.728 589.255 211.352V204.8H587.191V203.096H589.255L589.519 200.24H591.271V203.096H594.775V204.8H591.271V211.352C591.271 212.104 591.423 212.616 591.727 212.888C592.031 213.144 592.567 213.272 593.335 213.272H594.583V215H592.759ZM602.6 215.288C601.464 215.288 600.456 215.032 599.576 214.52C598.696 213.992 598 213.264 597.488 212.336C596.992 211.408 596.744 210.312 596.744 209.048C596.744 207.8 596.992 206.712 597.488 205.784C597.984 204.84 598.672 204.112 599.552 203.6C600.448 203.072 601.48 202.808 602.648 202.808C603.8 202.808 604.792 203.072 605.624 203.6C606.472 204.112 607.12 204.792 607.568 205.64C608.016 206.488 608.24 207.4 608.24 208.376C608.24 208.552 608.232 208.728 608.216 208.904C608.216 209.08 608.216 209.28 608.216 209.504H598.736C598.784 210.416 598.992 211.176 599.36 211.784C599.744 212.376 600.216 212.824 600.776 213.128C601.352 213.432 601.96 213.584 602.6 213.584C603.432 213.584 604.128 213.392 604.688 213.008C605.248 212.624 605.656 212.104 605.912 211.448H607.904C607.584 212.552 606.968 213.472 606.056 214.208C605.16 214.928 604.008 215.288 602.6 215.288ZM602.6 204.512C601.64 204.512 600.784 204.808 600.032 205.4C599.296 205.976 598.872 206.824 598.76 207.944H606.248C606.2 206.872 605.832 206.032 605.144 205.424C604.456 204.816 603.608 204.512 602.6 204.512ZM616.624 215.288C615.488 215.288 614.464 215.032 613.552 214.52C612.656 213.992 611.944 213.264 611.416 212.336C610.904 211.392 610.648 210.296 610.648 209.048C610.648 207.8 610.904 206.712 611.416 205.784C611.944 204.84 612.656 204.112 613.552 203.6C614.464 203.072 615.488 202.808 616.624 202.808C618.032 202.808 619.216 203.176 620.176 203.912C621.152 204.648 621.768 205.632 622.024 206.864H619.96C619.8 206.128 619.408 205.56 618.784 205.16C618.16 204.744 617.432 204.536 616.6 204.536C615.928 204.536 615.296 204.704 614.704 205.04C614.112 205.376 613.632 205.88 613.264 206.552C612.896 207.224 612.712 208.056 612.712 209.048C612.712 210.04 612.896 210.872 613.264 211.544C613.632 212.216 614.112 212.728 614.704 213.08C615.296 213.416 615.928 213.584 616.6 213.584C617.432 213.584 618.16 213.384 618.784 212.984C619.408 212.568 619.8 211.984 619.96 211.232H622.024C621.784 212.432 621.176 213.408 620.2 214.16C619.224 214.912 618.032 215.288 616.624 215.288ZM625.08 215V197.72H627.096V205.136C627.496 204.4 628.064 203.832 628.8 203.432C629.536 203.016 630.336 202.808 631.2 202.808C632.576 202.808 633.68 203.24 634.512 204.104C635.344 204.952 635.76 206.264 635.76 208.04V215H633.768V208.256C633.768 205.776 632.768 204.536 630.768 204.536C629.728 204.536 628.856 204.912 628.152 205.664C627.448 206.4 627.096 207.456 627.096 208.832V215H625.08ZM431.659 243C430.571 243 429.715 242.736 429.091 242.208C428.467 241.68 428.155 240.728 428.155 239.352V232.8H426.091V231.096H428.155L428.419 228.24H430.171V231.096H433.675V232.8H430.171V239.352C430.171 240.104 430.323 240.616 430.627 240.888C430.931 241.144 431.467 241.272 432.235 241.272H433.483V243H431.659ZM441.572 243.288C440.452 243.288 439.444 243.032 438.548 242.52C437.652 242.008 436.94 241.288 436.412 240.36C435.9 239.416 435.644 238.312 435.644 237.048C435.644 235.784 435.908 234.688 436.436 233.76C436.964 232.816 437.676 232.088 438.572 231.576C439.484 231.064 440.5 230.808 441.62 230.808C442.74 230.808 443.748 231.064 444.644 231.576C445.54 232.088 446.244 232.816 446.756 233.76C447.284 234.688 447.548 235.784 447.548 237.048C447.548 238.312 447.284 239.416 446.756 240.36C446.228 241.288 445.508 242.008 444.596 242.52C443.7 243.032 442.692 243.288 441.572 243.288ZM441.572 241.56C442.26 241.56 442.9 241.392 443.492 241.056C444.084 240.72 444.564 240.216 444.932 239.544C445.3 238.872 445.484 238.04 445.484 237.048C445.484 236.056 445.3 235.224 444.932 234.552C444.58 233.88 444.108 233.376 443.516 233.04C442.924 232.704 442.292 232.536 441.62 232.536C440.932 232.536 440.292 232.704 439.7 233.04C439.108 233.376 438.628 233.88 438.26 234.552C437.892 235.224 437.708 236.056 437.708 237.048C437.708 238.04 437.892 238.872 438.26 239.544C438.628 240.216 439.1 240.72 439.676 241.056C440.268 241.392 440.9 241.56 441.572 241.56ZM456.015 243.288C454.895 243.288 453.887 243.032 452.991 242.52C452.095 242.008 451.383 241.288 450.855 240.36C450.343 239.416 450.087 238.312 450.087 237.048C450.087 235.784 450.351 234.688 450.879 233.76C451.407 232.816 452.119 232.088 453.015 231.576C453.927 231.064 454.943 230.808 456.063 230.808C457.183 230.808 458.191 231.064 459.087 231.576C459.983 232.088 460.687 232.816 461.199 233.76C461.727 234.688 461.991 235.784 461.991 237.048C461.991 238.312 461.727 239.416 461.199 240.36C460.671 241.288 459.951 242.008 459.039 242.52C458.143 243.032 457.135 243.288 456.015 243.288ZM456.015 241.56C456.703 241.56 457.343 241.392 457.935 241.056C458.527 240.72 459.007 240.216 459.375 239.544C459.743 238.872 459.927 238.04 459.927 237.048C459.927 236.056 459.743 235.224 459.375 234.552C459.023 233.88 458.551 233.376 457.959 233.04C457.367 232.704 456.735 232.536 456.063 232.536C455.375 232.536 454.735 232.704 454.143 233.04C453.551 233.376 453.071 233.88 452.703 234.552C452.335 235.224 452.151 236.056 452.151 237.048C452.151 238.04 452.335 238.872 452.703 239.544C453.071 240.216 453.543 240.72 454.119 241.056C454.711 241.392 455.343 241.56 456.015 241.56ZM465.034 243V225.72H467.05V243H465.034ZM475.154 243.288C473.73 243.288 472.546 242.928 471.602 242.208C470.658 241.488 470.106 240.512 469.946 239.28H472.01C472.138 239.904 472.466 240.448 472.994 240.912C473.538 241.36 474.266 241.584 475.178 241.584C476.026 241.584 476.65 241.408 477.05 241.056C477.45 240.688 477.65 240.256 477.65 239.76C477.65 239.04 477.386 238.56 476.858 238.32C476.346 238.08 475.618 237.864 474.674 237.672C474.034 237.544 473.394 237.36 472.754 237.12C472.114 236.88 471.578 236.544 471.146 236.112C470.714 235.664 470.498 235.08 470.498 234.36C470.498 233.32 470.882 232.472 471.65 231.816C472.434 231.144 473.49 230.808 474.818 230.808C476.082 230.808 477.114 231.128 477.914 231.768C478.73 232.392 479.202 233.288 479.33 234.456H477.338C477.258 233.848 476.994 233.376 476.546 233.04C476.114 232.688 475.53 232.512 474.794 232.512C474.074 232.512 473.514 232.664 473.114 232.968C472.73 233.272 472.538 233.672 472.538 234.168C472.538 234.648 472.786 235.024 473.282 235.296C473.794 235.568 474.482 235.8 475.346 235.992C476.082 236.152 476.778 236.352 477.434 236.592C478.106 236.816 478.65 237.16 479.066 237.624C479.498 238.072 479.714 238.728 479.714 239.592C479.73 240.664 479.322 241.552 478.49 242.256C477.674 242.944 476.562 243.288 475.154 243.288ZM493.386 243.288C492.394 243.288 491.57 243.12 490.914 242.784C490.258 242.448 489.77 242 489.45 241.44C489.13 240.88 488.97 240.272 488.97 239.616C488.97 238.4 489.434 237.464 490.362 236.808C491.29 236.152 492.554 235.824 494.154 235.824H497.37V235.68C497.37 234.64 497.098 233.856 496.554 233.328C496.01 232.784 495.282 232.512 494.37 232.512C493.586 232.512 492.906 232.712 492.33 233.112C491.77 233.496 491.418 234.064 491.274 234.816H489.21C489.29 233.952 489.578 233.224 490.074 232.632C490.586 232.04 491.218 231.592 491.97 231.288C492.722 230.968 493.522 230.808 494.37 230.808C496.034 230.808 497.282 231.256 498.114 232.152C498.962 233.032 499.386 234.208 499.386 235.68V243H497.586L497.466 240.864C497.13 241.536 496.634 242.112 495.978 242.592C495.338 243.056 494.474 243.288 493.386 243.288ZM493.698 241.584C494.466 241.584 495.122 241.384 495.666 240.984C496.226 240.584 496.65 240.064 496.938 239.424C497.226 238.784 497.37 238.112 497.37 237.408V237.384H494.322C493.138 237.384 492.298 237.592 491.802 238.008C491.322 238.408 491.082 238.912 491.082 239.52C491.082 240.144 491.306 240.648 491.754 241.032C492.218 241.4 492.866 241.584 493.698 241.584ZM502.65 243V231.096H504.474L504.642 233.376C505.01 232.592 505.57 231.968 506.322 231.504C507.074 231.04 508.002 230.808 509.106 230.808V232.92H508.554C507.85 232.92 507.202 233.048 506.61 233.304C506.018 233.544 505.546 233.96 505.194 234.552C504.842 235.144 504.666 235.96 504.666 237V243H502.65ZM516.516 243.288C515.38 243.288 514.372 243.032 513.492 242.52C512.612 241.992 511.916 241.264 511.404 240.336C510.908 239.408 510.66 238.312 510.66 237.048C510.66 235.8 510.908 234.712 511.404 233.784C511.9 232.84 512.588 232.112 513.468 231.6C514.364 231.072 515.396 230.808 516.564 230.808C517.716 230.808 518.708 231.072 519.54 231.6C520.388 232.112 521.036 232.792 521.484 233.64C521.932 234.488 522.156 235.4 522.156 236.376C522.156 236.552 522.148 236.728 522.132 236.904C522.132 237.08 522.132 237.28 522.132 237.504H512.652C512.7 238.416 512.908 239.176 513.276 239.784C513.66 240.376 514.132 240.824 514.692 241.128C515.268 241.432 515.876 241.584 516.516 241.584C517.348 241.584 518.044 241.392 518.604 241.008C519.164 240.624 519.572 240.104 519.828 239.448H521.82C521.5 240.552 520.884 241.472 519.972 242.208C519.076 242.928 517.924 243.288 516.516 243.288ZM516.516 232.512C515.556 232.512 514.7 232.808 513.948 233.4C513.212 233.976 512.788 234.824 512.676 235.944H520.164C520.116 234.872 519.748 234.032 519.06 233.424C518.372 232.816 517.524 232.512 516.516 232.512ZM531.659 243V231.096H533.483L533.627 232.824C534.011 232.184 534.523 231.688 535.163 231.336C535.803 230.984 536.523 230.808 537.323 230.808C538.267 230.808 539.075 231 539.747 231.384C540.435 231.768 540.963 232.352 541.331 233.136C541.747 232.416 542.315 231.848 543.035 231.432C543.771 231.016 544.563 230.808 545.411 230.808C546.835 230.808 547.971 231.24 548.819 232.104C549.667 232.952 550.091 234.264 550.091 236.04V243H548.099V236.256C548.099 235.024 547.851 234.096 547.355 233.472C546.859 232.848 546.147 232.536 545.219 232.536C544.259 232.536 543.459 232.912 542.819 233.664C542.195 234.4 541.883 235.456 541.883 236.832V243H539.867V236.256C539.867 235.024 539.619 234.096 539.123 233.472C538.627 232.848 537.915 232.536 536.987 232.536C536.043 232.536 535.251 232.912 534.611 233.664C533.987 234.4 533.675 235.456 533.675 236.832V243H531.659ZM554.312 248.28L557.264 241.848H556.568L551.84 231.096H554.024L557.96 240.36L562.136 231.096H564.224L556.424 248.28H554.312ZM573.184 248.28V231.096H575.008L575.2 233.064C575.584 232.488 576.128 231.968 576.832 231.504C577.552 231.04 578.464 230.808 579.568 230.808C580.752 230.808 581.784 231.08 582.664 231.624C583.544 232.168 584.224 232.912 584.704 233.856C585.2 234.8 585.448 235.872 585.448 237.072C585.448 238.272 585.2 239.344 584.704 240.288C584.224 241.216 583.536 241.952 582.64 242.496C581.76 243.024 580.728 243.288 579.544 243.288C578.568 243.288 577.696 243.088 576.928 242.688C576.176 242.288 575.6 241.728 575.2 241.008V248.28H573.184ZM579.328 241.536C580.128 241.536 580.832 241.352 581.44 240.984C582.048 240.6 582.528 240.072 582.88 239.4C583.232 238.728 583.408 237.944 583.408 237.048C583.408 236.152 583.232 235.368 582.88 234.696C582.528 234.024 582.048 233.504 581.44 233.136C580.832 232.752 580.128 232.56 579.328 232.56C578.528 232.56 577.824 232.752 577.216 233.136C576.608 233.504 576.128 234.024 575.776 234.696C575.424 235.368 575.248 236.152 575.248 237.048C575.248 237.944 575.424 238.728 575.776 239.4C576.128 240.072 576.608 240.6 577.216 240.984C577.824 241.352 578.528 241.536 579.328 241.536ZM593.846 243.288C592.71 243.288 591.702 243.032 590.822 242.52C589.942 241.992 589.246 241.264 588.734 240.336C588.238 239.408 587.99 238.312 587.99 237.048C587.99 235.8 588.238 234.712 588.734 233.784C589.23 232.84 589.918 232.112 590.798 231.6C591.694 231.072 592.726 230.808 593.894 230.808C595.046 230.808 596.038 231.072 596.87 231.6C597.718 232.112 598.366 232.792 598.814 233.64C599.262 234.488 599.486 235.4 599.486 236.376C599.486 236.552 599.478 236.728 599.462 236.904C599.462 237.08 599.462 237.28 599.462 237.504H589.982C590.03 238.416 590.238 239.176 590.606 239.784C590.99 240.376 591.462 240.824 592.022 241.128C592.598 241.432 593.206 241.584 593.846 241.584C594.678 241.584 595.374 241.392 595.934 241.008C596.494 240.624 596.902 240.104 597.158 239.448H599.15C598.83 240.552 598.214 241.472 597.302 242.208C596.406 242.928 595.254 243.288 593.846 243.288ZM593.846 232.512C592.886 232.512 592.03 232.808 591.278 233.4C590.542 233.976 590.118 234.824 590.006 235.944H597.494C597.446 234.872 597.078 234.032 596.39 233.424C595.702 232.816 594.854 232.512 593.846 232.512ZM607.75 243.288C606.614 243.288 605.606 243.032 604.726 242.52C603.846 241.992 603.15 241.264 602.638 240.336C602.142 239.408 601.894 238.312 601.894 237.048C601.894 235.8 602.142 234.712 602.638 233.784C603.134 232.84 603.822 232.112 604.702 231.6C605.598 231.072 606.63 230.808 607.798 230.808C608.95 230.808 609.942 231.072 610.774 231.6C611.622 232.112 612.27 232.792 612.718 233.64C613.166 234.488 613.39 235.4 613.39 236.376C613.39 236.552 613.382 236.728 613.366 236.904C613.366 237.08 613.366 237.28 613.366 237.504H603.886C603.934 238.416 604.142 239.176 604.51 239.784C604.894 240.376 605.366 240.824 605.926 241.128C606.502 241.432 607.11 241.584 607.75 241.584C608.582 241.584 609.278 241.392 609.838 241.008C610.398 240.624 610.806 240.104 611.062 239.448H613.054C612.734 240.552 612.118 241.472 611.206 242.208C610.31 242.928 609.158 243.288 607.75 243.288ZM607.75 232.512C606.79 232.512 605.934 232.808 605.182 233.4C604.446 233.976 604.022 234.824 603.91 235.944H611.398C611.35 234.872 610.982 234.032 610.294 233.424C609.606 232.816 608.758 232.512 607.75 232.512ZM616.302 243V231.096H618.126L618.294 233.376C618.662 232.592 619.222 231.968 619.974 231.504C620.726 231.04 621.654 230.808 622.758 230.808V232.92H622.206C621.502 232.92 620.854 233.048 620.262 233.304C619.67 233.544 619.198 233.96 618.846 234.552C618.494 235.144 618.318 235.96 618.318 237V243H616.302ZM629.821 243.288C628.397 243.288 627.213 242.928 626.269 242.208C625.325 241.488 624.773 240.512 624.613 239.28H626.677C626.805 239.904 627.133 240.448 627.661 240.912C628.205 241.36 628.933 241.584 629.845 241.584C630.693 241.584 631.317 241.408 631.717 241.056C632.117 240.688 632.317 240.256 632.317 239.76C632.317 239.04 632.053 238.56 631.525 238.32C631.013 238.08 630.285 237.864 629.341 237.672C628.701 237.544 628.061 237.36 627.421 237.12C626.781 236.88 626.245 236.544 625.813 236.112C625.381 235.664 625.165 235.08 625.165 234.36C625.165 233.32 625.549 232.472 626.317 231.816C627.101 231.144 628.157 230.808 629.485 230.808C630.749 230.808 631.781 231.128 632.581 231.768C633.397 232.392 633.869 233.288 633.997 234.456H632.005C631.925 233.848 631.661 233.376 631.213 233.04C630.781 232.688 630.197 232.512 629.461 232.512C628.741 232.512 628.181 232.664 627.781 232.968C627.397 233.272 627.205 233.672 627.205 234.168C627.205 234.648 627.453 235.024 627.949 235.296C628.461 235.568 629.149 235.8 630.013 235.992C630.749 236.152 631.445 236.352 632.101 236.592C632.773 236.816 633.317 237.16 633.733 237.624C634.165 238.072 634.381 238.728 634.381 239.592C634.397 240.664 633.989 241.552 633.157 242.256C632.341 242.944 631.229 243.288 629.821 243.288ZM500.558 271.288C499.15 271.288 498.03 270.864 497.198 270.016C496.366 269.152 495.95 267.832 495.95 266.056V259.096H497.966V265.84C497.966 268.32 498.982 269.56 501.014 269.56C502.054 269.56 502.91 269.192 503.582 268.456C504.27 267.704 504.614 266.64 504.614 265.264V259.096H506.63V271H504.806L504.662 268.864C504.294 269.616 503.742 270.208 503.006 270.64C502.286 271.072 501.47 271.288 500.558 271.288ZM514.748 271.288C513.324 271.288 512.14 270.928 511.196 270.208C510.252 269.488 509.7 268.512 509.54 267.28H511.604C511.732 267.904 512.06 268.448 512.588 268.912C513.132 269.36 513.86 269.584 514.772 269.584C515.62 269.584 516.244 269.408 516.644 269.056C517.044 268.688 517.244 268.256 517.244 267.76C517.244 267.04 516.98 266.56 516.452 266.32C515.94 266.08 515.212 265.864 514.268 265.672C513.628 265.544 512.988 265.36 512.348 265.12C511.708 264.88 511.172 264.544 510.74 264.112C510.308 263.664 510.092 263.08 510.092 262.36C510.092 261.32 510.476 260.472 511.244 259.816C512.028 259.144 513.084 258.808 514.412 258.808C515.676 258.808 516.708 259.128 517.508 259.768C518.324 260.392 518.796 261.288 518.924 262.456H516.932C516.852 261.848 516.588 261.376 516.14 261.04C515.708 260.688 515.124 260.512 514.388 260.512C513.668 260.512 513.108 260.664 512.708 260.968C512.324 261.272 512.132 261.672 512.132 262.168C512.132 262.648 512.38 263.024 512.876 263.296C513.388 263.568 514.076 263.8 514.94 263.992C515.676 264.152 516.372 264.352 517.028 264.592C517.7 264.816 518.244 265.16 518.66 265.624C519.092 266.072 519.308 266.728 519.308 267.592C519.324 268.664 518.916 269.552 518.084 270.256C517.268 270.944 516.156 271.288 514.748 271.288ZM523.652 256.456C523.252 256.456 522.916 256.328 522.644 256.072C522.388 255.8 522.26 255.464 522.26 255.064C522.26 254.68 522.388 254.36 522.644 254.104C522.916 253.848 523.252 253.72 523.652 253.72C524.036 253.72 524.364 253.848 524.636 254.104C524.908 254.36 525.044 254.68 525.044 255.064C525.044 255.464 524.908 255.8 524.636 256.072C524.364 256.328 524.036 256.456 523.652 256.456ZM522.644 271V259.096H524.66V271H522.644ZM528.41 271V259.096H530.234L530.354 261.232C530.738 260.48 531.29 259.888 532.01 259.456C532.73 259.024 533.546 258.808 534.458 258.808C535.866 258.808 536.986 259.24 537.818 260.104C538.666 260.952 539.09 262.264 539.09 264.04V271H537.074V264.256C537.074 261.776 536.05 260.536 534.002 260.536C532.978 260.536 532.122 260.912 531.434 261.664C530.762 262.4 530.426 263.456 530.426 264.832V271H528.41ZM547.089 267.256C546.417 267.256 545.801 267.168 545.241 266.992L544.041 268.12C544.217 268.248 544.433 268.36 544.689 268.456C544.961 268.536 545.345 268.616 545.841 268.696C546.337 268.76 547.033 268.832 547.929 268.912C549.529 269.024 550.673 269.392 551.361 270.016C552.049 270.64 552.393 271.456 552.393 272.464C552.393 273.152 552.201 273.808 551.817 274.432C551.449 275.056 550.873 275.568 550.089 275.968C549.321 276.368 548.329 276.568 547.113 276.568C546.041 276.568 545.089 276.424 544.257 276.136C543.425 275.864 542.777 275.44 542.313 274.864C541.849 274.304 541.617 273.592 541.617 272.728C541.617 272.28 541.737 271.792 541.977 271.264C542.217 270.752 542.665 270.264 543.321 269.8C542.969 269.656 542.665 269.504 542.409 269.344C542.169 269.168 541.945 268.976 541.737 268.768V268.216L543.777 266.2C542.833 265.4 542.361 264.344 542.361 263.032C542.361 262.248 542.545 261.536 542.913 260.896C543.281 260.256 543.817 259.752 544.521 259.384C545.225 259 546.081 258.808 547.089 258.808C547.777 258.808 548.401 258.904 548.961 259.096H553.353V260.608L551.121 260.704C551.585 261.376 551.817 262.152 551.817 263.032C551.817 263.816 551.625 264.528 551.241 265.168C550.873 265.808 550.337 266.32 549.633 266.704C548.945 267.072 548.097 267.256 547.089 267.256ZM547.089 265.6C547.937 265.6 548.609 265.384 549.105 264.952C549.617 264.504 549.873 263.864 549.873 263.032C549.873 262.216 549.617 261.592 549.105 261.16C548.609 260.712 547.937 260.488 547.089 260.488C546.225 260.488 545.537 260.712 545.025 261.16C544.529 261.592 544.281 262.216 544.281 263.032C544.281 263.864 544.529 264.504 545.025 264.952C545.537 265.384 546.225 265.6 547.089 265.6ZM543.585 272.536C543.585 273.336 543.921 273.928 544.593 274.312C545.265 274.712 546.105 274.912 547.113 274.912C548.105 274.912 548.897 274.696 549.489 274.264C550.097 273.832 550.401 273.256 550.401 272.536C550.401 272.024 550.193 271.576 549.777 271.192C549.361 270.824 548.593 270.608 547.473 270.544C546.593 270.48 545.833 270.4 545.193 270.304C544.537 270.656 544.105 271.032 543.897 271.432C543.689 271.848 543.585 272.216 543.585 272.536ZM557.835 266.296L557.739 262.432H558.483C559.379 262.432 560.211 262.344 560.979 262.168C561.763 261.992 562.395 261.648 562.875 261.136C563.355 260.624 563.595 259.856 563.595 258.832C563.595 257.84 563.283 257.056 562.659 256.48C562.051 255.904 561.243 255.616 560.235 255.616C559.211 255.616 558.403 255.896 557.811 256.456C557.219 257.016 556.923 257.768 556.923 258.712H555.003C555.003 257.752 555.219 256.912 555.651 256.192C556.099 255.472 556.715 254.912 557.499 254.512C558.283 254.112 559.195 253.912 560.235 253.912C561.275 253.912 562.195 254.112 562.995 254.512C563.795 254.912 564.419 255.48 564.867 256.216C565.315 256.952 565.539 257.824 565.539 258.832C565.539 260.016 565.283 260.976 564.771 261.712C564.275 262.448 563.579 262.984 562.683 263.32C561.803 263.656 560.795 263.824 559.659 263.824L559.587 266.296H557.835ZM558.699 271.12C558.299 271.12 557.963 270.992 557.691 270.736C557.435 270.464 557.307 270.136 557.307 269.752C557.307 269.368 557.435 269.048 557.691 268.792C557.963 268.52 558.299 268.384 558.699 268.384C559.099 268.384 559.427 268.52 559.683 268.792C559.939 269.048 560.067 269.368 560.067 269.752C560.067 270.136 559.939 270.464 559.683 270.736C559.427 270.992 559.099 271.12 558.699 271.12Z" fill="#232E34"/>
<path d="M201.034 458.067L416.034 455.067L406.034 443.567C425.234 396.767 398.034 338.067 382.034 314.567C390.868 288.567 395.234 231.867 342.034 213.067C288.834 194.267 259.201 246.9 251.034 275.567C228.034 273.567 178.634 283.167 165.034 337.567C151.434 391.967 191.034 422.567 212.534 431.067C197.334 435.867 198.534 451.067 201.034 458.067Z" fill="#ECF6FF"/>
<path fill-rule="evenodd" clip-rule="evenodd" d="M250.817 253.25C250.817 253.25 251.594 260.906 257.635 261.436C251.594 261.965 250.817 269.621 250.817 269.621C250.817 269.621 250.041 261.965 244 261.436C250.041 260.906 250.817 253.25 250.817 253.25Z" fill="#2962FF"/>
<path fill-rule="evenodd" clip-rule="evenodd" d="M359.765 184.619C359.765 184.619 360.357 191.402 364.964 191.871C360.357 192.34 359.765 199.123 359.765 199.123C359.765 199.123 359.173 192.34 354.565 191.871C359.173 191.402 359.765 184.619 359.765 184.619Z" fill="#27AC5D"/>
<rect x="217.769" y="334.785" width="55.8118" height="8.37177" rx="4.18588" fill="#6AC396"/>
<path fill-rule="evenodd" clip-rule="evenodd" d="M263.969 346.257H225.211V342.846H263.969V346.257Z" fill="#232E34"/>
<path fill-rule="evenodd" clip-rule="evenodd" d="M221.799 453.593C221.114 453.564 220.583 452.985 220.613 452.301L225.211 345.01L227.689 345.116L223.091 452.407C223.062 453.091 222.483 453.622 221.799 453.593V453.593Z" fill="#232E34"/>
<path fill-rule="evenodd" clip-rule="evenodd" d="M269.395 453.23C268.711 453.262 268.13 452.734 268.097 452.05L263.04 345.709L265.517 345.592L270.575 451.932C270.607 452.616 270.079 453.197 269.395 453.23V453.23Z" fill="#232E34"/>
<path fill-rule="evenodd" clip-rule="evenodd" d="M266.759 407.34H223.04V404.86H266.759V407.34Z" fill="#232E34"/>
<path d="M364.603 314.733L371.753 276.174H316.423L309.43 314.733H364.603Z" fill="white"/>
<path d="M369.567 277.414H318.174L311.91 311.056H362.982L369.567 277.414Z" fill="#8FA8FF"/>
<rect x="291.875" y="312.762" width="50.2306" height="3.10913" fill="white"/>
<path d="M342.296 311.069H362.931L362.484 315.552H342.296V311.069Z" fill="#C5D6E6"/>
<rect x="283.193" y="314.63" width="100.771" height="8.37177" rx="4.18588" fill="#6AC396"/>
<path fill-rule="evenodd" clip-rule="evenodd" d="M374.353 323.002L376.829 322.877L383.372 451.861C383.407 452.545 382.88 453.128 382.196 453.162C381.512 453.197 380.929 452.67 380.895 451.986L376.459 364.549L321.066 364.45L320.716 452.161C320.713 452.846 320.155 453.399 319.47 453.396C318.785 453.394 318.232 452.836 318.235 452.151L318.585 364.446L292.518 364.4L288.211 453.672C288.178 454.356 287.596 454.884 286.912 454.851C286.228 454.818 285.7 454.237 285.733 453.552L291.875 326.249L291.885 322.771L374.352 323.002L374.353 323.002ZM374.541 326.724L321.217 326.574L321.075 361.97L376.334 362.068L374.541 326.724ZM318.736 326.567L294.347 326.499L292.638 361.919L318.595 361.966L318.736 326.567Z" fill="#232E34"/>
<path d="M288.692 272.835C280.754 261.797 283.937 246.634 286.521 240.433L288.692 225.86C287.699 210.729 275.979 210.977 271.018 214.853C260.321 213.612 252.879 218.883 252.414 231.441C251.949 243.999 249.003 250.2 249.003 255.471C240.321 288.803 265.437 314.694 281.095 309.733C296.753 304.772 298.614 286.633 288.692 272.835Z" fill="#232E34"/>
<path d="M257.457 244.556C259.442 244.804 262.884 246.158 263.969 247.036C264.279 246.261 265.178 244.37 266.294 243.005C267.69 241.3 269.55 242.85 274.046 244.09C277.643 245.083 279.679 240.783 280.247 238.509H283.348V229.983C285.828 225.332 279.937 222.851 277.302 224.401C274.666 225.952 272.806 228.122 271.41 228.587C270.294 228.959 270.79 226.985 271.255 225.952C270.945 222.231 268.62 221.611 265.829 222.386C263.039 223.161 262.574 226.417 264.899 228.277C266.759 229.766 265.209 230.758 264.434 232.928C263.659 235.099 259.473 241.507 257.457 244.556Z" fill="#FFB5B0"/>
<path d="M278.542 236.649C278.542 239.132 277.459 240.37 274.976 240.37C272.493 240.37 270.48 239.132 270.48 236.649C270.48 234.166 272.493 233.083 274.976 233.083C277.459 233.083 278.542 234.166 278.542 236.649Z" fill="#F4A7A2"/>
<path d="M253.348 434.977L255.26 431.195L261.385 431.953C262.071 434.416 264.166 435.968 267.73 438.384C270.581 440.318 270.868 443.137 270.655 444.304C266.13 443.116 256.244 440.516 252.906 439.625C249.567 438.734 251.81 436.155 253.348 434.977Z" fill="#F4A7A2"/>
<path d="M261.798 432.61L254.202 431.37C256.992 401.914 253.861 377.791 253.117 360.055C252.372 342.319 239.37 331.994 232.962 329.048L270.945 319.436C272.754 329.204 276.061 353.947 274.821 374.783C273.581 395.62 265.623 422.016 261.798 432.61Z" fill="#718BEB"/>
<path d="M258.853 401.449L262.574 399.278L267.38 403.309C266.604 405.79 267.535 408.27 269.24 412.301C270.604 415.526 269.292 418.089 268.465 418.968C265.261 415.453 258.264 407.774 255.907 405.17C253.551 402.565 256.889 401.604 258.853 401.449Z" fill="#F4A7A2"/>
<path d="M232.652 328.583L271.1 319.126C282.728 326.103 297.766 345.327 294.82 367.497C292.464 385.232 275.751 399.692 267.69 404.704L261.178 398.813C270.728 390.131 275.39 380.416 276.527 376.644C282.48 355.435 271.1 345.637 263.659 342.536C243.07 342.66 234.409 333.286 232.652 328.583Z" fill="#8FA8FF"/>
<path d="M234.513 279.128C233.644 285.825 228.57 313.959 226.141 327.188C228.931 328.79 237.52 331.653 249.551 330.289C261.581 328.924 270.687 323.209 273.736 320.522C272.909 317.679 271.379 309.638 271.876 300.212C272.496 288.43 280.092 279.128 277.147 272.927C274.79 267.966 268.516 253.806 265.674 247.346C243.97 233.703 235.598 270.756 234.513 279.128Z" fill="#83CFAA"/>
<path d="M273.056 293.851C266.134 289.475 258.038 275.979 254.477 269.894C252.053 288.641 264.73 301.248 271.75 305.091C271.56 301.251 272.542 295.998 273.056 293.851Z" fill="#72C799"/>
<path d="M261.333 280.833C266.418 279.221 274.098 274.89 277.302 272.927C285.208 293.701 295.802 300.109 304.277 303.778C308.773 309.049 310.789 304.088 317.145 306.259C322.23 307.995 322.778 311.323 322.416 312.77H305.983L304.277 311.53C277.612 302.352 264.589 287.19 261.333 280.833Z" fill="#FFB5B0"/>
</svg>
