<svg width="78" height="78" viewBox="0 0 78 78" fill="none" xmlns="http://www.w3.org/2000/svg">
<circle cx="39.3246" cy="38.9243" r="38.5118" fill="#2962FF"/>
<path d="M39.3239 29.6334C44.1597 29.6334 48.0939 33.5677 48.0939 38.4034C48.0939 40.3825 47.445 42.2524 46.2182 43.8102C45.976 44.1186 45.7216 44.4137 45.4522 44.7262L45.4374 44.7434C44.6132 45.6996 43.761 46.6887 43.4428 47.8533C43.3708 48.1202 43.3606 48.6319 43.3648 49.0261V49.696C43.3648 50.3091 42.8677 50.8062 42.2546 50.8062H36.4415C35.8284 50.8062 35.3313 50.3091 35.3313 49.696V49.0182C35.335 48.5034 35.3084 48.1277 35.2547 47.9328C34.9346 46.7759 33.9902 45.6649 33.1495 44.6762L33.1132 44.6335C32.8706 44.3484 32.6413 44.0792 32.4326 43.8138C31.204 42.2551 30.5547 40.3843 30.5547 38.4034C30.5548 33.5677 34.4886 29.6334 39.3239 29.6334ZM34.1773 42.4404C34.3602 42.673 34.5757 42.9262 34.8039 43.1943L34.8486 43.2469C35.8308 44.402 36.9439 45.7113 37.395 47.3422C37.4588 47.5737 37.5297 47.9201 37.5478 48.5859H41.1465C41.1619 47.8788 41.234 47.5161 41.2999 47.2719C41.7513 45.6194 42.8625 44.3299 43.7556 43.2936L43.7705 43.2762C44.0229 42.9835 44.2612 42.707 44.473 42.4376C45.3893 41.2742 45.8736 39.8791 45.8736 38.4034C45.8736 34.792 42.9354 31.8538 39.3239 31.8538C35.7129 31.8538 32.7751 34.792 32.7751 38.4034C32.7751 39.8807 33.2598 41.2762 34.1773 42.4404Z" fill="white"/>
<path d="M36.442 51.1213H42.2549C42.8681 51.1213 43.3651 51.6184 43.3651 52.2315C43.3651 52.8446 42.8681 53.3417 42.2549 53.3417H36.4418C35.8287 53.3417 35.3317 52.8446 35.3317 52.2315C35.3317 51.6184 35.8289 51.1213 36.442 51.1213Z" fill="white"/>
<path d="M37.895 53.6536H40.8014C41.4145 53.6536 41.9116 54.1507 41.9116 54.7638C41.9116 55.3769 41.4145 55.874 40.8014 55.874H37.895C37.2819 55.874 36.7848 55.3769 36.7848 54.7638C36.7848 54.1507 37.2819 53.6536 37.895 53.6536Z" fill="white"/>
<path d="M24.0053 37.2933H27.8351C28.4482 37.2933 28.9453 37.7904 28.9453 38.4035C28.9453 39.0166 28.4482 39.5137 27.8351 39.5137H24.0053C23.3922 39.5137 22.8951 39.0166 22.8951 38.4035C22.8951 37.7904 23.3922 37.2933 24.0053 37.2933Z" fill="white"/>
<path d="M49.7031 38.4035C49.7031 37.7904 50.2001 37.2933 50.8132 37.2933H54.6434C55.2565 37.2933 55.7536 37.7904 55.7536 38.4035C55.7536 39.0166 55.2565 39.5137 54.6434 39.5137H50.8132C50.2001 39.5137 49.7031 39.0166 49.7031 38.4035Z" fill="white"/>
<path d="M39.3246 28.0257C38.7115 28.0257 38.2145 27.5286 38.2145 26.9155V23.0845C38.2145 22.4714 38.7115 21.9744 39.3246 21.9744C39.9378 21.9744 40.4348 22.4714 40.4348 23.0845V26.9155C40.4348 27.5286 39.9378 28.0257 39.3246 28.0257Z" fill="white"/>
<path d="M30.416 45.7422C30.8495 45.3086 31.5523 45.3085 31.986 45.742C32.4196 46.1756 32.4197 46.8784 31.9862 47.3121L29.278 50.021C29.0611 50.2379 28.7771 50.3463 28.4929 50.3463C28.2088 50.3463 27.9248 50.2379 27.7079 50.0212C27.2743 49.5876 27.2742 48.8848 27.7078 48.4511L30.416 45.7422Z" fill="white"/>
<path d="M48.2341 31.0642C48.0172 31.281 47.7332 31.3895 47.449 31.3895C47.1649 31.3895 46.8809 31.2812 46.6642 31.0644C46.2305 30.6309 46.2305 29.9281 46.6639 29.4945L49.3711 26.7863C49.8046 26.3526 50.5074 26.3526 50.941 26.786C51.3747 27.2196 51.3747 27.9224 50.9413 28.3559L48.2341 31.0642Z" fill="white"/>
<path d="M48.2328 45.7421L50.9412 48.4511C51.3748 48.8846 51.3746 49.5876 50.9411 50.021C50.7244 50.2377 50.4401 50.346 50.1561 50.346C49.872 50.346 49.5878 50.2377 49.371 50.0208L46.6626 47.3119C46.2291 46.8783 46.2292 46.1754 46.6628 45.742C47.0963 45.3086 47.7993 45.3086 48.2328 45.7421Z" fill="white"/>
<path d="M31.2004 31.3893C30.9163 31.3893 30.6321 31.281 30.4153 31.0641L27.7076 28.3561C27.2741 27.9225 27.2742 27.2196 27.7078 26.7861C28.1413 26.3526 28.8443 26.3526 29.2777 26.7863L31.9853 29.4944C32.4189 29.9279 32.4187 30.6309 31.9852 31.0643C31.7686 31.2811 31.4846 31.3893 31.2004 31.3893Z" fill="white"/>
</svg>
