<svg width="113" height="33" viewBox="0 0 113 33" fill="none" xmlns="http://www.w3.org/2000/svg">
<path fill-rule="evenodd" clip-rule="evenodd" d="M43.1547 0.056038C42.1564 0.228498 41.1709 0.993318 40.7256 1.94108C40.3636 2.71128 40.3151 3.5159 40.578 4.38743C40.7619 4.99652 40.867 5.16638 41.3786 5.68107C42.104 6.4107 42.7525 6.68929 43.7258 6.68929C44.8098 6.68929 45.7325 6.22402 46.3625 5.35951C47.0248 4.45097 47.1845 3.20703 46.7789 2.11575C46.2598 0.718863 44.6415 -0.200825 43.1547 0.056038ZM100.746 0.0611329C99.7059 0.276083 98.8173 0.977072 98.3347 1.96328C98.15 2.34089 98.1156 2.56276 98.1166 3.37276C98.1174 4.19776 98.1509 4.40223 98.3522 4.81473C98.6536 5.43228 99.3232 6.10597 99.9284 6.40051C100.622 6.73841 101.829 6.78427 102.575 6.50107C103.328 6.21536 104.005 5.57619 104.391 4.78647C104.668 4.22054 104.704 4.05587 104.701 3.37478C104.698 2.7406 104.65 2.49941 104.431 2.01635C103.789 0.599853 102.205 -0.240527 100.746 0.0611329ZM22.816 9.10728C21.854 9.18121 20.6025 9.57727 19.6237 10.1177C18.7533 10.5983 17.4335 11.9036 16.9669 12.7456L16.6206 13.3704L16.594 11.5439L16.5674 9.71743H13.9415H11.3155L11.2912 20.8927L11.267 32.068H14.0366H16.8061L16.8094 26.0838C16.8111 22.7924 16.8521 19.6592 16.9003 19.121C17.1055 16.8295 18.1468 15.0643 19.7779 14.2429C20.6268 13.8153 21.3301 13.6746 22.3399 13.7301C24.2915 13.8374 25.3782 14.8241 25.9983 17.0516C26.1997 17.775 26.2054 17.961 26.2372 24.9302L26.2697 32.068H29.0339H31.798L31.7974 24.6418C31.7968 16.4716 31.7772 16.1237 31.2219 14.4468C30.7778 13.1052 30.2568 12.2527 29.2645 11.2438C28.5249 10.4919 28.2732 10.3044 27.4979 9.92776C27.0007 9.68628 26.3145 9.41702 25.9731 9.32954C25.1631 9.12189 23.8392 9.02874 22.816 9.10728ZM0 20.8687V32.068H2.76919H5.53839V20.8687V9.66936H2.76919H0V20.8687ZM34.6627 12.1688V14.6682H37.7661H40.8695V23.3681V32.068H43.6387H46.4079V23.3681V14.6682H49.559H52.7102V12.1688V9.66936H43.6864H34.6627V12.1688ZM56.6493 17.6242C56.6803 25.4874 56.6832 25.5883 56.8928 26.383C57.7936 29.7969 59.754 31.8462 62.7673 32.5237C63.8195 32.7603 65.8228 32.7311 66.7949 32.465C68.7622 31.9264 70.5188 30.626 71.4348 29.0302L71.7603 28.463L71.7863 30.2655L71.8123 32.068H74.4361H77.06V20.8687V9.66936H74.2908H71.5216L71.5209 16.3265C71.5203 22.6253 71.5101 23.0262 71.3315 23.7763C70.8774 25.6828 69.6996 27.1792 68.2116 27.7396C67.0782 28.1666 65.5371 28.1698 64.5882 27.7473C63.6074 27.3106 62.8358 26.252 62.4221 24.7758C62.221 24.0579 62.2156 23.8754 62.186 16.8552L62.1556 9.66936H59.3868H56.618L56.6493 17.6242ZM82.7894 20.8687V32.068H85.5585H88.3277V20.8687V9.66936H85.5585H82.7894V20.8687ZM92.3383 12.1688V14.6682H95.4417H98.5451V23.3681V32.068H101.314H104.084V23.3681V14.6682H107.187H110.29V12.1688V9.66936H101.314H92.3383V12.1688ZM110.154 29.3002C109.727 29.5515 109.335 30.2053 109.335 30.6688C109.335 31.0601 109.697 31.7664 110.017 32.0012C110.526 32.3737 111.399 32.3715 111.902 31.9966C112.827 31.3071 112.822 30.0373 111.891 29.3433C111.486 29.0416 110.63 29.0203 110.154 29.3002ZM111.732 29.5945C112.59 30.1713 112.57 31.331 111.694 31.8856C111.31 32.1285 110.539 32.0959 110.172 31.8212C109.379 31.2266 109.458 29.9596 110.315 29.5344C110.766 29.3102 111.346 29.3348 111.732 29.5945ZM110.386 30.6741C110.386 31.4218 110.412 31.5873 110.529 31.5873C110.632 31.5873 110.672 31.4805 110.672 31.2028C110.672 30.7044 110.846 30.7047 111.129 31.2035C111.268 31.4484 111.415 31.5873 111.536 31.5873C111.716 31.5873 111.714 31.5693 111.486 31.2058C111.25 30.8305 111.25 30.8226 111.437 30.7217C111.703 30.5781 111.691 30.1049 111.415 29.9105C111.298 29.8282 111.019 29.7608 110.794 29.7608H110.386V30.6741ZM111.309 30.1998C111.38 30.3878 111.273 30.4976 110.935 30.5816C110.691 30.6422 110.672 30.6257 110.672 30.348C110.672 30.0794 110.701 30.0492 110.962 30.0492C111.136 30.0492 111.274 30.1089 111.309 30.1998Z" fill="#A7A7A7"/>
</svg>
