<svg width="93" height="27" viewBox="0 0 93 27" fill="none" xmlns="http://www.w3.org/2000/svg">
<path fill-rule="evenodd" clip-rule="evenodd" d="M35.6453 0.0462921C34.8207 0.188758 34.0067 0.820565 33.6389 1.60349C33.3399 2.23975 33.2998 2.90443 33.517 3.62439C33.6688 4.12754 33.7557 4.26787 34.1783 4.69304C34.7774 5.29578 35.3131 5.52592 36.117 5.52592C37.0123 5.52592 37.7745 5.14156 38.2949 4.42741C38.842 3.67688 38.9738 2.64928 38.6389 1.74779C38.21 0.593842 36.8734 -0.165898 35.6453 0.0462921ZM83.2148 0.050501C82.3559 0.228068 81.6219 0.807145 81.2234 1.62184C81.0708 1.93377 81.0424 2.11706 81.0432 2.78619C81.0439 3.46771 81.0715 3.63662 81.2378 3.97738C81.4867 4.48752 82.0398 5.04405 82.5397 5.28737C83.113 5.5665 84.1095 5.60438 84.7257 5.37043C85.3476 5.13442 85.9067 4.6064 86.2257 3.95403C86.4542 3.48653 86.4841 3.35049 86.4815 2.78785C86.4791 2.26397 86.4396 2.06472 86.2588 1.66567C85.7288 0.495529 84.4203 -0.198696 83.2148 0.050501ZM18.8457 7.52339C18.0512 7.58446 17.0174 7.91164 16.2089 8.35809C15.49 8.75508 14.3999 9.83342 14.0145 10.5289L13.7284 11.0451L13.7064 9.53626L13.6845 8.02742H11.5155H9.34647L9.32644 17.2591L9.30641 26.4909H11.594H13.8817L13.8844 21.5474C13.8858 18.8285 13.9196 16.2402 13.9595 15.7956C14.1289 13.9026 14.9891 12.4444 16.3363 11.7658C17.0375 11.4126 17.6184 11.2964 18.4525 11.3423C20.0645 11.4309 20.9621 12.246 21.4743 14.086C21.6407 14.6836 21.6453 14.8373 21.6716 20.5945L21.6985 26.4909H23.9816H26.2648L26.2643 20.3562C26.2638 13.607 26.2476 13.3196 25.7889 11.9343C25.4221 10.826 24.9918 10.1218 24.1721 9.28833C23.5612 8.66717 23.3533 8.51231 22.713 8.20117C22.3023 8.00169 21.7355 7.77925 21.4535 7.70699C20.7844 7.53546 19.6909 7.45851 18.8457 7.52339ZM0 17.2393V26.4909H2.28732H4.57465V17.2393V7.98771H2.28732H0V17.2393ZM28.631 10.0524V12.1172H31.1943H33.7577V19.304V26.4909H36.0451H38.3324V19.304V12.1172H40.9352H43.538V10.0524V7.98771H36.0845H28.631V10.0524ZM46.7917 14.5591C46.8173 21.0547 46.8197 21.1381 46.9928 21.7946C47.7368 24.6147 49.3561 26.3076 51.8451 26.8673C52.7142 27.0628 54.3689 27.0386 55.1718 26.8188C56.7968 26.3739 58.2477 25.2997 59.0043 23.9814L59.2732 23.5129L59.2947 25.0019L59.3161 26.4909H61.4834H63.6507V17.2393V7.98771H61.3633H59.076L59.0755 13.487C59.0749 18.6904 59.0666 19.0216 58.919 19.6413C58.5439 21.2162 57.571 22.4523 56.342 22.9153C55.4058 23.268 54.1329 23.2707 53.3491 22.9217C52.539 22.5609 51.9016 21.6864 51.56 20.4669C51.3938 19.8739 51.3894 19.7231 51.3649 13.9238L51.3398 7.98771H49.0528H46.7658L46.7917 14.5591ZM68.3831 17.2393V26.4909H70.6704H72.9577V17.2393V7.98771H70.6704H68.3831V17.2393ZM76.2704 10.0524V12.1172H78.8338H81.3971V19.304V26.4909H83.6845H85.9718V19.304V12.1172H88.5352H91.0985V10.0524V7.98771H83.6845H76.2704V10.0524ZM90.9861 24.2045C90.6329 24.4121 90.3098 24.9522 90.3098 25.335C90.3098 25.6583 90.6083 26.2417 90.8731 26.4357C91.293 26.7434 92.0143 26.7416 92.4297 26.4319C93.1937 25.8623 93.1895 24.8133 92.4207 24.2401C92.0865 23.9908 91.3795 23.9732 90.9861 24.2045ZM92.2897 24.4476C92.9981 24.924 92.9819 25.8821 92.2577 26.3402C91.9404 26.5409 91.3038 26.514 91.0011 26.287C90.3459 25.7958 90.4111 24.7492 91.1187 24.3979C91.4918 24.2127 91.9707 24.233 92.2897 24.4476ZM91.1774 25.3394C91.1774 25.957 91.1989 26.0938 91.2957 26.0938C91.3811 26.0938 91.414 26.0056 91.414 25.7761C91.414 25.3645 91.5574 25.3647 91.791 25.7768C91.9058 25.979 92.0274 26.0938 92.1272 26.0938C92.2763 26.0938 92.2743 26.0789 92.086 25.7786C91.8916 25.4686 91.891 25.4621 92.0456 25.3788C92.2657 25.2601 92.2551 24.8692 92.0274 24.7086C91.931 24.6406 91.7003 24.585 91.5148 24.585H91.1774V25.3394ZM91.9396 24.9476C91.9988 25.1029 91.91 25.1936 91.6309 25.263C91.4293 25.3131 91.414 25.2994 91.414 25.07C91.414 24.8481 91.4382 24.8232 91.6531 24.8232C91.7974 24.8232 91.911 24.8725 91.9396 24.9476Z" fill="#0078C6"/>
</svg>
