<svg width="46" height="54" viewBox="0 0 46 54" fill="none" xmlns="http://www.w3.org/2000/svg">
<path d="M0.774042 7.74437C0.336074 8.30508 0.763009 9.09482 1.5041 9.09482H44.6908C45.43 9.09482 45.8575 8.30868 45.4234 7.74753L40.7324 1.68347C40.2784 1.09659 39.5521 0.749218 38.779 0.749218H7.46158C6.69241 0.749218 5.96931 1.09309 5.51475 1.67505L0.774042 7.74437Z" fill="#9597AE"/>
<path fill-rule="evenodd" clip-rule="evenodd" d="M2.55427 12.3865C1.88784 12.3865 1.34759 12.8932 1.34759 13.5182V48.8582C1.34759 51.3584 3.50858 53.3852 6.1743 53.3852H40.0096C42.6753 53.3852 44.8363 51.3584 44.8363 48.8582V13.5182C44.8363 12.8932 44.296 12.3865 43.6296 12.3865H2.55427ZM23.4771 44.3043C20.7503 44.3043 18.5398 46.3776 18.5398 48.9351V53.3852H28.4144V48.9351C28.4144 46.3776 26.2039 44.3043 23.4771 44.3043ZM6.6735 33.2669C6.6735 31.5241 8.17988 30.1112 10.0381 30.1112C11.8963 30.1112 13.4027 31.5241 13.4027 33.2669V38.6099H6.6735V33.2669ZM10.2831 16.7189C8.42484 16.7189 6.91845 18.1318 6.91845 19.8746V25.2176H13.6477V19.8746C13.6477 18.1318 12.1413 16.7189 10.2831 16.7189ZM19.7273 33.2669C19.7273 31.5241 21.2337 30.1112 23.0919 30.1112C24.9502 30.1112 26.4565 31.5241 26.4565 33.2669V38.6099H19.7273V33.2669ZM23.3369 16.7189C21.4787 16.7189 19.9723 18.1318 19.9723 19.8746V25.2176H26.7015V19.8746C26.7015 18.1318 25.1951 16.7189 23.3369 16.7189ZM33.0618 33.2669C33.0618 31.5241 34.5681 30.1112 36.4264 30.1112C38.2846 30.1112 39.791 31.5241 39.791 33.2669V38.6099H33.0618V33.2669ZM36.6713 16.7189C34.8131 16.7189 33.3067 18.1318 33.3067 19.8746V25.2176H40.0359V19.8746C40.0359 18.1318 38.5295 16.7189 36.6713 16.7189Z" fill="#9597AE"/>
</svg>
