<svg width="145" height="31" viewBox="0 0 145 31" fill="none" xmlns="http://www.w3.org/2000/svg">
<path d="M50.8904 17.6975L50.031 20.1271H49.9594C49.8162 19.5792 49.5536 18.7456 49.124 17.7452L44.517 6.19309H40.0055V24.605H42.9893V13.2434C42.9893 12.5289 42.9893 11.719 42.9654 10.7187C42.9415 10.2185 42.8938 9.83736 42.8699 9.55153H42.9415C43.0848 10.2661 43.2519 10.7901 43.3712 11.1236L48.9091 24.5573H51.0097L56.4999 11.0045C56.6192 10.6948 56.7386 10.0755 56.8579 9.55153H56.9296C56.8579 10.9092 56.8102 12.124 56.7863 12.8623V24.5335H59.9611V6.14545H55.6167L50.8904 17.6975ZM62.9687 11.3379H66.0719V24.5335H62.9687V11.3379ZM64.5442 5.76435C64.019 5.76435 63.5894 5.9549 63.2313 6.28836C62.8733 6.62182 62.6823 7.05056 62.6823 7.57457C62.6823 8.07477 62.8733 8.50351 63.2313 8.83697C63.5894 9.17043 64.019 9.33716 64.5442 9.33716C65.0693 9.33716 65.5229 9.14661 65.857 8.83697C66.2151 8.50351 66.4061 8.07477 66.4061 7.57457C66.4061 7.07438 66.2151 6.64564 65.857 6.28836C65.5467 5.9549 65.0932 5.76435 64.5442 5.76435ZM77.0761 11.2188C76.5032 11.0998 75.9065 11.0283 75.3336 11.0283C73.9252 11.0283 72.6362 11.3379 71.5621 11.9572C70.4879 12.5765 69.6286 13.434 69.0795 14.5058C68.5067 15.6015 68.2202 16.8639 68.2202 18.3168C68.2202 19.5792 68.5067 20.6987 69.0557 21.7229C69.6047 22.7233 70.3685 23.5331 71.395 24.081C72.3736 24.6288 73.5194 24.9146 74.8084 24.9146C76.2884 24.9146 77.5535 24.605 78.5561 24.0333L78.5799 24.0095V21.1513L78.4606 21.2465C78.007 21.58 77.4819 21.8658 76.9567 22.0326C76.4077 22.2231 75.9065 22.3184 75.4768 22.3184C74.2355 22.3184 73.2569 21.9611 72.5646 21.1751C71.8485 20.4129 71.4904 19.3649 71.4904 18.0548C71.4904 16.6972 71.8485 15.6253 72.5885 14.8393C73.3285 14.0533 74.3071 13.6484 75.5007 13.6484C76.5032 13.6484 77.5296 13.9818 78.4606 14.6487L78.5799 14.744V11.719L78.5561 11.6952C78.1503 11.5285 77.6967 11.3379 77.0761 11.2188ZM87.3165 11.1236C86.5526 11.1236 85.8365 11.3618 85.2159 11.862C84.6907 12.2907 84.3327 12.91 84.0224 13.6484H83.9985V11.3379H80.8954V24.5335H83.9985V17.7928C83.9985 16.6495 84.2372 15.6968 84.7623 15.006C85.2875 14.2915 85.9559 13.9342 86.7675 13.9342C87.0539 13.9342 87.3403 14.0056 87.6984 14.0533C88.0326 14.1486 88.2713 14.2438 88.4384 14.3629L88.5577 14.4582V11.3618L88.4861 11.3379C88.2713 11.195 87.8416 11.1236 87.3165 11.1236ZM95.7666 11.0521C93.5944 11.0521 91.8518 11.6952 90.6344 12.9576C89.3932 14.22 88.7964 15.9588 88.7964 18.1501C88.7964 20.1985 89.4171 21.8658 90.6106 23.0806C91.8041 24.2715 93.4273 24.8908 95.4562 24.8908C97.5807 24.8908 99.2755 24.2477 100.493 22.9615C101.734 21.6753 102.331 19.9603 102.331 17.8405C102.331 15.7444 101.758 14.0771 100.588 12.8623C99.4665 11.6476 97.8194 11.0521 95.7666 11.0521ZM98.2491 21.1989C97.6762 21.9373 96.7691 22.2946 95.6472 22.2946C94.5253 22.2946 93.6182 21.9373 92.9737 21.1513C92.3292 20.4129 92.0189 19.341 92.0189 17.9834C92.0189 16.5781 92.3531 15.5062 92.9737 14.744C93.6182 13.9818 94.5014 13.6007 95.6233 13.6007C96.7214 13.6007 97.5807 13.958 98.2013 14.6964C98.822 15.4348 99.1561 16.5066 99.1561 17.9119C99.1084 19.341 98.8458 20.4605 98.2491 21.1989ZM109.253 16.8163C108.275 16.4113 107.654 16.1017 107.368 15.8397C107.129 15.6015 107.009 15.268 107.009 14.8393C107.009 14.482 107.153 14.1247 107.511 13.8865C107.869 13.6484 108.275 13.5293 108.871 13.5293C109.397 13.5293 109.946 13.6245 110.471 13.7675C110.996 13.9104 111.473 14.1247 111.855 14.4106L111.975 14.5058V11.5999L111.903 11.5761C111.545 11.4332 111.067 11.2903 110.495 11.1712C109.922 11.0759 109.397 11.0283 108.967 11.0283C107.487 11.0283 106.27 11.3856 105.315 12.1716C104.36 12.91 103.906 13.9104 103.906 15.0775C103.906 15.6968 104.002 16.2446 104.217 16.6972C104.431 17.1497 104.742 17.5785 105.171 17.9357C105.601 18.2692 106.222 18.6503 107.081 19.0076C107.797 19.3172 108.346 19.5554 108.68 19.746C109.015 19.9365 109.229 20.1509 109.397 20.3176C109.516 20.5082 109.587 20.7463 109.587 21.056C109.587 21.9373 108.919 22.366 107.558 22.366C107.033 22.366 106.484 22.2707 105.84 22.0564C105.195 21.842 104.599 21.5324 104.097 21.1751L103.978 21.0798V24.1048L104.05 24.1286C104.503 24.343 105.052 24.4859 105.72 24.6526C106.389 24.7717 106.986 24.867 107.511 24.867C109.11 24.867 110.423 24.5097 111.354 23.7237C112.309 22.9615 112.81 21.9849 112.81 20.7225C112.81 19.8412 112.571 19.0552 112.046 18.4597C111.354 17.8881 110.495 17.2926 109.253 16.8163ZM120.997 11.0521C118.825 11.0521 117.083 11.6952 115.865 12.9576C114.648 14.22 114.027 15.9588 114.027 18.1501C114.027 20.1985 114.648 21.8658 115.841 23.0806C117.035 24.2715 118.658 24.8908 120.687 24.8908C122.812 24.8908 124.506 24.2477 125.724 22.9615C126.965 21.6753 127.562 19.9603 127.562 17.8405C127.562 15.7444 126.989 14.0771 125.819 12.8623C124.697 11.6476 123.05 11.0521 120.997 11.0521ZM123.456 21.1989C122.883 21.9373 121.976 22.2946 120.854 22.2946C119.708 22.2946 118.825 21.9373 118.181 21.1513C117.536 20.4129 117.226 19.341 117.226 17.9834C117.226 16.5781 117.56 15.5062 118.181 14.744C118.825 13.9818 119.708 13.6007 120.83 13.6007C121.905 13.6007 122.788 13.958 123.408 14.6964C124.029 15.4348 124.363 16.5066 124.363 17.9119C124.363 19.341 124.053 20.4605 123.456 21.1989ZM144.152 13.8865V11.3379H141.025V7.43166L140.929 7.45548L137.969 8.33678L137.898 8.36059V11.3379H133.219V9.67063C133.219 8.90842 133.41 8.31296 133.744 7.93186C134.078 7.55076 134.58 7.36021 135.2 7.36021C135.63 7.36021 136.084 7.45548 136.585 7.66985L136.704 7.74131V5.04979L136.633 5.02597C136.203 4.88306 135.63 4.78778 134.89 4.78778C133.959 4.78778 133.147 5.00215 132.408 5.35943C131.668 5.76435 131.118 6.31218 130.713 7.05056C130.307 7.76513 130.092 8.57496 130.092 9.50389V11.3379H127.92V13.8627H130.092V24.5335H133.219V13.8865H137.898V20.6749C137.898 23.4617 139.211 24.867 141.836 24.867C142.266 24.867 142.719 24.7955 143.149 24.7241C143.603 24.6288 143.937 24.5097 144.128 24.4144L144.152 24.3906V21.842L144.032 21.9373C143.841 22.0564 143.674 22.1517 143.388 22.2231C143.149 22.2946 142.934 22.3184 142.767 22.3184C142.147 22.3184 141.717 22.1755 141.407 21.8182C141.12 21.4847 140.977 20.9369 140.977 20.1271V13.8865H144.152Z" fill="#A7A7A7"/>
<path d="M0.000473022 0H14.633V14.6009H0.000473022V0Z" fill="#A7A7A7"/>
<path d="M16.1601 0H30.7926V14.6009H16.1601V0Z" fill="#A7A7A7"/>
<path d="M0 16.1253H14.6325V30.7262H0V16.1253Z" fill="#A7A7A7"/>
<path d="M16.1601 16.1253H30.7926V30.7262H16.1601V16.1253Z" fill="#A7A7A7"/>
</svg>
