<svg width="117" height="25" viewBox="0 0 117 25" fill="none" xmlns="http://www.w3.org/2000/svg">
<path d="M41.0315 14.2691L40.3387 16.228H40.281C40.1655 15.7863 39.9538 15.1141 39.6073 14.3075L35.8928 4.99333H32.2553V19.8384H34.6611V10.6779C34.6611 10.1017 34.6611 9.44877 34.6419 8.64218C34.6226 8.23888 34.5841 7.93161 34.5649 7.70116H34.6226C34.7381 8.27729 34.8728 8.69979 34.969 8.96866L39.4341 19.8H41.1278L45.5544 8.87263C45.6506 8.62297 45.7468 8.12366 45.8431 7.70116H45.9008C45.8431 8.79581 45.8046 9.77525 45.7853 10.3706V19.7808H48.3451V4.95492H44.8423L41.0315 14.2691ZM50.7701 9.1415H53.272V19.7808H50.7701V9.1415ZM52.0403 4.64764C51.6169 4.64764 51.2705 4.80128 50.9818 5.07014C50.6931 5.33901 50.5391 5.68469 50.5391 6.10719C50.5391 6.51048 50.6931 6.85616 50.9818 7.12502C51.2705 7.39389 51.6169 7.52832 52.0403 7.52832C52.4637 7.52832 52.8294 7.37468 53.0988 7.12502C53.3875 6.85616 53.5415 6.51048 53.5415 6.10719C53.5415 5.70389 53.3875 5.35821 53.0988 5.07014C52.8486 4.80128 52.483 4.64764 52.0403 4.64764ZM62.1445 9.04547C61.6826 8.94945 61.2014 8.89184 60.7395 8.89184C59.604 8.89184 58.5647 9.1415 57.6986 9.64081C56.8326 10.1401 56.1397 10.8315 55.6971 11.6957C55.2351 12.5791 55.0042 13.5969 55.0042 14.7684C55.0042 15.7863 55.2351 16.6889 55.6778 17.5147C56.1205 18.3212 56.7363 18.9742 57.5639 19.4159C58.353 19.8576 59.2768 20.0881 60.3161 20.0881C61.5094 20.0881 62.5294 19.8384 63.3377 19.3775L63.357 19.3583V17.0537L63.2608 17.1306C62.8951 17.3994 62.4717 17.6299 62.0483 17.7643C61.6056 17.918 61.2014 17.9948 60.855 17.9948C59.8542 17.9948 59.0651 17.7067 58.507 17.073C57.9296 16.4584 57.6409 15.6134 57.6409 14.5572C57.6409 13.4625 57.9296 12.5983 58.5262 11.9646C59.1229 11.3308 59.9119 11.0043 60.8742 11.0043C61.6826 11.0043 62.5102 11.2732 63.2608 11.8109L63.357 11.8877V9.44877L63.3377 9.42956C63.0106 9.29513 62.6449 9.1415 62.1445 9.04547ZM70.4011 8.96866C69.7852 8.96866 69.2078 9.1607 68.7074 9.56399C68.284 9.90968 67.9953 10.409 67.7451 11.0043H67.7258V9.1415H65.2239V19.7808H67.7258V14.3459C67.7258 13.4241 67.9183 12.6559 68.3417 12.099C68.7651 11.5229 69.304 11.2348 69.9584 11.2348C70.1894 11.2348 70.4203 11.2924 70.709 11.3308C70.9784 11.4076 71.1709 11.4844 71.3056 11.5805L71.4019 11.6573V9.1607L71.3441 9.1415C71.1709 9.02627 70.8245 8.96866 70.4011 8.96866ZM77.2142 8.91104C75.4628 8.91104 74.0578 9.42956 73.0763 10.4474C72.0755 11.4652 71.5943 12.8672 71.5943 14.634C71.5943 16.2856 72.0947 17.6299 73.057 18.6093C74.0193 19.5695 75.328 20.0689 76.964 20.0689C78.6769 20.0689 80.0433 19.5503 81.0249 18.5133C82.0257 17.4762 82.5068 16.0935 82.5068 14.3843C82.5068 12.6943 82.0449 11.35 81.1019 10.3706C80.1973 9.39116 78.8693 8.91104 77.2142 8.91104ZM79.2158 17.0922C78.7539 17.6875 78.0225 17.9756 77.1179 17.9756C76.2134 17.9756 75.482 17.6875 74.9624 17.0537C74.4427 16.4584 74.1925 15.5942 74.1925 14.4996C74.1925 13.3665 74.462 12.5023 74.9624 11.8877C75.482 11.2732 76.1941 10.9659 77.0987 10.9659C77.984 10.9659 78.6769 11.254 79.1773 11.8493C79.6777 12.4447 79.9471 13.3089 79.9471 14.4419C79.9086 15.5942 79.6969 16.4968 79.2158 17.0922ZM88.0882 13.5585C87.2991 13.2321 86.7987 12.9824 86.5678 12.7711C86.3753 12.5791 86.2791 12.3102 86.2791 11.9646C86.2791 11.6765 86.3945 11.3884 86.6832 11.1964C86.9719 11.0043 87.2991 10.9083 87.7803 10.9083C88.2037 10.9083 88.6463 10.9851 89.0697 11.1004C89.4932 11.2156 89.8781 11.3884 90.186 11.6189L90.2822 11.6957V9.35275L90.2245 9.33354C89.9358 9.21831 89.5509 9.10309 89.089 9.00707C88.6271 8.93025 88.2037 8.89184 87.8572 8.89184C86.664 8.89184 85.6824 9.1799 84.9126 9.81365C84.1428 10.409 83.7771 11.2156 83.7771 12.1566C83.7771 12.6559 83.8541 13.0976 84.0273 13.4625C84.2005 13.8274 84.4507 14.1731 84.7971 14.4611C85.1436 14.73 85.6439 15.0373 86.3368 15.3253C86.9142 15.575 87.3568 15.767 87.6263 15.9207C87.8957 16.0743 88.069 16.2472 88.2037 16.3816C88.2999 16.5352 88.3576 16.7273 88.3576 16.9769C88.3576 17.6875 87.8188 18.0332 86.7217 18.0332C86.2983 18.0332 85.8557 17.9564 85.336 17.7835C84.8164 17.6107 84.3352 17.361 83.931 17.073L83.8348 16.9961V19.4351L83.8926 19.4543C84.2582 19.6272 84.7009 19.7424 85.2398 19.8768C85.7787 19.9728 86.2598 20.0497 86.6832 20.0497C87.9727 20.0497 89.0313 19.7616 89.7819 19.1278C90.5517 18.5133 90.9559 17.7259 90.9559 16.7081C90.9559 15.9975 90.7634 15.3638 90.34 14.8836C89.7818 14.4227 89.089 13.9426 88.0882 13.5585ZM97.5573 8.91104C95.8059 8.91104 94.4009 9.42956 93.4194 10.4474C92.4378 11.4652 91.9374 12.8672 91.9374 14.634C91.9374 16.2856 92.4378 17.6299 93.4001 18.6093C94.3624 19.5695 95.6712 20.0689 97.3071 20.0689C99.02 20.0689 100.386 19.5503 101.368 18.5133C102.369 17.4762 102.85 16.0935 102.85 14.3843C102.85 12.6943 102.388 11.35 101.445 10.3706C100.54 9.39116 99.2124 8.91104 97.5573 8.91104ZM99.5396 17.0922C99.0777 17.6875 98.3464 17.9756 97.4418 17.9756C96.518 17.9756 95.8059 17.6875 95.2862 17.0537C94.7666 16.4584 94.5164 15.5942 94.5164 14.4996C94.5164 13.3665 94.7858 12.5023 95.2862 11.8877C95.8059 11.2732 96.518 10.9659 97.4225 10.9659C98.2886 10.9659 99.0007 11.254 99.5011 11.8493C100.002 12.4447 100.271 13.3089 100.271 14.4419C100.271 15.5942 100.021 16.4968 99.5396 17.0922ZM116.226 11.1964V9.1415H113.705V5.99196L113.628 6.01116L111.241 6.72173L111.183 6.74093V9.1415H107.411V7.79718C107.411 7.18264 107.565 6.70253 107.835 6.39525C108.104 6.08798 108.508 5.93435 109.009 5.93435C109.355 5.93435 109.721 6.01116 110.125 6.184L110.221 6.24162V4.07151L110.163 4.0523C109.817 3.93708 109.355 3.86026 108.758 3.86026C108.008 3.86026 107.354 4.0331 106.757 4.32117C106.16 4.64764 105.718 5.08935 105.39 5.68469C105.063 6.26082 104.89 6.91377 104.89 7.66275V9.1415H103.139V11.1772H104.89V19.7808H107.411V11.1964H111.183V16.6697C111.183 18.9166 112.242 20.0497 114.359 20.0497C114.706 20.0497 115.071 19.992 115.418 19.9344C115.783 19.8576 116.053 19.7616 116.207 19.6848L116.226 19.6656V17.6107L116.13 17.6875C115.976 17.7835 115.841 17.8603 115.61 17.918C115.418 17.9756 115.244 17.9948 115.11 17.9948C114.609 17.9948 114.263 17.8795 114.013 17.5915C113.782 17.3226 113.666 16.8809 113.666 16.228V11.1964H116.226Z" fill="#737373"/>
<path d="M0.000396729 0H11.7982V11.7724H0.000396729V0Z" fill="#F25022"/>
<path d="M13.0295 0.00012207H24.8274V11.7725H13.0295V0.00012207Z" fill="#7FBA00"/>
<path d="M0 13.0016H11.7978V24.7739H0V13.0016Z" fill="#00A4EF"/>
<path d="M13.0295 13.0016H24.8274V24.7739H13.0295V13.0016Z" fill="#FFB900"/>
</svg>
