<svg width="78" height="78" viewBox="0 0 78 78" fill="none" xmlns="http://www.w3.org/2000/svg">
<circle cx="39.0581" cy="38.9243" r="38.5118" fill="#2962FF"/>
<path d="M51.6672 22.7957C49.7265 22.7957 48.1483 24.374 48.1483 26.3147C48.1483 26.9217 48.3025 27.4929 48.5741 27.992L42.8094 33.7567C42.0147 33.1379 41.02 32.7661 39.9374 32.7661C38.8547 32.7661 37.86 33.1379 37.0647 33.7561L32.5669 29.2583C32.7733 28.9093 32.8994 28.5082 32.8994 28.0742C32.8994 26.7803 31.8473 25.7282 30.5535 25.7282C29.2597 25.7282 28.2075 26.7803 28.2075 28.0742C28.2075 29.368 29.2597 30.4201 30.5535 30.4201C30.9875 30.4201 31.3886 30.294 31.7376 30.0876L36.2354 34.5854C35.6172 35.3807 35.2454 36.3754 35.2454 37.458C35.2454 38.5407 35.6172 39.5354 36.2354 40.3301L28.8081 47.758C28.1829 47.1909 27.3565 46.8419 26.448 46.8419C24.5073 46.8419 22.9291 48.4202 22.9291 50.3609C22.9291 52.3016 24.5073 53.8799 26.448 53.8799C28.3887 53.8799 29.967 52.3016 29.967 50.3609C29.967 49.7539 29.8127 49.1826 29.5412 48.6835L37.0653 41.1594C37.714 41.6638 38.4963 42.0016 39.3514 42.1089V48.0677C37.6899 48.3481 36.419 49.7932 36.419 51.5339C36.419 53.4746 37.9972 55.0528 39.9379 55.0528C41.8786 55.0528 43.4569 53.4746 43.4569 51.5339C43.4569 49.7938 42.186 48.3486 40.5244 48.0677V42.1089C41.3795 42.0016 42.1619 41.6638 42.8106 41.1594L47.3084 45.6572C47.1014 46.0068 46.9753 46.4079 46.9753 46.8419C46.9753 48.1357 48.0274 49.1879 49.3212 49.1879C50.6151 49.1879 51.6672 48.1357 51.6672 46.8419C51.6672 45.5481 50.6151 44.496 49.3212 44.496C48.8872 44.496 48.4861 44.6221 48.1371 44.8285L43.6393 40.3307C44.2575 39.5354 44.6293 38.5407 44.6293 37.458C44.6293 36.3754 44.2575 35.3807 43.6393 34.586L49.3078 28.9175C49.9324 29.4847 50.7587 29.8336 51.6672 29.8336C53.6079 29.8336 55.1862 28.2554 55.1862 26.3147C55.1862 24.374 53.6079 22.7957 51.6672 22.7957Z" fill="white"/>
</svg>
