<svg width="108" height="27" viewBox="0 0 108 27" fill="none" xmlns="http://www.w3.org/2000/svg">
<path fill-rule="evenodd" clip-rule="evenodd" d="M30.2868 12.8451V21.0099H31.9998H33.7129V12.8451V4.68036H31.9998H30.2868V12.8451ZM72.9476 11.4975C72.9476 15.8662 72.9881 18.1722 73.0717 18.5717C73.3129 19.7229 73.8739 20.4509 74.8817 20.9203C75.3657 21.1457 75.599 21.1765 76.7606 21.1688C77.49 21.1639 78.2235 21.1023 78.3907 21.0317L78.6947 20.9036L78.6949 19.5866L78.6951 18.2696L78.024 18.3079C77.6445 18.3296 77.2064 18.2847 77.0155 18.2048C76.4014 17.9473 76.3305 17.5881 76.2845 14.4983L76.2436 11.7335L77.6625 11.7022L79.0815 11.6707L79.1127 10.3565L79.1437 9.04235H77.7035H76.2632V7.02912V5.0159H74.6054H72.9476V11.4975ZM0.0606756 5.3794C0.169538 5.83047 2.20543 14.749 2.67139 16.8156C2.92105 17.9229 3.20078 18.9799 3.29295 19.1644C3.59003 19.7589 4.10218 20.3345 4.59311 20.6257C5.55707 21.1974 7.24361 21.0836 7.51538 20.4285C7.67033 20.0552 9.11903 13.1951 9.45932 11.2233C9.61858 10.3006 9.76347 9.53078 9.78127 9.51266C9.79906 9.49443 9.84891 9.82158 9.8919 10.2397C10.0423 11.7014 11.171 18.0413 11.4484 18.9824C11.6716 19.7401 12.4174 20.5825 13.029 20.768C13.265 20.8395 13.8502 20.8963 14.3294 20.8943C15.0355 20.8913 15.2511 20.8481 15.4667 20.6665C15.6986 20.471 15.9687 19.4864 17.5904 12.925C18.6123 8.79025 19.45 5.3445 19.452 5.26755C19.4549 5.16141 19.035 5.12774 17.7104 5.12774H15.965L15.3166 8.51108C14.9599 10.372 14.483 13.0017 14.2568 14.355C14.0306 15.7084 13.819 16.7402 13.7867 16.6479C13.7545 16.5556 13.6245 15.7503 13.498 14.8583C13.3714 13.9664 12.935 11.4121 12.528 9.18216L11.7882 5.12774H9.93025C8.90827 5.12774 8.07218 5.14754 8.07218 5.17159C8.07218 5.19574 7.69398 7.12095 7.23179 9.44969C6.76959 11.7786 6.25689 14.4629 6.09254 15.4148L5.79359 17.1456L5.48689 15.247C5.31824 14.2028 4.86113 11.5412 4.4711 9.33237C4.08096 7.12352 3.76189 5.27393 3.76189 5.22203C3.76189 5.17013 2.91542 5.12774 1.88094 5.12774H0L0.0606756 5.3794ZM21.7767 8.98632C21.0743 9.1297 20.0043 9.4979 19.6799 9.70795C19.5389 9.79921 19.5533 9.95681 19.7872 10.8873C19.9357 11.4779 20.0892 12.0135 20.1283 12.0776C20.1744 12.153 20.352 12.1153 20.6322 11.9706C21.7703 11.3831 23.512 11.1793 24.3439 11.5364C24.7836 11.7251 25.2017 12.2919 25.2024 12.7003C25.2028 12.9752 25.0595 13.015 23.7108 13.1138C20.326 13.3616 18.2487 15.548 18.7924 18.2902C18.9432 19.0507 19.4813 20.0225 19.9531 20.3863C20.7629 21.0109 21.2277 21.1685 22.274 21.1732C23.6028 21.1792 24.2436 20.9482 25.0846 20.1603C25.4395 19.8279 25.8314 19.5559 25.9556 19.5559C26.0798 19.5559 26.3218 19.7262 26.4934 19.9344C26.9948 20.5427 27.5996 20.898 28.1335 20.898C28.3911 20.898 28.65 20.8352 28.7086 20.7582C28.7761 20.6699 28.7866 19.1359 28.7373 16.592C28.6662 12.9278 28.6382 12.4996 28.4257 11.8338C27.9266 10.2699 27.0158 9.38471 25.4791 8.97032C24.783 8.78265 22.7314 8.79148 21.7767 8.98632ZM40.5652 8.92324C39.9618 9.10968 39.3749 9.49499 38.8823 10.0279L38.3652 10.5873L38.3062 10.1224C38.2737 9.86666 38.2341 9.53168 38.218 9.37789L38.189 9.09828L36.7076 9.06696L35.2261 9.03564L35.2984 10.2307C35.3382 10.8881 35.3707 13.5823 35.3707 16.2179V21.0099H37.0219H38.673L38.7073 17.1758L38.7416 13.3417L39.0202 12.7858C39.2369 12.3536 39.4142 12.1718 39.8173 11.9685C40.4049 11.6721 40.8098 11.7051 41.2917 12.0887C41.9138 12.584 41.9418 12.7788 42.0019 17.0393L42.0572 20.9539H43.715H45.3728L45.428 16.9736L45.4833 12.9933L45.7965 12.5361C46.3816 11.6821 47.4225 11.5253 48.0813 12.192C48.6348 12.7522 48.6714 13.0401 48.7158 17.1821L48.7569 21.0156L50.4357 20.9848L52.1145 20.9539L52.0967 16.8716C52.0825 13.594 52.0446 12.6399 51.9044 12.0319C51.585 10.6464 50.9818 9.72663 50.0505 9.20442C49.5037 8.89796 49.3798 8.87458 48.3016 8.87458C47.2375 8.87458 47.091 8.9012 46.5383 9.19558C46.2068 9.37219 45.6774 9.78423 45.3618 10.1113L44.7881 10.7059L44.4779 10.2092C44.1369 9.66332 43.5672 9.21392 42.9195 8.98017C42.4693 8.81765 41.0203 8.78265 40.5652 8.92324ZM56.3696 8.98699C55.4638 9.19223 54.4241 9.58111 54.266 9.77383C54.1099 9.9643 54.6836 12.2131 54.867 12.1297C56.6712 11.311 58.2231 11.1143 59.0963 11.5934C59.4653 11.796 59.7957 12.2825 59.7957 12.6234C59.7957 12.9826 59.5971 13.065 58.7253 13.0672C57.2688 13.0712 55.3311 13.7842 54.5049 14.6203C54.2581 14.8701 53.9177 15.3404 53.7485 15.6654C53.466 16.2081 53.4408 16.357 53.4408 17.4867C53.4408 18.6046 53.4676 18.7681 53.7352 19.2763C54.5596 20.8423 56.2268 21.5406 58.029 21.0746C58.8295 20.8677 59.3531 20.5573 59.9105 19.9591C60.1173 19.7373 60.3894 19.5559 60.5154 19.5559C60.642 19.5559 60.9647 19.7849 61.2371 20.0681C61.8658 20.7219 62.2044 20.898 62.8322 20.898C63.2785 20.898 63.351 20.863 63.4502 20.5992C63.5118 20.4348 63.5265 20.2208 63.4826 20.1238C63.4388 20.0267 63.3706 18.2613 63.331 16.2005C63.265 12.7645 63.2392 12.3934 63.0189 11.7267C62.602 10.4648 61.8054 9.61019 60.5693 9.0985C59.8953 8.81955 57.4013 8.75334 56.3696 8.98699ZM69.7469 9.07143C69.1053 9.38583 68.5208 9.98577 68.1867 10.6727L67.9189 11.2233L67.8917 10.8319C67.8767 10.6166 67.8355 10.1259 67.8 9.74139L67.7356 9.04235H66.2359H64.7364L64.8073 9.96508C64.8464 10.4725 64.8786 13.1653 64.879 15.9488L64.8796 21.0099H66.5844H68.2891L68.3265 17.5147C68.368 13.6505 68.3896 13.5192 69.1127 12.7471C69.5678 12.2612 70.1766 11.9918 71.0411 11.8944L71.7319 11.8166V10.3176V8.81866L70.9859 8.82425C70.456 8.82817 70.0971 8.89986 69.7469 9.07143ZM25.2964 16.3603C25.2541 17.5253 25.1217 17.8214 24.4303 18.2976C23.9425 18.6337 23.0343 18.6469 22.6285 18.3238C22.0092 17.8309 21.9778 16.8215 22.561 16.1494C22.9945 15.6497 23.7503 15.3959 25.0201 15.3236L25.3347 15.3057L25.2964 16.3603ZM59.9062 16.2958C59.9062 17.1404 59.8693 17.3413 59.6549 17.6632C59.1375 18.4401 58.2421 18.7539 57.432 18.4422C56.8225 18.2077 56.5818 16.862 57.0432 16.2684C57.4532 15.7408 58.458 15.368 59.6023 15.3188L59.9062 15.3057V16.2958Z" fill="#007CC2"/>
<path fill-rule="evenodd" clip-rule="evenodd" d="M94.2106 0.154299C94.0129 0.294778 93.9619 0.438612 93.9619 0.855462C93.9619 1.87908 94.5332 8.42117 94.6402 8.62361C94.7831 8.89383 95.1892 9.04236 95.7855 9.04236C96.3998 9.04236 96.7886 8.89249 96.9458 8.59509C97.014 8.46624 97.1664 7.16782 97.2845 5.70969C97.4026 4.25155 97.547 2.50497 97.6053 1.8283C97.7015 0.713529 97.6925 0.571709 97.5104 0.318377C97.3162 0.0482693 97.2609 0.0377558 95.8843 0.0081166C94.7285 -0.0167132 94.4123 0.0109129 94.2106 0.154299ZM85.0962 5.59303C84.7053 5.95754 83.7832 7.55929 83.7261 7.97312C83.6998 8.16269 83.7454 8.40059 83.8282 8.50651C84.0162 8.74698 90.8386 12.1741 91.1294 12.1741C91.4353 12.1741 92.1173 11.4047 92.2954 10.8586C92.4277 10.453 92.4248 10.361 92.2728 10.1263C92.0325 9.75516 86.0165 5.43197 85.6629 5.37639C85.4717 5.3463 85.2836 5.41822 85.0962 5.59303ZM102.638 7.5906C100.873 8.86542 99.4574 9.96699 99.3437 10.1541C99.1493 10.4738 99.1504 10.4968 99.386 11.0511C99.6449 11.6599 100.148 12.1741 100.485 12.1741C100.812 12.1741 107.738 8.63424 107.817 8.4271C107.965 8.03676 107.869 7.73388 107.277 6.73118C106.65 5.66674 106.346 5.34999 105.956 5.35335C105.833 5.35447 104.34 6.36119 102.638 7.5906ZM87.4793 16.249C85.3163 17.327 83.991 18.0502 83.915 18.1939C83.7075 18.5863 83.7746 18.8075 84.4531 19.9689C85.1404 21.1453 85.4621 21.4148 85.9581 21.229C86.4165 21.0574 92.253 16.7326 92.3972 16.4578C92.5235 16.2168 92.5195 16.1059 92.37 15.7098C92.1192 15.0452 91.6154 14.5217 91.2327 14.5278C91.0622 14.5306 89.3731 15.3052 87.4793 16.249ZM99.7587 14.8304C99.5987 14.9995 99.3744 15.3526 99.2601 15.6148C99.0252 16.1542 99.0844 16.4487 99.5038 16.8266C99.8863 17.1711 105.482 21.1841 105.683 21.2583C106.099 21.4114 106.511 21.0491 107.147 19.9709C107.812 18.8425 107.919 18.3768 107.584 18.074C107.198 17.7265 100.691 14.5228 100.37 14.5228C100.165 14.5228 99.9451 14.6331 99.7587 14.8304ZM94.7858 17.8172C94.6366 17.9682 94.5145 18.1589 94.5145 18.2411C94.5145 18.3233 94.3902 19.9216 94.2382 21.7928C93.8998 25.9593 93.8982 26.0904 94.1829 26.3785C94.3804 26.5784 94.5513 26.6022 95.7905 26.6022C97.1306 26.6022 97.1865 26.5926 97.4599 26.316C97.7014 26.0716 97.7336 25.9612 97.6807 25.561C97.6465 25.3032 97.59 24.7148 97.5551 24.2534C97.1078 18.341 97.0737 18.0592 96.7752 17.7943C96.5434 17.5886 96.3604 17.5427 95.7743 17.5427C95.1602 17.5427 95.018 17.5821 94.7858 17.8172Z" fill="#FDBB30"/>
</svg>
