<svg width="132" height="33" viewBox="0 0 132 33" fill="none" xmlns="http://www.w3.org/2000/svg">
<path fill-rule="evenodd" clip-rule="evenodd" d="M37.1838 15.4571V25.4141H39.287H41.3901V15.4571V5.5H39.287H37.1838V15.4571ZM89.5596 13.8136C89.5596 19.1413 89.6092 21.9536 89.7119 22.4408C90.008 23.8446 90.6968 24.7324 91.9341 25.3049C92.5283 25.5797 92.8147 25.6173 94.2408 25.6079C95.1364 25.6019 96.0369 25.5268 96.2422 25.4407L96.6154 25.2845L96.6156 23.6784L96.6159 22.0724L95.792 22.119C95.326 22.1455 94.7882 22.0908 94.5538 21.9932C93.7998 21.6793 93.7128 21.2412 93.6564 17.4732L93.6061 14.1014L95.3482 14.0632L97.0903 14.0249L97.1285 12.4222L97.1667 10.8195H95.3985H93.6302V8.36436V5.90919H91.5949H89.5596V13.8136ZM0.0744929 6.35249C0.208146 6.90258 2.70766 17.7788 3.27973 20.2992C3.58625 21.6495 3.92967 22.9385 4.04284 23.1635C4.40757 23.8885 5.03635 24.5905 5.63908 24.9456C6.82255 25.6428 8.89316 25.504 9.22682 24.7051C9.41705 24.2498 11.1957 15.8838 11.6134 13.4793C11.809 12.354 11.9869 11.4152 12.0087 11.3931C12.0305 11.3708 12.0917 11.7698 12.1445 12.2797C12.3292 14.0622 13.7148 21.7938 14.0554 22.9416C14.3295 23.8656 15.2451 24.8929 15.996 25.1191C16.2857 25.2064 17.0042 25.2757 17.5926 25.2732C18.4595 25.2695 18.7242 25.2169 18.9888 24.9954C19.2736 24.7569 19.6052 23.5562 21.5962 15.5544C22.8508 10.5121 23.8793 6.30993 23.8817 6.21609C23.8852 6.08665 23.3698 6.04559 21.7435 6.04559H19.6006L18.8045 10.1716C18.3667 12.441 17.7812 15.648 17.5034 17.2984C17.2257 18.9488 16.9659 20.2071 16.9263 20.0946C16.8867 19.9821 16.7271 19 16.5718 17.9122C16.4164 16.8244 15.8806 13.7095 15.381 10.99L14.4727 6.04559H12.1916C10.9369 6.04559 9.91041 6.06973 9.91041 6.09906C9.91041 6.12852 9.44609 8.47634 8.87864 11.3163C8.31119 14.1564 7.68173 17.4299 7.47996 18.5908L7.11293 20.7016L6.73639 18.3862C6.52933 17.1128 5.96812 13.8669 5.48928 11.1732C5.0103 8.47948 4.61856 6.22386 4.61856 6.16058C4.61856 6.09729 3.57933 6.04559 2.30928 6.04559H0L0.0744929 6.35249ZM26.7358 10.7512C25.8735 10.926 24.5597 11.3751 24.1615 11.6312C23.9884 11.7425 24.006 11.9347 24.2933 13.0694C24.4755 13.7897 24.664 14.4429 24.712 14.5211C24.7686 14.613 24.9866 14.5671 25.3306 14.3906C26.7279 13.6741 28.8662 13.4255 29.8876 13.8611C30.4275 14.0912 30.9408 14.7824 30.9416 15.2804C30.9421 15.6157 30.7661 15.6642 29.1103 15.7847C24.9547 16.0869 22.4043 18.7533 23.0719 22.0975C23.257 23.0248 23.9177 24.21 24.4969 24.6537C25.4911 25.4153 26.0618 25.6075 27.3464 25.6133C28.9778 25.6206 29.7645 25.339 30.7969 24.378C31.2326 23.9727 31.7138 23.6409 31.8663 23.6409C32.0188 23.6409 32.316 23.8487 32.5266 24.1025C33.1422 24.8444 33.8847 25.2777 34.5402 25.2777C34.8565 25.2777 35.1743 25.2011 35.2463 25.1072C35.3291 24.9995 35.342 23.1288 35.2814 20.0264C35.1942 15.5579 35.1599 15.0357 34.8989 14.2237C34.2862 12.3165 33.168 11.237 31.2813 10.7317C30.4266 10.5028 27.9079 10.5136 26.7358 10.7512ZM49.8028 10.6743C49.0621 10.9016 48.3415 11.3715 47.7367 12.0215L47.1019 12.7036L47.0295 12.1367C46.9896 11.8248 46.9409 11.4163 46.9212 11.2287L46.8855 10.8877L45.0668 10.8495L43.248 10.8113L43.3367 12.2688C43.3856 13.0705 43.4255 16.3561 43.4255 19.5703V25.4141H45.4527H47.4798L47.5219 20.7384L47.564 16.0627L47.906 15.3848C48.1721 14.8576 48.3898 14.6359 48.8846 14.388C49.6061 14.0265 50.1032 14.0667 50.6948 14.5346C51.4586 15.1386 51.493 15.3762 51.5668 20.572L51.6346 25.3459H53.6699H55.7053L55.7731 20.4918L55.841 15.6378L56.2255 15.0802C56.9438 14.0388 58.2218 13.8476 59.0306 14.6606C59.7101 15.3437 59.755 15.6948 59.8096 20.746L59.8601 25.4211L61.9212 25.3836L63.9823 25.3459L63.9604 20.3674C63.9429 16.3704 63.8964 15.2068 63.7243 14.4653C63.3322 12.7757 62.5916 11.654 61.4482 11.0172C60.7769 10.6434 60.6248 10.6149 59.301 10.6149C57.9946 10.6149 57.8148 10.6474 57.1362 11.0064C56.7292 11.2218 56.0792 11.7242 55.6918 12.1231L54.9875 12.8483L54.6066 12.2426C54.188 11.5768 53.4885 11.0288 52.6933 10.7437C52.1406 10.5455 50.3616 10.5028 49.8028 10.6743ZM69.2063 10.752C68.0943 11.0023 66.8178 11.4766 66.6237 11.7116C66.432 11.9439 67.1364 14.6863 67.3616 14.5847C69.5766 13.5862 71.4819 13.3463 72.554 13.9306C73.007 14.1776 73.4126 14.771 73.4126 15.1867C73.4126 15.6247 73.1688 15.7252 72.0985 15.7279C70.3102 15.7327 67.9314 16.6023 66.9169 17.622C66.614 17.9265 66.196 18.5001 65.9883 18.8965C65.6415 19.5583 65.6105 19.7398 65.6105 21.1176C65.6105 22.4809 65.6435 22.6803 65.972 23.2999C66.9841 25.2098 69.031 26.0613 71.2436 25.4931C72.2264 25.2407 72.8692 24.8622 73.5536 24.1327C73.8075 23.8622 74.1415 23.6409 74.2962 23.6409C74.4516 23.6409 74.8478 23.9203 75.1823 24.2656C75.9542 25.0629 76.3698 25.2777 77.1407 25.2777C77.6886 25.2777 77.7776 25.235 77.8993 24.9133C77.975 24.7128 77.9931 24.4518 77.9392 24.3336C77.8853 24.2152 77.8016 22.0621 77.753 19.549C77.672 15.3587 77.6403 14.9061 77.3699 14.0931C76.858 12.5542 75.88 11.512 74.3624 10.888C73.5349 10.5478 70.4729 10.4671 69.2063 10.752ZM85.63 10.855C84.8422 11.2384 84.1247 11.97 83.7145 12.8078L83.3857 13.4793L83.3523 13.0019C83.3339 12.7393 83.2833 12.1409 83.2397 11.672L83.1606 10.8195H81.3195H79.4784L79.5656 11.9448C79.6134 12.5636 79.6531 15.8476 79.6535 19.2421L79.6543 25.4141H81.7473H83.8401L83.8861 21.1517C83.937 16.4393 83.9636 16.2791 84.8513 15.3376C85.4101 14.7449 86.1576 14.4165 87.2189 14.2977L88.067 14.2027V12.3747V10.5467L87.1511 10.5535C86.5006 10.5583 86.0599 10.6458 85.63 10.855ZM31.0571 19.7439C31.0051 21.1646 30.8425 21.5257 29.9937 22.1065C29.3947 22.5163 28.2798 22.5324 27.7815 22.1384C27.0213 21.5373 26.9827 20.3063 27.6986 19.4867C28.2309 18.8772 29.1588 18.5677 30.7178 18.4796L31.104 18.4578L31.0571 19.7439ZM73.5483 19.6652C73.5483 20.6953 73.503 20.9403 73.2398 21.3328C72.6046 22.2802 71.5052 22.663 70.5107 22.2828C69.7623 21.9968 69.4668 20.3557 70.0333 19.6318C70.5367 18.9884 71.7703 18.5338 73.1752 18.4738L73.5483 18.4578V19.6652Z" fill="#A7A7A7"/>
<path fill-rule="evenodd" clip-rule="evenodd" d="M115.405 0.191408C115.165 0.365672 115.103 0.544098 115.103 1.0612C115.103 2.33099 115.797 10.4465 115.927 10.6976C116.1 11.0328 116.594 11.2171 117.317 11.2171C118.063 11.2171 118.535 11.0311 118.726 10.6622C118.809 10.5024 118.994 8.89169 119.137 7.08287C119.281 5.27405 119.456 3.10741 119.527 2.268C119.644 0.885133 119.633 0.709204 119.412 0.394947C119.176 0.0598781 119.109 0.046836 117.437 0.0100686C116.034 -0.0207327 115.65 0.0135374 115.405 0.191408ZM104.339 6.93816C103.865 7.39033 102.745 9.37729 102.676 9.89065C102.644 10.1258 102.699 10.4209 102.8 10.5523C103.028 10.8506 111.311 15.1019 111.664 15.1019C112.036 15.1019 112.864 14.1475 113.08 13.4701C113.241 12.9669 113.237 12.8529 113.053 12.5616C112.761 12.1013 105.457 6.73836 105.027 6.66941C104.795 6.63209 104.567 6.7213 104.339 6.93816ZM125.637 9.41614C123.494 10.9976 121.776 12.3641 121.638 12.5962C121.402 12.9927 121.403 13.0213 121.689 13.7089C122.003 14.4641 122.614 15.1019 123.024 15.1019C123.42 15.1019 131.83 10.7108 131.925 10.4538C132.105 9.96959 131.988 9.59387 131.27 8.35002C130.508 7.02959 130.139 6.63666 129.666 6.64083C129.517 6.64221 127.704 7.89106 125.637 9.41614ZM107.233 20.1569C104.606 21.4942 102.997 22.3913 102.905 22.5696C102.653 23.0563 102.735 23.3307 103.558 24.7715C104.393 26.2308 104.783 26.565 105.386 26.3346C105.942 26.1217 113.029 20.7567 113.204 20.4158C113.357 20.117 113.352 19.9793 113.171 19.4881C112.866 18.6636 112.254 18.0142 111.79 18.0218C111.583 18.0253 109.532 18.9861 107.233 20.1569ZM122.141 18.3971C121.947 18.6069 121.675 19.0449 121.536 19.3701C121.251 20.0393 121.323 20.4046 121.832 20.8734C122.296 21.3008 129.09 26.2789 129.334 26.3709C129.839 26.5608 130.34 26.1115 131.111 24.774C131.919 23.3742 132.05 22.7964 131.642 22.4208C131.174 21.9898 123.273 18.0155 122.884 18.0155C122.634 18.0155 122.368 18.1524 122.141 18.3971ZM116.104 22.1023C115.923 22.2896 115.774 22.5261 115.774 22.6281C115.774 22.7301 115.623 24.7128 115.439 27.034C115.028 32.2025 115.026 32.3651 115.372 32.7225C115.612 32.9704 115.819 33 117.324 33C118.951 33 119.018 32.9881 119.35 32.645C119.644 32.3418 119.683 32.2049 119.619 31.7084C119.577 31.3886 119.508 30.6587 119.466 30.0864C118.923 22.752 118.882 22.4024 118.519 22.0738C118.238 21.8187 118.016 21.7617 117.304 21.7617C116.558 21.7617 116.386 21.8106 116.104 22.1023Z" fill="#A7A7A7"/>
</svg>
