<svg width="24" height="27" viewBox="0 0 24 27" fill="none" xmlns="http://www.w3.org/2000/svg">
<path d="M2.96921 24.9847H4.53114V4.4363C4.53114 3.97307 4.88574 3.59759 5.32322 3.59759H11.2638V1.50082C11.2638 1.03759 11.6184 0.662109 12.0559 0.662109H17.551C17.9884 0.662109 18.343 1.03759 18.343 1.50082V3.59759H18.9866C19.4241 3.59759 19.7787 3.97307 19.7787 4.4363V24.9847H21.3406C21.7672 24.9847 22.1342 25.332 22.154 25.7832C22.1752 26.2649 21.813 26.6621 21.3628 26.6621H15.7193C15.5006 26.6621 15.3232 26.4743 15.3232 26.2428V21.4202H15.6474C16.0739 21.4202 16.4409 21.0731 16.4609 20.622C16.4824 20.1404 16.1199 19.7428 15.6698 19.7428C15.4306 19.7428 8.46456 19.7428 8.66243 19.7428C8.23594 19.7428 7.86896 20.0898 7.84886 20.5409C7.82743 21.0225 8.18985 21.4202 8.64005 21.4202H8.98659V26.2428C8.98659 26.4743 8.80926 26.6621 8.59055 26.6621H2.94698C2.49678 26.6621 2.1346 26.2649 2.15579 25.7832C2.17564 25.332 2.54257 24.9847 2.96921 24.9847ZM14.0856 18.0129H14.9767C15.4141 18.0129 15.7688 17.6374 15.7688 17.1742C15.7688 16.711 15.4141 16.3355 14.9767 16.3355H14.0856C13.6482 16.3355 13.2935 16.711 13.2935 17.1742C13.2935 17.6374 13.6482 18.0129 14.0856 18.0129ZM14.0856 14.8678H14.9767C15.4141 14.8678 15.7688 14.4922 15.7688 14.029C15.7688 13.5659 15.4141 13.1903 14.9767 13.1903H14.0856C13.6482 13.1903 13.2935 13.5659 13.2935 14.029C13.2935 14.4922 13.6482 14.8678 14.0856 14.8678ZM14.0856 11.7226H14.9767C15.4141 11.7226 15.7688 11.3471 15.7688 10.8839C15.7688 10.4207 15.4141 10.0452 14.9767 10.0452H14.0856C13.6482 10.0452 13.2935 10.4207 13.2935 10.8839C13.2935 11.3471 13.6482 11.7226 14.0856 11.7226ZM14.0856 8.57743H14.9767C15.4141 8.57743 15.7688 8.2019 15.7688 7.73872C15.7688 7.27554 15.4141 6.90001 14.9767 6.90001H14.0856C13.6482 6.90001 13.2935 7.27554 13.2935 7.73872C13.2935 8.2019 13.6482 8.57743 14.0856 8.57743ZM9.38263 18.0129H10.2737C10.7112 18.0129 11.0658 17.6374 11.0658 17.1742C11.0658 16.711 10.7112 16.3355 10.2737 16.3355H9.38263C8.94515 16.3355 8.59055 16.711 8.59055 17.1742C8.59055 17.6374 8.94515 18.0129 9.38263 18.0129ZM9.38263 14.8678H10.2737C10.7112 14.8678 11.0658 14.4922 11.0658 14.029C11.0658 13.5659 10.7112 13.1903 10.2737 13.1903H9.38263C8.94515 13.1903 8.59055 13.5659 8.59055 14.029C8.59055 14.4922 8.94515 14.8678 9.38263 14.8678ZM9.38263 11.7226H10.2737C10.7112 11.7226 11.0658 11.3471 11.0658 10.8839C11.0658 10.4207 10.7112 10.0452 10.2737 10.0452H9.38263C8.94515 10.0452 8.59055 10.4207 8.59055 10.8839C8.59055 11.3471 8.94515 11.7226 9.38263 11.7226ZM9.38263 8.57743H10.2737C10.7112 8.57743 11.0658 8.2019 11.0658 7.73872C11.0658 7.27554 10.7112 6.90001 10.2737 6.90001H9.38263C8.94515 6.90001 8.59055 7.27554 8.59055 7.73872C8.59055 8.2019 8.94515 8.57743 9.38263 8.57743ZM13.7391 26.2428V21.8395C13.7391 21.6079 13.5617 21.4202 13.343 21.4202H10.9668C10.7481 21.4202 10.5707 21.6079 10.5707 21.8395V26.2428C10.5707 26.4743 10.7481 26.6621 10.9668 26.6621H13.343C13.5617 26.6621 13.7391 26.4743 13.7391 26.2428Z" fill="#9597AE"/>
</svg>
