<svg width="25" height="25" viewBox="0 0 25 25" fill="none" xmlns="http://www.w3.org/2000/svg">
<path fill-rule="evenodd" clip-rule="evenodd" d="M5.38497 2.33752H8.76497C10.175 2.33752 11.305 3.48752 11.305 4.89852V8.30752C11.305 9.72752 10.175 10.8675 8.76497 10.8675H5.38497C3.98497 10.8675 2.84497 9.72752 2.84497 8.30752V4.89852C2.84497 3.48752 3.98497 2.33752 5.38497 2.33752ZM5.38497 13.8072H8.76497C10.175 13.8072 11.305 14.9482 11.305 16.3682V19.7772C11.305 21.1872 10.175 22.3372 8.76497 22.3372H5.38497C3.98497 22.3372 2.84497 21.1872 2.84497 19.7772V16.3682C2.84497 14.9482 3.98497 13.8072 5.38497 13.8072ZM20.3051 2.33752H16.9251C15.5151 2.33752 14.3851 3.48752 14.3851 4.89852V8.30752C14.3851 9.72752 15.5151 10.8675 16.9251 10.8675H20.3051C21.7051 10.8675 22.8451 9.72752 22.8451 8.30752V4.89852C22.8451 3.48752 21.7051 2.33752 20.3051 2.33752ZM16.9251 13.8072H20.3051C21.7051 13.8072 22.8451 14.9482 22.8451 16.3682V19.7772C22.8451 21.1872 21.7051 22.3372 20.3051 22.3372H16.9251C15.5151 22.3372 14.3851 21.1872 14.3851 19.7772V16.3682C14.3851 14.9482 15.5151 13.8072 16.9251 13.8072Z" fill="#ffffff"/>
</svg>
