<svg width="30" height="21" viewBox="0 0 30 21" fill="none" xmlns="http://www.w3.org/2000/svg">
<path fill-rule="evenodd" clip-rule="evenodd" d="M13.628 2.82908C12.5181 3.21218 11.6847 4.00275 11.2606 5.07451C10.9283 5.91431 10.8786 7.4588 11.1503 8.50185C11.4208 9.54029 11.9259 10.5758 12.5727 11.4175C13.0518 12.041 13.0928 12.1372 13.0928 12.6374C13.0928 13.5361 12.7943 13.9122 11.7079 14.3821C9.50603 15.3345 8.22219 16.1789 7.64248 17.0559C7.35682 17.4882 7.2724 17.6302 7.2724 18.2878C7.2724 18.9905 7.33921 19.0284 7.68864 19.4248C8.58194 20.438 10.3842 20.8711 14.171 20.9822C19.2026 21.13 22.4016 20.3824 22.8074 18.9636C22.9535 18.4527 22.9361 17.8183 22.7649 17.4206C22.2834 16.3017 21.2342 15.5944 17.88 14.1277C17.3393 13.8913 17.1216 13.4973 17.1216 12.7554C17.1216 12.1391 17.2303 11.8981 17.8531 11.1338C18.7377 10.0482 19.3688 8.3101 19.3688 6.95904C19.3688 4.9093 18.3572 3.42103 16.5547 2.81896C15.8074 2.56923 14.366 2.57424 13.628 2.82908Z" fill="#9597AE"/>
<path fill-rule="evenodd" clip-rule="evenodd" d="M21.4717 0.107681C20.5195 0.410582 19.7073 1.05648 19.3412 1.80175C19.1797 2.13079 19.1815 2.13914 19.4827 2.45374C20.342 3.35114 20.799 4.15017 21.0951 5.27322C21.3313 6.16885 21.2501 8.31216 20.9465 9.19786C20.6414 10.0879 20.0217 11.3221 19.5355 12.0082C19.3066 12.3311 19.1524 12.6252 19.1929 12.6618C19.2333 12.6982 19.603 12.8659 20.0144 13.0343C20.9453 13.4153 22.182 14.1245 22.8672 14.6701C23.4642 15.1456 24.2225 16.0076 24.4054 16.4189L24.5301 16.6992L25.3905 16.6344C27.0458 16.5095 28.5664 16.113 29.2057 15.6396C29.8095 15.1924 30.0325 14.8016 29.9962 14.005C29.9582 13.1689 29.6223 12.7906 28.7383 12.097C28.1922 11.6685 25.8255 10.4677 25.268 10.3363C25.1171 10.3006 24.8724 10.1624 24.7243 10.0291C24.4877 9.81615 24.4607 9.72976 24.5015 9.31698C24.5371 8.95727 24.6589 8.69634 25.0217 8.20258C26.0428 6.81338 26.446 5.50998 26.387 3.78947C26.3525 2.78593 26.3168 2.60844 26.0311 2.01963C25.6554 1.24558 25.0752 0.666112 24.3134 0.304243C23.8643 0.0909734 23.5861 0.0351499 22.8295 0.00684507C22.2191 -0.0160543 21.7513 0.018737 21.4717 0.107681Z" fill="#9597AE"/>
<path fill-rule="evenodd" clip-rule="evenodd" d="M8.52831 0.152603C9.48053 0.455504 10.2927 1.10141 10.6588 1.84667C10.8203 2.17571 10.8185 2.18407 10.5173 2.49866C9.65798 3.39606 9.20105 4.19509 8.90486 5.31814C8.66871 6.21377 8.74989 8.35708 9.05346 9.24279C9.35855 10.1328 9.97825 11.367 10.4645 12.0531C10.6934 12.376 10.8476 12.6701 10.8071 12.7067C10.7667 12.7432 10.397 12.9108 9.98564 13.0792C9.05468 13.4602 7.81801 14.1694 7.13282 14.7151C6.5358 15.1905 5.77752 16.0526 5.59461 16.4639L5.4699 16.7442L4.60949 16.6793C2.95416 16.5544 1.43357 16.1579 0.794331 15.6845C0.190524 15.2373 -0.0324755 14.8465 0.0037632 14.0499C0.0418234 13.2139 0.377688 12.8355 1.26168 12.142C1.80779 11.7135 4.17453 10.5126 4.73197 10.3812C4.8829 10.3455 5.12756 10.2073 5.27565 10.074C5.51231 9.86107 5.53934 9.77468 5.49855 9.3619C5.46292 9.0022 5.34114 8.74126 4.97825 8.2475C3.9572 6.8583 3.55402 5.5549 3.61304 3.8344C3.64745 2.83085 3.68318 2.65336 3.96894 2.06456C4.34459 1.2905 4.92481 0.711034 5.68662 0.349165C6.13566 0.135895 6.41392 0.0800718 7.17048 0.051767C7.78086 0.0288675 8.24873 0.0636589 8.52831 0.152603Z" fill="#9597AE"/>
</svg>
