<svg width="26" height="25" viewBox="0 0 26 25" fill="none" xmlns="http://www.w3.org/2000/svg">
<path fill-rule="evenodd" clip-rule="evenodd" d="M15.3604 8.09994C15.3604 10.7437 13.1068 12.8623 10.2947 12.8623C7.48364 12.8623 5.22907 10.7437 5.22907 8.09994C5.22907 5.45617 7.48364 3.33752 10.2947 3.33752C13.1068 3.33752 15.3604 5.45617 15.3604 8.09994ZM2.63916 18.2549C2.63916 15.8076 6.16575 15.1953 10.2947 15.1953C14.4461 15.1953 17.9503 15.8286 17.9503 18.2779C17.9503 20.7252 14.4237 21.3375 10.2947 21.3375C6.14333 21.3375 2.63916 20.7041 2.63916 18.2549ZM17.4031 8.18627C17.4031 9.53259 16.973 10.7888 16.2188 11.8323C16.1403 11.9397 16.2096 12.0844 16.3462 12.1074C16.5358 12.1371 16.7304 12.1553 16.9292 12.1591C18.9065 12.208 20.681 11.0111 21.1713 9.20871C21.898 6.53428 19.7658 4.13295 17.0495 4.13295C16.7549 4.13295 16.4726 4.1617 16.1974 4.2144C16.1597 4.22207 16.1189 4.23932 16.0985 4.26998C16.072 4.30927 16.0914 4.36006 16.1179 4.39359C16.9343 5.46969 17.4031 6.77959 17.4031 8.18627ZM20.678 14.0398C22.0071 14.2842 22.8806 14.7815 23.2424 15.5069C23.5492 16.101 23.5492 16.7909 23.2424 17.385C22.6889 18.5081 20.9032 18.8693 20.2091 18.9623C20.0654 18.9814 19.9502 18.8664 19.9655 18.7304C20.3202 15.618 17.5 14.1424 16.7702 13.8031C16.7396 13.7868 16.7325 13.7639 16.7355 13.7485C16.7376 13.7389 16.7508 13.7236 16.7743 13.7207C18.3531 13.692 20.0511 13.8961 20.678 14.0398Z" fill="#ffffff"/>
</svg>
