<svg width="20" height="23" viewBox="0 0 20 23" fill="none" xmlns="http://www.w3.org/2000/svg">
<path fill-rule="evenodd" clip-rule="evenodd" d="M9.66972 0.745343C9.23075 0.946394 9.1803 1.11581 9.17771 2.39824C9.1755 3.48478 9.19983 3.64143 9.40555 3.86426C9.5806 4.05386 9.75051 4.12994 9.9991 4.12994C10.3516 4.12994 10.683 3.88843 10.7764 3.56353C10.8018 3.4753 10.8221 2.93837 10.8215 2.37036C10.8202 1.08737 10.7688 0.927528 10.293 0.729246C10.0672 0.63515 9.9009 0.639467 9.66972 0.745343ZM15.5337 2.53833C15.4462 2.55677 15.3226 2.59967 15.2588 2.63369C15.144 2.69498 14.0122 4.20235 13.864 4.4913C13.7057 4.79997 13.7941 5.17616 14.0848 5.43067C14.3524 5.66499 14.718 5.69109 15.0339 5.49844C15.1911 5.4026 16.3405 3.84826 16.4533 3.57902C16.5851 3.26444 16.4469 2.85047 16.1486 2.66626C15.9461 2.54115 15.7317 2.49656 15.5337 2.53833ZM3.89123 2.64284C3.55756 2.84427 3.42087 3.20062 3.54232 3.55227C3.57845 3.65688 3.88996 4.12778 4.23454 4.59873C4.89904 5.50693 5.03555 5.6282 5.39646 5.63069C5.97132 5.63463 6.38935 4.98896 6.13418 4.4913C6.09183 4.4087 5.78531 3.96892 5.45301 3.51397C5.00962 2.90692 4.80597 2.66654 4.68772 2.61056C4.45113 2.49858 4.10702 2.51256 3.89123 2.64284ZM9.15612 5.44583C7.03146 5.77903 5.27077 7.22642 4.54745 9.2344C4.33293 9.8299 4.23035 10.4559 4.23035 11.1695C4.23035 12.5757 4.63252 13.6729 5.60924 14.9316C6.07282 15.529 6.55037 16.2128 6.96507 16.8732L7.34052 17.471V18.4267V19.3824H9.9991H12.6577V18.4296V17.4767L12.9075 17.0803C13.3557 16.3688 13.9057 15.5689 14.3689 14.9546C15.0974 13.9884 15.408 13.3869 15.6278 12.5161C15.7681 11.9602 15.803 10.7378 15.6951 10.1605C15.3259 8.18719 13.9621 6.50604 12.1703 5.8155C11.4272 5.52908 10.9635 5.43747 10.1638 5.41903C9.76265 5.40978 9.30919 5.42184 9.15612 5.44583ZM0.548421 7.38791C0.197629 7.51613 0 7.78884 0 8.14481C0 8.40128 0.105732 8.64758 0.271693 8.77781C0.423726 8.89706 2.35645 9.52696 2.57036 9.52696C2.92341 9.52696 3.23726 9.28025 3.34638 8.91705C3.42666 8.64983 3.33269 8.35271 3.10226 8.14509C2.95366 8.0112 2.75928 7.93109 1.96505 7.67658C0.82769 7.31207 0.781577 7.30269 0.548421 7.38791ZM19.0806 7.34563C19.0548 7.35497 18.5925 7.5027 18.0534 7.67395C16.9466 8.02556 16.765 8.13453 16.6595 8.51007C16.5195 9.0089 16.9109 9.52696 17.4278 9.52696C17.6418 9.52696 19.5745 8.89706 19.7265 8.77781C19.9784 8.58018 20.0804 8.08525 19.9293 7.79377C19.7782 7.50242 19.3186 7.2597 19.0806 7.34563ZM7.57607 20.4681C7.57715 21.0108 8.04055 21.5695 8.61028 21.7149C8.8401 21.7736 8.85756 21.7895 9.0015 22.0728C9.10478 22.2762 9.21639 22.4153 9.35671 22.5157C9.55072 22.6545 9.58413 22.6621 9.9991 22.6621C10.4145 22.6621 10.4473 22.6546 10.6415 22.5153C10.7784 22.4171 10.8977 22.27 11.0023 22.0709C11.1437 21.8012 11.1773 21.7685 11.3585 21.7226C11.9282 21.5782 12.3423 21.124 12.408 20.5712L12.4355 20.339H10.0056H7.57579L7.57607 20.4681Z" fill="#9597AE"/>
</svg>
