<svg width="21" height="21" viewBox="0 0 21 21" fill="none" xmlns="http://www.w3.org/2000/svg">
<path d="M7.72824 19.1109V16.0531C7.72824 15.2726 8.39219 14.6398 9.21122 14.6398H12.2052C12.5985 14.6398 12.9757 14.7887 13.2538 15.0538C13.5319 15.3188 13.6881 15.6783 13.6881 16.0531V19.1109C13.6856 19.4354 13.8192 19.7474 14.0591 19.9777C14.299 20.208 14.6254 20.3375 14.9659 20.3375H17.0085C17.9625 20.3399 18.8782 19.9804 19.5536 19.3383C20.2291 18.6963 20.6087 17.8245 20.6087 16.9153V8.20438C20.6087 7.46998 20.2671 6.77337 19.676 6.30219L12.7275 1.01339C11.5187 0.0860861 9.78693 0.116027 8.6143 1.0845L1.82432 6.30219C1.20529 6.75948 0.8353 7.45816 0.817017 8.20438V16.9065C0.817017 18.8014 2.42887 20.3375 4.4172 20.3375H6.41315C7.12038 20.3375 7.69514 19.7937 7.70026 19.1198L7.72824 19.1109Z" fill="#0275B0"/>
</svg>
