<svg width="23" height="21" viewBox="0 0 23 21" fill="none" xmlns="http://www.w3.org/2000/svg">
<path d="M1.09119 19.4386V8.30819C1.09119 8.03027 1.28723 7.91689 1.39553 7.91689H4.30856V19.8299H1.39553C1.28727 19.8299 1.09119 19.7165 1.09119 19.4386Z" stroke="#0275b0" stroke-width="2" stroke-linecap="round" stroke-linejoin="round"/>
<path d="M20.0768 8.97265C20.0752 8.97265 20.0736 8.97266 20.072 8.97266H15.8686C14.9777 8.97266 14.5277 8.35813 14.3912 8.12419M20.0768 8.97265L15.2551 7.6204M20.0768 8.97265C20.9672 8.97524 21.6997 9.70653 21.6997 10.6108C21.6997 10.7339 21.6855 10.8587 21.6574 10.9816L21.6573 10.9816L21.655 10.9923L20.1423 17.9623C19.8309 19.0632 18.8197 19.8291 17.6826 19.8291H17.6825L10.6049 19.8298C10.6048 19.8298 10.6048 19.8298 10.6048 19.8298C9.19943 19.8298 8.04755 18.679 8.04755 17.2584V9.78348C8.04755 9.14627 8.28071 8.53564 8.70479 8.06146L20.0768 8.97265ZM14.3912 8.12419L15.2551 7.6204M14.3912 8.12419C14.3917 8.12502 14.3922 8.12585 14.3927 8.12667L15.2551 7.6204M14.3912 8.12419C14.254 7.88939 13.9434 7.20233 14.3705 6.42848L14.371 6.42767L15.8529 3.74839L15.8534 3.74762C16.0279 3.43281 16.0458 3.06854 15.9024 2.73656L15.9023 2.73619C15.7591 2.40448 15.4829 2.17038 15.1367 2.08378L15.136 2.08359L14.2612 1.86403M15.2551 7.6204C15.1932 7.51507 15.0682 7.23396 15.246 6.91169L16.728 4.23241C17.0532 3.64577 17.0865 2.9559 16.8204 2.33996C16.5543 1.72333 16.029 1.2762 15.3794 1.11368L14.3345 0.851398C14.0802 0.787223 13.8106 0.868836 13.6334 1.06624L7.9598 7.39439M14.2612 1.86403L14.3776 1.73418M14.2612 1.86403L14.091 1.82131C14.197 1.84755 14.3074 1.81244 14.3776 1.73418M14.2612 1.86403L8.70508 8.06114L7.9598 7.39439M14.3776 1.73418L14.378 1.73379L14.1617 1.53985L14.1609 1.53916L13.6335 1.06627L14.1608 1.53956L14.1616 1.54025L14.3776 1.73418ZM7.9598 7.39439C7.37132 8.05217 7.04755 8.90039 7.04755 9.78348V17.2584C7.04755 19.2276 8.64347 20.8298 10.6049 20.8298L7.9598 7.39439Z" stroke="#0275b0" stroke-width="2" stroke-linecap="round" stroke-linejoin="round"/>
</svg>
