<svg width="16" height="26" viewBox="0 3 16 26" fill="none" xmlns="http://www.w3.org/2000/svg">
<path fill-rule="evenodd" clip-rule="evenodd" d="M6.49264 6.22901C3.68575 7.04751 1.8348 9.32918 1.61983 12.2356C1.48456 14.0646 2.12181 15.7704 3.51459 17.3073C3.91975 17.7544 4.36796 18.3488 4.51051 18.6281C4.86522 19.3235 5.15146 20.4783 5.15146 21.2142V22.942C5.15146 24.0466 6.04689 24.942 7.15146 24.942H8.19874H9.27957C10.371 24.942 11.2608 24.0671 11.2793 22.9759L11.316 20.8043C11.4061 19.4907 11.8628 18.499 12.9309 17.2984C14.9816 14.9933 15.4001 12.3803 14.1428 9.73063C13.6317 8.65361 12.4503 7.38281 11.4727 6.85873C9.94649 6.04048 7.98837 5.79294 6.49264 6.22901Z" stroke="#2962FF" stroke-width="1.5"/>
<line x1="5.21802" y1="20.8593" x2="11.2363" y2="20.8593" stroke="#2962FF" stroke-width="1.5"/>
<line x1="1.98399" y1="3.39053" x2="2.99911" y2="4.62228" stroke="#2962FF" stroke-width="1.5" stroke-linecap="round"/>
<line x1="0.75" y1="-0.75" x2="2.34615" y2="-0.75" transform="matrix(-0.635983 0.771703 0.771703 0.635983 15.5325 3.2879)" stroke="#2962FF" stroke-width="1.5" stroke-linecap="round"/>
<line x1="0.75" y1="-0.75" x2="2.34615" y2="-0.75" transform="matrix(-4.37114e-08 1 1 4.37114e-08 8.7019 0.928497)" stroke="#2962FF" stroke-width="1.5" stroke-linecap="round"/>
</svg>
