<svg width="75" height="75" viewBox="0 0 75 75" fill="none" xmlns="http://www.w3.org/2000/svg">
<rect opacity="0.2" x="-0.000732422" y="0.496338" width="74.3721" height="74.3723" rx="37.186" fill="#0275B0"/>
<path fill-rule="evenodd" clip-rule="evenodd" d="M42.7546 23.2739C40.3113 23.7396 38.5174 25.1173 37.6578 27.1883C37.3302 27.9774 37.1804 28.7946 37.1804 29.7922C37.1804 31.2471 37.5196 32.4089 38.2732 33.5357C40.6258 37.0531 46.5092 37.4192 49.4892 34.2335C50.6005 33.0456 51.1524 31.5719 51.1524 29.7922C51.1524 27.9803 50.601 26.5309 49.4458 25.3064C48.5874 24.3964 47.395 23.7118 46.1114 23.392C45.2743 23.1834 43.5481 23.1227 42.7546 23.2739ZM23.8675 30.1197L23.8873 36.5351L29.8962 36.5115C34.4444 36.4936 35.9195 36.4655 35.9637 36.3959C36.0328 36.2871 36.0458 32.8657 35.9777 32.6883C35.936 32.5794 35.5176 32.5664 32.0476 32.5664H28.1642V28.1354V23.7043H26.006H23.8479L23.8675 30.1197ZM44.4907 27.0216C45.8262 27.2384 46.7631 28.2792 46.8677 29.6624C46.9658 30.9588 46.3571 32.0951 45.2816 32.6233C44.888 32.8166 44.7701 32.8361 44.0004 32.8361C43.1826 32.8361 43.1358 32.8269 42.6697 32.5742C42.0918 32.2608 41.7042 31.8519 41.4293 31.2656C41.2468 30.8764 41.2262 30.7428 41.2262 29.9463C41.2262 29.1477 41.2465 29.0169 41.4312 28.6228C41.8961 27.631 42.7115 27.0839 43.9234 26.9505C43.9657 26.9459 44.221 26.9779 44.4907 27.0216ZM29.2953 38.9615C27.239 39.1893 25.3061 40.2469 24.3159 41.6863C23.9639 42.1978 23.5064 43.212 23.3394 43.851C23.1408 44.6108 23.1408 46.4819 23.3394 47.2417C23.631 48.3571 24.3597 49.6401 25.0939 50.3306C26.5343 51.6852 28.5562 52.3448 30.6339 52.1378C33.5061 51.8518 35.4478 50.3386 36.3235 47.7041C36.5807 46.9304 36.7951 45.638 36.7951 44.8622V44.3519H33.3273H29.8596V46.0087V47.6655H31.2081C31.9499 47.6655 32.5567 47.6944 32.5567 47.7297C32.5567 47.765 32.4187 47.9048 32.2499 48.0404C31.2276 48.862 29.8999 49.0119 28.733 48.4374C28.1468 48.1488 27.6849 47.6568 27.3702 46.9859C27.1642 46.5468 27.1242 46.3621 27.0985 45.7303C27.0633 44.8673 27.1769 44.3816 27.5641 43.739C28.0967 42.8554 29.0429 42.334 30.1293 42.3254C31.0734 42.3178 31.7909 42.7001 32.3336 43.4996C32.4775 43.7117 32.6126 43.8775 32.6338 43.8681C33.0636 43.6771 35.7933 42.2539 35.7933 42.2208C35.7933 42.018 35.1884 41.1916 34.6439 40.6508C33.7561 39.769 32.8023 39.2728 31.5549 39.0438C30.8943 38.9226 29.9558 38.8883 29.2953 38.9615ZM43.2435 38.9646C41.1048 39.1905 39.1854 40.3262 38.1589 41.9731C37.4877 43.05 37.1804 44.1698 37.1804 45.5389C37.1804 47.2136 37.593 48.4409 38.5926 49.7407C39.2741 50.6268 40.7338 51.544 42.0259 51.8979C44.819 52.6631 48.0173 51.7952 49.6544 49.828C50.7813 48.4739 51.3429 46.5985 51.1384 44.8725C51.02 43.8725 50.8681 43.3404 50.473 42.5409C49.8312 41.2423 48.9578 40.38 47.6223 39.7263C46.7105 39.28 45.9637 39.0647 44.9637 38.9599C44.1488 38.8745 44.0959 38.8746 43.2435 38.9646ZM45.2104 42.9829C45.9978 43.3433 46.5506 44.0049 46.7708 44.8505C47.1631 46.3567 46.5207 47.8167 45.1984 48.4243C44.8444 48.5869 44.652 48.6213 44.0775 48.6247C43.0808 48.6306 42.673 48.4718 42.0289 47.8268C41.3926 47.1898 41.1877 46.6675 41.1877 45.6836C41.1877 44.3166 41.8967 43.2754 43.0989 42.8772C43.7114 42.6744 44.6378 42.7207 45.2104 42.9829Z" fill="#0275B0"/>
</svg>
