<svg width="57" height="59" viewBox="0 0 57 59" fill="none" xmlns="http://www.w3.org/2000/svg">
<path fill-rule="evenodd" clip-rule="evenodd" d="M39.8286 0.255958C34.9031 1.19472 31.2868 3.97201 29.5539 8.14681C28.8937 9.73756 28.5917 11.3849 28.5917 13.396C28.5917 16.3289 29.2754 18.6709 30.7945 20.9424C35.5371 28.0331 47.3974 28.771 53.4047 22.3491C55.6448 19.9544 56.7573 16.9836 56.7573 13.396C56.7573 9.74346 55.6458 6.8217 53.3172 4.35323C51.5866 2.51874 49.1829 1.13864 46.5953 0.493952C44.9078 0.0734276 41.4282 -0.0488324 39.8286 0.255958ZM1.7546 14.0562L1.79437 26.9888L13.9077 26.9411C23.0761 26.9051 26.0498 26.8484 26.1389 26.7081C26.2783 26.4889 26.3044 19.5918 26.1672 19.2342C26.083 19.0146 25.2396 18.9885 18.2445 18.9885H10.4161V10.056V1.12357H6.06548H1.71499L1.7546 14.0562ZM43.3282 7.81079C46.0204 8.24778 47.9091 10.3459 48.1199 13.1342C48.3177 15.7478 47.0906 18.0384 44.9226 19.1031C44.1292 19.4927 43.8915 19.5322 42.3399 19.5322C40.6912 19.5322 40.5969 19.5135 39.6574 19.0042C38.4923 18.3724 37.711 17.5481 37.1568 16.3662C36.7889 15.5816 36.7474 15.3122 36.7474 13.7067C36.7474 12.0968 36.7883 11.833 37.1606 11.0386C38.0979 9.03927 39.7416 7.93647 42.1846 7.66756C42.27 7.65824 42.7847 7.72271 43.3282 7.81079ZM12.6963 31.8802C8.55103 32.3394 4.65462 34.4714 2.65842 37.373C1.94895 38.4042 1.02665 40.4485 0.690012 41.7366C0.289527 43.2684 0.289527 47.0402 0.690012 48.5719C1.27769 50.8204 2.7468 53.4068 4.22679 54.7987C7.13054 57.5295 11.2064 58.8591 15.3947 58.4419C21.1846 57.8652 25.0989 54.8148 26.8643 49.504C27.3827 47.9445 27.815 45.3392 27.815 43.7751V42.7464H20.8244H13.8338V46.0864V49.4263H16.5523C18.0475 49.4263 19.2709 49.4846 19.2709 49.5557C19.2709 49.6269 18.9927 49.9087 18.6525 50.1819C16.5916 51.8382 13.915 52.1404 11.5627 50.9823C10.381 50.4005 9.44987 49.4088 8.81543 48.0562C8.40035 47.1712 8.31972 46.7988 8.26783 45.5251C8.19684 43.7854 8.42582 42.8064 9.20644 41.5109C10.28 39.7297 12.1874 38.6786 14.3775 38.6612C16.2808 38.646 17.7271 39.4165 18.821 41.0284C19.1112 41.4559 19.3835 41.7901 19.4262 41.7711C20.2928 41.3862 25.7955 38.5172 25.7955 38.4504C25.7955 38.0416 24.576 36.3758 23.4783 35.2856C21.6887 33.5079 19.766 32.5076 17.2514 32.046C15.9198 31.8016 14.0278 31.7326 12.6963 31.8802ZM40.8141 31.8864C36.5028 32.3417 32.6334 34.6312 30.5642 37.9512C29.2111 40.122 28.5917 42.3793 28.5917 45.1394C28.5917 48.5152 29.4233 50.9894 31.4384 53.6097C32.8122 55.3958 35.7548 57.2448 38.3595 57.9583C43.99 59.5007 50.4374 57.7512 53.7376 53.7855C56.0092 51.0559 57.1414 47.2754 56.7292 43.7959C56.4905 41.78 56.1843 40.7075 55.3878 39.0958C54.0941 36.478 52.3334 34.7397 49.6412 33.4219C47.8032 32.5221 46.2977 32.0881 44.2817 31.8768C42.6391 31.7047 42.5324 31.705 40.8141 31.8864ZM44.779 39.9867C46.3663 40.7132 47.4807 42.047 47.9246 43.7515C48.7155 46.7879 47.4205 49.7311 44.7549 50.9559C44.0413 51.2837 43.6534 51.3531 42.4953 51.3599C40.4862 51.3717 39.6641 51.0516 38.3655 49.7515C37.083 48.4674 36.6698 47.4144 36.6698 45.431C36.6698 42.6753 38.0991 40.5764 40.5225 39.7737C41.7574 39.3648 43.6248 39.4582 44.779 39.9867Z" fill="#2962FF"/>
</svg>
