<svg width="33" height="32" viewBox="0 0 33 32" fill="none" xmlns="http://www.w3.org/2000/svg">
<path d="M8.28232 23.9902L10.4299 29.1962C10.5618 29.5159 10.9272 29.6679 11.2469 29.536L13.5607 28.5815C13.8804 28.4496 14.0324 28.0842 13.9005 27.7645L11.7737 22.6089C11.5708 22.656 11.3708 22.7162 11.1745 22.7971L8.28232 23.9902Z" fill="#9597AE"/>
<path d="M21.018 12.0918L22.3618 15.3493C22.9348 14.8326 23.1575 13.9965 22.8468 13.2433C22.5361 12.4902 21.7887 12.0542 21.018 12.0918V12.0918Z" fill="#9597AE"/>
<path d="M7.18812 23.0874L10.1189 21.8784L7.7327 16.094L4.80195 17.303C3.20727 17.9608 2.44501 19.7936 3.10285 21.3883C3.76069 22.983 5.59345 23.7452 7.18812 23.0874Z" fill="#9597AE"/>
<path d="M23.3965 21.1382L17.6696 7.25569C17.5378 6.93597 17.1723 6.78398 16.8526 6.91587C14.64 7.82863 13.4152 9.77618 12.2682 11.6441C11.2949 13.2289 10.3656 14.7303 8.87243 15.5743L11.2928 21.4416C12.9468 20.9875 14.6644 21.3968 16.472 21.8345C18.6024 22.3504 20.844 22.868 23.0567 21.9552C23.3764 21.8234 23.5284 21.4579 23.3965 21.1382Z" fill="#9597AE"/>
<circle cx="23.015" cy="9.015" r="9.015" fill="white"/>
<path d="M29.3082 6.86598L28.2229 6.72802C28.1335 6.45267 28.0232 6.18714 27.8945 5.93489L28.5647 5.07191C28.836 4.72268 28.8042 4.22971 28.4943 3.92954L27.5851 3.02039C27.282 2.70752 26.789 2.67635 26.4392 2.94708L25.5773 3.61726C25.3251 3.48853 25.0595 3.37828 24.7836 3.2888L24.6456 2.20532C24.5937 1.77066 24.2248 1.44336 23.7878 1.44336H22.4947C22.0577 1.44336 21.6888 1.77066 21.6369 2.20359L21.4989 3.2888C21.223 3.37828 20.9575 3.48795 20.7052 3.61726L19.8428 2.94708C19.4941 2.67635 19.0011 2.70752 18.7003 3.0175L17.7911 3.92608C17.4783 4.22971 17.4465 4.72268 17.7178 5.07249L18.388 5.93489C18.2587 6.18714 18.149 6.45267 18.0596 6.72802L16.976 6.86598C16.5414 6.91793 16.2141 7.28679 16.2141 7.72376V9.01679C16.2141 9.45376 16.5414 9.82262 16.9743 9.87457L18.0596 10.0125C18.149 10.2879 18.2593 10.5534 18.388 10.8057L17.7178 11.6686C17.4465 12.0179 17.4783 12.5108 17.7883 12.811L18.6975 13.7202C19.0011 14.0324 19.4935 14.0636 19.8433 13.7929L20.7058 13.1227C20.958 13.252 21.2236 13.3623 21.4989 13.4512L21.6369 14.5341C21.6888 14.9699 22.0577 15.2972 22.4947 15.2972H23.7878C24.2248 15.2972 24.5937 14.9699 24.6456 14.537L24.7836 13.4517C25.0589 13.3623 25.3245 13.252 25.5767 13.1233L26.4398 13.7935C26.789 14.0648 27.282 14.033 27.5822 13.723L28.4914 12.8139C28.8042 12.5103 28.836 12.0179 28.5647 11.6681L27.8945 10.8057C28.0238 10.5534 28.134 10.2879 28.2229 10.0125L29.3059 9.87457C29.7406 9.82262 30.0679 9.45376 30.0679 9.01679V7.72376C30.0685 7.28679 29.7411 6.91793 29.3082 6.86598V6.86598ZM23.1413 11.2565C21.5497 11.2565 20.2549 9.96173 20.2549 8.37027C20.2549 6.77882 21.5497 5.48406 23.1413 5.48406C24.7328 5.48406 26.0276 6.77882 26.0276 8.37027C26.0276 9.96173 24.7328 11.2565 23.1413 11.2565Z" fill="#9597AE"/>
</svg>
