<svg width="25" height="25" viewBox="0 0 25 25" fill="none" xmlns="http://www.w3.org/2000/svg">
<path fill-rule="evenodd" clip-rule="evenodd" d="M17.5738 3.33752C18.9148 3.33752 20.2048 3.86752 21.1538 4.81852C22.1038 5.76752 22.6348 7.04752 22.6348 8.38752V16.2875C22.6348 19.0775 20.3648 21.3375 17.5738 21.3375H7.69477C4.90377 21.3375 2.63477 19.0775 2.63477 16.2875V8.38752C2.63477 5.59752 4.89377 3.33752 7.69477 3.33752H17.5738ZM19.1648 9.87752L19.2448 9.79752C19.4838 9.50752 19.4838 9.08752 19.2338 8.79752C19.0948 8.64852 18.9038 8.55752 18.7048 8.53752C18.4948 8.52652 18.2948 8.59752 18.1438 8.73752L13.6348 12.3375C13.0548 12.8185 12.2238 12.8185 11.6348 12.3375L7.13477 8.73752C6.82377 8.50752 6.39377 8.53752 6.13477 8.80752C5.86477 9.07752 5.83477 9.50752 6.06377 9.80752L6.19477 9.93752L10.7448 13.4875C11.3048 13.9275 11.9838 14.1675 12.6948 14.1675C13.4038 14.1675 14.0948 13.9275 14.6538 13.4875L19.1648 9.87752Z" fill="#9597AE"/>
</svg>
