<svg width="25" height="25" viewBox="0 0 25 25" fill="none" xmlns="http://www.w3.org/2000/svg">
<path fill-rule="evenodd" clip-rule="evenodd" d="M18.7627 9.06891C18.7627 10.3248 19.0947 11.0651 19.8252 11.9182C20.3788 12.5466 20.5557 13.3534 20.5557 14.2286C20.5557 15.1028 20.2684 15.9327 19.693 16.6065C18.9396 17.4143 17.8772 17.9299 16.7929 18.0196C15.2216 18.1535 13.6493 18.2663 12.0562 18.2663C10.462 18.2663 8.89071 18.1988 7.31942 18.0196C6.23412 17.9299 5.17168 17.4143 4.41933 16.6065C3.84388 15.9327 3.55566 15.1028 3.55566 14.2286C3.55566 13.3534 3.73357 12.5466 4.28615 11.9182C5.0395 11.0651 5.34958 10.3248 5.34958 9.06891V8.64288C5.34958 6.96092 5.76899 5.8611 6.63266 4.78445C7.91673 3.21428 9.97502 2.27258 12.0114 2.27258H12.1009C14.181 2.27258 16.3059 3.2596 17.5681 4.89725C18.3871 5.95175 18.7627 7.00524 18.7627 8.64288V9.06891ZM9.12934 20.3334C9.12934 19.8298 9.59148 19.5992 10.0188 19.5005C10.5188 19.3947 13.5649 19.3947 14.0649 19.5005C14.4922 19.5992 14.9544 19.8298 14.9544 20.3334C14.9295 20.8128 14.6483 21.2379 14.2597 21.5078C13.7558 21.9006 13.1644 22.1493 12.5462 22.239C12.2043 22.2833 11.8684 22.2843 11.5385 22.239C10.9193 22.1493 10.3279 21.9006 9.82504 21.5068C9.43545 21.2379 9.15418 20.8128 9.12934 20.3334Z" fill="#9597AE"/>
</svg>
