<svg width="25" height="25" viewBox="0 0 25 25" fill="none" xmlns="http://www.w3.org/2000/svg">
<path fill-rule="evenodd" clip-rule="evenodd" d="M18.7627 9.13385C18.7627 10.3898 19.0947 11.13 19.8252 11.9831C20.3788 12.6116 20.5557 13.4183 20.5557 14.2935C20.5557 15.1678 20.2684 15.9977 19.693 16.6715C18.9396 17.4792 17.8772 17.9949 16.7929 18.0845C15.2216 18.2185 13.6493 18.3313 12.0562 18.3313C10.462 18.3313 8.89071 18.2638 7.31942 18.0845C6.23412 17.9949 5.17168 17.4792 4.41933 16.6715C3.84388 15.9977 3.55566 15.1678 3.55566 14.2935C3.55566 13.4183 3.73357 12.6116 4.28615 11.9831C5.0395 11.13 5.34958 10.3898 5.34958 9.13385V8.70782C5.34958 7.02586 5.76899 5.92604 6.63266 4.84939C7.91673 3.27922 9.97502 2.33752 12.0114 2.33752H12.1009C14.181 2.33752 16.3059 3.32454 17.5681 4.96219C18.3871 6.01669 18.7627 7.07018 18.7627 8.70782V9.13385ZM9.12934 20.3984C9.12934 19.8948 9.59148 19.6641 10.0188 19.5654C10.5188 19.4597 13.5649 19.4597 14.0649 19.5654C14.4922 19.6641 14.9544 19.8948 14.9544 20.3984C14.9295 20.8778 14.6483 21.3028 14.2597 21.5727C13.7558 21.9655 13.1644 22.2143 12.5462 22.3039C12.2043 22.3482 11.8684 22.3492 11.5385 22.3039C10.9193 22.2143 10.3279 21.9655 9.82504 21.5717C9.43545 21.3028 9.15418 20.8778 9.12934 20.3984Z" fill="#9597AE"/>
</svg>
