<svg width="23" height="20" viewBox="0 0 23 20" fill="none" xmlns="http://www.w3.org/2000/svg">
<path d="M2.23201 7.76294L1.47384 7.00477C1.12721 6.67197 0.921398 6.21891 0.8988 5.73891C0.876204 5.25891 1.03854 4.78852 1.35237 4.42463C1.59886 4.14736 1.92435 3.95225 2.28506 3.86554L2.13159 3.71206C1.78393 3.37966 1.57742 2.9263 1.55481 2.44584C1.5322 1.96538 1.69522 1.49462 2.01012 1.13104C2.17598 0.94478 2.37832 0.794571 2.60461 0.689723C2.83089 0.584876 3.07631 0.527627 3.32563 0.521524C3.57528 0.516641 3.82342 0.561463 4.05558 0.653381C4.28775 0.7453 4.49932 0.882479 4.67797 1.05693L4.7626 1.14157C5.08685 0.833371 5.51343 0.65568 5.96059 0.64255C6.20951 0.637899 6.45686 0.68302 6.6881 0.775263C6.91935 0.867506 7.12984 1.00501 7.30723 1.17972L8.18028 2.05277C8.27648 1.65183 8.50467 1.29488 8.8282 1.03927C9.15173 0.783662 9.55179 0.644246 9.96411 0.643428H9.96674C10.2071 0.643208 10.4451 0.690559 10.667 0.782753C10.8889 0.874946 11.0904 1.01016 11.2599 1.18059L14.5925 4.51321C14.6549 3.97342 14.9077 3.47356 15.3055 3.10342C15.5662 2.86796 15.9077 2.74203 16.2588 2.75183C16.61 2.76163 16.9439 2.9064 17.1911 3.15604L20.3483 6.31326C21.7375 7.66164 22.5531 9.49391 22.6252 11.4285C22.6973 13.3632 22.0204 15.2511 20.7355 16.6992C19.853 17.681 18.7227 18.4073 17.463 18.802C16.2032 19.1967 14.8605 19.2453 13.5756 18.9425C13.2429 18.9878 12.9076 19.0109 12.5719 19.0118C11.6011 19.0124 10.6399 18.8205 9.74378 18.4472C8.84765 18.074 8.03441 17.5268 7.35108 16.8373L1.41815 10.9088C1.07239 10.5746 0.867386 10.1209 0.845051 9.64056C0.822718 9.16022 0.984747 8.68949 1.298 8.32466C1.54449 8.04622 1.87051 7.85015 2.23201 7.76294ZM2.00442 5.01047C1.84353 5.20858 1.76321 5.46005 1.77947 5.71475C1.79572 5.96945 1.90736 6.20867 2.09212 6.38473L3.9597 8.25231L4.03776 8.33036C4.05047 8.31809 4.06451 8.30844 4.07722 8.29704C4.10836 8.26941 4.13993 8.24266 4.17238 8.21767C4.20483 8.19268 4.24955 8.16154 4.28946 8.13523C4.32103 8.11462 4.3526 8.09138 4.38549 8.07428C4.43285 8.04753 4.48196 8.02473 4.53107 8.00237C4.55957 7.98921 4.58676 7.97474 4.6157 7.96334C4.69536 7.93129 4.7773 7.9052 4.86082 7.88529L4.25482 7.27884L4.10266 7.12755C4.02525 7.04849 3.95456 6.96313 3.8913 6.87234C3.86455 6.83507 3.84219 6.79605 3.81851 6.75746C3.78957 6.70922 3.76194 6.66099 3.73694 6.611C3.71195 6.56101 3.68257 6.49786 3.65977 6.43954C3.65188 6.41806 3.64574 6.39569 3.63828 6.37552C3.55388 6.13444 3.51883 5.87884 3.53523 5.62393V5.61998C3.54113 5.53717 3.55255 5.45484 3.56944 5.37355C3.57294 5.35601 3.57777 5.33847 3.58171 5.32093C3.5918 5.27708 3.59882 5.23323 3.61197 5.1942L3.39272 4.97495L3.38571 4.96793C3.29491 4.87686 3.18636 4.80541 3.0668 4.75804C2.94724 4.71067 2.81922 4.68838 2.69068 4.69255C2.5606 4.69564 2.43255 4.72546 2.31449 4.78015C2.19643 4.83484 2.09089 4.91324 2.00442 5.01047ZM4.05793 1.67785C3.96486 1.58571 3.85409 1.51337 3.7323 1.46522C3.61051 1.41706 3.48023 1.39407 3.34931 1.39765C3.2188 1.40114 3.09039 1.4314 2.97204 1.48653C2.8537 1.54167 2.74793 1.62052 2.6613 1.7182C2.50021 1.91624 2.41999 2.16789 2.43674 2.42263C2.4535 2.67737 2.56599 2.91634 2.75163 3.09158L4.00706 4.34658L4.01583 4.35578L4.09345 4.43384C4.10441 4.42375 4.11625 4.41542 4.12677 4.40577C4.16185 4.37464 4.19693 4.34438 4.23377 4.31807C4.2706 4.29176 4.30261 4.26852 4.33769 4.24528C4.37277 4.22204 4.40829 4.19748 4.44556 4.17644C4.48284 4.15539 4.53326 4.13259 4.57711 4.11242C4.61044 4.09663 4.64289 4.07953 4.67709 4.06593C4.75393 4.03548 4.83275 4.01028 4.91301 3.99051H4.91783L4.76392 3.83704C4.68163 3.75314 4.60708 3.662 4.54116 3.56473C4.52976 3.5485 4.51967 3.53228 4.50915 3.51561C4.45852 3.43826 4.41353 3.35737 4.37453 3.27356C4.36356 3.25032 4.35172 3.22971 4.34164 3.20472C4.30112 3.109 4.26842 3.01016 4.24385 2.90917C4.23596 2.87716 4.23245 2.84471 4.22631 2.8127C4.2132 2.74453 4.20354 2.67574 4.19737 2.6066C4.19386 2.56275 4.19211 2.5189 4.19167 2.47198C4.19167 2.41147 4.19474 2.35139 4.2 2.29088C4.20395 2.24703 4.2057 2.20318 4.21228 2.16284C4.22642 2.07208 4.24738 1.98252 4.27499 1.89491L4.05793 1.67785ZM18.1685 17.5648C18.892 17.2016 19.5422 16.7078 20.086 16.1081C21.2188 14.8264 21.8136 13.1574 21.7467 11.4482C21.6798 9.73909 20.9563 8.1216 19.7269 6.93242L16.5697 3.77521C16.4747 3.67974 16.3457 3.62581 16.211 3.62524C16.0975 3.62365 15.9877 3.66554 15.9041 3.74232C15.7645 3.873 15.6526 4.03041 15.5751 4.2052C15.4976 4.37998 15.4561 4.56856 15.4529 4.75972C15.4498 4.95089 15.4851 5.14074 15.5568 5.31798C15.6285 5.49522 15.7351 5.65623 15.8703 5.79144L18.8394 8.75878C18.8813 8.79923 18.9147 8.84762 18.9377 8.90112C18.9606 8.95462 18.9727 9.01216 18.9732 9.07038C18.9737 9.1286 18.9627 9.18635 18.9406 9.24024C18.9186 9.29413 18.886 9.34309 18.8448 9.38426C18.8037 9.42543 18.7547 9.45799 18.7008 9.48004C18.6469 9.50209 18.5892 9.51318 18.5309 9.51268C18.4727 9.51217 18.4152 9.50007 18.3617 9.47709C18.3082 9.45411 18.2598 9.4207 18.2193 9.37882L15.2533 6.41323L10.6407 1.80063C10.5523 1.71159 10.4471 1.64098 10.3311 1.59288C10.2152 1.54479 10.0909 1.52016 9.96543 1.52043C9.77556 1.52053 9.58999 1.5769 9.43216 1.68243C9.27433 1.78796 9.15132 1.9379 9.07867 2.11332C9.00603 2.28873 8.98701 2.48174 9.02402 2.66796C9.06104 2.85418 9.15242 3.02525 9.28662 3.15955L14.2259 8.09971C14.2678 8.14016 14.3012 8.18855 14.3242 8.24205C14.3472 8.29555 14.3593 8.35309 14.3598 8.41131C14.3603 8.46954 14.3492 8.52728 14.3271 8.58117C14.3051 8.63506 14.2725 8.68402 14.2313 8.72519C14.1902 8.76636 14.1412 8.79892 14.0873 8.82097C14.0334 8.84302 13.9757 8.85411 13.9175 8.85361C13.8592 8.8531 13.8017 8.84101 13.7482 8.81802C13.6947 8.79504 13.6463 8.76164 13.6059 8.71975L8.66614 3.77959L6.68587 1.79976C6.59362 1.70757 6.48355 1.63515 6.36237 1.58692C6.2412 1.53869 6.11147 1.51565 5.98111 1.51922C5.85074 1.52279 5.72246 1.55289 5.60411 1.60768C5.48576 1.66248 5.37982 1.74081 5.29275 1.83791C5.1714 1.97464 5.09488 2.14528 5.0735 2.32684C5.0735 2.33868 5.0735 2.35139 5.07131 2.36367C5.06684 2.40986 5.06567 2.45632 5.0678 2.50268C5.0678 2.5189 5.07087 2.53512 5.07218 2.55135C5.07641 2.59557 5.08329 2.6395 5.09279 2.6829C5.0963 2.69869 5.10025 2.71447 5.10463 2.73026C5.11746 2.77669 5.13328 2.82224 5.15199 2.86663C5.15638 2.87759 5.16076 2.88856 5.16558 2.89908C5.21959 3.01597 5.29381 3.12241 5.38483 3.21349L6.4026 4.23125L6.64202 4.47023L6.64465 4.4733V4.4755L12.2487 10.0769C12.2906 10.1174 12.324 10.1658 12.347 10.2193C12.37 10.2728 12.3821 10.3303 12.3826 10.3885C12.3831 10.4467 12.372 10.5045 12.3499 10.5584C12.3279 10.6123 12.2953 10.6612 12.2541 10.7024C12.213 10.7436 12.164 10.7761 12.1101 10.7982C12.0562 10.8202 11.9985 10.8313 11.9403 10.8308C11.882 10.8303 11.8245 10.8182 11.771 10.7952C11.7175 10.7722 11.6691 10.7388 11.6287 10.697L6.0268 5.0951C6.00882 5.07712 5.98821 5.0644 5.96936 5.04818C5.79544 4.90226 5.57674 4.82038 5.34975 4.81621C5.34055 4.81621 5.33221 4.81621 5.32344 4.81621C5.25818 4.8179 5.19325 4.82613 5.12963 4.84077C4.93809 4.8859 4.76517 4.98913 4.63456 5.13632C4.53538 5.24857 4.46681 5.38449 4.43548 5.53097C4.39796 5.7053 4.40488 5.88626 4.4556 6.05721C4.50633 6.22817 4.59923 6.38362 4.72577 6.50927L4.81347 6.59697L6.59247 8.37158C6.59642 8.37553 6.59729 8.38035 6.60124 8.3843L10.2719 12.055C10.3138 12.0954 10.3472 12.1438 10.3702 12.1973C10.3932 12.2508 10.4053 12.3084 10.4058 12.3666C10.4063 12.4248 10.3952 12.4826 10.3732 12.5365C10.3511 12.5903 10.3185 12.6393 10.2774 12.6805C10.2362 12.7216 10.1872 12.7542 10.1334 12.7763C10.0795 12.7983 10.0217 12.8094 9.9635 12.8089C9.90527 12.8084 9.84773 12.7963 9.79423 12.7733C9.74073 12.7503 9.69235 12.7169 9.6519 12.675L5.96848 8.99426C5.83337 8.8587 5.66054 8.76701 5.47254 8.73116L5.45982 8.72765C5.39559 8.71614 5.33034 8.71144 5.26512 8.71362C5.2061 8.71576 5.14739 8.72325 5.08972 8.73598L5.07131 8.73861C5.04894 8.74387 5.02746 8.75396 5.00685 8.76054C4.84142 8.8111 4.69278 8.9055 4.57668 9.03372C4.53537 9.07958 4.49907 9.12971 4.46836 9.18325C4.36584 9.38178 4.32996 9.60804 4.36605 9.82855C4.40215 10.0491 4.50829 10.2521 4.66876 10.4075L10.6021 16.3378C10.7227 16.4584 10.8473 16.5729 10.9749 16.6825C10.9985 16.7022 11.0227 16.7207 11.0463 16.7404C11.1481 16.825 11.2511 16.9066 11.3568 16.9846C11.398 17.0149 11.4405 17.0438 11.4822 17.0723C11.5725 17.1355 11.664 17.1963 11.7567 17.2548C11.8076 17.2868 11.8584 17.3175 11.9102 17.3482C11.9979 17.3986 12.0829 17.4468 12.1711 17.4937C12.229 17.5244 12.2873 17.5551 12.3465 17.5841C12.4281 17.6244 12.5109 17.6617 12.5942 17.6981C12.6605 17.7275 12.7258 17.7577 12.7942 17.7858C12.8626 17.8138 12.9363 17.8384 13.0073 17.8643C13.0898 17.8941 13.1713 17.9252 13.2546 17.952C13.2709 17.9572 13.2875 17.9612 13.3037 17.966C13.4318 18.0055 13.5611 18.0419 13.6918 18.0734C13.6958 18.0734 13.6988 18.0774 13.7032 18.0787C15.2056 18.4404 16.7875 18.2583 18.1685 17.5648ZM7.97112 16.2159C8.87864 17.1304 10.0376 17.7544 11.3007 18.0085C11.2744 17.9919 11.2507 17.9713 11.2244 17.9542C11.0832 17.8634 10.9472 17.7634 10.8113 17.6621C10.7324 17.6038 10.6508 17.5494 10.5745 17.4867C10.4109 17.3552 10.2544 17.2113 10.1005 17.0636C10.0619 17.0272 10.0194 16.9956 9.98209 16.9583L4.04916 11.0254C3.97 10.9441 3.89811 10.8561 3.83429 10.7623C3.81237 10.7312 3.79395 10.6992 3.77378 10.6671C3.73918 10.6116 3.70742 10.5544 3.67863 10.4957C3.65407 10.4457 3.63127 10.3961 3.6111 10.3448C3.59838 10.312 3.58829 10.2782 3.57733 10.2444C3.50166 10.0186 3.46923 9.78062 3.48174 9.54282C3.48174 9.52967 3.48174 9.51651 3.48174 9.50336C3.48696 9.42867 3.49707 9.3544 3.51199 9.28104C3.51769 9.25166 3.52559 9.22316 3.5326 9.19334C3.53962 9.16352 3.54707 9.12142 3.55803 9.08678L3.34185 8.87016C3.24982 8.77749 3.13983 8.70459 3.01862 8.65594C2.89741 8.60729 2.76754 8.58391 2.63698 8.58724C2.50641 8.59056 2.3779 8.62052 2.25933 8.67528C2.14075 8.73004 2.03461 8.80844 1.94742 8.90568C1.78699 9.10517 1.70726 9.35759 1.72399 9.61303C1.74071 9.86847 1.85268 10.1083 2.03775 10.2852L7.97112 16.2159Z" fill="#9597AE" stroke="#9597AE" stroke-width="0.5"/>
</svg>
