<svg width="20" height="17" viewBox="0 0 20 17" fill="none" xmlns="http://www.w3.org/2000/svg">
<path fill-rule="evenodd" clip-rule="evenodd" d="M9.19731 0.617692C8.11843 1.19734 1.33144 5.204 1.16729 5.35814C0.717432 5.78076 0.747802 6.52796 1.23371 6.99351L1.48626 7.23545V9.22304V11.3952C1.48626 11.3952 1.2175 11.4486 1.10613 11.5502C0.672134 11.9714 0.66314 12.4097 0.988637 12.9658C1.15185 13.2447 1.15295 13.2713 1.01655 13.6286C0.938332 13.8333 0.727357 14.1706 0.547769 14.3781C0.0234289 14.9839 0.000949115 15.5234 0.47736 16.0659C0.972095 16.6295 1.74618 16.673 2.23854 16.165C2.71664 15.6717 2.89021 14.6118 2.66498 13.5615C2.5855 13.191 2.59372 13.0743 2.71894 12.7967C2.93067 12.3273 2.60275 11.6518 2.46478 11.5502C2.44283 11.5213 2.1649 11.3952 2.1649 11.3952V9.33247C2.1649 7.56298 2.17805 7.38636 2.31336 7.33258C2.39505 7.30017 3.39707 6.95033 4.54017 6.55519C8.50314 5.18525 8.33017 5.25303 8.43061 5.03247C8.55404 4.76169 8.63963 4.77518 8.75611 5.08396C8.93468 5.5569 9.87901 5.81249 10.641 5.59397C11.0022 5.49039 11.3258 5.19331 11.3294 4.96214C11.332 4.78909 11.3342 4.78883 11.4566 4.95069C11.6312 5.18152 11.6158 5.70391 11.4296 5.87247C10.9629 6.29475 9.84109 6.40062 8.96394 6.10516L8.47277 5.93965L5.7659 6.87118C4.27703 7.38356 3.03027 7.83138 2.99531 7.86633C2.96028 7.90137 4.48647 8.70345 6.38686 9.64872C10.0175 11.4546 10.1349 11.4977 10.6735 11.2209C11.031 11.0371 17.956 7.00318 18.4658 6.68175C19.1081 6.27677 19.2823 5.7118 18.9598 5.07972C18.794 4.75473 18.6487 4.67397 14.4624 2.5806C11.4016 1.04999 10.0535 0.417236 9.8534 0.417236C9.69781 0.417236 9.40252 0.507412 9.19731 0.617692ZM12.9597 10.674C11.6924 11.4162 10.5293 12.065 10.3751 12.116C10.2007 12.1735 9.99897 12.1808 9.84118 12.1353C9.70172 12.095 8.43281 11.4841 7.02148 10.7778L4.45534 9.49365V10.834V12.1743L4.77346 12.4765C5.6121 13.2731 6.84122 13.995 8.01825 14.382C8.01825 14.382 8.96914 14.7202 10.185 14.7173C11.3699 14.7144 11.531 14.5179 12.2189 14.3087C13.0447 13.9958 14.0442 13.4309 14.6527 12.9007L15.3985 12.246V10.7852C15.3985 9.98185 15.3683 9.3245 15.3312 9.3245C15.2942 9.3245 14.227 9.9318 12.9597 10.674Z" fill="#9597AE"/>
</svg>
